<svg width="32" height="26" viewBox="0 0 32 26" fill="none" xmlns="http://www.w3.org/2000/svg">
    <path d="M19.2 0H12.8C6.76602 0 3.74903 0 1.87452 1.87452C0.524851 3.22418 0.146955 5.16612 0.0411463 8.4L0.00301647 10.8H31.997L31.9589 8.4C31.8531 5.16612 31.4752 3.22418 30.1255 1.87452C28.251 0 25.234 0 19.2 0Z"
          fill="url(#paint0_linear_16086_27889)"/>
    <path d="M12.8 25.6H19.2C25.234 25.6 28.251 25.6 30.1255 23.7255C32 21.851 32 18.834 32 12.8C32 12.0929 32 11.4272 31.997 10.8H0.00301647C0 12.2667 0 12.0929 0 12.8C0 18.834 0 21.851 1.87452 23.7255C3.74903 25.6 6.76602 25.6 12.8 25.6Z"
          fill="url(#paint1_linear_16086_27889)"/>
    <path fill-rule="evenodd" clip-rule="evenodd"
          d="M5 6.3999C5.82843 6.3999 6.5 7.06114 6.5 7.87683L6.5 17.723C6.5 18.5387 5.82843 19.1999 5 19.1999C4.17157 19.1999 3.5 18.5387 3.5 17.723L3.5 7.87683C3.5 7.06114 4.17157 6.3999 5 6.3999ZM16 9.35375C13.7909 9.35375 12 11.1171 12 13.2922C12 15.4674 13.7909 17.2307 16 17.2307C18.2091 17.2307 20 15.4674 20 13.2922C20 11.1171 18.2091 9.35375 16 9.35375ZM9 13.2922C9 9.48569 12.134 6.3999 16 6.3999C19.866 6.3999 23 9.48569 23 13.2922C23 17.0987 19.866 20.1845 16 20.1845C12.134 20.1845 9 17.0987 9 13.2922ZM27 6.3999C27.8284 6.3999 28.5 7.06114 28.5 7.87683L28.5 17.723C28.5 18.5387 27.8284 19.1999 27 19.1999C26.1716 19.1999 25.5 18.5387 25.5 17.723L25.5 7.87683C25.5 7.06114 26.1716 6.3999 27 6.3999Z"
          fill="white"/>
    <defs>
        <linearGradient id="paint0_linear_16086_27889" x1="9.0048" y1="5.60048" x2="14.6436" y2="32.7204"
                        gradientUnits="userSpaceOnUse">
            <stop offset="0.370557" stop-color="#00D2D3"/>
            <stop offset="1" stop-color="#489EFF"/>
        </linearGradient>
        <linearGradient id="paint1_linear_16086_27889" x1="9.0048" y1="5.60048" x2="14.6436" y2="32.7204"
                        gradientUnits="userSpaceOnUse">
            <stop offset="0.370557" stop-color="#00D2D3"/>
            <stop offset="1" stop-color="#489EFF"/>
        </linearGradient>
    </defs>
</svg>
