<svg width="32" height="32" viewBox="0 0 32 32" fill="none" xmlns="http://www.w3.org/2000/svg">
    <path fill-rule="evenodd" clip-rule="evenodd"
          d="M16 32C8.45753 32 4.68629 32 2.34315 29.6569C0 27.3137 0 23.5425 0 16C0 8.45753 0 4.68629 2.34315 2.34315C4.68629 0 8.45753 0 16 0C23.5425 0 27.3137 0 29.6569 2.34315C32 4.68629 32 8.45753 32 16C32 23.5425 32 27.3137 29.6569 29.6569C27.3137 32 23.5425 32 16 32Z"
          fill="url(#paint0_linear_16105_28130)"/>
    <path d="M26 10.6666V15.9998C26.0001 16.1317 25.9583 16.2607 25.8798 16.3705C25.8013 16.4802 25.6897 16.5657 25.5591 16.6162C25.4286 16.6667 25.2849 16.6799 25.1462 16.6541C25.0076 16.6284 24.8803 16.5648 24.7804 16.4715L22.4286 14.2757L17.2198 19.1381C17.1535 19.2 17.0747 19.2492 16.988 19.2828C16.9013 19.3163 16.8083 19.3336 16.7145 19.3336C16.6206 19.3336 16.5277 19.3163 16.4409 19.2828C16.3542 19.2492 16.2755 19.2 16.2091 19.1381L13.1431 16.2756L7.22002 21.8046C7.08599 21.9297 6.90421 22 6.71467 22C6.52513 22 6.34335 21.9297 6.20932 21.8046C6.0753 21.6795 6 21.5099 6 21.333C6 21.1561 6.0753 20.9864 6.20932 20.8613L12.6378 14.8615C12.7041 14.7995 12.7829 14.7504 12.8696 14.7168C12.9563 14.6833 13.0492 14.666 13.1431 14.666C13.237 14.666 13.3299 14.6833 13.4166 14.7168C13.5033 14.7504 13.5821 14.7995 13.6485 14.8615L16.7145 17.7239L21.4188 13.3332L19.0662 11.1383C18.9662 11.0451 18.8981 10.9262 18.8705 10.7968C18.8429 10.6675 18.857 10.5333 18.9111 10.4115C18.9652 10.2896 19.0569 10.1854 19.1744 10.1122C19.292 10.0389 19.4302 9.9999 19.5716 10H25.2857C25.4752 10 25.6568 10.0702 25.7908 10.1953C25.9247 10.3203 26 10.4898 26 10.6666Z"
          fill="white" stroke="white" stroke-width="1.5"/>
    <defs>
        <linearGradient id="paint0_linear_16105_28130" x1="9.0048" y1="7.00059" x2="17.6148" y2="40.1282"
                        gradientUnits="userSpaceOnUse">
            <stop offset="0.370557" stop-color="#00D2D3"/>
            <stop offset="1" stop-color="#489EFF"/>
        </linearGradient>
    </defs>
</svg>
