<svg width="40" height="36" viewBox="0 0 40 36" fill="none" xmlns="http://www.w3.org/2000/svg">
    <path d="M40 33.8462C40 34.2542 39.8379 34.6455 39.5494 34.934C39.2609 35.2225 38.8696 35.3846 38.4615 35.3846H1.53846C1.13044 35.3846 0.739122 35.2225 0.450605 34.934C0.162087 34.6455 0 34.2542 0 33.8462C0 33.4381 0.162087 33.0468 0.450605 32.7583C0.739122 32.4698 1.13044 32.3077 1.53846 32.3077H3.07692V20C3.07692 19.592 3.23901 19.2007 3.52753 18.9121C3.81605 18.6236 4.20736 18.4615 4.61538 18.4615H9.23077C9.63879 18.4615 10.0301 18.6236 10.3186 18.9121C10.6071 19.2007 10.7692 19.592 10.7692 20V32.3077H13.8462V10.7692C13.8462 10.3612 14.0082 9.96989 14.2968 9.68137C14.5853 9.39286 14.9766 9.23077 15.3846 9.23077H21.5385C21.9465 9.23077 22.3378 9.39286 22.6263 9.68137C22.9148 9.96989 23.0769 10.3612 23.0769 10.7692V32.3077H26.1538V1.53846C26.1538 1.13044 26.3159 0.739123 26.6045 0.450605C26.893 0.162088 27.2843 0 27.6923 0H35.3846C35.7926 0 36.184 0.162088 36.4725 0.450605C36.761 0.739123 36.9231 1.13044 36.9231 1.53846V32.3077H38.4615C38.8696 32.3077 39.2609 32.4698 39.5494 32.7583C39.8379 33.0468 40 33.4381 40 33.8462Z"
          fill="#AFB7DC"/>
</svg>
