<svg width="42" height="36" viewBox="0 0 42 36" fill="none" xmlns="http://www.w3.org/2000/svg">
    <path d="M42 34.3009C42 34.6722 41.8525 35.0283 41.59 35.2908C41.3274 35.5534 40.9713 35.7009 40.6 35.7009H1.4C1.0287 35.7009 0.672601 35.5534 0.41005 35.2908C0.1475 35.0283 0 34.6722 0 34.3009C0 33.9296 0.1475 33.5735 0.41005 33.3109C0.672601 33.0484 1.0287 32.9009 1.4 32.9009H40.6C40.9713 32.9009 41.3274 33.0484 41.59 33.3109C41.8525 33.5735 42 33.9296 42 34.3009ZM1.4525 12.9824C1.36923 12.6888 1.38418 12.376 1.49506 12.0917C1.60595 11.8074 1.8067 11.5671 2.06675 11.4074L20.2667 0.207379C20.4873 0.0717858 20.7411 0 21 0C21.2589 0 21.5127 0.0717858 21.7332 0.207379L39.9333 11.4074C40.1934 11.5669 40.3943 11.807 40.5054 12.0912C40.6165 12.3754 40.6316 12.6881 40.5486 12.9818C40.4656 13.2754 40.2889 13.5339 40.0455 13.7178C39.802 13.9018 39.5051 14.0012 39.2 14.0009H36.05V28.875H37.8C38.1713 28.875 38.5274 29.0225 38.7899 29.2851C39.0525 29.5476 39.2 29.9037 39.2 30.275C39.2 30.6463 39.0525 31.0024 38.7899 31.265C38.5274 31.5275 38.1713 31.675 37.8 31.675H4.2C3.8287 31.675 3.4726 31.5275 3.21005 31.265C2.9475 31.0024 2.8 30.6463 2.8 30.275C2.8 29.9037 2.9475 29.5476 3.21005 29.2851C3.4726 29.0225 3.8287 28.875 4.2 28.875H5.95V14.0009H2.8C2.49513 14.001 2.19856 13.9016 1.95535 13.7177C1.71213 13.5339 1.53558 13.2757 1.4525 12.9824ZM23.8 25.375C23.8 25.7463 23.9475 26.1024 24.21 26.365C24.4726 26.6275 24.8287 26.775 25.2 26.775C25.5713 26.775 25.9274 26.6275 26.1899 26.365C26.4525 26.1024 26.6 25.7463 26.6 25.375V16.4509C26.6 16.0796 26.4525 15.7235 26.1899 15.4609C25.9274 15.1984 25.5713 15.0509 25.2 15.0509C24.8287 15.0509 24.4726 15.1984 24.21 15.4609C23.9475 15.7235 23.8 16.0796 23.8 16.4509V25.375ZM15.4 25.375C15.4 25.7463 15.5475 26.1024 15.8101 26.365C16.0726 26.6275 16.4287 26.775 16.8 26.775C17.1713 26.775 17.5274 26.6275 17.7899 26.365C18.0525 26.1024 18.2 25.7463 18.2 25.375V16.4509C18.2 16.0796 18.0525 15.7235 17.7899 15.4609C17.5274 15.1984 17.1713 15.0509 16.8 15.0509C16.4287 15.0509 16.0726 15.1984 15.8101 15.4609C15.5475 15.7235 15.4 16.0796 15.4 16.4509V25.375Z"
          fill="#AFB7DC"/>
</svg>
