<svg width="56" height="56" viewBox="0 0 56 56" fill="none" xmlns="http://www.w3.org/2000/svg">
    <path d="M43 36.8462C43 37.2542 42.8379 37.6455 42.5494 37.934C42.2609 38.2225 41.8696 38.3846 41.4615 38.3846H4.53846C4.13044 38.3846 3.73912 38.2225 3.4506 37.934C3.16209 37.6455 3 37.2542 3 36.8462C3 36.4381 3.16209 36.0468 3.4506 35.7583C3.73912 35.4698 4.13044 35.3077 4.53846 35.3077H6.07692V23C6.07692 22.592 6.23901 22.2007 6.52753 21.9121C6.81605 21.6236 7.20736 21.4615 7.61538 21.4615H12.2308C12.6388 21.4615 13.0301 21.6236 13.3186 21.9121C13.6071 22.2007 13.7692 22.592 13.7692 23V35.3077H16.8462V13.7692C16.8462 13.3612 17.0082 12.9699 17.2968 12.6814C17.5853 12.3929 17.9766 12.2308 18.3846 12.2308H24.5385C24.9465 12.2308 25.3378 12.3929 25.6263 12.6814C25.9148 12.9699 26.0769 13.3612 26.0769 13.7692V35.3077H29.1538V4.53846C29.1538 4.13044 29.3159 3.73912 29.6045 3.45061C29.893 3.16209 30.2843 3 30.6923 3H38.3846C38.7926 3 39.184 3.16209 39.4725 3.45061C39.761 3.73912 39.9231 4.13044 39.9231 4.53846V35.3077H41.4615C41.8696 35.3077 42.2609 35.4698 42.5494 35.7583C42.8379 36.0468 43 36.4381 43 36.8462Z"
          fill="#AFB7DC"/>
    <path fill-rule="evenodd" clip-rule="evenodd"
          d="M37 53C29.4575 53 25.6863 53 23.3431 50.6569C21 48.3137 21 44.5425 21 37C21 29.4575 21 25.6863 23.3431 23.3431C25.6863 21 29.4575 21 37 21C44.5425 21 48.3137 21 50.6569 23.3431C53 25.6863 53 29.4575 53 37C53 44.5425 53 48.3137 50.6569 50.6569C48.3137 53 44.5425 53 37 53Z"
          fill="url(#paint0_linear_17332_13481)"/>
    <path d="M47 31.6666V36.9998C47.0001 37.1317 46.9583 37.2607 46.8798 37.3705C46.8013 37.4802 46.6897 37.5657 46.5591 37.6162C46.4286 37.6667 46.2849 37.6799 46.1462 37.6541C46.0076 37.6284 45.8803 37.5648 45.7804 37.4715L43.4286 35.2757L38.2198 40.1381C38.1535 40.2 38.0747 40.2492 37.988 40.2828C37.9013 40.3163 37.8083 40.3336 37.7145 40.3336C37.6206 40.3336 37.5277 40.3163 37.4409 40.2828C37.3542 40.2492 37.2755 40.2 37.2091 40.1381L34.1431 37.2756L28.22 42.8046C28.086 42.9297 27.9042 43 27.7147 43C27.5251 43 27.3433 42.9297 27.2093 42.8046C27.0753 42.6795 27 42.5099 27 42.333C27 42.1561 27.0753 41.9864 27.2093 41.8613L33.6378 35.8615C33.7041 35.7995 33.7829 35.7504 33.8696 35.7168C33.9563 35.6833 34.0492 35.666 34.1431 35.666C34.237 35.666 34.3299 35.6833 34.4166 35.7168C34.5033 35.7504 34.5821 35.7995 34.6485 35.8615L37.7145 38.7239L42.4188 34.3332L40.0662 32.1383C39.9662 32.0451 39.8981 31.9262 39.8705 31.7968C39.8429 31.6675 39.857 31.5333 39.9111 31.4115C39.9652 31.2896 40.0569 31.1854 40.1744 31.1122C40.292 31.0389 40.4302 30.9999 40.5716 31H46.2857C46.4752 31 46.6568 31.0702 46.7908 31.1953C46.9247 31.3203 47 31.4898 47 31.6666Z"
          fill="white" stroke="white" stroke-width="1.5"/>
    <defs>
        <linearGradient id="paint0_linear_17332_13481" x1="30.0048" y1="28.0006" x2="38.6148" y2="61.1282"
                        gradientUnits="userSpaceOnUse">
            <stop offset="0.370557" stop-color="#00D2D3"/>
            <stop offset="1" stop-color="#489EFF"/>
        </linearGradient>
    </defs>
</svg>
