<svg width="230" height="251" viewBox="0 0 230 251" fill="none" xmlns="http://www.w3.org/2000/svg">
    <path d="M133.058 93.2831C138.763 113.283 139.64 117.503 125.316 121.95C110.992 126.397 91.8394 109.382 84.2648 85.0139C76.6903 60.6457 82.7177 38.9304 95.162 33.2011C124.551 19.6703 125.212 57.9524 133.058 93.2831Z"
          fill="url(#paint0_linear_17332_13467)"/>
    <g filter="url(#filter0_ddi_17332_13467)">
        <ellipse cx="25.9948" cy="46.205" rx="25.9948" ry="46.205"
                 transform="matrix(0.955033 -0.2965 0.296828 0.954931 77.4419 39.0156)" fill="#91A2B0"/>
    </g>
    <g filter="url(#filter1_d_17332_13467)">
        <ellipse cx="24.5897" cy="44.2247" rx="24.5897" ry="44.2247"
                 transform="matrix(0.955033 -0.2965 0.296828 0.954931 79.1202 41.2593)"
                 fill="url(#paint1_linear_17332_13467)"/>
    </g>
    <g filter="url(#filter2_ddi_17332_13467)">
        <path d="M122.673 63.0152C122.917 63.7272 122.996 64.4627 122.894 65.0599C122.792 65.657 122.516 66.0669 122.128 66.1994L118.715 67.3648C120.01 71.1618 120.431 75.0823 119.886 78.2661C119.341 81.4498 117.874 83.6368 115.806 84.3472L115.197 84.5553L127.642 95.0768C127.868 95.2632 128.083 95.5091 128.277 95.8004C128.47 96.0917 128.638 96.4225 128.77 96.7737C128.901 97.1249 128.994 97.4895 129.044 97.8464C129.093 98.2033 129.098 98.5453 129.058 98.8527C129.018 99.1601 128.933 99.4267 128.809 99.637C128.685 99.8474 128.524 99.9974 128.336 100.078C128.148 100.159 127.935 100.169 127.712 100.108C127.488 100.047 127.257 99.9158 127.033 99.7221L110.187 85.4863C109.843 85.1957 109.526 84.7694 109.277 84.2637C109.029 83.758 108.861 83.1966 108.795 82.6538C108.73 82.111 108.77 81.6122 108.91 81.2234C109.051 80.8346 109.285 80.574 109.582 80.476L113.971 78.9777C115.264 78.5361 116.183 77.1698 116.523 75.1793C116.864 73.1888 116.6 70.7371 115.789 68.3637L106.523 71.5268C106.135 71.6593 105.666 71.5035 105.22 71.0937C104.774 70.6838 104.386 70.0536 104.143 69.3415C103.899 68.6295 103.82 67.894 103.922 67.2968C104.024 66.6997 104.3 66.2898 104.688 66.1573L112.978 63.3271C112.144 62.3707 111.247 61.6697 110.357 61.2795C109.467 60.8894 108.61 60.8208 107.853 61.0793L103.464 62.5776C103.076 62.7101 102.608 62.5543 102.161 62.1445C101.715 61.7346 101.327 61.1044 101.084 60.3923C100.84 59.6803 100.761 58.9448 100.863 58.3476C100.966 57.7505 101.241 57.3406 101.629 57.2081L117.234 51.8807C117.622 51.7482 118.091 51.904 118.537 52.3138C118.984 52.7237 119.371 53.3539 119.614 54.066C119.858 54.778 119.937 55.5135 119.835 56.1107C119.733 56.7078 119.457 57.1177 119.069 57.2502L113.938 59.002C114.783 59.9246 115.582 60.9987 116.307 62.1904L120.293 60.8298C120.681 60.6974 121.15 60.8532 121.596 61.263C122.043 61.6729 122.43 62.3031 122.673 63.0152Z"
              fill="url(#paint2_linear_17332_13467)"/>
        <path d="M118.553 66.8916L118.08 67.0531L118.241 67.526C119.516 71.2629 119.921 75.0977 119.393 78.1816C118.863 81.2798 117.463 83.2486 115.645 83.8741C115.644 83.8742 115.644 83.8743 115.644 83.8744L115.035 84.0822L114.2 84.3673L114.874 84.937L127.32 95.4586L127.32 95.4586L127.324 95.4621C127.505 95.6118 127.689 95.8187 127.86 96.0769C128.031 96.3343 128.182 96.6308 128.301 96.949C128.421 97.2672 128.504 97.596 128.549 97.9149C128.593 98.2344 128.596 98.531 128.562 98.7875C128.528 99.0456 128.46 99.2441 128.378 99.3832C128.298 99.52 128.212 99.5875 128.139 99.6188C128.068 99.6493 127.973 99.6613 127.843 99.6259C127.709 99.5891 127.543 99.5018 127.36 99.3436L127.356 99.3403L110.509 85.1045L110.509 85.1045C110.23 84.8682 109.951 84.5023 109.726 84.0434C109.502 83.5866 109.35 83.0794 109.292 82.5941C109.233 82.1048 109.274 81.689 109.381 81.3934C109.487 81.0988 109.632 80.9862 109.739 80.9508L109.739 80.9509L109.744 80.9492L114.133 79.4508C115.675 78.9244 116.661 77.3394 117.016 75.2638C117.374 73.1733 117.094 70.6358 116.262 68.2021L116.1 67.729L115.627 67.8905L106.362 71.0537C106.222 71.1013 105.941 71.0769 105.558 70.7254C105.186 70.3842 104.839 69.8318 104.616 69.18C104.393 68.5282 104.33 67.8785 104.415 67.3813C104.503 66.8693 104.71 66.678 104.85 66.6305L113.14 63.8002L113.844 63.5597L113.355 62.9986C112.487 62.003 111.532 61.2491 110.558 60.8217C109.579 60.3926 108.591 60.299 107.691 60.6062L103.303 62.1045C103.163 62.1521 102.882 62.1277 102.499 61.7762C102.128 61.435 101.78 60.8826 101.557 60.2308C101.334 59.579 101.271 58.9293 101.356 58.4322C101.444 57.9201 101.651 57.7288 101.791 57.6813L117.396 52.3538C117.535 52.3062 117.816 52.3306 118.199 52.6821C118.571 53.0233 118.919 53.5757 119.141 54.2275C119.364 54.8793 119.427 55.529 119.342 56.0261C119.254 56.5382 119.047 56.7295 118.908 56.777L113.776 58.5289L113.053 58.7759L113.569 59.3397C114.39 60.2358 115.17 61.2833 115.88 62.4504L116.089 62.7933L116.469 62.6636L120.455 61.303C120.594 61.2554 120.875 61.2798 121.258 61.6313C121.63 61.9725 121.977 62.5249 122.2 63.1767C122.423 63.8285 122.486 64.4782 122.401 64.9753C122.313 65.4874 122.106 65.6787 121.966 65.7262L118.553 66.8916Z"
              stroke="#647E96" stroke-opacity="0.3"/>
    </g>
    <defs>
        <filter id="filter0_ddi_17332_13467" x="7.61511" y="0.632812" width="216.735" height="249.596"
                filterUnits="userSpaceOnUse" color-interpolation-filters="sRGB">
            <feFlood flood-opacity="0" result="BackgroundImageFix"/>
            <feColorMatrix in="SourceAlpha" type="matrix" values="0 0 0 0 0 0 0 0 0 0 0 0 0 0 0 0 0 0 127 0"
                           result="hardAlpha"/>
            <feOffset dy="8"/>
            <feGaussianBlur stdDeviation="10"/>
            <feComposite in2="hardAlpha" operator="out"/>
            <feColorMatrix type="matrix" values="0 0 0 0 0 0 0 0 0 0 0 0 0 0 0 0 0 0 0.2 0"/>
            <feBlend mode="normal" in2="BackgroundImageFix" result="effect1_dropShadow_17332_13467"/>
            <feColorMatrix in="SourceAlpha" type="matrix" values="0 0 0 0 0 0 0 0 0 0 0 0 0 0 0 0 0 0 127 0"
                           result="hardAlpha"/>
            <feMorphology radius="20" operator="erode" in="SourceAlpha" result="effect2_dropShadow_17332_13467"/>
            <feOffset dy="50"/>
            <feGaussianBlur stdDeviation="50"/>
            <feComposite in2="hardAlpha" operator="out"/>
            <feColorMatrix type="matrix" values="0 0 0 0 0.196078 0 0 0 0 0.196078 0 0 0 0 0.364706 0 0 0 0.25 0"/>
            <feBlend mode="normal" in2="effect1_dropShadow_17332_13467" result="effect2_dropShadow_17332_13467"/>
            <feBlend mode="normal" in="SourceGraphic" in2="effect2_dropShadow_17332_13467" result="shape"/>
            <feColorMatrix in="SourceAlpha" type="matrix" values="0 0 0 0 0 0 0 0 0 0 0 0 0 0 0 0 0 0 127 0"
                           result="hardAlpha"/>
            <feOffset dx="-4"/>
            <feGaussianBlur stdDeviation="2.5"/>
            <feComposite in2="hardAlpha" operator="arithmetic" k2="-1" k3="1"/>
            <feColorMatrix type="matrix" values="0 0 0 0 0.0792906 0 0 0 0 0.243589 0 0 0 0 0.407887 0 0 0 0.4 0"/>
            <feBlend mode="normal" in2="shape" result="effect3_innerShadow_17332_13467"/>
        </filter>
        <filter id="filter1_d_17332_13467" x="8.82263" y="3.33691" width="213.818" height="245.727"
                filterUnits="userSpaceOnUse" color-interpolation-filters="sRGB">
            <feFlood flood-opacity="0" result="BackgroundImageFix"/>
            <feColorMatrix in="SourceAlpha" type="matrix" values="0 0 0 0 0 0 0 0 0 0 0 0 0 0 0 0 0 0 127 0"
                           result="hardAlpha"/>
            <feMorphology radius="20" operator="erode" in="SourceAlpha" result="effect1_dropShadow_17332_13467"/>
            <feOffset dy="50"/>
            <feGaussianBlur stdDeviation="50"/>
            <feComposite in2="hardAlpha" operator="out"/>
            <feColorMatrix type="matrix" values="0 0 0 0 0.196078 0 0 0 0 0.196078 0 0 0 0 0.364706 0 0 0 0.25 0"/>
            <feBlend mode="normal" in2="BackgroundImageFix" result="effect1_dropShadow_17332_13467"/>
            <feBlend mode="normal" in="SourceGraphic" in2="effect1_dropShadow_17332_13467" result="shape"/>
        </filter>
        <filter id="filter2_ddi_17332_13467" x="0.819702" y="1.83447" width="228.265" height="248.313"
                filterUnits="userSpaceOnUse" color-interpolation-filters="sRGB">
            <feFlood flood-opacity="0" result="BackgroundImageFix"/>
            <feColorMatrix in="SourceAlpha" type="matrix" values="0 0 0 0 0 0 0 0 0 0 0 0 0 0 0 0 0 0 127 0"
                           result="hardAlpha"/>
            <feOffset/>
            <feGaussianBlur stdDeviation="5"/>
            <feComposite in2="hardAlpha" operator="out"/>
            <feColorMatrix type="matrix" values="0 0 0 0 0.407843 0 0 0 0 0.505882 0 0 0 0 0.596078 0 0 0 0.47 0"/>
            <feBlend mode="normal" in2="BackgroundImageFix" result="effect1_dropShadow_17332_13467"/>
            <feColorMatrix in="SourceAlpha" type="matrix" values="0 0 0 0 0 0 0 0 0 0 0 0 0 0 0 0 0 0 127 0"
                           result="hardAlpha"/>
            <feOffset dy="50"/>
            <feGaussianBlur stdDeviation="50"/>
            <feComposite in2="hardAlpha" operator="out"/>
            <feColorMatrix type="matrix" values="0 0 0 0 0.900962 0 0 0 0 0.954104 0 0 0 0 1 0 0 0 1 0"/>
            <feBlend mode="normal" in2="effect1_dropShadow_17332_13467" result="effect2_dropShadow_17332_13467"/>
            <feBlend mode="normal" in="SourceGraphic" in2="effect2_dropShadow_17332_13467" result="shape"/>
            <feColorMatrix in="SourceAlpha" type="matrix" values="0 0 0 0 0 0 0 0 0 0 0 0 0 0 0 0 0 0 127 0"
                           result="hardAlpha"/>
            <feOffset dy="-2"/>
            <feGaussianBlur stdDeviation="4"/>
            <feComposite in2="hardAlpha" operator="arithmetic" k2="-1" k3="1"/>
            <feColorMatrix type="matrix" values="0 0 0 0 0.71237 0 0 0 0 0.790548 0 0 0 0 0.857 0 0 0 0.3 0"/>
            <feBlend mode="normal" in2="shape" result="effect3_innerShadow_17332_13467"/>
        </filter>
        <linearGradient id="paint0_linear_17332_13467" x1="91.7888" y1="33.8705" x2="123.381" y2="122.126"
                        gradientUnits="userSpaceOnUse">
            <stop stop-color="#E9EFF7"/>
            <stop offset="0.0733458" stop-color="#C7D7E1"/>
            <stop offset="0.145946" stop-color="#E8EEF6"/>
            <stop offset="0.224625" stop-color="#C7D7E1"/>
            <stop offset="0.849716" stop-color="#C7D7E1"/>
            <stop offset="0.914773" stop-color="#E8EEF6"/>
            <stop offset="0.964808" stop-color="#C7D7E1"/>
            <stop offset="1" stop-color="#E8EEF6"/>
        </linearGradient>
        <linearGradient id="paint1_linear_17332_13467" x1="30.4444" y1="34.6537" x2="50.7125" y2="61.7894"
                        gradientUnits="userSpaceOnUse">
            <stop stop-color="#AABBC9"/>
            <stop offset="1" stop-color="#7A93A8"/>
        </linearGradient>
        <linearGradient id="paint2_linear_17332_13467" x1="109.427" y1="54.5458" x2="125.324" y2="101.109"
                        gradientUnits="userSpaceOnUse">
            <stop stop-color="#E3EFFF"/>
            <stop offset="1" stop-color="#C4D8E7"/>
        </linearGradient>
    </defs>
</svg>
