<svg width="245" height="249" viewBox="0 0 245 249" fill="none" xmlns="http://www.w3.org/2000/svg">
    <path d="M96.9183 83.6051C85.9779 101.303 84.1013 105.207 102.292 117.235C120.483 129.263 147.847 121.364 162.003 100.125C176.158 78.8859 171.68 50.3274 155.063 39.34C136.872 27.312 111.074 62.3659 96.9183 83.6051Z"
          fill="url(#paint0_linear_17332_13502)"/>
    <g filter="url(#filter0_ddi_17332_13502)">
        <ellipse cx="39.4897" cy="46.2192" rx="39.4897" ry="46.2192"
                 transform="matrix(-0.834146 -0.551544 -0.554597 0.83212 181.695 57.7344)" fill="#A5D4B6"/>
    </g>
    <g filter="url(#filter1_d_17332_13502)">
        <ellipse cx="37.355" cy="44.2382" rx="37.355" ry="44.2382"
                 transform="matrix(-0.834146 -0.551544 -0.554597 0.83212 179.044 59.1475)"
                 fill="url(#paint1_linear_17332_13502)"/>
    </g>
    <g filter="url(#filter2_ddi_17332_13502)">
        <path d="M123 93.87C123.011 94.2418 122.952 94.628 122.826 95.0063C122.701 95.3845 122.511 95.7475 122.268 96.0741C122.025 96.4008 121.734 96.6847 121.411 96.9097C121.089 97.1346 120.741 97.296 120.387 97.3846C117.073 98.2253 113.794 98.1251 110.884 97.0944C107.975 96.0637 105.539 94.1392 103.824 91.5171C102.11 88.895 101.178 85.6689 101.124 82.1675C101.07 78.6662 101.896 75.0147 103.518 71.5852L101.208 70.0332C100.666 69.6687 100.328 69.0497 100.269 68.3125C100.21 67.5752 100.435 66.78 100.894 66.1019C101.353 65.4238 102.009 64.9182 102.717 64.6965C103.425 64.4747 104.128 64.5549 104.67 64.9194L106.715 66.2938L109.023 62.8846L106.978 61.5102C106.435 61.1457 106.097 60.5267 106.038 59.7894C105.979 59.0521 106.204 58.257 106.663 57.5788C107.122 56.9007 107.778 56.3951 108.486 56.1734C109.194 55.9516 109.897 56.0318 110.439 56.3963L112.749 57.9483C115.333 55.167 118.422 53.0375 121.7 51.7768C124.978 50.5161 128.328 50.1692 131.41 50.7714C134.491 51.3736 137.194 52.9035 139.242 55.2051C141.291 57.5067 142.612 60.498 143.071 63.8741C143.169 64.5979 142.984 65.3963 142.556 66.0937C142.128 66.7912 141.492 67.3304 140.788 67.5929C140.084 67.8554 139.37 67.8196 138.803 67.4934C138.236 67.1672 137.862 66.5773 137.763 65.8535C137.448 63.5324 136.562 61.4645 135.189 59.8453C133.816 58.2261 132.002 57.1091 129.918 56.6001C127.834 56.0911 125.549 56.2069 123.279 56.9364C121.01 57.6659 118.83 58.9852 116.947 60.7693L126.803 67.3917C127.345 67.7562 127.683 68.3751 127.742 69.1124C127.801 69.8497 127.577 70.6449 127.118 71.323C126.659 72.0011 126.003 72.5067 125.295 72.7284C124.586 72.9502 123.884 72.87 123.341 72.5055L113.114 65.6334L110.806 69.0426L118.306 74.0822C118.849 74.4467 119.187 75.0657 119.246 75.8029C119.305 76.5402 119.08 77.3354 118.621 78.0135C118.162 78.6916 117.506 79.1972 116.798 79.419C116.09 79.6407 115.387 79.5605 114.845 79.196L107.716 74.4062C106.762 76.814 106.351 79.3214 106.522 81.6913C106.694 84.0612 107.442 86.2152 108.697 87.9495C109.951 89.6838 111.671 90.9412 113.692 91.6026C115.713 92.2641 117.969 92.3077 120.248 91.7295C120.958 91.5492 121.647 91.6734 122.163 92.0748C122.679 92.4762 122.98 93.1219 123 93.87Z"
              fill="url(#paint2_linear_17332_13502)"/>
        <path d="M122.499 93.8839L122.499 93.8854C122.508 94.195 122.459 94.5231 122.351 94.85C122.242 95.1768 122.078 95.4924 121.866 95.7773C121.654 96.0621 121.402 96.3077 121.125 96.5006C120.848 96.6936 120.555 96.8279 120.266 96.9005L120.264 96.9009C117.036 97.7198 113.859 97.6181 111.053 96.624C108.248 95.6305 105.899 93.7764 104.244 91.2441C102.587 88.7099 101.677 85.578 101.625 82.1593C101.572 78.7403 102.379 75.1639 103.971 71.7975L104.154 71.4102L103.798 71.1711L101.489 69.6192C101.09 69.3515 100.817 68.8809 100.768 68.2721C100.719 67.6597 100.906 66.9756 101.309 66.3808C101.711 65.786 102.278 65.3569 102.866 65.1727C103.451 64.9896 103.991 65.0658 104.39 65.3335L106.435 66.7079L106.85 66.9867L107.13 66.5727L109.438 63.1635L109.718 62.7494L109.303 62.4705L107.258 61.0961C106.86 60.8285 106.586 60.3579 106.538 59.7491C106.489 59.1366 106.676 58.4525 107.078 57.8577C107.481 57.2629 108.047 56.8339 108.636 56.6496C109.22 56.4665 109.761 56.5427 110.159 56.8104L112.469 58.3623L112.824 58.6013L113.116 58.2873C115.653 55.5572 118.679 53.4736 121.88 52.2425C125.08 51.0116 128.335 50.6793 131.313 51.2613C134.289 51.8429 136.893 53.3182 138.868 55.5367C140.843 57.7565 142.128 60.6528 142.575 63.9417C142.656 64.5381 142.504 65.2219 142.129 65.8336C141.754 66.445 141.202 66.9057 140.613 67.1254C140.026 67.3442 139.472 67.3013 139.054 67.0609C138.638 66.8217 138.34 66.3774 138.26 65.7859L138.26 65.7858C137.933 63.3809 137.012 61.2218 135.571 59.5227C134.13 57.8224 132.223 56.6491 130.037 56.1153C127.854 55.5819 125.474 55.7066 123.126 56.4613C120.779 57.2158 118.535 58.5765 116.603 60.4077L116.15 60.8361L116.667 61.1833L126.523 67.8057C126.921 68.0734 127.194 68.544 127.243 69.1527C127.292 69.7652 127.105 70.4493 126.703 71.0441C126.3 71.6389 125.733 72.068 125.145 72.2522C124.56 72.4353 124.02 72.3591 123.622 72.0914L113.394 65.2194L112.979 64.9405L112.699 65.3546L110.391 68.7638L110.111 69.1778L110.526 69.4567L118.026 74.4962C118.424 74.7639 118.698 75.2345 118.746 75.8433C118.795 76.4557 118.609 77.1399 118.206 77.7346C117.803 78.3294 117.237 78.7585 116.648 78.9427C116.064 79.1258 115.523 79.0496 115.125 78.7819L107.997 73.9921L107.48 73.6449L107.251 74.2232C106.271 76.6945 105.845 79.2768 106.023 81.7279C106.2 84.1795 106.976 86.4244 108.291 88.2418C109.606 90.0608 111.413 91.3823 113.535 92.0769C115.656 92.771 118.01 92.8124 120.371 92.2133L120.371 92.2132C120.951 92.0659 121.476 92.1741 121.854 92.4685C122.234 92.7642 122.482 93.2603 122.499 93.8839ZM121.411 96.9097C121.089 97.1346 120.741 97.296 120.387 97.3846L120.248 91.7295C120.958 91.5492 121.647 91.6734 122.163 92.0748C122.679 92.4762 122.98 93.1219 123 93.87C123.011 94.2418 122.952 94.628 122.826 95.0063C122.701 95.3845 122.511 95.7475 122.268 96.0741C122.025 96.4008 121.734 96.6847 121.411 96.9097Z"
              stroke="#E3EEE6"/>
    </g>
    <defs>
        <filter id="filter0_ddi_17332_13502" x="1.38147" y="0.20752" width="243.481" height="248.413"
                filterUnits="userSpaceOnUse" color-interpolation-filters="sRGB">
            <feFlood flood-opacity="0" result="BackgroundImageFix"/>
            <feColorMatrix in="SourceAlpha" type="matrix" values="0 0 0 0 0 0 0 0 0 0 0 0 0 0 0 0 0 0 127 0"
                           result="hardAlpha"/>
            <feOffset dy="20"/>
            <feGaussianBlur stdDeviation="11.5"/>
            <feComposite in2="hardAlpha" operator="out"/>
            <feColorMatrix type="matrix" values="0 0 0 0 0 0 0 0 0 0 0 0 0 0 0 0 0 0 0.1 0"/>
            <feBlend mode="normal" in2="BackgroundImageFix" result="effect1_dropShadow_17332_13502"/>
            <feColorMatrix in="SourceAlpha" type="matrix" values="0 0 0 0 0 0 0 0 0 0 0 0 0 0 0 0 0 0 127 0"
                           result="hardAlpha"/>
            <feMorphology radius="20" operator="erode" in="SourceAlpha" result="effect2_dropShadow_17332_13502"/>
            <feOffset dy="50"/>
            <feGaussianBlur stdDeviation="50"/>
            <feComposite in2="hardAlpha" operator="out"/>
            <feColorMatrix type="matrix" values="0 0 0 0 0.196078 0 0 0 0 0.196078 0 0 0 0 0.364706 0 0 0 0.25 0"/>
            <feBlend mode="normal" in2="effect1_dropShadow_17332_13502" result="effect2_dropShadow_17332_13502"/>
            <feBlend mode="normal" in="SourceGraphic" in2="effect2_dropShadow_17332_13502" result="shape"/>
            <feColorMatrix in="SourceAlpha" type="matrix" values="0 0 0 0 0 0 0 0 0 0 0 0 0 0 0 0 0 0 127 0"
                           result="hardAlpha"/>
            <feOffset dx="-4"/>
            <feGaussianBlur stdDeviation="2.5"/>
            <feComposite in2="hardAlpha" operator="arithmetic" k2="-1" k3="1"/>
            <feColorMatrix type="matrix" values="0 0 0 0 0.631682 0 0 0 0 0.845907 0 0 0 0 0.707291 0 0 0 1 0"/>
            <feBlend mode="normal" in2="shape" result="effect3_innerShadow_17332_13502"/>
        </filter>
        <filter id="filter1_d_17332_13502" x="3.68921" y="3.16357" width="239.322" height="244.385"
                filterUnits="userSpaceOnUse" color-interpolation-filters="sRGB">
            <feFlood flood-opacity="0" result="BackgroundImageFix"/>
            <feColorMatrix in="SourceAlpha" type="matrix" values="0 0 0 0 0 0 0 0 0 0 0 0 0 0 0 0 0 0 127 0"
                           result="hardAlpha"/>
            <feMorphology radius="20" operator="erode" in="SourceAlpha" result="effect1_dropShadow_17332_13502"/>
            <feOffset dy="50"/>
            <feGaussianBlur stdDeviation="50"/>
            <feComposite in2="hardAlpha" operator="out"/>
            <feColorMatrix type="matrix" values="0 0 0 0 0.196078 0 0 0 0 0.196078 0 0 0 0 0.364706 0 0 0 0.25 0"/>
            <feBlend mode="normal" in2="BackgroundImageFix" result="effect1_dropShadow_17332_13502"/>
            <feBlend mode="normal" in="SourceGraphic" in2="effect1_dropShadow_17332_13502" result="shape"/>
        </filter>
        <filter id="filter2_ddi_17332_13502" x="0.259644" y="0.483887" width="242.837" height="247.465"
                filterUnits="userSpaceOnUse" color-interpolation-filters="sRGB">
            <feFlood flood-opacity="0" result="BackgroundImageFix"/>
            <feColorMatrix in="SourceAlpha" type="matrix" values="0 0 0 0 0 0 0 0 0 0 0 0 0 0 0 0 0 0 127 0"
                           result="hardAlpha"/>
            <feOffset/>
            <feGaussianBlur stdDeviation="2"/>
            <feComposite in2="hardAlpha" operator="out"/>
            <feColorMatrix type="matrix" values="0 0 0 0 0.674325 0 0 0 0 0.813837 0 0 0 0 0.717923 0 0 0 0.5 0"/>
            <feBlend mode="normal" in2="BackgroundImageFix" result="effect1_dropShadow_17332_13502"/>
            <feColorMatrix in="SourceAlpha" type="matrix" values="0 0 0 0 0 0 0 0 0 0 0 0 0 0 0 0 0 0 127 0"
                           result="hardAlpha"/>
            <feOffset dy="50"/>
            <feGaussianBlur stdDeviation="50"/>
            <feComposite in2="hardAlpha" operator="out"/>
            <feColorMatrix type="matrix" values="0 0 0 0 0.900962 0 0 0 0 0.954104 0 0 0 0 1 0 0 0 1 0"/>
            <feBlend mode="normal" in2="effect1_dropShadow_17332_13502" result="effect2_dropShadow_17332_13502"/>
            <feBlend mode="normal" in="SourceGraphic" in2="effect2_dropShadow_17332_13502" result="shape"/>
            <feColorMatrix in="SourceAlpha" type="matrix" values="0 0 0 0 0 0 0 0 0 0 0 0 0 0 0 0 0 0 127 0"
                           result="hardAlpha"/>
            <feOffset dy="-2"/>
            <feGaussianBlur stdDeviation="4"/>
            <feComposite in2="hardAlpha" operator="arithmetic" k2="-1" k3="1"/>
            <feColorMatrix type="matrix" values="0 0 0 0 0.71237 0 0 0 0 0.790548 0 0 0 0 0.857 0 0 0 0.3 0"/>
            <feBlend mode="normal" in2="shape" result="effect3_innerShadow_17332_13502"/>
        </filter>
        <linearGradient id="paint0_linear_17332_13502" x1="161.591" y1="43.6565" x2="107.569" y2="120.356"
                        gradientUnits="userSpaceOnUse">
            <stop stop-color="#E8F8ED"/>
            <stop offset="0.0733458" stop-color="#B7EAC9"/>
            <stop offset="0.145946" stop-color="#E8F8ED"/>
            <stop offset="0.224625" stop-color="#B7EAC9"/>
            <stop offset="0.849716" stop-color="#B7EAC9"/>
            <stop offset="0.914773" stop-color="#E8F8ED"/>
            <stop offset="0.964808" stop-color="#B7EAC9"/>
            <stop offset="1" stop-color="#E8F8ED"/>
        </linearGradient>
        <linearGradient id="paint1_linear_17332_13502" x1="36.8533" y1="26.7425" x2="55.8273" y2="73.7476"
                        gradientUnits="userSpaceOnUse">
            <stop stop-color="#D8FEE5"/>
            <stop offset="1" stop-color="#C7E3D1"/>
        </linearGradient>
        <linearGradient id="paint2_linear_17332_13502" x1="132.521" y1="50.157" x2="103.816" y2="92.8757"
                        gradientUnits="userSpaceOnUse">
            <stop stop-color="white"/>
            <stop offset="1" stop-color="white"/>
        </linearGradient>
    </defs>
</svg>
