<svg width="247" height="247" viewBox="0 0 247 247" fill="none" xmlns="http://www.w3.org/2000/svg">
    <path d="M148.264 79.2251C162.591 94.2255 165.254 97.6221 151.256 112.007C137.257 126.392 110.039 123.373 91.8942 105.539C73.7498 87.7049 71.1309 59.8804 83.9188 46.74C97.9177 32.3551 130.119 61.391 148.264 79.2251Z"
          fill="url(#paint0_linear_17332_13484)"/>
    <g filter="url(#filter0_ddi_17332_13484)">
        <ellipse cx="36.3443" cy="46.0664" rx="36.3443" ry="46.0664"
                 transform="matrix(0.697428 -0.716655 0.713179 0.700982 63.6083 68.5537)" fill="#EFEDE1"/>
    </g>
    <g filter="url(#filter1_d_17332_13484)">
        <ellipse cx="34.3797" cy="44.0921" rx="34.3797" ry="44.0921"
                 transform="matrix(0.697428 -0.716655 0.713179 0.700982 66.3989 69.4604)"
                 fill="url(#paint1_linear_17332_13484)"/>
    </g>
    <g filter="url(#filter2_ddi_17332_13484)">
        <path d="M145.331 76.4992C145.879 77.0406 146.253 77.7158 146.369 78.3762C146.485 79.0366 146.335 79.6282 145.951 80.0207L130.515 95.8084C130.132 96.201 129.546 96.3624 128.887 96.2571C128.228 96.1518 127.549 95.7885 127.001 95.2471C126.453 94.7057 126.079 94.0305 125.963 93.37C125.847 92.7096 125.997 92.1181 126.381 91.7255L126.863 91.2322C127.631 90.4471 127.931 89.264 127.699 87.9431C127.466 86.6223 126.719 85.2719 125.623 84.189L120.11 78.7452L116.733 82.1987C116.349 82.5913 115.763 82.7527 115.104 82.6474C114.445 82.5421 113.767 82.1788 113.219 81.6374C112.67 81.0959 112.297 80.4207 112.181 79.7603C112.064 79.0999 112.215 78.5084 112.598 78.1158L115.975 74.6622L110.462 69.2184C108.632 67.4118 107.204 65.27 106.345 63.0428C105.485 60.8155 105.23 58.5947 105.608 56.6393C105.985 54.684 106.982 53.0747 108.48 51.9993C109.977 50.9239 111.916 50.4267 114.068 50.5656C114.713 50.6076 115.402 50.913 115.985 51.4147C116.567 51.9163 116.995 52.5731 117.173 53.2406C117.352 53.9081 117.267 54.5316 116.937 54.974C116.607 55.4163 116.059 55.6412 115.414 55.5992C113.907 55.497 112.593 55.9459 111.702 56.8674C110.679 57.9141 110.278 59.4916 110.588 61.2527C110.898 63.0138 111.894 64.8144 113.356 66.2582L118.869 71.7021L122.246 68.2485C122.629 67.8559 123.215 67.6946 123.874 67.7998C124.534 67.9051 125.212 68.2684 125.76 68.8099C126.308 69.3513 126.682 70.0265 126.798 70.6869C126.914 71.3473 126.764 71.9389 126.38 72.3314L123.004 75.785L128.517 81.2289C129.97 82.6615 131.129 84.3443 131.875 86.1061L141.816 75.9378C142.2 75.5453 142.786 75.3839 143.445 75.4892C144.104 75.5944 144.783 75.9578 145.331 76.4992Z"
              fill="url(#paint2_linear_17332_13484)"/>
        <path d="M120.459 78.3876L120.103 78.0363L119.754 78.3938L116.377 81.8474C116.132 82.0985 115.722 82.2385 115.183 82.1524C114.641 82.0658 114.054 81.7597 113.568 81.2798C113.082 80.8 112.767 80.2157 112.672 79.673C112.577 79.1328 112.709 78.7182 112.954 78.4671L116.331 75.0136L116.68 74.656L116.324 74.3047L110.812 68.8608L110.812 68.8608C109.028 67.1002 107.642 65.0173 106.81 62.8616C105.977 60.7047 105.74 58.5805 106.097 56.735C106.453 54.895 107.384 53.402 108.769 52.4072C110.158 51.41 111.978 50.933 114.036 51.0658C114.554 51.0996 115.144 51.3507 115.66 51.7952C116.175 52.2391 116.542 52.8118 116.691 53.3707C116.841 53.9305 116.753 54.3845 116.538 54.6733C116.328 54.9546 115.958 55.1321 115.447 55.0991C113.824 54.9891 112.357 55.4713 111.345 56.517C110.184 57.7053 109.766 59.4592 110.097 61.34C110.428 63.2189 111.482 65.1103 113.007 66.6157L118.52 72.0596L118.875 72.4109L119.225 72.0534L122.601 68.5998C122.847 68.3487 123.257 68.2087 123.796 68.2949C124.338 68.3814 124.925 68.6875 125.411 69.1674C125.897 69.6472 126.211 70.2315 126.307 70.7742C126.402 71.3144 126.27 71.729 126.025 71.9801L122.648 75.4336L122.299 75.7912L122.654 76.1425L128.167 81.5864L128.167 81.5867C129.577 82.9764 130.697 84.6051 131.416 86.3024L131.708 86.9919L132.231 86.4574L142.172 76.2891C142.418 76.0381 142.828 75.8981 143.367 75.9842C143.909 76.0707 144.495 76.3769 144.981 76.8567C145.467 77.3365 145.782 77.9208 145.878 78.4635C145.973 79.0038 145.841 79.4183 145.595 79.6694L130.16 95.4571C129.914 95.7082 129.504 95.8482 128.965 95.7621C128.423 95.6756 127.836 95.3694 127.35 94.8896C126.865 94.4097 126.55 93.8254 126.454 93.2827C126.359 92.7425 126.491 92.3279 126.736 92.0768L127.219 91.5835C128.125 90.6569 128.443 89.2969 128.19 87.8558C127.936 86.4173 127.131 84.976 125.972 83.8315L120.459 78.3876Z"
              stroke="#E8D7CE" stroke-opacity="0.4"/>
    </g>
    <defs>
        <filter id="filter0_ddi_17332_13484" x="0.312134" y="3.31104" width="242.995" height="242.977"
                filterUnits="userSpaceOnUse" color-interpolation-filters="sRGB">
            <feFlood flood-opacity="0" result="BackgroundImageFix"/>
            <feColorMatrix in="SourceAlpha" type="matrix" values="0 0 0 0 0 0 0 0 0 0 0 0 0 0 0 0 0 0 127 0"
                           result="hardAlpha"/>
            <feOffset dy="13"/>
            <feGaussianBlur stdDeviation="6.5"/>
            <feComposite in2="hardAlpha" operator="out"/>
            <feColorMatrix type="matrix" values="0 0 0 0 0 0 0 0 0 0 0 0 0 0 0 0 0 0 0.14 0"/>
            <feBlend mode="normal" in2="BackgroundImageFix" result="effect1_dropShadow_17332_13484"/>
            <feColorMatrix in="SourceAlpha" type="matrix" values="0 0 0 0 0 0 0 0 0 0 0 0 0 0 0 0 0 0 127 0"
                           result="hardAlpha"/>
            <feMorphology radius="20" operator="erode" in="SourceAlpha" result="effect2_dropShadow_17332_13484"/>
            <feOffset dy="50"/>
            <feGaussianBlur stdDeviation="50"/>
            <feComposite in2="hardAlpha" operator="out"/>
            <feColorMatrix type="matrix" values="0 0 0 0 0.196078 0 0 0 0 0.196078 0 0 0 0 0.364706 0 0 0 0.25 0"/>
            <feBlend mode="normal" in2="effect1_dropShadow_17332_13484" result="effect2_dropShadow_17332_13484"/>
            <feBlend mode="normal" in="SourceGraphic" in2="effect2_dropShadow_17332_13484" result="shape"/>
            <feColorMatrix in="SourceAlpha" type="matrix" values="0 0 0 0 0 0 0 0 0 0 0 0 0 0 0 0 0 0 127 0"
                           result="hardAlpha"/>
            <feOffset dx="-4"/>
            <feGaussianBlur stdDeviation="2.5"/>
            <feComposite in2="hardAlpha" operator="arithmetic" k2="-1" k3="1"/>
            <feColorMatrix type="matrix" values="0 0 0 0 0.613403 0 0 0 0 0.585272 0 0 0 0 0.512805 0 0 0 0.5 0"/>
            <feBlend mode="normal" in2="shape" result="effect3_innerShadow_17332_13484"/>
        </filter>
        <filter id="filter1_d_17332_13484" x="2.27563" y="6.20166" width="239.092" height="239.056"
                filterUnits="userSpaceOnUse" color-interpolation-filters="sRGB">
            <feFlood flood-opacity="0" result="BackgroundImageFix"/>
            <feColorMatrix in="SourceAlpha" type="matrix" values="0 0 0 0 0 0 0 0 0 0 0 0 0 0 0 0 0 0 127 0"
                           result="hardAlpha"/>
            <feMorphology radius="20" operator="erode" in="SourceAlpha" result="effect1_dropShadow_17332_13484"/>
            <feOffset dy="50"/>
            <feGaussianBlur stdDeviation="50"/>
            <feComposite in2="hardAlpha" operator="out"/>
            <feColorMatrix type="matrix" values="0 0 0 0 0.196078 0 0 0 0 0.196078 0 0 0 0 0.364706 0 0 0 0.25 0"/>
            <feBlend mode="normal" in2="BackgroundImageFix" result="effect1_dropShadow_17332_13484"/>
            <feBlend mode="normal" in="SourceGraphic" in2="effect1_dropShadow_17332_13484" result="shape"/>
        </filter>
        <filter id="filter2_ddi_17332_13484" x="5.43762" y="0.542969" width="240.97" height="245.746"
                filterUnits="userSpaceOnUse" color-interpolation-filters="sRGB">
            <feFlood flood-opacity="0" result="BackgroundImageFix"/>
            <feColorMatrix in="SourceAlpha" type="matrix" values="0 0 0 0 0 0 0 0 0 0 0 0 0 0 0 0 0 0 127 0"
                           result="hardAlpha"/>
            <feOffset/>
            <feGaussianBlur stdDeviation="5"/>
            <feComposite in2="hardAlpha" operator="out"/>
            <feColorMatrix type="matrix" values="0 0 0 0 0.946543 0 0 0 0 0.912398 0 0 0 0 0.893774 0 0 0 1 0"/>
            <feBlend mode="normal" in2="BackgroundImageFix" result="effect1_dropShadow_17332_13484"/>
            <feColorMatrix in="SourceAlpha" type="matrix" values="0 0 0 0 0 0 0 0 0 0 0 0 0 0 0 0 0 0 127 0"
                           result="hardAlpha"/>
            <feOffset dy="50"/>
            <feGaussianBlur stdDeviation="50"/>
            <feComposite in2="hardAlpha" operator="out"/>
            <feColorMatrix type="matrix" values="0 0 0 0 0.900962 0 0 0 0 0.954104 0 0 0 0 1 0 0 0 1 0"/>
            <feBlend mode="normal" in2="effect1_dropShadow_17332_13484" result="effect2_dropShadow_17332_13484"/>
            <feBlend mode="normal" in="SourceGraphic" in2="effect2_dropShadow_17332_13484" result="shape"/>
            <feColorMatrix in="SourceAlpha" type="matrix" values="0 0 0 0 0 0 0 0 0 0 0 0 0 0 0 0 0 0 127 0"
                           result="hardAlpha"/>
            <feOffset dy="-2"/>
            <feGaussianBlur stdDeviation="4"/>
            <feComposite in2="hardAlpha" operator="arithmetic" k2="-1" k3="1"/>
            <feColorMatrix type="matrix" values="0 0 0 0 0.784314 0 0 0 0 0.74902 0 0 0 0 0.72549 0 0 0 0.3 0"/>
            <feBlend mode="normal" in2="shape" result="effect3_innerShadow_17332_13484"/>
        </filter>
        <linearGradient id="paint0_linear_17332_13484" x1="78.8949" y1="51.9023" x2="147.928" y2="114.932"
                        gradientUnits="userSpaceOnUse">
            <stop stop-color="white"/>
            <stop offset="0.0733458" stop-color="#DBD0C5"/>
            <stop offset="0.145946" stop-color="white"/>
            <stop offset="0.224625" stop-color="#DBD0C5"/>
            <stop offset="0.849716" stop-color="#DBD0C5"/>
            <stop offset="0.914773" stop-color="white"/>
            <stop offset="0.964808" stop-color="#DBD0C5"/>
            <stop offset="1" stop-color="white"/>
        </linearGradient>
        <linearGradient id="paint1_linear_17332_13484" x1="42.5653" y1="34.5498" x2="60.053" y2="67.3829"
                        gradientUnits="userSpaceOnUse">
            <stop stop-color="#F3F6ED"/>
            <stop offset="1" stop-color="#E4D9CE"/>
        </linearGradient>
        <linearGradient id="paint2_linear_17332_13484" x1="112.073" y1="56.1019" x2="140.485" y2="95.2217"
                        gradientUnits="userSpaceOnUse">
            <stop stop-color="#EDEBE8"/>
            <stop offset="1" stop-color="#D0B8AC"/>
        </linearGradient>
    </defs>
</svg>
