<svg width="57" height="54" viewBox="0 0 57 54" fill="none" xmlns="http://www.w3.org/2000/svg">
    <path d="M14.1206 24.3298H7.01562V48.6898H14.1206V24.3298Z" fill="#AFB7DC"/>
    <path d="M26.3003 24.3298H19.1953V48.6898H26.3003V24.3298Z" fill="#AFB7DC"/>
    <path d="M38.481 24.3298H31.376V48.6898H38.481V24.3298Z" fill="#AFB7DC"/>
    <path d="M50.6607 24.3298H43.5557V48.6898H50.6607V24.3298Z" fill="#AFB7DC"/>
    <path opacity="0.8" d="M56.2915 14.9288L29.5089 0.320134C29.33 0.222532 29.1295 0.171387 28.9258 0.171387C28.722 0.171387 28.5215 0.222532 28.3426 0.320134L1.56004 14.9288C1.36806 15.0336 1.20784 15.1881 1.09623 15.3762C0.98462 15.5643 0.925741 15.779 0.925781 15.9977V23.302C0.925781 23.6249 1.05404 23.9346 1.28235 24.1629C1.51065 24.3912 1.8203 24.5194 2.14317 24.5194H55.7084C56.0313 24.5194 56.3409 24.3912 56.5692 24.1629C56.7975 23.9346 56.9258 23.6249 56.9258 23.302V15.9977C56.9258 15.779 56.8669 15.5643 56.7553 15.3762C56.6437 15.1881 56.4835 15.0336 56.2915 14.9288Z" fill="#D5DAEF"/>
    <path opacity="0.8" d="M55.7084 48.8674H2.14317C1.8203 48.8674 1.51065 48.9957 1.28235 49.224C1.05404 49.4523 0.925781 49.762 0.925781 50.0848V52.5196C0.925781 52.8425 1.05404 53.1521 1.28235 53.3804C1.51065 53.6087 1.8203 53.737 2.14317 53.737H55.7084C56.0313 53.737 56.3409 53.6087 56.5692 53.3804C56.7975 53.1521 56.9258 52.8425 56.9258 52.5196V50.0848C56.9258 49.762 56.7975 49.4523 56.5692 49.224C56.3409 48.9957 56.0313 48.8674 55.7084 48.8674Z" fill="#D5DAEF"/>
    <path d="M28.9252 18.4327C31.6146 18.4327 33.7948 16.2526 33.7948 13.5632C33.7948 10.8738 31.6146 8.6936 28.9252 8.6936C26.2358 8.6936 24.0557 10.8738 24.0557 13.5632C24.0557 16.2526 26.2358 18.4327 28.9252 18.4327Z" fill="#AFB7DC"/>
</svg>
