<svg width="12" height="12" viewBox="0 0 12 12" fill="none" xmlns="http://www.w3.org/2000/svg">
    <path fill-rule="evenodd" clip-rule="evenodd" d="M0.000612259 5.99997C0.000612259 6.19888 0.0796299 6.38965 0.220282 6.5303C0.360934 6.67095 0.551701 6.74997 0.750612 6.74997H9.44011L6.21961 9.96897C6.14988 10.0387 6.09457 10.1215 6.05683 10.2126C6.01909 10.3037 5.99967 10.4014 5.99967 10.5C5.99967 10.5986 6.01909 10.6962 6.05683 10.7873C6.09457 10.8785 6.14988 10.9612 6.21961 11.031C6.28934 11.1007 6.37213 11.156 6.46324 11.1938C6.55435 11.2315 6.652 11.2509 6.75061 11.2509C6.84923 11.2509 6.94688 11.2315 7.03799 11.1938C7.1291 11.156 7.21188 11.1007 7.28161 11.031L11.7816 6.53097C11.8515 6.4613 11.9069 6.37854 11.9447 6.28742C11.9825 6.1963 12.002 6.09862 12.002 5.99997C12.002 5.90132 11.9825 5.80364 11.9447 5.71252C11.9069 5.6214 11.8515 5.53864 11.7816 5.46897L7.28161 0.968971C7.14078 0.828141 6.94978 0.749023 6.75061 0.749023C6.55145 0.749023 6.36044 0.828141 6.21961 0.968971C6.07878 1.1098 5.99967 1.30081 5.99967 1.49997C5.99967 1.69913 6.07878 1.89014 6.21961 2.03097L9.44011 5.24997H0.750612C0.551701 5.24997 0.360934 5.32899 0.220282 5.46964C0.0796299 5.61029 0.000612259 5.80106 0.000612259 5.99997Z" fill="white"/>
</svg>
