<svg width="12" height="12" viewBox="0 0 12 12" fill="none" xmlns="http://www.w3.org/2000/svg">
    <path fill-rule="evenodd" clip-rule="evenodd" d="M12.0013 5.99997C12.0013 6.19888 11.9223 6.38965 11.7817 6.5303C11.641 6.67095 11.4503 6.74997 11.2513 6.74997H2.56184L5.78234 9.96897C5.85207 10.0387 5.90739 10.1215 5.94513 10.2126C5.98286 10.3037 6.00229 10.4014 6.00229 10.5C6.00229 10.5986 5.98286 10.6962 5.94513 10.7873C5.90739 10.8785 5.85207 10.9612 5.78234 11.031C5.71261 11.1007 5.62983 11.156 5.53872 11.1938C5.44761 11.2315 5.34996 11.2509 5.25134 11.2509C5.15273 11.2509 5.05507 11.2315 4.96397 11.1938C4.87286 11.156 4.79007 11.1007 4.72034 11.031L0.220341 6.53097C0.150496 6.4613 0.0950813 6.37854 0.0572716 6.28742C0.0194619 6.1963 0 6.09862 0 5.99997C0 5.90132 0.0194619 5.80364 0.0572716 5.71252C0.0950813 5.6214 0.150496 5.53864 0.220341 5.46897L4.72034 0.968971C4.86117 0.828141 5.05218 0.749023 5.25134 0.749023C5.4505 0.749023 5.64151 0.828141 5.78234 0.968971C5.92317 1.1098 6.00229 1.30081 6.00229 1.49997C6.00229 1.69913 5.92317 1.89014 5.78234 2.03097L2.56184 5.24997H11.2513C11.4503 5.24997 11.641 5.32899 11.7817 5.46964C11.9223 5.61029 12.0013 5.80106 12.0013 5.99997Z" fill="#596495"/>
</svg>
