<svg width="33" height="33" viewBox="0 0 33 33" fill="none" xmlns="http://www.w3.org/2000/svg">
    <path d="M23.9865 5.89437L27.9788 9.88591C28.2601 10.1671 28.4181 10.5485 28.4181 10.9462C28.4181 11.3438 28.2601 11.7252 27.9788 12.0064C27.6976 12.2876 27.3161 12.4456 26.9184 12.4456C26.5206 12.4456 26.1392 12.2876 25.8579 12.0064L24.4244 10.5707V26.9111C24.4244 27.3081 24.2667 27.6888 23.9859 27.9695C23.7051 28.2502 23.3244 28.4079 22.9273 28.4079C22.5302 28.4079 22.1494 28.2502 21.8687 27.9695C21.5879 27.6888 21.4302 27.3081 21.4302 26.9111V10.5707L19.9942 12.0077C19.7129 12.2889 19.3315 12.4468 18.9337 12.4468C18.536 12.4468 18.1545 12.2889 17.8733 12.0077C17.592 11.7265 17.434 11.3451 17.434 10.9474C17.434 10.5497 17.592 10.1684 17.8733 9.88716L21.8656 5.89561C22.0046 5.75599 22.1698 5.64517 22.3517 5.56952C22.5337 5.49386 22.7287 5.45486 22.9258 5.45474C23.1228 5.45462 23.3179 5.4934 23.5 5.56884C23.682 5.64428 23.8473 5.7549 23.9865 5.89437ZM16.0019 23.981C16.2831 23.6999 16.4411 23.3185 16.4411 22.9208C16.4411 22.5231 16.2831 22.1417 16.0019 21.8605C15.7206 21.5793 15.3391 21.4214 14.9414 21.4214C14.5436 21.4214 14.1622 21.5793 13.8809 21.8605L12.4474 23.2938V6.95337C12.4474 6.55639 12.2897 6.17567 12.0089 5.89496C11.7282 5.61425 11.3474 5.45654 10.9503 5.45654C10.5533 5.45654 10.1725 5.61425 9.8917 5.89496C9.61093 6.17567 9.4532 6.55639 9.4532 6.95337L9.4532 23.2938L8.01721 21.8605C7.73596 21.5793 7.3545 21.4214 6.95675 21.4214C6.559 21.4214 6.17754 21.5793 5.89629 21.8605C5.61504 22.1417 5.45703 22.5231 5.45703 22.9208C5.45703 23.3185 5.61504 23.6999 5.89629 23.981L9.88861 27.9726C10.0277 28.1121 10.193 28.2229 10.3749 28.2984C10.5569 28.374 10.752 28.4128 10.9491 28.4128C11.1461 28.4128 11.3412 28.374 11.5232 28.2984C11.7052 28.2229 11.8704 28.1121 12.0095 27.9726L16.0019 23.981Z" fill="white"/>
</svg>
