<svg width="22" height="21" viewBox="0 0 25 24" fill="none" xmlns="http://www.w3.org/2000/svg">
    <path fill-rule="evenodd" clip-rule="evenodd" d="M2.9502 12.0002C2.9502 11.2822 3.53223 10.7002 4.2502 10.7002H20.7502C21.4682 10.7002 22.0502 11.2822 22.0502 12.0002C22.0502 12.7182 21.4682 13.3002 20.7502 13.3002H4.2502C3.53223 13.3002 2.9502 12.7182 2.9502 12.0002Z" fill="white"/>
    <path fill-rule="evenodd" clip-rule="evenodd" d="M13.081 4.33096C13.5886 3.82327 14.4118 3.82327 14.9194 4.33096L21.6694 11.081C22.1771 11.5886 22.1771 12.4118 21.6694 12.9194L14.9194 19.6694C14.4118 20.1771 13.5886 20.1771 13.081 19.6694C12.5733 19.1618 12.5733 18.3386 13.081 17.831L18.9117 12.0002L13.081 6.16943C12.5733 5.66175 12.5733 4.83864 13.081 4.33096Z" fill="white"/>
</svg>
