<svg width="32" height="32" viewBox="0 0 32 33" fill="none" xmlns="http://www.w3.org/2000/svg">
<path d="M27.0613 23.2375L23.0613 27.2375C22.7795 27.5193 22.3973 27.6776 21.9988 27.6776C21.6003 27.6776 21.2181 27.5193 20.9363 27.2375C20.6545 26.9557 20.4962 26.5735 20.4962 26.175C20.4962 25.7764 20.6545 25.3943 20.9363 25.1125L22.375 23.6762H6.00005C5.60223 23.6762 5.22069 23.5182 4.93939 23.2369C4.65809 22.9556 4.50005 22.574 4.50005 22.1762C4.50005 21.7784 4.65809 21.3969 4.93939 21.1156C5.22069 20.8342 5.60223 20.6762 6.00005 20.6762H22.375L20.935 19.2375C20.6533 18.9557 20.4949 18.5735 20.4949 18.175C20.4949 17.7765 20.6533 17.3943 20.935 17.1125C21.2168 16.8307 21.599 16.6724 21.9975 16.6724C22.3961 16.6724 22.7783 16.8307 23.06 17.1125L27.06 21.1125C27.2 21.2517 27.311 21.4173 27.3868 21.5995C27.4627 21.7818 27.5017 21.9773 27.5019 22.1747C27.502 22.3721 27.4631 22.5676 27.3875 22.75C27.3119 22.9324 27.2011 23.098 27.0613 23.2375ZM8.9363 15.2375C9.21809 15.5193 9.60029 15.6776 9.9988 15.6776C10.3973 15.6776 10.7795 15.5193 11.0613 15.2375C11.3431 14.9557 11.5014 14.5735 11.5014 14.175C11.5014 13.7765 11.3431 13.3943 11.0613 13.1125L9.62505 11.6762H26C26.3979 11.6762 26.7794 11.5182 27.0607 11.2369C27.342 10.9556 27.5 10.574 27.5 10.1762C27.5 9.77839 27.342 9.39686 27.0607 9.11555C26.7794 8.83425 26.3979 8.67622 26 8.67622H9.62505L11.0613 7.23747C11.3431 6.95567 11.5014 6.57348 11.5014 6.17497C11.5014 5.77645 11.3431 5.39426 11.0613 5.11247C10.7795 4.83067 10.3973 4.67236 9.9988 4.67236C9.60029 4.67236 9.21809 4.83067 8.9363 5.11247L4.9363 9.11246C4.79646 9.25182 4.6855 9.41741 4.6098 9.59974C4.53409 9.78206 4.49512 9.97754 4.49512 10.175C4.49512 10.3724 4.53409 10.5679 4.6098 10.7502C4.6855 10.9325 4.79646 11.0981 4.9363 11.2375L8.9363 15.2375Z" fill="white"/>
</svg>
