<svg width="32" height="32" viewBox="0 0 32 32" fill="none" xmlns="http://www.w3.org/2000/svg">
    <circle cx="16" cy="16" r="16" fill="white"/>
    <path fill-rule="evenodd" clip-rule="evenodd" d="M9.56324e-08 14.8C0.615346 6.52392 7.54369 0 16 0C14.6669 -3.54855e-07 13.48 0.582733 12.5036 1.4738C11.5321 2.3604 10.7111 3.59804 10.047 5.06104C9.37908 6.53267 8.86023 8.25389 8.50905 10.1218C8.22754 11.6191 8.05623 13.1976 7.99913 14.8H9.56324e-08ZM0 17.2H7.99913C8.05623 18.8024 8.22754 20.3809 8.50905 21.8782C8.86023 23.7461 9.37907 25.4673 10.047 26.939C10.7111 28.402 11.5321 29.6396 12.5036 30.5262C13.48 31.4173 14.6669 32 16 32C7.54369 32 0.615345 25.4761 0 17.2Z" fill="url(#paint0_linear_16970_6375)"/>
    <path d="M16 2.23256C15.5588 2.23256 14.9888 2.41978 14.3259 3.02467C13.6582 3.63402 12.9898 4.58903 12.3992 5.89019C11.8125 7.18273 11.3361 8.74305 11.0083 10.4867C10.7501 11.8599 10.59 13.3155 10.5338 14.8H21.4662C21.41 13.3155 21.2499 11.8599 20.9917 10.4867C20.6639 8.74305 20.1875 7.18273 19.6008 5.8902C19.0103 4.58904 18.3418 3.63402 17.6741 3.02467C17.0113 2.41978 16.4412 2.23256 16 2.23256Z" fill="url(#paint1_linear_16970_6375)"/>
    <path d="M11.0083 21.5133C11.3361 23.257 11.8125 24.8173 12.3992 26.1098C12.9898 27.411 13.6582 28.366 14.3259 28.9753C14.9888 29.5802 15.5588 29.7674 16 29.7674C16.4412 29.7674 17.0113 29.5802 17.6741 28.9753C18.3418 28.366 19.0102 27.411 19.6008 26.1098C20.1875 24.8173 20.6639 23.257 20.9917 21.5133C21.2499 20.1401 21.41 18.6845 21.4662 17.2H10.5338C10.59 18.6845 10.7501 20.1401 11.0083 21.5133Z" fill="url(#paint2_linear_16970_6375)"/>
    <path d="M16 0C17.3331 3.54856e-07 18.52 0.582734 19.4964 1.4738C20.4679 2.36041 21.2889 3.59804 21.953 5.06105C22.6209 6.53268 23.1398 8.25389 23.491 10.1218C23.7725 11.6191 23.9438 13.1976 24.0009 14.8H32C31.3847 6.52392 24.4563 0 16 0Z" fill="url(#paint3_linear_16970_6375)"/>
    <path d="M23.491 21.8782C23.1398 23.7461 22.6209 25.4673 21.953 26.939C21.2889 28.402 20.4679 29.6396 19.4964 30.5262C18.52 31.4173 17.3331 32 16 32C24.4563 32 31.3847 25.4761 32 17.2H24.0009C23.9438 18.8024 23.7725 20.3809 23.491 21.8782Z" fill="url(#paint4_linear_16970_6375)"/>
    <defs>
        <linearGradient id="paint0_linear_16970_6375" x1="9.0048" y1="7.00059" x2="17.6148" y2="40.1282" gradientUnits="userSpaceOnUse">
            <stop offset="0.370557" stop-color="#00D2D3"/>
            <stop offset="1" stop-color="#489EFF"/>
        </linearGradient>
        <linearGradient id="paint1_linear_16970_6375" x1="9.0048" y1="7.00059" x2="17.6148" y2="40.1282" gradientUnits="userSpaceOnUse">
            <stop offset="0.370557" stop-color="#00D2D3"/>
            <stop offset="1" stop-color="#489EFF"/>
        </linearGradient>
        <linearGradient id="paint2_linear_16970_6375" x1="9.0048" y1="7.00059" x2="17.6148" y2="40.1282" gradientUnits="userSpaceOnUse">
            <stop offset="0.370557" stop-color="#00D2D3"/>
            <stop offset="1" stop-color="#489EFF"/>
        </linearGradient>
        <linearGradient id="paint3_linear_16970_6375" x1="9.0048" y1="7.00059" x2="17.6148" y2="40.1282" gradientUnits="userSpaceOnUse">
            <stop offset="0.370557" stop-color="#00D2D3"/>
            <stop offset="1" stop-color="#489EFF"/>
        </linearGradient>
        <linearGradient id="paint4_linear_16970_6375" x1="9.0048" y1="7.00059" x2="17.6148" y2="40.1282" gradientUnits="userSpaceOnUse">
            <stop offset="0.370557" stop-color="#00D2D3"/>
            <stop offset="1" stop-color="#489EFF"/>
        </linearGradient>
    </defs>
</svg>
