<svg width="36" height="40" viewBox="0 0 36 40" fill="none" xmlns="http://www.w3.org/2000/svg">
    <path fill-rule="evenodd" clip-rule="evenodd" d="M26.8616 0H8.28993C6.02681 0 4.89526 0 3.98264 0.325214C2.25208 0.94191 0.893394 2.37438 0.308462 4.19892C0 5.16109 0 6.3541 0 8.74012V36.7484C0 38.4649 1.92356 39.3756 3.14039 38.2352C3.85529 37.5652 4.93259 37.5652 5.64749 38.2352L6.59091 39.1194C7.84384 40.2935 9.73192 40.2935 10.9848 39.1194C12.2378 37.9452 14.1259 37.9452 15.3788 39.1194C16.6317 40.2935 18.5198 40.2935 19.7727 39.1194C21.0257 37.9452 22.9137 37.9452 24.1667 39.1194C25.4196 40.2935 27.3077 40.2935 28.5606 39.1194L29.504 38.2352C30.2189 37.5652 31.2962 37.5652 32.0111 38.2352C33.228 39.3756 35.1515 38.4649 35.1515 36.7484V8.74012C35.1515 6.3541 35.1515 5.16109 34.8431 4.19892C34.2581 2.37438 32.8994 0.94191 31.1689 0.325214C30.2563 0 29.1247 0 26.8616 0ZM24.3468 20C24.3468 19.1716 25.0025 18.5 25.8114 18.5H26.7879C27.5968 18.5 28.2525 19.1716 28.2525 20C28.2525 20.8284 27.5968 21.5 26.7879 21.5H25.8114C25.0025 21.5 24.3468 20.8284 24.3468 20ZM6.18182 20C6.18182 19.1716 6.83756 18.5 7.64647 18.5H20.3401C21.149 18.5 21.8047 19.1716 21.8047 20C21.8047 20.8284 21.149 21.5 20.3401 21.5H7.64647C6.83756 21.5 6.18182 20.8284 6.18182 20ZM24.3468 26C24.3468 25.1716 25.0025 24.5 25.8114 24.5H26.7879C27.5968 24.5 28.2525 25.1716 28.2525 26C28.2525 26.8284 27.5968 27.5 26.7879 27.5H25.8114C25.0025 27.5 24.3468 26.8284 24.3468 26ZM6.18182 26C6.18182 25.1716 6.83756 24.5 7.64647 24.5H20.3401C21.149 24.5 21.8047 25.1716 21.8047 26C21.8047 26.8284 21.149 27.5 20.3401 27.5H7.64647C6.83756 27.5 6.18182 26.8284 6.18182 26ZM23 9C23 11.7614 20.7614 14 18 14C15.2386 14 13 11.7614 13 9C13 6.23858 15.2386 4 18 4C20.7614 4 23 6.23858 23 9Z" fill="#AFB7DC"/>
</svg>
