<svg width="41" height="33" viewBox="0 0 41 33" fill="none" xmlns="http://www.w3.org/2000/svg">
    <rect x="0.808594" y="10.272" width="40" height="3.69231" fill="white"/>
    <path d="M24.8086 0.426025H16.8086C9.26612 0.426025 5.49489 0.426025 3.15174 2.76917C1.46466 4.45625 0.992287 6.88367 0.860027 10.926H40.7572C40.6249 6.88367 40.1525 4.45625 38.4654 2.76917C36.1223 0.426025 32.3511 0.426025 24.8086 0.426025Z" fill="url(#paint0_linear_16948_6649)"/>
    <path d="M16.8086 32.426H24.8086C32.3511 32.426 36.1223 32.426 38.4654 30.0829C40.8086 27.7397 40.8086 23.9685 40.8086 16.426C40.8086 15.5422 40.8086 14.7101 40.8048 13.926H0.812364C0.808594 14.7101 0.808594 15.5422 0.808594 16.426C0.808594 23.9685 0.808594 27.7397 3.15174 30.0829C5.49489 32.426 9.26612 32.426 16.8086 32.426Z" fill="url(#paint1_linear_16948_6649)"/>
    <path fill-rule="evenodd" clip-rule="evenodd" d="M7.30859 24.426C7.30859 23.5976 7.98017 22.926 8.80859 22.926H16.8086C17.637 22.926 18.3086 23.5976 18.3086 24.426C18.3086 25.2545 17.637 25.926 16.8086 25.926H8.80859C7.98017 25.926 7.30859 25.2545 7.30859 24.426Z" fill="white"/>
    <path fill-rule="evenodd" clip-rule="evenodd" d="M20.3086 24.426C20.3086 23.5976 20.9802 22.926 21.8086 22.926H24.8086C25.637 22.926 26.3086 23.5976 26.3086 24.426C26.3086 25.2545 25.637 25.926 24.8086 25.926H21.8086C20.9802 25.926 20.3086 25.2545 20.3086 24.426Z" fill="white"/>
    <defs>
        <linearGradient id="paint0_linear_16948_6649" x1="12.0646" y1="7.42662" x2="19.1131" y2="41.3265" gradientUnits="userSpaceOnUse">
            <stop offset="0.370557" stop-color="#00D2D3"/>
            <stop offset="1" stop-color="#489EFF"/>
        </linearGradient>
        <linearGradient id="paint1_linear_16948_6649" x1="12.0646" y1="7.42662" x2="19.1131" y2="41.3265" gradientUnits="userSpaceOnUse">
            <stop offset="0.370557" stop-color="#00D2D3"/>
            <stop offset="1" stop-color="#489EFF"/>
        </linearGradient>
    </defs>
</svg>
