<svg width="41" height="33" viewBox="0 0 41 33" fill="none" xmlns="http://www.w3.org/2000/svg">
    <path d="M24.5938 0.229248H16.5938C9.05128 0.229248 5.28004 0.229248 2.9369 2.57239C1.24981 4.25948 0.777443 6.68689 0.645183 10.7292L0.597521 13.7292H40.59L40.5423 10.7292C40.4101 6.68689 39.9377 4.25948 38.2506 2.57239C35.9075 0.229248 32.1362 0.229248 24.5938 0.229248Z" fill="#AFB7DC"/>
    <path d="M16.5938 32.2292H24.5938C32.1362 32.2292 35.9075 32.2292 38.2506 29.8861C40.5938 27.543 40.5938 23.7717 40.5938 16.2292C40.5938 15.3454 40.5938 14.5133 40.59 13.7292H0.597521C0.59375 15.5626 0.59375 15.3454 0.59375 16.2292C0.59375 23.7717 0.59375 27.543 2.9369 29.8861C5.28004 32.2292 9.05128 32.2292 16.5938 32.2292Z" fill="#AFB7DC"/>
    <path fill-rule="evenodd" clip-rule="evenodd" d="M6.84375 8.22925C7.87928 8.22925 8.71875 9.0558 8.71875 10.0754L8.71875 22.3831C8.71875 23.4027 7.87928 24.2292 6.84375 24.2292C5.80822 24.2292 4.96875 23.4027 4.96875 22.3831L4.96875 10.0754C4.96875 9.0558 5.80822 8.22925 6.84375 8.22925ZM20.5937 11.9216C17.8323 11.9216 15.5937 14.1257 15.5937 16.8446C15.5937 19.5636 17.8323 21.7677 20.5937 21.7677C23.3552 21.7677 25.5937 19.5636 25.5937 16.8446C25.5937 14.1257 23.3552 11.9216 20.5937 11.9216ZM11.8437 16.8446C11.8437 12.0865 15.7613 8.22925 20.5937 8.22925C25.4262 8.22925 29.3437 12.0865 29.3437 16.8446C29.3437 21.6028 25.4262 25.46 20.5937 25.46C15.7613 25.46 11.8437 21.6028 11.8437 16.8446ZM34.3437 8.22925C35.3793 8.22925 36.2187 9.0558 36.2187 10.0754L36.2187 22.3831C36.2187 23.4027 35.3793 24.2292 34.3437 24.2292C33.3082 24.2292 32.4687 23.4027 32.4687 22.3831L32.4687 10.0754C32.4687 9.0558 33.3082 8.22925 34.3437 8.22925Z" fill="white"/>
</svg>
