<svg width="59" height="59" viewBox="0 0 53 53" fill="none" xmlns="http://www.w3.org/2000/svg">
    <path d="M41.5973 34.2562C41.594 37.0673 40.4759 39.7623 38.4881 41.7501C36.5003 43.7379 33.8053 44.856 30.9941 44.8593H28.5473V47.3061C28.5473 47.9551 28.2895 48.5775 27.8306 49.0364C27.3717 49.4952 26.7493 49.753 26.1004 49.753C25.4514 49.753 24.8291 49.4952 24.3702 49.0364C23.9113 48.5775 23.6535 47.9551 23.6535 47.3061V44.8593H21.2066C18.3955 44.856 15.7004 43.7379 13.7127 41.7501C11.7249 39.7623 10.6068 37.0673 10.6035 34.2562C10.6035 33.6072 10.8613 32.9848 11.3202 32.5259C11.7791 32.0671 12.4014 31.8093 13.0504 31.8093C13.6993 31.8093 14.3217 32.0671 14.7806 32.5259C15.2395 32.9848 15.4973 33.6072 15.4973 34.2562C15.4973 35.7704 16.0988 37.2226 17.1695 38.2933C18.2402 39.364 19.6924 39.9655 21.2066 39.9655H30.9941C32.5084 39.9655 33.9606 39.364 35.0313 38.2933C36.102 37.2226 36.7035 35.7704 36.7035 34.2562C36.7035 32.7419 36.102 31.2897 35.0313 30.219C33.9606 29.1483 32.5084 28.5468 30.9941 28.5468H22.8379C20.0258 28.5468 17.3288 27.4297 15.3403 25.4412C13.3519 23.4527 12.2348 20.7558 12.2348 17.9437C12.2348 15.1315 13.3519 12.4346 15.3403 10.4461C17.3288 8.45764 20.0258 7.34053 22.8379 7.34053H23.6535V4.89365C23.6535 4.2447 23.9113 3.62233 24.3702 3.16345C24.8291 2.70457 25.4514 2.44678 26.1004 2.44678C26.7493 2.44678 27.3717 2.70457 27.8306 3.16345C28.2895 3.62233 28.5473 4.2447 28.5473 4.89365V7.34053H29.3629C32.174 7.34377 34.8691 8.46192 36.8569 10.4497C38.8446 12.4375 39.9628 15.1325 39.966 17.9437C39.966 18.5926 39.7082 19.215 39.2493 19.6739C38.7905 20.1327 38.1681 20.3905 37.5191 20.3905C36.8702 20.3905 36.2478 20.1327 35.7889 19.6739C35.3301 19.215 35.0723 18.5926 35.0723 17.9437C35.0723 16.4294 34.4707 14.9772 33.4 13.9065C32.3293 12.8358 30.8771 12.2343 29.3629 12.2343H22.8379C21.3237 12.2343 19.8715 12.8358 18.8008 13.9065C17.73 14.9772 17.1285 16.4294 17.1285 17.9437C17.1285 19.4579 17.73 20.9101 18.8008 21.9808C19.8715 23.0515 21.3237 23.653 22.8379 23.653H30.9941C33.8053 23.6563 36.5003 24.7744 38.4881 26.7622C40.4759 28.75 41.594 31.445 41.5973 34.2562Z" fill="white"/>
</svg>
