<svg width="335" height="335" viewBox="0 0 95 95" fill="none" xmlns="http://www.w3.org/2000/svg">
    <g opacity="0.5" filter="url(#filter0_ddi_14775_14498)">
        <circle cx="117.5" cy="67.4999" r="36.975" fill="#AFB7DC"/>
    </g>
    <g filter="url(#filter1_ddi_14775_14498)">
        <path d="M131.812 83.25C131.812 83.8964 131.556 84.5164 131.099 84.9735C130.641 85.4306 130.021 85.6875 129.375 85.6875H103.375C102.729 85.6875 102.109 85.4306 101.651 84.9735C101.194 84.5164 100.938 83.8964 100.938 83.25C100.938 82.6035 101.194 81.9835 101.651 81.5264C102.109 81.0693 102.729 80.8125 103.375 80.8125H104.188C105.48 80.8125 106.72 80.2988 107.635 79.3846C108.549 78.4704 109.062 77.2304 109.062 75.9375V69.4375H103.375C102.729 69.4375 102.109 69.1806 101.651 68.7235C101.194 68.2664 100.938 67.6464 100.938 67C100.938 66.3535 101.194 65.7335 101.651 65.2764C102.109 64.8193 102.729 64.5625 103.375 64.5625H109.062V58.0625C109.062 55.9053 109.675 53.7925 110.83 51.9706C111.985 50.1486 113.635 48.6927 115.586 47.7726C117.537 46.8525 119.709 46.5062 121.85 46.7741C123.99 47.0419 126.011 47.9129 127.675 49.2854C128.173 49.697 128.488 50.2898 128.55 50.9334C128.611 51.577 128.414 52.2186 128.003 52.7172C127.591 53.2158 126.999 53.5305 126.355 53.592C125.711 53.6535 125.07 53.4569 124.571 53.0453C123.41 52.0813 121.947 51.5564 120.438 51.5625C118.714 51.5625 117.06 52.2473 115.841 53.4663C114.622 54.6852 113.938 56.3385 113.938 58.0625V64.5625H119.625C120.271 64.5625 120.891 64.8193 121.349 65.2764C121.806 65.7335 122.062 66.3535 122.062 67C122.062 67.6464 121.806 68.2664 121.349 68.7235C120.891 69.1806 120.271 69.4375 119.625 69.4375H113.938V75.9375C113.939 77.6494 113.488 79.3314 112.629 80.8125H129.375C130.021 80.8125 130.641 81.0693 131.099 81.5264C131.556 81.9835 131.812 82.6035 131.812 83.25Z" fill="white"/>
    </g>
    <defs>
        <filter id="filter0_ddi_14775_14498" x="0.525391" y="0.524902" width="233.95" height="233.95" filterUnits="userSpaceOnUse" color-interpolation-filters="sRGB">
            <feFlood flood-opacity="0" result="BackgroundImageFix"/>
            <feColorMatrix in="SourceAlpha" type="matrix" values="0 0 0 0 0 0 0 0 0 0 0 0 0 0 0 0 0 0 127 0" result="hardAlpha"/>
            <feMorphology radius="30" operator="erode" in="SourceAlpha" result="effect1_dropShadow_14775_14498"/>
            <feOffset dy="30"/>
            <feGaussianBlur stdDeviation="30"/>
            <feComposite in2="hardAlpha" operator="out"/>
            <feColorMatrix type="matrix" values="0 0 0 0 0 0 0 0 0 0 0 0 0 0 0 0 0 0 0.3 0"/>
            <feBlend mode="normal" in2="BackgroundImageFix" result="effect1_dropShadow_14775_14498"/>
            <feColorMatrix in="SourceAlpha" type="matrix" values="0 0 0 0 0 0 0 0 0 0 0 0 0 0 0 0 0 0 127 0" result="hardAlpha"/>
            <feMorphology radius="20" operator="erode" in="SourceAlpha" result="effect2_dropShadow_14775_14498"/>
            <feOffset dy="50"/>
            <feGaussianBlur stdDeviation="50"/>
            <feComposite in2="hardAlpha" operator="out"/>
            <feColorMatrix type="matrix" values="0 0 0 0 0.196078 0 0 0 0 0.196078 0 0 0 0 0.364706 0 0 0 0.25 0"/>
            <feBlend mode="normal" in2="effect1_dropShadow_14775_14498" result="effect2_dropShadow_14775_14498"/>
            <feBlend mode="normal" in="SourceGraphic" in2="effect2_dropShadow_14775_14498" result="shape"/>
            <feColorMatrix in="SourceAlpha" type="matrix" values="0 0 0 0 0 0 0 0 0 0 0 0 0 0 0 0 0 0 127 0" result="hardAlpha"/>
            <feOffset dy="-2"/>
            <feGaussianBlur stdDeviation="4"/>
            <feComposite in2="hardAlpha" operator="arithmetic" k2="-1" k3="1"/>
            <feColorMatrix type="matrix" values="0 0 0 0 0.0792906 0 0 0 0 0.243589 0 0 0 0 0.407887 0 0 0 0.35 0"/>
            <feBlend mode="normal" in2="shape" result="effect3_innerShadow_14775_14498"/>
        </filter>
        <filter id="filter1_ddi_14775_14498" x="12" y="11" width="212" height="212" filterUnits="userSpaceOnUse" color-interpolation-filters="sRGB">
            <feFlood flood-opacity="0" result="BackgroundImageFix"/>
            <feColorMatrix in="SourceAlpha" type="matrix" values="0 0 0 0 0 0 0 0 0 0 0 0 0 0 0 0 0 0 127 0" result="hardAlpha"/>
            <feMorphology radius="30" operator="erode" in="SourceAlpha" result="effect1_dropShadow_14775_14498"/>
            <feOffset dy="30"/>
            <feGaussianBlur stdDeviation="30"/>
            <feComposite in2="hardAlpha" operator="out"/>
            <feColorMatrix type="matrix" values="0 0 0 0 0 0 0 0 0 0 0 0 0 0 0 0 0 0 0.3 0"/>
            <feBlend mode="normal" in2="BackgroundImageFix" result="effect1_dropShadow_14775_14498"/>
            <feColorMatrix in="SourceAlpha" type="matrix" values="0 0 0 0 0 0 0 0 0 0 0 0 0 0 0 0 0 0 127 0" result="hardAlpha"/>
            <feMorphology radius="20" operator="erode" in="SourceAlpha" result="effect2_dropShadow_14775_14498"/>
            <feOffset dy="50"/>
            <feGaussianBlur stdDeviation="50"/>
            <feComposite in2="hardAlpha" operator="out"/>
            <feColorMatrix type="matrix" values="0 0 0 0 0.196078 0 0 0 0 0.196078 0 0 0 0 0.364706 0 0 0 0.25 0"/>
            <feBlend mode="normal" in2="effect1_dropShadow_14775_14498" result="effect2_dropShadow_14775_14498"/>
            <feBlend mode="normal" in="SourceGraphic" in2="effect2_dropShadow_14775_14498" result="shape"/>
            <feColorMatrix in="SourceAlpha" type="matrix" values="0 0 0 0 0 0 0 0 0 0 0 0 0 0 0 0 0 0 127 0" result="hardAlpha"/>
            <feOffset/>
            <feGaussianBlur stdDeviation="0.25"/>
            <feComposite in2="hardAlpha" operator="arithmetic" k2="-1" k3="1"/>
            <feColorMatrix type="matrix" values="0 0 0 0 0.0792906 0 0 0 0 0.243589 0 0 0 0 0.407887 0 0 0 0.35 0"/>
            <feBlend mode="normal" in2="shape" result="effect3_innerShadow_14775_14498"/>
        </filter>
    </defs>
</svg>
