<svg width="192" height="200" viewBox="0 0 192 200" fill="none" xmlns="http://www.w3.org/2000/svg">
    <g filter="url(#filter0_ddi_17276_10907)">
        <path d="M111.812 67.25C111.812 67.8964 111.556 68.5164 111.099 68.9735C110.641 69.4306 110.021 69.6875 109.375 69.6875H83.375C82.7285 69.6875 82.1085 69.4306 81.6514 68.9735C81.1943 68.5164 80.9375 67.8964 80.9375 67.25C80.9375 66.6035 81.1943 65.9835 81.6514 65.5264C82.1085 65.0693 82.7285 64.8125 83.375 64.8125H84.1875C85.4804 64.8125 86.7204 64.2988 87.6346 63.3846C88.5489 62.4704 89.0625 61.2304 89.0625 59.9375V53.4375H83.375C82.7285 53.4375 82.1085 53.1806 81.6514 52.7235C81.1943 52.2664 80.9375 51.6464 80.9375 51C80.9375 50.3535 81.1943 49.7335 81.6514 49.2764C82.1085 48.8193 82.7285 48.5625 83.375 48.5625H89.0625V42.0625C89.0622 39.9053 89.6754 37.7925 90.8304 35.9706C91.9854 34.1486 93.6347 32.6927 95.5858 31.7726C97.5369 30.8525 99.7094 30.5062 101.85 30.7741C103.99 31.0419 106.011 31.9129 107.675 33.2854C108.173 33.697 108.488 34.2898 108.55 34.9334C108.611 35.577 108.414 36.2186 108.003 36.7172C107.591 37.2158 106.999 37.5305 106.355 37.592C105.711 37.6535 105.07 37.4569 104.571 37.0453C103.41 36.0813 101.947 35.5564 100.438 35.5625C98.7136 35.5625 97.0603 36.2473 95.8413 37.4663C94.6223 38.6852 93.9375 40.3385 93.9375 42.0625V48.5625H99.625C100.271 48.5625 100.891 48.8193 101.349 49.2764C101.806 49.7335 102.062 50.3535 102.062 51C102.062 51.6464 101.806 52.2664 101.349 52.7235C100.891 53.1806 100.271 53.4375 99.625 53.4375H93.9375V59.9375C93.9394 61.6494 93.4881 63.3314 92.6294 64.8125H109.375C110.021 64.8125 110.641 65.0693 111.099 65.5264C111.556 65.9835 111.812 66.6035 111.812 67.25Z" fill="white"/>
    </g>
    <defs>
        <filter id="filter0_ddi_17276_10907" x="-8" y="-5" width="212" height="212" filterUnits="userSpaceOnUse" color-interpolation-filters="sRGB">
            <feFlood flood-opacity="0" result="BackgroundImageFix"/>
            <feColorMatrix in="SourceAlpha" type="matrix" values="0 0 0 0 0 0 0 0 0 0 0 0 0 0 0 0 0 0 127 0" result="hardAlpha"/>
            <feMorphology radius="30" operator="erode" in="SourceAlpha" result="effect1_dropShadow_17276_10907"/>
            <feOffset dy="30"/>
            <feGaussianBlur stdDeviation="30"/>
            <feComposite in2="hardAlpha" operator="out"/>
            <feColorMatrix type="matrix" values="0 0 0 0 0 0 0 0 0 0 0 0 0 0 0 0 0 0 0.3 0"/>
            <feBlend mode="normal" in2="BackgroundImageFix" result="effect1_dropShadow_17276_10907"/>
            <feColorMatrix in="SourceAlpha" type="matrix" values="0 0 0 0 0 0 0 0 0 0 0 0 0 0 0 0 0 0 127 0" result="hardAlpha"/>
            <feMorphology radius="20" operator="erode" in="SourceAlpha" result="effect2_dropShadow_17276_10907"/>
            <feOffset dy="50"/>
            <feGaussianBlur stdDeviation="50"/>
            <feComposite in2="hardAlpha" operator="out"/>
            <feColorMatrix type="matrix" values="0 0 0 0 0.196078 0 0 0 0 0.196078 0 0 0 0 0.364706 0 0 0 0.25 0"/>
            <feBlend mode="normal" in2="effect1_dropShadow_17276_10907" result="effect2_dropShadow_17276_10907"/>
            <feBlend mode="normal" in="SourceGraphic" in2="effect2_dropShadow_17276_10907" result="shape"/>
            <feColorMatrix in="SourceAlpha" type="matrix" values="0 0 0 0 0 0 0 0 0 0 0 0 0 0 0 0 0 0 127 0" result="hardAlpha"/>
            <feOffset/>
            <feGaussianBlur stdDeviation="0.25"/>
            <feComposite in2="hardAlpha" operator="arithmetic" k2="-1" k3="1"/>
            <feColorMatrix type="matrix" values="0 0 0 0 0.0792906 0 0 0 0 0.243589 0 0 0 0 0.407887 0 0 0 0.35 0"/>
            <feBlend mode="normal" in2="shape" result="effect3_innerShadow_17276_10907"/>
        </filter>
    </defs>
</svg>
