<svg width="24" height="18" viewBox="0 0 24 18" fill="none" xmlns="http://www.w3.org/2000/svg">
    <path d="M0.826172 17.1271V11.8643C0.826172 10.4025 1.11085 8.92519 1.68022 7.43253C2.26497 5.92448 3.019 4.52415 3.94229 3.23153C4.88098 1.92353 5.85044 0.846354 6.85068 0L11.6518 2.63139C10.8208 3.98556 10.1592 5.40128 9.66673 6.87855C9.1743 8.34043 8.93578 9.99467 8.95117 11.8413V17.1271H0.826172ZM12.4135 17.1271V11.8643C12.4135 10.4025 12.6982 8.92519 13.2676 7.43253C13.8523 5.92448 14.6064 4.52415 15.5297 3.23153C16.4683 1.92353 17.4378 0.846354 18.438 0L23.2392 2.63139C22.4082 3.98556 21.7465 5.40128 21.2541 6.87855C20.7617 8.34043 20.5231 9.99467 20.5385 11.8413V17.1271H12.4135Z" fill="url(#paint0_linear_17004_6017)"/>
    <defs>
        <linearGradient id="paint0_linear_17004_6017" x1="10.8457" y1="7.24636" x2="12.8605" y2="18.044" gradientUnits="userSpaceOnUse">
            <stop offset="0.0076178" stop-color="#00D2D3"/>
            <stop offset="0.91" stop-color="#00B3FF"/>
        </linearGradient>
    </defs>
</svg>
