<svg width="59" height="58" viewBox="0 0 59 58" fill="none" xmlns="http://www.w3.org/2000/svg">
    <circle cx="29.9775" cy="29" r="29" fill="#D5DAEF"/>
    <circle cx="29.9771" cy="29.0001" r="24.65" fill="#475385"/>
    <path d="M37.7671 36.3955C37.8942 36.5365 37.9921 36.7013 38.0552 36.8803C38.1184 37.0593 38.1455 37.249 38.135 37.4385C38.1245 37.628 38.0766 37.8136 37.9942 37.9846C37.9117 38.1555 37.7962 38.3085 37.6544 38.4346C36.3265 39.6216 34.7077 40.4354 32.9629 40.793C31.2181 41.1507 29.4097 41.0394 27.7219 40.4706C26.0341 39.9018 24.5273 38.8957 23.3549 37.555C22.1825 36.2142 21.3865 34.5866 21.048 32.838H19.4227C19.041 32.838 18.6749 32.6863 18.405 32.4164C18.135 32.1465 17.9834 31.7804 17.9834 31.3986C17.9834 31.0169 18.135 30.6508 18.405 30.3809C18.6749 30.1109 19.041 29.9593 19.4227 29.9593H20.8621V28.0402H19.4227C19.041 28.0402 18.6749 27.8885 18.405 27.6186C18.135 27.3487 17.9834 26.9826 17.9834 26.6008C17.9834 26.2191 18.135 25.853 18.405 25.5831C18.6749 25.3131 19.041 25.1615 19.4227 25.1615H21.048C21.3874 23.4134 22.184 21.7865 23.3567 20.4464C24.5294 19.1064 26.0364 18.1011 27.724 17.5329C29.4117 16.9648 31.2198 16.8541 32.9642 17.212C34.7085 17.57 36.3269 18.3839 37.6544 19.5709C37.9389 19.8254 38.1107 20.1825 38.132 20.5636C38.1532 20.9448 38.0222 21.3188 37.7677 21.6033C37.5132 21.8879 37.1561 22.0597 36.7749 22.0809C36.3938 22.1022 36.0198 21.9712 35.7352 21.7167C34.8226 20.9006 33.717 20.3309 32.5228 20.0613C31.3286 19.7918 30.0854 19.8313 28.9107 20.1762C27.7361 20.521 26.6688 21.1599 25.8099 22.0322C24.951 22.9046 24.3288 23.9816 24.0022 25.1615H30.9374C31.3192 25.1615 31.6853 25.3131 31.9552 25.5831C32.2251 25.853 32.3768 26.2191 32.3768 26.6008C32.3768 26.9826 32.2251 27.3487 31.9552 27.6186C31.6853 27.8885 31.3192 28.0402 30.9374 28.0402H23.7408V29.9593H29.0183C29.4001 29.9593 29.7662 30.1109 30.0361 30.3809C30.306 30.6508 30.4577 31.0169 30.4577 31.3986C30.4577 31.7804 30.306 32.1465 30.0361 32.4164C29.7662 32.6863 29.4001 32.838 29.0183 32.838H24.0022C24.3288 34.0178 24.951 35.0949 25.8099 35.9672C26.6688 36.8396 27.7361 37.4784 28.9107 37.8233C30.0854 38.1682 31.3286 38.2077 32.5228 37.9381C33.717 37.6686 34.8226 37.0988 35.7352 36.2828C36.0197 36.0284 36.3935 35.8974 36.7745 35.9185C37.1555 35.9396 37.5126 36.1112 37.7671 36.3955Z" fill="white"/>
</svg>
