<svg width="29" height="32" viewBox="0 0 29 32" fill="none" xmlns="http://www.w3.org/2000/svg">
    <path fill-rule="evenodd" clip-rule="evenodd" d="M0.604025 4.93185C0 5.79245 0 8.35051 0 13.4666V15.9862C0 25.0071 6.78234 29.3848 11.0377 31.2436C12.192 31.7479 12.7692 32 14.4 32C16.0308 32 16.608 31.7479 17.7623 31.2436C22.0177 29.3848 28.8 25.0071 28.8 15.9862V13.4666C28.8 8.35051 28.8 5.79245 28.196 4.93185C27.592 4.07126 25.1867 3.24793 20.3761 1.60127L19.4596 1.28755C16.952 0.429182 15.6982 0 14.4 0C13.1018 0 11.848 0.429182 9.34036 1.28755L8.42386 1.60127C3.61332 3.24793 1.20805 4.07126 0.604025 4.93185ZM19.2951 13.5992C19.7365 13.1049 19.6936 12.3463 19.1992 11.9049C18.7049 11.4635 17.9463 11.5064 17.5049 12.0008L12.6857 17.3982L11.2951 15.8408C10.8537 15.3464 10.0951 15.3035 9.60078 15.7449C9.10642 16.1863 9.06348 16.9449 9.50488 17.4392L11.7906 19.9992C12.0183 20.2542 12.3439 20.4 12.6857 20.4C13.0276 20.4 13.3532 20.2542 13.5808 19.9992L19.2951 13.5992Z" fill="url(#paint0_linear_16948_1030)"/>
    <path fill-rule="evenodd" clip-rule="evenodd" d="M21.284 10.6896C21.9185 11.2894 21.9185 12.262 21.284 12.8618L13.7025 20.0298C13.0681 20.6297 12.0394 20.6297 11.405 20.0298L8.15572 16.9578C7.52127 16.358 7.52127 15.3854 8.15572 14.7856C8.79017 14.1857 9.81882 14.1857 10.4533 14.7856L12.5537 16.7715L18.9865 10.6896C19.6209 10.0897 20.6496 10.0897 21.284 10.6896Z" fill="white"/>
    <defs>
        <linearGradient id="paint0_linear_16948_1030" x1="8.10432" y1="7.00059" x2="17.531" y2="39.6437" gradientUnits="userSpaceOnUse">
            <stop offset="0.370557" stop-color="#00D2D3"/>
            <stop offset="1" stop-color="#489EFF"/>
        </linearGradient>
    </defs>
</svg>
