<svg width="36" height="40" viewBox="0 0 36 40" fill="none" xmlns="http://www.w3.org/2000/svg">
    <path fill-rule="evenodd" clip-rule="evenodd" d="M8.28993 0H26.8616C29.1247 0 30.2563 0 31.1689 0.325214C32.8994 0.94191 34.2581 2.37438 34.8431 4.19892C35.1515 5.16109 35.1515 6.3541 35.1515 8.74012V36.7484C35.1515 38.4649 33.228 39.3756 32.0111 38.2352C31.2962 37.5652 30.2189 37.5652 29.504 38.2352L28.5606 39.1194C27.3077 40.2935 25.4196 40.2935 24.1667 39.1194C22.9137 37.9452 21.0257 37.9452 19.7727 39.1194C18.5198 40.2935 16.6317 40.2935 15.3788 39.1194C14.1259 37.9452 12.2378 37.9452 10.9848 39.1194C9.73192 40.2935 7.84384 40.2935 6.59091 39.1194L5.64749 38.2352C4.93259 37.5652 3.85529 37.5652 3.14039 38.2352C1.92356 39.3756 0 38.4649 0 36.7484V8.74012C0 6.3541 0 5.16109 0.308462 4.19892C0.893394 2.37438 2.25208 0.94191 3.98264 0.325214C4.89526 0 6.02681 0 8.28993 0ZM7.81145 9.5C7.00255 9.5 6.3468 10.1716 6.3468 11C6.3468 11.8284 7.00255 12.5 7.81145 12.5H8.78788C9.59678 12.5 10.2525 11.8284 10.2525 11C10.2525 10.1716 9.59678 9.5 8.78788 9.5H7.81145ZM14.6465 9.5C13.8376 9.5 13.1818 10.1716 13.1818 11C13.1818 11.8284 13.8376 12.5 14.6465 12.5H27.3401C28.149 12.5 28.8047 11.8284 28.8047 11C28.8047 10.1716 28.149 9.5 27.3401 9.5H14.6465ZM7.81145 16.5C7.00255 16.5 6.3468 17.1716 6.3468 18C6.3468 18.8284 7.00255 19.5 7.81145 19.5H8.78788C9.59678 19.5 10.2525 18.8284 10.2525 18C10.2525 17.1716 9.59678 16.5 8.78788 16.5H7.81145ZM14.6465 16.5C13.8376 16.5 13.1818 17.1716 13.1818 18C13.1818 18.8284 13.8376 19.5 14.6465 19.5H27.3401C28.149 19.5 28.8047 18.8284 28.8047 18C28.8047 17.1716 28.149 16.5 27.3401 16.5H14.6465ZM7.81145 23.5C7.00255 23.5 6.3468 24.1716 6.3468 25C6.3468 25.8284 7.00255 26.5 7.81145 26.5H8.78788C9.59678 26.5 10.2525 25.8284 10.2525 25C10.2525 24.1716 9.59678 23.5 8.78788 23.5H7.81145ZM14.6465 23.5C13.8376 23.5 13.1818 24.1716 13.1818 25C13.1818 25.8284 13.8376 26.5 14.6465 26.5H27.3401C28.149 26.5 28.8047 25.8284 28.8047 25C28.8047 24.1716 28.149 23.5 27.3401 23.5H14.6465Z" fill="#AFB7DC"/>
</svg>
