<svg width="59" height="58" viewBox="0 0 59 58" fill="none" xmlns="http://www.w3.org/2000/svg">
    <circle cx="29.9775" cy="29" r="29" fill="#D5DAEF"/>
    <circle cx="29.9771" cy="29.0001" r="24.65" fill="#475385"/>
    <path d="M38.134 38.5953C38.134 38.977 37.9823 39.3431 37.7124 39.6131C37.4425 39.883 37.0764 40.0346 36.6946 40.0346H21.3417C20.9599 40.0346 20.5938 39.883 20.3239 39.6131C20.054 39.3431 19.9023 38.977 19.9023 38.5953C19.9023 38.2136 20.054 37.8475 20.3239 37.5775C20.5938 37.3076 20.9599 37.156 21.3417 37.156H21.8215C22.5849 37.156 23.3171 36.8527 23.857 36.3128C24.3968 35.773 24.7001 35.0408 24.7001 34.2773V30.4391H21.3417C20.9599 30.4391 20.5938 30.2874 20.3239 30.0175C20.054 29.7476 19.9023 29.3815 19.9023 28.9997C19.9023 28.618 20.054 28.2519 20.3239 27.982C20.5938 27.712 20.9599 27.5604 21.3417 27.5604H24.7001V23.7221C24.7 22.4483 25.062 21.2007 25.7441 20.1249C26.4261 19.0491 27.4 18.1893 28.5521 17.646C29.7043 17.1027 30.9871 16.8982 32.2511 17.0564C33.515 17.2145 34.708 17.7289 35.6907 18.5393C35.9851 18.7824 36.1709 19.1324 36.2072 19.5124C36.2436 19.8925 36.1274 20.2714 35.8844 20.5658C35.6414 20.8602 35.2913 21.046 34.9113 21.0823C34.5312 21.1187 34.1523 21.0025 33.8579 20.7595C33.1722 20.1903 32.3082 19.8803 31.417 19.8839C30.3991 19.8839 29.4228 20.2883 28.703 21.0081C27.9832 21.7279 27.5788 22.7042 27.5788 23.7221V27.5604H30.9373C31.319 27.5604 31.6851 27.712 31.955 27.982C32.225 28.2519 32.3766 28.618 32.3766 28.9997C32.3766 29.3815 32.225 29.7476 31.955 30.0175C31.6851 30.2874 31.319 30.4391 30.9373 30.4391H27.5788V34.2773C27.58 35.2882 27.3134 36.2814 26.8064 37.156H36.6946C37.0764 37.156 37.4425 37.3076 37.7124 37.5775C37.9823 37.8475 38.134 38.2136 38.134 38.5953Z" fill="white"/>
</svg>
