<svg width="59" height="58" viewBox="0 0 59 58" fill="none" xmlns="http://www.w3.org/2000/svg">
    <circle cx="29.9775" cy="29" r="29" fill="#D5DAEF"/>
    <circle cx="29.9771" cy="29.0001" r="24.65" fill="#475385"/>
    <path d="M40.0534 23.2425C40.0534 23.6242 39.9017 23.9903 39.6318 24.2603C39.3619 24.5302 38.9958 24.6818 38.614 24.6818H35.2556C35.2533 26.7171 34.4439 28.6683 33.0047 30.1075C31.5656 31.5466 29.6143 32.3561 27.5791 32.3583H26.9794L34.7758 39.4495C34.9183 39.5759 35.0343 39.7293 35.117 39.9008C35.1998 40.0724 35.2476 40.2587 35.2579 40.4488C35.2681 40.639 35.2405 40.8294 35.1766 41.0088C35.1127 41.1883 35.0139 41.3532 34.8858 41.4942C34.7577 41.6352 34.6029 41.7493 34.4304 41.83C34.2578 41.9107 34.071 41.9563 33.8807 41.9643C33.6904 41.9722 33.5004 41.9423 33.3217 41.8763C33.1431 41.8103 32.9793 41.7095 32.8399 41.5797L22.2847 31.9841C22.0692 31.7882 21.9182 31.5316 21.8516 31.248C21.785 30.9645 21.806 30.6675 21.9118 30.3962C22.0176 30.1248 22.2032 29.8919 22.4441 29.7283C22.685 29.5647 22.9699 29.478 23.2611 29.4796H27.5791C28.8516 29.4796 30.0719 28.9742 30.9717 28.0744C31.8714 27.1746 32.3769 25.9543 32.3769 24.6818H23.2611C22.8793 24.6818 22.5132 24.5302 22.2433 24.2603C21.9734 23.9903 21.8217 23.6242 21.8217 23.2425C21.8217 22.8608 21.9734 22.4947 22.2433 22.2247C22.5132 21.9548 22.8793 21.8032 23.2611 21.8032H31.4173C30.9704 21.2073 30.3909 20.7237 29.7247 20.3906C29.0585 20.0575 28.3239 19.884 27.5791 19.884H23.2611C22.8793 19.884 22.5132 19.7324 22.2433 19.4625C21.9734 19.1925 21.8217 18.8264 21.8217 18.4447C21.8217 18.063 21.9734 17.6969 22.2433 17.4269C22.5132 17.157 22.8793 17.0054 23.2611 17.0054H38.614C38.9958 17.0054 39.3619 17.157 39.6318 17.4269C39.9017 17.6969 40.0534 18.063 40.0534 18.4447C40.0534 18.8264 39.9017 19.1925 39.6318 19.4625C39.3619 19.7324 38.9958 19.884 38.614 19.884H33.5655C34.0326 20.4656 34.4124 21.1121 34.693 21.8032H38.614C38.9958 21.8032 39.3619 21.9548 39.6318 22.2247C39.9017 22.4947 40.0534 22.8608 40.0534 23.2425Z" fill="white"/>
</svg>
