<svg width="59" height="58" viewBox="0 0 59 58" fill="none" xmlns="http://www.w3.org/2000/svg">
    <circle cx="29.9775" cy="29" r="29" fill="#D5DAEF"/>
    <circle cx="29.9771" cy="29.0001" r="24.65" fill="#475385"/>
    <path d="M39.7286 20.316L33.0117 28.5202H35.7356C36.1174 28.5202 36.4835 28.6719 36.7534 28.9418C37.0233 29.2117 37.175 29.5778 37.175 29.9596C37.175 30.3413 37.0233 30.7074 36.7534 30.9773C36.4835 31.2473 36.1174 31.3989 35.7356 31.3989H31.4176V33.318H35.7356C36.1174 33.318 36.4835 33.4697 36.7534 33.7396C37.0233 34.0095 37.175 34.3756 37.175 34.7574C37.175 35.1391 37.0233 35.5052 36.7534 35.7751C36.4835 36.0451 36.1174 36.1967 35.7356 36.1967H31.4176V39.5552C31.4176 39.9369 31.266 40.303 30.9961 40.5729C30.7261 40.8429 30.36 40.9945 29.9783 40.9945C29.5966 40.9945 29.2305 40.8429 28.9605 40.5729C28.6906 40.303 28.539 39.9369 28.539 39.5552V36.1967H24.2209C23.8392 36.1967 23.4731 36.0451 23.2032 35.7751C22.9332 35.5052 22.7816 35.1391 22.7816 34.7574C22.7816 34.3756 22.9332 34.0095 23.2032 33.7396C23.4731 33.4697 23.8392 33.318 24.2209 33.318H28.539V31.3989H24.2209C23.8392 31.3989 23.4731 31.2473 23.2032 30.9773C22.9332 30.7074 22.7816 30.3413 22.7816 29.9596C22.7816 29.5778 22.9332 29.2117 23.2032 28.9418C23.4731 28.6719 23.8392 28.5202 24.2209 28.5202H26.9413L20.2244 20.316C20.1047 20.1694 20.015 20.0007 19.9605 19.8195C19.906 19.6383 19.8877 19.4481 19.9067 19.2598C19.9257 19.0715 19.9816 18.8888 20.0712 18.7221C20.1608 18.5555 20.2823 18.4081 20.4289 18.2883C20.5755 18.1686 20.7442 18.079 20.9254 18.0245C21.1066 17.9699 21.2968 17.9517 21.4851 17.9707C21.6734 17.9896 21.8561 18.0455 22.0227 18.1351C22.1894 18.2247 22.3368 18.3463 22.4566 18.4928L29.9783 27.6866L37.5 18.4928C37.7418 18.1973 38.0911 18.0099 38.471 17.9719C38.8509 17.9339 39.2304 18.0484 39.5259 18.2901C39.8214 18.5319 40.0088 18.8812 40.0468 19.2611C40.0848 19.641 39.9704 20.0205 39.7286 20.316Z" fill="white"/>
</svg>
