<svg width="20" height="20" viewBox="0 0 20 20" fill="none" xmlns="http://www.w3.org/2000/svg">
    <path d="M19.375 10C19.375 15.2467 15.1217 19.5 9.875 19.5C4.62829 19.5 0.375 15.2467 0.375 10C0.375 4.75329 4.62829 0.5 9.875 0.5C15.1217 0.5 19.375 4.75329 19.375 10Z" fill="#171E21"/>
    <path fill-rule="evenodd" clip-rule="evenodd" d="M14.6773 7.14346C15.2055 7.69708 15.1848 8.57404 14.6312 9.1022L9.56164 13.9386C9.02603 14.4495 8.18334 14.4492 7.64816 13.9377L5.11771 11.5196C4.56454 10.9909 4.54464 10.114 5.07327 9.56079C5.60189 9.00762 6.47887 8.98772 7.03204 9.51635L8.60614 11.0206L12.7186 7.09735C13.2722 6.5692 14.1491 6.58984 14.6773 7.14346Z" fill="white"/>
</svg>
