<svg width="19" height="20" viewBox="0 0 19 20" fill="none" xmlns="http://www.w3.org/2000/svg">
    <path d="M19 10C19 15.2467 14.7467 19.5 9.5 19.5C4.25329 19.5 0 15.2467 0 10C0 4.75329 4.25329 0.5 9.5 0.5C14.7467 0.5 19 4.75329 19 10Z" fill="#00E5E8"/>
    <path fill-rule="evenodd" clip-rule="evenodd" d="M14.3023 7.14371C14.8305 7.69733 14.8098 8.57428 14.2562 9.10244L9.18664 13.9388C8.65103 14.4498 7.80834 14.4494 7.27316 13.938L4.74271 11.5198C4.18954 10.9912 4.16964 10.1142 4.69827 9.56103C5.22689 9.00786 6.10387 8.98797 6.65704 9.51659L8.23114 11.0209L12.3436 7.0976C12.8972 6.56944 13.7741 6.59009 14.3023 7.14371Z" fill="white"/>
</svg>
