<svg width="32" height="32" viewBox="0 0 32 32" fill="none" xmlns="http://www.w3.org/2000/svg">
    <path fill-rule="evenodd" clip-rule="evenodd" d="M16 32C8.45753 32 4.68629 32 2.34315 29.6569C0 27.3137 0 23.5425 0 16C0 8.45753 0 4.68629 2.34315 2.34315C4.68629 0 8.45753 0 16 0C23.5425 0 27.3137 0 29.6569 2.34315C32 4.68629 32 8.45753 32 16C32 23.5425 32 27.3137 29.6569 29.6569C27.3137 32 23.5425 32 16 32Z" fill="url(#paint0_linear_16948_9912)"/>
    <path d="M24.2957 21.2959L21.2957 24.2959C21.0844 24.5072 20.7977 24.626 20.4989 24.626C20.2 24.626 19.9133 24.5072 19.702 24.2959C19.4906 24.0846 19.3719 23.7979 19.3719 23.499C19.3719 23.2001 19.4906 22.9135 19.702 22.7021L20.781 21.625H8.49979C8.20142 21.625 7.91528 21.5064 7.7043 21.2955C7.49332 21.0845 7.37479 20.7983 7.37479 20.5C7.37479 20.2016 7.49332 19.9154 7.7043 19.7045C7.91528 19.4935 8.20142 19.375 8.49979 19.375H20.781L19.701 18.2959C19.4897 18.0846 19.371 17.7979 19.371 17.499C19.371 17.2001 19.4897 16.9135 19.701 16.7021C19.9124 16.4908 20.199 16.3721 20.4979 16.3721C20.7968 16.3721 21.0834 16.4908 21.2948 16.7021L24.2948 19.7021C24.3997 19.8066 24.483 19.9307 24.5399 20.0675C24.5967 20.2042 24.6261 20.3508 24.6262 20.4988C24.6262 20.6469 24.5971 20.7935 24.5404 20.9303C24.4837 21.0671 24.4006 21.1913 24.2957 21.2959ZM10.702 15.2959C10.9133 15.5072 11.2 15.626 11.4989 15.626C11.7977 15.626 12.0844 15.5072 12.2957 15.2959C12.5071 15.0846 12.6258 14.7979 12.6258 14.499C12.6258 14.2001 12.5071 13.9135 12.2957 13.7021L11.2185 12.625H23.4998C23.7982 12.625 24.0843 12.5064 24.2953 12.2955C24.5063 12.0845 24.6248 11.7983 24.6248 11.5C24.6248 11.2016 24.5063 10.9154 24.2953 10.7045C24.0843 10.4935 23.7982 10.375 23.4998 10.375H11.2185L12.2957 9.2959C12.5071 9.08455 12.6258 8.79791 12.6258 8.49902C12.6258 8.20014 12.5071 7.91349 12.2957 7.70215C12.0844 7.4908 11.7977 7.37207 11.4989 7.37207C11.2 7.37207 10.9133 7.4908 10.702 7.70215L7.70198 10.7021C7.5971 10.8067 7.51388 10.9309 7.4571 11.0676C7.40032 11.2043 7.37109 11.351 7.37109 11.499C7.37109 11.6471 7.40032 11.7937 7.4571 11.9304C7.51388 12.0672 7.5971 12.1914 7.70198 12.2959L10.702 15.2959Z" fill="white" stroke="white" stroke-width="0.5"/>
    <defs>
        <linearGradient id="paint0_linear_16948_9912" x1="9.0048" y1="7.00059" x2="17.6148" y2="40.1282" gradientUnits="userSpaceOnUse">
            <stop offset="0.370557" stop-color="#00D2D3"/>
            <stop offset="1" stop-color="#489EFF"/>
        </linearGradient>
    </defs>
</svg>
