<svg width="40" height="32" viewBox="0 0 40 32" fill="none" xmlns="http://www.w3.org/2000/svg">
    <path d="M24 0H16C8.45753 0 4.68629 0 2.34315 2.34315C0.656064 4.03023 0.183693 6.45765 0.0514329 10.5L0.00377059 13.5H39.9962L39.9486 10.5C39.8163 6.45765 39.3439 4.03023 37.6569 2.34315C35.3137 0 31.5425 0 24 0Z" fill="#AFB7DC"/>
    <path d="M16 32H24C31.5425 32 35.3137 32 37.6569 29.6569C40 27.3137 40 23.5425 40 16C40 15.1161 40 14.2841 39.9962 13.5H0.00377059C0 15.3333 0 15.1161 0 16C0 23.5425 0 27.3137 2.34315 29.6569C4.68629 32 8.45753 32 16 32Z" fill="#AFB7DC"/>
    <path fill-rule="evenodd" clip-rule="evenodd" d="M6.25 8C7.28553 8 8.125 8.82655 8.125 9.84615L8.125 22.1538C8.125 23.1734 7.28553 24 6.25 24C5.21447 24 4.375 23.1734 4.375 22.1538L4.375 9.84615C4.375 8.82655 5.21447 8 6.25 8ZM20 11.6923C17.2386 11.6923 15 13.8964 15 16.6154C15 19.3343 17.2386 21.5385 20 21.5385C22.7614 21.5385 25 19.3343 25 16.6154C25 13.8964 22.7614 11.6923 20 11.6923ZM11.25 16.6154C11.25 11.8572 15.1675 8 20 8C24.8325 8 28.75 11.8572 28.75 16.6154C28.75 21.3735 24.8325 25.2308 20 25.2308C15.1675 25.2308 11.25 21.3735 11.25 16.6154ZM33.75 8C34.7855 8 35.625 8.82655 35.625 9.84615L35.625 22.1538C35.625 23.1734 34.7855 24 33.75 24C32.7145 24 31.875 23.1734 31.875 22.1538L31.875 9.84615C31.875 8.82655 32.7145 8 33.75 8Z" fill="white"/>
</svg>
