<svg width="59" height="58" viewBox="0 0 59 58" fill="none" xmlns="http://www.w3.org/2000/svg">
    <circle cx="29.9775" cy="29" r="29" fill="#D5DAEF"/>
    <circle cx="29.9771" cy="29.0001" r="24.65" fill="#475385"/>
    <path d="M39.0939 33.7978C39.092 35.4514 38.4343 37.0368 37.265 38.206C36.0957 39.3753 34.5104 40.0331 32.8568 40.035H31.4175V41.4743C31.4175 41.856 31.2658 42.2221 30.9959 42.4921C30.726 42.762 30.3598 42.9136 29.9781 42.9136C29.5964 42.9136 29.2303 42.762 28.9603 42.4921C28.6904 42.2221 28.5388 41.856 28.5388 41.4743V40.035H27.0994C25.4458 40.0331 23.8605 39.3753 22.6912 38.206C21.5219 37.0368 20.8642 35.4514 20.8623 33.7978C20.8623 33.4161 21.0139 33.05 21.2839 32.7801C21.5538 32.5101 21.9199 32.3585 22.3016 32.3585C22.6834 32.3585 23.0495 32.5101 23.3194 32.7801C23.5893 33.05 23.741 33.4161 23.741 33.7978C23.741 34.6885 24.0948 35.5428 24.7247 36.1726C25.3545 36.8024 26.2087 37.1563 27.0994 37.1563H32.8568C33.7475 37.1563 34.6017 36.8024 35.2316 36.1726C35.8614 35.5428 36.2152 34.6885 36.2152 33.7978C36.2152 32.9071 35.8614 32.0529 35.2316 31.423C34.6017 30.7932 33.7475 30.4394 32.8568 30.4394H28.059C26.4048 30.4394 24.8184 29.7822 23.6487 28.6126C22.479 27.4429 21.8219 25.8564 21.8219 24.2022C21.8219 22.548 22.479 20.9616 23.6487 19.7919C24.8184 18.6222 26.4048 17.9651 28.059 17.9651H28.5388V16.5258C28.5388 16.144 28.6904 15.7779 28.9603 15.508C29.2303 15.2381 29.5964 15.0864 29.9781 15.0864C30.3598 15.0864 30.726 15.2381 30.9959 15.508C31.2658 15.7779 31.4175 16.144 31.4175 16.5258V17.9651H31.8972C33.5508 17.967 35.1362 18.6247 36.3054 19.794C37.4747 20.9633 38.1325 22.5486 38.1344 24.2022C38.1344 24.584 37.9827 24.9501 37.7128 25.22C37.4429 25.4899 37.0768 25.6416 36.695 25.6416C36.3133 25.6416 35.9472 25.4899 35.6773 25.22C35.4073 24.9501 35.2557 24.584 35.2557 24.2022C35.2557 23.3115 34.9019 22.4573 34.272 21.8274C33.6422 21.1976 32.7879 20.8438 31.8972 20.8438H28.059C27.1683 20.8438 26.314 21.1976 25.6842 21.8274C25.0544 22.4573 24.7005 23.3115 24.7005 24.2022C24.7005 25.093 25.0544 25.9472 25.6842 26.577C26.314 27.2069 27.1683 27.5607 28.059 27.5607H32.8568C34.5104 27.5626 36.0957 28.2203 37.265 29.3896C38.4343 30.5589 39.092 32.1442 39.0939 33.7978Z" fill="white"/>
</svg>
