<svg width="41" height="40" viewBox="0 0 41 40" fill="none" xmlns="http://www.w3.org/2000/svg">
<g clip-path="url(#clip0_14976_9764)">
<path d="M40.9868 20.0001C40.9868 31.0457 32.0324 40.0001 20.9868 40.0001C9.94119 40.0001 0.986816 31.0457 0.986816 20.0001C0.986816 20.0048 20.9868 0.0023877 20.9868 0.00012207C32.0324 0.00012207 40.9868 8.9545 40.9868 20.0001Z" fill="#0052B4"/>
<path d="M20.9874 0.00012207C20.9863 0.00012207 20.985 0.000204191 20.9839 0.000204191L20.9874 0.00012207Z" fill="#F0F0F0"/>
<path d="M20.9336 20H20.9871C20.9871 19.9819 20.9871 19.9646 20.9871 19.9465C20.9693 19.9644 20.9515 19.9822 20.9336 20Z" fill="#F0F0F0"/>
<path d="M20.9873 10.435C20.9873 6.91587 20.9873 4.60985 20.9873 0.000244141H20.984C9.93981 0.00204102 0.987305 8.95555 0.987305 20.0002H11.4221V14.1242L17.298 20.0002H20.9339C20.9518 19.9824 20.9696 19.9645 20.9874 19.9466C20.9874 18.5992 20.9874 17.397 20.9874 16.311L15.1114 10.435H20.9873Z" fill="#F0F0F0"/>
<path d="M11.1054 2.60876C7.97734 4.38994 5.37687 6.99041 3.5957 10.1185V20.0001H8.81312V7.82627V7.82619H20.987C20.987 6.18064 20.987 4.61298 20.987 2.60876H11.1054Z" fill="#D80027"/>
<path d="M20.987 17.5407L13.8813 10.4351H11.4219C11.4219 10.435 11.4219 10.4351 11.4219 10.4351L20.987 20.0002H20.987C20.987 20.0002 20.987 18.3045 20.987 17.5407Z" fill="#D80027"/>
<path d="M13.0495 23.4783L14.1471 25.7734L16.6258 25.2005L15.5158 27.4898L17.5091 29.0705L15.0273 29.6298L15.0342 32.1739L13.0495 30.5823L11.0648 32.1739L11.0717 29.6298L8.58984 29.0705L10.5832 27.4898L9.47305 25.2005L11.9519 25.7734L13.0495 23.4783Z" fill="#F0F0F0"/>
<path d="M30.9314 27.8262L31.4803 28.9738L32.7196 28.6873L32.1645 29.8319L33.1613 30.6223L31.9203 30.902L31.9238 32.174L30.9314 31.3781L29.9391 32.174L29.9425 30.902L28.7017 30.6223L29.6983 29.8319L29.1433 28.6873L30.3826 28.9738L30.9314 27.8262Z" fill="#F0F0F0"/>
<path d="M25.826 15.6522L26.3748 16.7999L27.6142 16.5133L27.0592 17.6579L28.0558 18.4483L26.8149 18.728L26.8183 20L25.826 19.2042L24.8337 20L24.8371 18.728L23.5962 18.4483L24.5928 17.6579L24.0378 16.5133L25.2772 16.7999L25.826 15.6522Z" fill="#F0F0F0"/>
<path d="M30.9314 8.69568L31.4803 9.84333L32.7196 9.55685L32.1646 10.7015L33.1612 11.4918L31.9203 11.7715L31.9238 13.0436L30.9314 12.2477L29.9391 13.0436L29.9425 11.7715L28.7017 11.4918L29.6982 10.7015L29.1433 9.55685L30.3826 9.84333L30.9314 8.69568Z" fill="#F0F0F0"/>
<path d="M35.391 13.9131L35.9397 15.0607L37.1791 14.7742L36.6241 15.9188L37.6207 16.7092L36.3798 16.9889L36.3832 18.2609L35.391 17.4651L34.3986 18.2609L34.402 16.9889L33.1611 16.7092L34.1578 15.9188L33.6028 14.7742L34.8421 15.0607L35.391 13.9131Z" fill="#F0F0F0"/>
<path d="M32.2022 20L32.6338 21.3286H34.0309L32.9006 22.1498L33.3324 23.4783L32.2022 22.6572L31.0721 23.4783L31.5037 22.1498L30.3735 21.3286H31.7705L32.2022 20Z" fill="#F0F0F0"/>
</g>
<defs>
<clipPath id="clip0_14976_9764">
<rect width="40" height="40" fill="white" transform="translate(0.987305)"/>
</clipPath>
</defs>
</svg>
