<svg width="41" height="40" viewBox="0 0 41 40" fill="none" xmlns="http://www.w3.org/2000/svg">
<g clip-path="url(#clip0_15411_46329)">
<path d="M20.9873 40.0001C32.033 40.0001 40.9873 31.0458 40.9873 20.0001C40.9873 8.95443 32.033 0.00012207 20.9873 0.00012207C9.94161 0.00012207 0.987305 8.95443 0.987305 20.0001C0.987305 31.0458 9.94161 40.0001 20.9873 40.0001Z" fill="#F0F0F0"/>
<path d="M20.9874 0C16.9736 0 13.2368 1.1832 10.1046 3.21859L15.2482 6.66617L8.81348 9.99945L15.2482 13.3327L8.81348 16.666L15.2482 19.9989L8.81348 23.3321L15.2482 26.6653L8.81348 29.9989L15.2482 33.3322L10.1039 36.7809C13.2363 38.8166 16.9734 40 20.9874 40C32.033 40 40.9874 31.0456 40.9874 20C40.9874 8.95437 32.033 0 20.9874 0V0Z" fill="#D80027"/>
</g>
<defs>
<clipPath id="clip0_15411_46329">
<rect width="40" height="40" fill="white" transform="translate(0.987305)"/>
</clipPath>
</defs>
</svg>
