<svg width="41" height="40" viewBox="0 0 41 40" fill="none" xmlns="http://www.w3.org/2000/svg">
<g clip-path="url(#clip0_14976_9665)">
<path d="M1.93168 13.913C1.31902 15.8324 0.987227 17.8772 0.987305 19.9999C0.987227 22.1225 1.31902 24.1674 1.93176 26.0869L20.9873 26.9566L40.0428 26.0869C40.6554 24.1674 40.9872 22.1224 40.9872 20C40.9872 17.8774 40.6554 15.8324 40.0428 13.913L20.9872 13.0435L1.93168 13.913Z" fill="#F0F0F0"/>
<path d="M40.9873 20.0001C40.9873 18.8136 40.8834 17.6514 40.6852 16.5217H1.28949C1.09121 17.6514 0.987305 18.8134 0.987305 20C0.987305 21.1866 1.09129 22.3486 1.28949 23.4783H40.6852C40.8833 22.3485 40.9873 21.1865 40.9873 20.0001Z" fill="black"/>
<path d="M20.9872 39.9998C29.9103 39.9998 37.4673 34.1558 40.0426 26.0867H1.93164C4.50703 34.1557 12.0641 39.9996 20.9872 39.9998Z" fill="#338AF3"/>
<path d="M20.9873 3.13307e-09C12.0642 3.13307e-09 4.50719 5.84398 1.93164 13.9129L40.0426 13.913C37.4673 5.84398 29.9102 -0.000156247 20.9873 3.13307e-09Z" fill="#338AF3"/>
</g>
<defs>
<clipPath id="clip0_14976_9665">
<rect width="40" height="40" fill="white" transform="translate(0.987305)"/>
</clipPath>
</defs>
</svg>
