<svg width="41" height="40" viewBox="0 0 41 40" fill="none" xmlns="http://www.w3.org/2000/svg">
<g clip-path="url(#clip0_14976_9635)">
<path d="M40.9873 19.9999C40.9873 17.5535 40.5473 15.21 39.7433 13.0434L20.9873 12.1738L2.23129 13.0434C1.42738 15.21 0.987305 17.5535 0.987305 19.9999C0.987305 22.4463 1.42738 24.7898 2.23129 26.9564L20.9873 27.826L39.7433 26.9565C40.5473 24.7898 40.9873 22.4463 40.9873 19.9999Z" fill="#496E2D"/>
<path d="M20.9875 40C29.5868 40 36.9176 34.5726 39.7435 26.9565H2.23145C5.05731 34.5726 12.3882 40 20.9875 40Z" fill="#D80027"/>
<path d="M2.23145 13.0435H39.7436C36.9176 5.4275 29.5868 0 20.9875 0C12.3882 0 5.05731 5.4275 2.23145 13.0435Z" fill="#F0F0F0"/>
</g>
<defs>
<clipPath id="clip0_14976_9635">
<rect width="40" height="40" fill="white" transform="translate(0.987305)"/>
</clipPath>
</defs>
</svg>
