<svg width="41" height="40" viewBox="0 0 41 40" fill="none" xmlns="http://www.w3.org/2000/svg">
<g clip-path="url(#clip0_14976_9590)">
<path d="M20.9868 40C32.0325 40 40.9868 31.0457 40.9868 20C40.9868 8.95431 32.0325 0 20.9868 0C9.94112 0 0.986816 8.95431 0.986816 20C0.986816 31.0457 9.94112 40 20.9868 40Z" fill="#F0F0F0"/>
<path d="M40.987 19.9998C40.987 12.0706 36.3725 5.21937 29.6826 1.98438V38.0152C36.3725 34.7803 40.987 27.9291 40.987 19.9998Z" fill="#D80027"/>
<path d="M0.987305 19.9998C0.987305 27.9291 5.60176 34.7803 12.2917 38.0153V1.98438C5.60176 5.21937 0.987305 12.0706 0.987305 19.9998Z" fill="#D80027"/>
<path d="M24.4655 22.6085L27.9437 20.8693L26.2047 19.9998V18.2607L22.7264 19.9998L24.4655 16.5215H22.7264L20.9872 13.9128L19.2481 16.5215H17.509L19.2481 19.9998L15.7698 18.2607V19.9998L14.0308 20.8693L17.509 22.6085L16.6394 24.3476H20.1177V26.9563H21.8568V24.3476H25.3351L24.4655 22.6085Z" fill="#D80027"/>
</g>
<defs>
<clipPath id="clip0_14976_9590">
<rect width="40" height="40" fill="white" transform="translate(0.987305)"/>
</clipPath>
</defs>
</svg>
