<svg width="41" height="40" viewBox="0 0 41 40" fill="none" xmlns="http://www.w3.org/2000/svg">
<g clip-path="url(#clip0_15411_46285)">
<path d="M20.9873 40C32.033 40 40.9873 31.0457 40.9873 20C40.9873 8.9543 32.033 0 20.9873 0C9.94161 0 0.987305 8.9543 0.987305 20C0.987305 31.0457 9.94161 40 20.9873 40Z" fill="#D80027"/>
<path d="M11.9326 12.1719L13.6592 17.4844H19.2451L14.7295 20.7734L16.4561 26.0859L11.9326 22.8047L7.40918 26.0859L9.14355 20.7734L4.62012 17.4844H10.2061L11.9326 12.1719Z" fill="#FFDA44"/>
<path d="M24.6982 30.9766L23.3779 29.3516L21.4248 30.1094L22.5576 28.3516L21.2373 26.7188L23.2607 27.2578L24.4014 25.5L24.5107 27.5938L26.542 28.1328L24.5811 28.8828L24.6982 30.9766Z" fill="#FFDA44"/>
<path d="M27.3232 26.2109L27.9482 24.2109L26.2373 23L28.3311 22.9688L28.9482 20.9688L29.6279 22.9531L31.7217 22.9297L30.042 24.1797L30.7139 26.1641L29.0029 24.9531L27.3232 26.2109Z" fill="#FFDA44"/>
<path d="M30.8623 14.6797L29.9404 16.5625L31.4404 18.0234L29.3701 17.7266L28.4482 19.6016L28.0889 17.5391L26.0107 17.2422L27.8701 16.2656L27.5107 14.1953L29.0107 15.6562L30.8623 14.6797Z" fill="#FFDA44"/>
<path d="M24.7529 8.97656L24.5967 11.0625L26.542 11.8516L24.5029 12.3516L24.3545 14.4453L23.2529 12.6641L21.2139 13.1641L22.5654 11.5625L21.4561 9.78906L23.4014 10.5781L24.7529 8.97656Z" fill="#FFDA44"/>
</g>
<defs>
<clipPath id="clip0_15411_46285">
<rect width="40" height="40" fill="white" transform="translate(0.987305)"/>
</clipPath>
</defs>
</svg>
