<svg width="41" height="40" viewBox="0 0 41 40" fill="none" xmlns="http://www.w3.org/2000/svg">
<g clip-path="url(#clip0_14976_9500)">
<path d="M40.9873 19.9999C40.9873 17.5535 40.5472 15.21 39.7433 13.0434L20.9873 12.1738L2.23129 13.0434C1.42738 15.21 0.987305 17.5535 0.987305 19.9999C0.987305 22.4463 1.42738 24.7898 2.23129 26.9564L20.9873 27.826L39.7433 26.9565C40.5472 24.7898 40.9873 22.4463 40.9873 19.9999Z" fill="#F0F0F0"/>
<path d="M20.9875 40.0001C29.5868 40.0001 36.9176 34.5726 39.7435 26.9565H2.23145C5.0573 34.5726 12.3882 40.0001 20.9875 40.0001Z" fill="#0052B4"/>
<path d="M2.23145 13.0435H39.7435C36.9176 5.4275 29.5868 0 20.9875 0C12.3882 0 5.0573 5.4275 2.23145 13.0435Z" fill="#D80027"/>
<path d="M26.2048 13.9132H22.7266L23.3063 9.56531L25.6251 7.82617L27.9439 9.56531V13.0436L26.2048 13.9132Z" fill="#338AF3"/>
<path d="M15.7698 13.9132H19.2481L18.6683 9.56531L16.3495 7.82617L14.0308 9.56531V13.0436L15.7698 13.9132Z" fill="#338AF3"/>
<path d="M23.3063 13.9132H18.6685V9.56531L20.9874 7.82617L23.3063 9.56531V13.9132Z" fill="#0052B4"/>
<path d="M14.0308 13.0437V22.6089C14.0308 24.8864 15.1309 26.9119 16.8278 28.1817L18.0452 27.8771L19.5815 29.4225C20.0358 29.5161 20.5058 29.5654 20.9873 29.5654C21.4662 29.5654 21.934 29.5168 22.3858 29.4241L24.1395 27.9639L25.1467 28.1789C26.8429 26.9092 27.9438 24.8858 27.9438 22.6089V13.0437H14.0308Z" fill="#F0F0F0"/>
<path d="M14.0308 13.0435H16.8133V15.826H14.0308V13.0435Z" fill="#D80027"/>
<path d="M19.5957 13.0435H22.3783V15.826H19.5957V13.0435Z" fill="#D80027"/>
<path d="M25.1611 13.0435H27.9437V15.826H25.1611V13.0435Z" fill="#D80027"/>
<path d="M16.8135 15.8259H19.5961V18.6085H16.8135V15.8259Z" fill="#D80027"/>
<path d="M22.3784 15.8259H25.161V18.6085H22.3784V15.8259Z" fill="#D80027"/>
<path d="M14.0308 18.6077H16.8133V21.3902H14.0308V18.6077Z" fill="#D80027"/>
<path d="M16.8135 21.3904H19.5961V24.173H16.8135V21.3904Z" fill="#D80027"/>
<path d="M19.5957 18.6077H22.3783V21.3902H19.5957V18.6077Z" fill="#D80027"/>
<path d="M25.1611 18.6077H27.9437V21.3902H25.1611V18.6077Z" fill="#D80027"/>
<path d="M22.3784 21.3904H25.161V24.173H22.3784V21.3904Z" fill="#D80027"/>
<path d="M19.5957 24.1731H22.3783V26.9557H19.5957V24.1731Z" fill="#D80027"/>
<path d="M16.8135 24.1731H14.2104C14.4492 25.2075 14.9186 26.154 15.5622 26.9557H16.8135V24.1731Z" fill="#D80027"/>
<path d="M25.1611 26.9559H26.4124C27.0561 26.1542 27.5253 25.2076 27.7641 24.1733H25.1611V26.9559Z" fill="#D80027"/>
<path d="M16.8135 26.9558V28.1699C17.6228 28.7789 18.5686 29.2156 19.5961 29.4251V26.9558H16.8135Z" fill="#D80027"/>
<path d="M22.3784 26.9558V29.4251C23.406 29.2157 24.3517 28.7789 25.161 28.1699V26.9558H22.3784Z" fill="#D80027"/>
</g>
<defs>
<clipPath id="clip0_14976_9500">
<rect width="40" height="40" fill="white" transform="translate(0.987305)"/>
</clipPath>
</defs>
</svg>
