<svg width="41" height="40" viewBox="0 0 41 40" fill="none" xmlns="http://www.w3.org/2000/svg">
<g clip-path="url(#clip0_14976_9477)">
<path d="M20.9868 40C32.0325 40 40.9868 31.0457 40.9868 20C40.9868 8.9543 32.0325 0 20.9868 0C9.94112 0 0.986816 8.9543 0.986816 20C0.986816 31.0457 9.94112 40 20.9868 40Z" fill="#F0F0F0"/>
<path d="M19.2483 20C19.2483 20 6.85693 34.1449 6.84521 34.1421C10.4644 37.7614 15.4645 40 20.9874 40C32.033 40 40.9874 31.0456 40.9874 20H19.2483Z" fill="#D80027"/>
<path d="M6.84516 5.85791C-0.965312 13.6684 -0.965312 26.3317 6.84516 34.1423C10.0727 30.9147 13.1769 27.8106 20.9873 20.0001L6.84516 5.85791Z" fill="#0052B4"/>
</g>
<defs>
<clipPath id="clip0_14976_9477">
<rect width="40" height="40" fill="white" transform="translate(0.987305)"/>
</clipPath>
</defs>
</svg>
