<svg width="41" height="40" viewBox="0 0 41 40" fill="none" xmlns="http://www.w3.org/2000/svg">
<g clip-path="url(#clip0_14976_9467)">
<path d="M20.9873 40C32.033 40 40.9873 31.0457 40.9873 20C40.9873 8.9543 32.033 0 20.9873 0C9.94161 0 0.987305 8.9543 0.987305 20C0.987305 31.0457 9.94161 40 20.9873 40Z" fill="#F0F0F0"/>
<path d="M16.6397 17.3913H40.8182C39.5398 7.57828 31.1489 0 20.9875 0C19.4941 0 18.0396 0.165078 16.6396 0.475391V17.3913H16.6397Z" fill="#D80027"/>
<path d="M11.4222 17.3912V2.43176C5.93057 5.42817 1.99916 10.9243 1.15674 17.3913H11.4222V17.3912Z" fill="#D80027"/>
<path d="M11.4221 22.6087H1.15674C1.99916 29.0757 5.93057 34.5718 11.4222 37.5682L11.4221 22.6087Z" fill="#D80027"/>
<path d="M16.6396 22.6088V39.5246C18.0396 39.835 19.4941 40 20.9875 40C31.1489 40 39.5398 32.4218 40.8182 22.6087H16.6396V22.6088Z" fill="#D80027"/>
</g>
<defs>
<clipPath id="clip0_14976_9467">
<rect width="40" height="40" fill="white" transform="translate(0.987305)"/>
</clipPath>
</defs>
</svg>
