<svg width="41" height="40" viewBox="0 0 41 40" fill="none" xmlns="http://www.w3.org/2000/svg">
<g clip-path="url(#clip0_14976_9292)">
<path d="M0.987305 19.9999C0.987305 22.4463 1.42738 24.7898 2.23129 26.9564L20.9873 27.826L39.7433 26.9565C40.5473 24.7898 40.9873 22.4463 40.9873 19.9999C40.9873 17.5535 40.5473 15.2101 39.7433 13.0434L20.9873 12.1738L2.23129 13.0434C1.42738 15.2101 0.987305 17.5535 0.987305 19.9999H0.987305Z" fill="#FFDA44"/>
<path d="M20.9875 0C12.3882 0 5.0573 5.4275 2.23145 13.0435H39.7435C36.9176 5.4275 29.5868 0 20.9875 0Z" fill="#D80027"/>
<path d="M39.7435 26.9563H2.23145C5.05731 34.5722 12.3882 39.9998 20.9875 39.9998C29.5868 39.9998 36.9176 34.5722 39.7435 26.9563Z" fill="#496E2D"/>
<path d="M20.9872 13.0435L22.7138 18.3575H28.3019L23.7814 21.6421L25.5079 26.9564L20.9872 23.672L16.4665 26.9564L18.1934 21.6421L13.6729 18.3575H19.2607L20.9872 13.0435Z" fill="black"/>
</g>
<defs>
<clipPath id="clip0_14976_9292">
<rect width="40" height="40" fill="white" transform="translate(0.987305)"/>
</clipPath>
</defs>
</svg>
