<svg width="41" height="40" viewBox="0 0 41 40" fill="none" xmlns="http://www.w3.org/2000/svg">
<g clip-path="url(#clip0_14976_9194)">
<path d="M2.23129 13.0433C1.42738 15.2101 0.987305 17.5534 0.987305 19.9998C0.987305 22.4462 1.42738 24.7897 2.23129 26.9563L20.9873 28.6954L39.7433 26.9563C40.5472 24.7897 40.9873 22.4462 40.9873 19.9998C40.9873 17.5534 40.5472 15.2101 39.7433 13.0433L20.9873 11.3042L2.23129 13.0433Z" fill="#F0F0F0"/>
<path d="M20.9874 0C12.3882 0 5.05723 5.4275 2.23145 13.0435H39.7435C36.9175 5.4275 29.5867 0 20.9874 0Z" fill="#D80027"/>
<path d="M20.9874 39.9998C29.5868 39.9998 36.9175 34.5723 39.7435 26.9563H2.23145C5.05723 34.5723 12.3882 39.9998 20.9874 39.9998Z" fill="#6DA544"/>
</g>
<defs>
<clipPath id="clip0_14976_9194">
<rect width="40" height="40" fill="white" transform="translate(0.987305)"/>
</clipPath>
</defs>
</svg>
