<svg width="41" height="40" viewBox="0 0 41 40" fill="none" xmlns="http://www.w3.org/2000/svg">
<g clip-path="url(#clip0_14976_9174)">
<path d="M20.9873 40C32.033 40 40.9873 31.0457 40.9873 20C40.9873 8.9543 32.033 0 20.9873 0C9.94161 0 0.987305 8.9543 0.987305 20C0.987305 31.0457 9.94161 40 20.9873 40Z" fill="#F0F0F0"/>
<path d="M20.9872 0C13.0579 0 6.20668 4.61445 2.97168 11.3044H39.0025C35.7676 4.61445 28.9163 0 20.9872 0Z" fill="#FF9811"/>
<path d="M20.9871 40.0002C28.9163 40.0002 35.7676 35.3857 39.0026 28.6958H2.97168C6.20668 35.3857 13.0579 40.0002 20.9871 40.0002Z" fill="#6DA544"/>
<path d="M20.9872 26.9564C24.8292 26.9564 27.9437 23.8419 27.9437 19.9999C27.9437 16.158 24.8292 13.0435 20.9872 13.0435C17.1453 13.0435 14.0308 16.158 14.0308 19.9999C14.0308 23.8419 17.1453 26.9564 20.9872 26.9564Z" fill="#0052B4"/>
<path d="M20.9875 24.3477C23.3887 24.3477 25.3353 22.4011 25.3353 19.9999C25.3353 17.5987 23.3887 15.6521 20.9875 15.6521C18.5862 15.6521 16.6396 17.5987 16.6396 19.9999C16.6396 22.4011 18.5862 24.3477 20.9875 24.3477Z" fill="#F0F0F0"/>
<path d="M20.9871 14.6348L22.3285 17.6768L25.6335 17.3173L23.6697 19.9999L25.6335 22.6825L22.3285 22.323L20.9871 25.3651L19.6458 22.323L16.3408 22.6824L18.3046 19.9999L16.3408 17.3173L19.6458 17.6768L20.9871 14.6348Z" fill="#0052B4"/>
</g>
<defs>
<clipPath id="clip0_14976_9174">
<rect width="40" height="40" fill="white" transform="translate(0.987305)"/>
</clipPath>
</defs>
</svg>
