<svg width="41" height="40" viewBox="0 0 41 40" fill="none" xmlns="http://www.w3.org/2000/svg">
<g clip-path="url(#clip0_14976_9112)">
<path d="M20.9873 39.9999C32.033 39.9999 40.9873 31.0456 40.9873 19.9999C40.9873 8.95424 32.033 -6.10352e-05 20.9873 -6.10352e-05C9.94161 -6.10352e-05 0.987305 8.95424 0.987305 19.9999C0.987305 31.0456 9.94161 39.9999 20.9873 39.9999Z" fill="#F0F0F0"/>
<path d="M20.9876 28.6956C25.7901 28.6956 29.6832 24.8024 29.6832 19.9999C29.6832 15.1975 25.7901 11.3043 20.9876 11.3043C16.1852 11.3043 12.292 15.1975 12.292 19.9999C12.292 24.8024 16.1852 28.6956 20.9876 28.6956Z" fill="#D80027"/>
</g>
<defs>
<clipPath id="clip0_14976_9112">
<rect width="40" height="40" fill="white" transform="translate(0.987305)"/>
</clipPath>
</defs>
</svg>
