<svg width="41" height="40" viewBox="0 0 41 40" fill="none" xmlns="http://www.w3.org/2000/svg">
<g clip-path="url(#clip0_14976_9081)">
<path d="M20.9873 39.9999C32.033 39.9999 40.9873 31.0456 40.9873 19.9999C40.9873 8.95418 32.033 -0.00012207 20.9873 -0.00012207C9.94161 -0.00012207 0.987305 8.95418 0.987305 19.9999C0.987305 31.0456 9.94161 39.9999 20.9873 39.9999Z" fill="#F0F0F0"/>
<path d="M20.9871 -0.00012207C13.0579 -0.00012207 6.20668 4.61433 2.97168 11.3043H39.0025C35.7676 4.61433 28.9163 -0.00012207 20.9871 -0.00012207Z" fill="black"/>
<path d="M20.9871 39.9999C13.0579 39.9999 6.20668 35.3855 2.97168 28.6956H39.0025C35.7676 35.3855 28.9163 39.9999 20.9871 39.9999Z" fill="#496E2D"/>
<path d="M40.0429 13.9128H1.93176C1.3191 15.8323 0.987305 17.8772 0.987305 19.9998C0.987305 22.1224 1.3191 24.1673 1.93176 26.0867H40.0428C40.6555 24.1673 40.9873 22.1224 40.9873 19.9998C40.9873 17.8772 40.6555 15.8323 40.0429 13.9128Z" fill="#A2001D"/>
<path d="M27.2152 9.24213L24.8467 8.14893L20.9875 16.8873L17.1283 8.14893L14.7598 9.24213L19.551 19.9999L14.7598 30.7576L17.1283 31.8508L20.9875 23.1124L24.8467 31.8508L27.2152 30.7576L22.424 19.9999L27.2152 9.24213Z" fill="#F0F0F0"/>
<path d="M22.5962 10.2724C21.6794 9.27106 20.9876 8.69543 20.9876 8.69543C20.9876 8.69543 20.2958 9.27098 19.3789 10.2724V29.7271C20.2958 30.7286 20.9876 31.3042 20.9876 31.3042C20.9876 31.3042 21.6794 30.7286 22.5962 29.7271V10.2724Z" fill="#F0F0F0"/>
<path d="M16.6396 14.0032V25.9963C17.6086 27.7131 18.7944 29.1203 19.6832 30.0532V9.94629C18.7944 10.8792 17.6085 12.2864 16.6396 14.0032Z" fill="#A2001D"/>
<path d="M25.3355 14.0032C24.3665 12.2864 23.1807 10.8792 22.292 9.94629V30.0532C23.1807 29.1203 24.3665 27.7131 25.3355 25.9963V14.0032Z" fill="#A2001D"/>
<path d="M25.335 14.0033V25.9964C26.3158 24.2582 27.0741 22.2028 27.0741 19.9999C27.0741 17.797 26.3158 15.7416 25.335 14.0033Z" fill="black"/>
<path d="M16.6395 14.0033V25.9964C15.6587 24.2582 14.9004 22.2028 14.9004 19.9999C14.9004 17.797 15.6587 15.7416 16.6395 14.0033Z" fill="black"/>
</g>
<defs>
<clipPath id="clip0_14976_9081">
<rect width="40" height="40" fill="white" transform="translate(0.987305)"/>
</clipPath>
</defs>
</svg>
