<svg width="41" height="40" viewBox="0 0 41 40" fill="none" xmlns="http://www.w3.org/2000/svg">
<g clip-path="url(#clip0_14976_9061)">
<path d="M39.7433 26.9564C40.5472 24.7898 40.9873 22.4464 40.9873 19.9999C40.9873 17.5535 40.5472 15.2101 39.7433 13.0435L20.9873 11.3043L2.23129 13.0435C1.42738 15.2101 0.987305 17.5535 0.987305 19.9999C0.987305 22.4464 1.42738 24.7898 2.23129 26.9564L20.9873 28.6956L39.7433 26.9564Z" fill="#F0F0F0"/>
<path d="M20.9875 39.9999C29.5868 39.9999 36.9177 34.5724 39.7435 26.9564H2.23145C5.05738 34.5724 12.3882 39.9999 20.9875 39.9999Z" fill="#D80027"/>
<path d="M20.9875 -0.00012207C12.3882 -0.00012207 5.05738 5.42738 2.23145 13.0434H39.7436C36.9177 5.42738 29.5868 -0.00012207 20.9875 -0.00012207Z" fill="#6DA544"/>
<path d="M6.84516 5.85779C-0.965313 13.6683 -0.965313 26.3316 6.84516 34.1422C8.88383 32.1035 10.8737 30.1136 14.0308 26.9565V13.0435L6.84516 5.85779Z" fill="black"/>
</g>
<defs>
<clipPath id="clip0_14976_9061">
<rect width="40" height="40" fill="white" transform="translate(0.987305)"/>
</clipPath>
</defs>
</svg>
