<svg width="41" height="40" viewBox="0 0 41 40" fill="none" xmlns="http://www.w3.org/2000/svg">
<g clip-path="url(#clip0_14976_8896)">
<path d="M3.41895 10.4348L20.9871 12.1739L38.5553 10.4348C35.1632 4.21789 28.568 0 20.9871 0C13.4063 0 6.81105 4.21789 3.41895 10.4348Z" fill="#D80027"/>
<path d="M3.4191 29.5654L20.9873 31.3045L38.5555 29.5654C40.1058 26.7239 40.9873 23.465 40.9873 20.0001L20.9873 18.261L0.987305 20.0001C0.987305 23.465 1.86879 26.7239 3.4191 29.5654Z" fill="#FFDA44"/>
<path d="M3.4191 10.4348C1.86879 13.2763 0.987305 16.5352 0.987305 20.0001H40.9873C40.9873 16.5352 40.1058 13.2763 38.5555 10.4348H20.9873H3.4191Z" fill="#0052B4"/>
<path d="M20.9871 40C28.568 40 35.1632 35.7821 38.5553 29.5652H3.41895C6.81105 35.7821 13.4063 40 20.9871 40Z" fill="#6DA544"/>
</g>
<defs>
<clipPath id="clip0_14976_8896">
<rect width="40" height="40" fill="white" transform="translate(0.987305)"/>
</clipPath>
</defs>
</svg>
