<svg width="41" height="40" viewBox="0 0 41 40" fill="none" xmlns="http://www.w3.org/2000/svg">
<g clip-path="url(#clip0_14976_8887)">
<path d="M20.9873 40C32.033 40 40.9873 31.0457 40.9873 20C40.9873 8.9543 32.033 0 20.9873 0C9.94161 0 0.987305 8.9543 0.987305 20C0.987305 31.0457 9.94161 40 20.9873 40Z" fill="#F0F0F0"/>
<path d="M40.987 20.0001C40.987 12.0709 36.3725 5.21962 29.6826 1.98462V38.0155C36.3725 34.7806 40.987 27.9293 40.987 20.0001Z" fill="#D80027"/>
<path d="M0.987305 20.0001C0.987305 27.9293 5.60176 34.7805 12.2917 38.0155V1.98462C5.60176 5.21962 0.987305 12.0709 0.987305 20.0001Z" fill="#6DA544"/>
<path d="M15.7695 20.0001C15.7695 22.8816 18.1055 25.2175 20.987 25.2175C23.8684 25.2175 26.2044 22.8816 26.2044 20.0001V18.261H15.7695V20.0001Z" fill="#6DA544"/>
<path d="M27.9434 16.5219H22.726C22.726 15.5614 21.9473 14.7827 20.9868 14.7827C20.0264 14.7827 19.2477 15.5614 19.2477 16.5219H14.0303C14.0303 17.4824 14.8669 18.261 15.8273 18.261H15.7694C15.7694 19.2215 16.548 20.0001 17.5086 20.0001C17.5086 20.9607 18.2871 21.7393 19.2477 21.7393H22.726C23.6865 21.7393 24.4651 20.9607 24.4651 20.0001C25.4257 20.0001 26.2043 19.2215 26.2043 18.261H26.1463C27.1068 18.261 27.9434 17.4824 27.9434 16.5219Z" fill="#FF9811"/>
</g>
<defs>
<clipPath id="clip0_14976_8887">
<rect width="40" height="40" fill="white" transform="translate(0.987305)"/>
</clipPath>
</defs>
</svg>
