<svg width="41" height="40" viewBox="0 0 41 40" fill="none" xmlns="http://www.w3.org/2000/svg">
<g clip-path="url(#clip0_14976_8765)">
<path d="M40.9873 20C40.9873 31.0456 32.0329 40 20.9873 40C9.94168 40 0.987305 31.0456 0.987305 20C0.987305 20.0048 20.9873 0.0021875 20.9873 0C32.0329 0 40.9873 8.95437 40.9873 20Z" fill="#0052B4"/>
<path d="M20.9336 20H20.9871C20.9871 19.9821 20.9871 19.9646 20.9871 19.9465C20.9693 19.9644 20.9515 19.9822 20.9336 20Z" fill="#F0F0F0"/>
<path d="M20.9873 10.4348C20.9873 6.91563 20.9873 4.60977 20.9873 0H20.9839C9.9398 0.001875 0.987305 8.95539 0.987305 20H11.4221V14.1241L17.298 20H20.9339C20.9517 19.9822 20.9696 19.9644 20.9874 19.9465C20.9874 18.5991 20.9874 17.3968 20.9874 16.3108L15.1114 10.4348H20.9873Z" fill="#F0F0F0"/>
<path d="M11.1054 2.60864C7.97734 4.38981 5.37688 6.99028 3.5957 10.1183V20H8.81313V7.82622V7.82606H20.987C20.987 6.18052 20.987 4.61286 20.987 2.60864H11.1054Z" fill="#D80027"/>
<path d="M20.987 17.5405L13.8813 10.4348C13.8813 10.4348 11.4219 10.435 11.4219 10.4348V10.435L20.987 20H20.987C20.987 20 20.987 18.3041 20.987 17.5405Z" fill="#D80027"/>
<path d="M35.6217 14.8405L36.0534 16.169H37.4503L36.3201 16.9901L36.7519 18.3187L35.6217 17.4976L34.4915 18.3187L34.9232 16.9901L33.793 16.169H35.1899L35.6217 14.8405Z" fill="#D80027"/>
<path d="M30.6287 24.4056L31.2763 26.3986H33.3717L31.6764 27.6302L32.324 29.6231L30.6287 28.3914L28.9334 29.6231L29.5811 27.6302L27.8857 26.3986H29.9811L30.6287 24.4056Z" fill="#D80027"/>
<path d="M30.817 8.75354L31.3566 10.4144H33.1028L31.69 11.4406L32.2297 13.1014L30.817 12.0749L29.4043 13.1014L29.9439 11.4406L28.5312 10.4144H30.2773L30.817 8.75354Z" fill="#D80027"/>
<path d="M26.0125 14.7825L26.66 16.7754H28.7555L27.0602 18.007L27.7078 19.9999L26.0125 18.7683L24.3172 19.9999L24.9648 18.007L23.2695 16.7754H25.3649L26.0125 14.7825Z" fill="#D80027"/>
</g>
<defs>
<clipPath id="clip0_14976_8765">
<rect width="40" height="40" fill="white" transform="translate(0.987305)"/>
</clipPath>
</defs>
</svg>
