<svg width="41" height="40" viewBox="0 0 41 40" fill="none" xmlns="http://www.w3.org/2000/svg">
<g clip-path="url(#clip0_14976_8719)">
<path d="M20.9873 39.9999C32.033 39.9999 40.9873 31.0456 40.9873 19.9999C40.9873 8.95418 32.033 -0.00012207 20.9873 -0.00012207C9.94161 -0.00012207 0.987305 8.95418 0.987305 19.9999C0.987305 31.0456 9.94161 39.9999 20.9873 39.9999Z" fill="#F0F0F0"/>
<path d="M1.67676 25.2174C2.83395 29.5111 5.38434 33.2325 8.81387 35.8676V25.2174H1.67676Z" fill="#D80027"/>
<path d="M19.249 39.9239C19.8223 39.9733 20.4021 40 20.9882 40C30.2287 40 38.0042 33.7327 40.2992 25.2174H19.249V39.9239Z" fill="#D80027"/>
<path d="M40.2992 14.7826C38.0042 6.26726 30.2287 0 20.9882 0C20.4021 0 19.8223 0.0267187 19.249 0.0760937V14.7826H40.2992Z" fill="#D80027"/>
<path d="M8.81387 4.13245C5.38434 6.7676 2.83395 10.4889 1.67676 14.7826H8.81387V4.13245Z" fill="#D80027"/>
<path d="M40.818 17.3913H16.6396H16.6395V0.475342C14.7912 0.885185 13.0389 1.54948 11.4221 2.43175V17.3911V17.3912H1.1566C1.04527 18.2452 0.987305 19.1158 0.987305 19.9999C0.987305 20.8841 1.04527 21.7547 1.1566 22.6086H11.422H11.4221V37.5681C13.0389 38.4503 14.7912 39.1147 16.6395 39.5245V22.6089V22.6087H40.818C40.9292 21.7547 40.9873 20.8841 40.9873 19.9999C40.9873 19.1158 40.9292 18.2452 40.818 17.3913Z" fill="#0052B4"/>
</g>
<defs>
<clipPath id="clip0_14976_8719">
<rect width="40" height="40" fill="white" transform="translate(0.987305)"/>
</clipPath>
</defs>
</svg>
