<svg width="41" height="40" viewBox="0 0 41 40" fill="none" xmlns="http://www.w3.org/2000/svg">
<g clip-path="url(#clip0_14976_8627)">
<path d="M20.9873 40C32.033 40 40.9873 31.0457 40.9873 20C40.9873 8.95431 32.033 0 20.9873 0C9.94161 0 0.987305 8.95431 0.987305 20C0.987305 31.0457 9.94161 40 20.9873 40Z" fill="#F0F0F0"/>
<path d="M40.9874 20C40.9874 8.95437 32.033 0 20.9874 0C17.0749 0 13.4254 1.12461 10.3427 3.06648L14.7265 4.92906L8.81348 7.44141L14.7265 9.95367L8.81348 12.4659L14.7265 14.978L8.81348 17.4898L14.7265 20.0014L8.81348 22.5136L14.7265 25.0256L8.81348 27.5374L14.7265 30.0494L8.81348 32.5616L14.7265 35.0734L10.3446 36.935C13.4269 38.8759 17.0757 40 20.9874 40C32.033 40 40.9874 31.0456 40.9874 20Z" fill="#751A46"/>
</g>
<defs>
<clipPath id="clip0_14976_8627">
<rect width="40" height="40" fill="white" transform="translate(0.987305)"/>
</clipPath>
</defs>
</svg>
