<svg width="41" height="40" viewBox="0 0 41 40" fill="none" xmlns="http://www.w3.org/2000/svg">
<g clip-path="url(#clip0_14976_8620)">
<path d="M27.9441 1.24391C25.7774 0.440078 23.434 1.03982e-08 20.9876 1.03982e-08C18.5412 -7.81146e-05 16.1978 0.440078 14.0311 1.24391L12.292 19.9999L14.0311 38.7559C16.1977 39.56 18.5411 40 20.9876 40C23.4339 40 25.7775 39.56 27.9441 38.7559L29.6832 20L27.9441 1.24391Z" fill="#FFDA44"/>
<path d="M40.9879 19.9999C40.9879 11.4007 35.5604 4.06968 27.9443 1.2439V38.7561C35.5604 35.93 40.9878 28.5993 40.9879 19.9999Z" fill="#D80027"/>
<path d="M0.987305 20C0.987305 28.5994 6.4148 35.9301 14.0307 38.7562L14.0307 1.24414C6.4148 4.06992 0.987305 11.4007 0.987305 20H0.987305Z" fill="#0052B4"/>
</g>
<defs>
<clipPath id="clip0_14976_8620">
<rect width="40" height="40" fill="white" transform="translate(0.987305)"/>
</clipPath>
</defs>
</svg>
