<svg width="41" height="40" viewBox="0 0 41 40" fill="none" xmlns="http://www.w3.org/2000/svg">
<g clip-path="url(#clip0_14976_8542)">
<path d="M20.9873 39.9999C32.033 39.9999 40.9873 31.0456 40.9873 19.9999C40.9873 8.95418 32.033 -0.00012207 20.9873 -0.00012207C9.94161 -0.00012207 0.987305 8.95418 0.987305 19.9999C0.987305 31.0456 9.94161 39.9999 20.9873 39.9999Z" fill="#6DA544"/>
<path d="M12.292 23.9128C12.292 25.3535 13.46 26.5215 14.9007 26.5215H22.7268C22.7268 27.7221 23.7 28.6954 24.9007 28.6954H27.5093C28.71 28.6954 29.6832 27.7221 29.6832 26.5215V23.9128H12.292Z" fill="#F0F0F0"/>
<path d="M29.9003 11.3043V17.3913C29.9003 18.3503 29.1201 19.1304 28.1611 19.1304V21.7391C30.5586 21.7391 32.5089 19.7886 32.5089 17.3913V11.3043H29.9003Z" fill="#F0F0F0"/>
<path d="M11.205 17.3913C11.205 18.3503 10.4248 19.1304 9.46582 19.1304V21.7391C11.8632 21.7391 13.8136 19.7886 13.8136 17.3913V11.3043H11.205V17.3913Z" fill="#F0F0F0"/>
<path d="M25.9873 11.3043H28.596V17.3913H25.9873V11.3043Z" fill="#F0F0F0"/>
<path d="M22.0746 14.7825C22.0746 15.0222 21.8796 15.2172 21.6399 15.2172C21.4002 15.2172 21.2051 15.0222 21.2051 14.7825V11.3042H18.5964V14.7825C18.5964 15.0222 18.4014 15.2172 18.1617 15.2172C17.922 15.2172 17.7269 15.0222 17.7269 14.7825V11.3042H15.1182V14.7825C15.1182 16.4607 16.4835 17.826 18.1617 17.826C18.808 17.826 19.4074 17.6229 19.9008 17.2779C20.3942 17.6228 20.9936 17.826 21.64 17.826C21.7701 17.826 21.8981 17.8169 22.0239 17.8008C21.8391 18.5625 21.1532 19.1303 20.3356 19.1303V21.739C22.733 21.739 24.6834 19.7885 24.6834 17.3912V14.7825V11.3042H22.0747V14.7825H22.0746Z" fill="#F0F0F0"/>
<path d="M15.1182 19.1304H19.0312V21.739H15.1182V19.1304Z" fill="#F0F0F0"/>
</g>
<defs>
<clipPath id="clip0_14976_8542">
<rect width="40" height="40" fill="white" transform="translate(0.987305)"/>
</clipPath>
</defs>
</svg>
