<svg width="41" height="40" viewBox="0 0 41 40" fill="none" xmlns="http://www.w3.org/2000/svg">
<g clip-path="url(#clip0_14976_8496)">
<path d="M20.9873 39.9999C32.033 39.9999 40.9873 31.0456 40.9873 19.9999C40.9873 8.95418 32.033 -0.00012207 20.9873 -0.00012207C9.94161 -0.00012207 0.987305 8.95418 0.987305 19.9999C0.987305 31.0456 9.94161 39.9999 20.9873 39.9999Z" fill="#F0F0F0"/>
<path d="M0.987305 20C0.987305 8.95425 9.94168 -0.00012207 20.9873 -0.00012207C32.0329 -0.00012207 40.9873 8.95425 40.9873 20" fill="#D80027"/>
<path d="M13.1615 10.4347C13.1615 7.52075 15.2094 5.08653 17.9441 4.48926C17.5238 4.39754 17.0877 4.34778 16.6397 4.34778C13.2779 4.34778 10.5527 7.07293 10.5527 10.4347C10.5527 13.7965 13.2779 16.5217 16.6397 16.5217C17.0876 16.5217 17.5237 16.4719 17.9441 16.3801C15.2094 15.7829 13.1615 13.3486 13.1615 10.4347Z" fill="#F0F0F0"/>
<path d="M20.9878 4.78247L21.4195 6.11099H22.8164L21.6862 6.93216L22.1179 8.26067L20.9878 7.43966L19.8576 8.26067L20.2893 6.93216L19.1592 6.11099H20.5561L20.9878 4.78247Z" fill="#F0F0F0"/>
<path d="M17.5993 7.39124L18.0309 8.71983H19.4278L18.2977 9.54092L18.7294 10.8694L17.5993 10.0484L16.4689 10.8694L16.9007 9.54092L15.7705 8.71983H17.1675L17.5993 7.39124Z" fill="#F0F0F0"/>
<path d="M24.3764 7.39124L24.8082 8.71983H26.2051L25.0749 9.54092L25.5067 10.8694L24.3764 10.0484L23.2463 10.8694L23.678 9.54092L22.5479 8.71983H23.9447L24.3764 7.39124Z" fill="#F0F0F0"/>
<path d="M23.0718 11.3042L23.5035 12.6328H24.9004L23.7702 13.4539L24.2019 14.7824L23.0718 13.9614L21.9416 14.7824L22.3733 13.4539L21.2432 12.6328H22.64L23.0718 11.3042Z" fill="#F0F0F0"/>
<path d="M18.9029 11.3042L19.3345 12.6328H20.7316L19.6013 13.4539L20.0331 14.7824L18.9029 13.9614L17.7727 14.7824L18.2044 13.4539L17.0742 12.6328H18.4712L18.9029 11.3042Z" fill="#F0F0F0"/>
</g>
<defs>
<clipPath id="clip0_14976_8496">
<rect width="40" height="40" fill="white" transform="translate(0.987305)"/>
</clipPath>
</defs>
</svg>
