<svg width="41" height="40" viewBox="0 0 41 40" fill="none" xmlns="http://www.w3.org/2000/svg">
<g clip-path="url(#clip0_14976_8460)">
<path d="M20.9873 40.0001C32.033 40.0001 40.9873 31.0458 40.9873 20.0001C40.9873 8.95443 32.033 0.00012207 20.9873 0.00012207C9.94161 0.00012207 0.987305 8.95443 0.987305 20.0001C0.987305 31.0458 9.94161 40.0001 20.9873 40.0001Z" fill="#F0F0F0"/>
<path d="M6.84516 34.1423C-0.965312 26.3317 -0.965312 13.6685 6.84516 5.85791C6.84461 5.85877 18.3787 20.0001 18.3787 20.0001L6.84516 34.1423Z" fill="black"/>
<path d="M18.3785 20.0001L3.63977 10.0402C3.18281 10.8345 2.77984 11.6635 2.43359 12.5216L9.89523 20.0002L2.43383 27.4791C2.77977 28.3366 3.18234 29.1651 3.63898 29.9588L18.3785 20.0001Z" fill="#FFDA44"/>
<path d="M40.8176 17.3914H18.3777L6.84453 5.85815C5.60172 7.10097 4.52195 8.50651 3.63945 10.0402L13.58 20L3.63867 29.9586C4.52117 31.4927 5.60141 32.8987 6.84453 34.1418L18.3777 22.6087H40.8176C40.9287 21.7548 40.9869 20.8842 40.9869 20C40.9869 19.1159 40.9287 18.2453 40.8176 17.3914Z" fill="#6DA544"/>
<path d="M8.81055 35.8655C12.1831 38.4578 16.4048 40.0001 20.9873 40.0001C30.2278 40.0001 38.0033 33.7328 40.2983 25.2175H19.4586L8.81055 35.8655Z" fill="#0052B4"/>
<path d="M40.2983 14.7826C38.0033 6.26727 30.2278 0 20.9873 0C16.4048 0 12.1831 1.54227 8.81055 4.13461L19.4585 14.7826H40.2983Z" fill="#D80027"/>
</g>
<defs>
<clipPath id="clip0_14976_8460">
<rect width="40" height="40" fill="white" transform="translate(0.987305)"/>
</clipPath>
</defs>
</svg>
