<svg width="41" height="40" viewBox="0 0 41 40" fill="none" xmlns="http://www.w3.org/2000/svg">
<g clip-path="url(#clip0_14976_8369)">
<path d="M20.9873 40C32.033 40 40.9873 31.0457 40.9873 20C40.9873 8.9543 32.033 0 20.9873 0C9.94161 0 0.987305 8.9543 0.987305 20C0.987305 31.0457 9.94161 40 20.9873 40Z" fill="#FFDA44"/>
<path d="M16.6387 17.3913H40.8172C39.5388 7.57828 31.148 0 20.9865 0C19.4932 0 18.0386 0.165078 16.6387 0.475391V17.3913H16.6387Z" fill="#0052B4"/>
<path d="M11.4217 17.3913V2.43188C5.93 5.42829 1.99867 10.9245 1.15625 17.3914H11.4217V17.3913Z" fill="#0052B4"/>
<path d="M11.4216 22.6086H1.15625C1.99867 29.0756 5.93 34.5718 11.4217 37.5681L11.4216 22.6086Z" fill="#0052B4"/>
<path d="M16.6387 22.6087V39.5246C18.0386 39.8349 19.4932 40 20.9865 40C31.148 40 39.5388 32.4217 40.8172 22.6086H16.6387V22.6087Z" fill="#0052B4"/>
</g>
<defs>
<clipPath id="clip0_14976_8369">
<rect width="40" height="40" fill="white" transform="translate(0.987305)"/>
</clipPath>
</defs>
</svg>
