<svg width="41" height="40" viewBox="0 0 41 40" fill="none" xmlns="http://www.w3.org/2000/svg">
<g clip-path="url(#clip0_14976_8316)">
<path d="M20.9873 40.0002C32.033 40.0002 40.9873 31.0459 40.9873 20.0002C40.9873 8.95455 32.033 0.000244141 20.9873 0.000244141C9.94161 0.000244141 0.987305 8.95455 0.987305 20.0002C0.987305 31.0459 9.94161 40.0002 20.9873 40.0002Z" fill="#F0F0F0"/>
<path d="M39.7433 13.0435H2.23129C1.4273 15.2101 0.987305 17.5535 0.987305 19.9999C0.987305 22.4463 1.4273 24.7898 2.23129 26.9564H39.7434C40.5473 24.7898 40.9873 22.4463 40.9873 19.9999C40.9873 17.5535 40.5473 15.2101 39.7433 13.0435Z" fill="#0052B4"/>
<path d="M20.9872 0C14.9254 0 9.4939 2.69719 5.82617 6.95648H36.1481C32.4805 2.69719 27.049 0 20.9872 0Z" fill="#D80027"/>
<path d="M36.1482 33.0435H5.82617C9.49391 37.3028 14.9254 39.9999 20.9872 39.9999C27.049 39.9999 32.4805 37.3028 36.1482 33.0435Z" fill="#D80027"/>
</g>
<defs>
<clipPath id="clip0_14976_8316">
<rect width="40" height="40" fill="white" transform="translate(0.987305)"/>
</clipPath>
</defs>
</svg>
