<svg width="41" height="40" viewBox="0 0 41 40" fill="none" xmlns="http://www.w3.org/2000/svg">
<g clip-path="url(#clip0_14976_8276)">
<path d="M20.9873 40C32.033 40 40.9873 31.0457 40.9873 20C40.9873 8.95431 32.033 0 20.9873 0C9.94161 0 0.987305 8.95431 0.987305 20C0.987305 31.0457 9.94161 40 20.9873 40Z" fill="#D80027"/>
<path d="M20.1682 16.3428L21.8092 18.6041L24.4668 17.7424L22.8232 20.0018L24.4639 22.263L21.8073 21.398L20.1638 23.6574L20.1655 20.8636L17.5088 19.9986L20.1664 19.1368L20.1682 16.3428Z" fill="#F0F0F0"/>
<path d="M15.69 25.6522C12.5684 25.6522 10.0378 23.1216 10.0378 20C10.0378 16.8785 12.5684 14.3478 15.69 14.3478C16.6632 14.3478 17.579 14.594 18.3786 15.0272C17.1243 13.8005 15.4089 13.0435 13.5161 13.0435C9.67402 13.0435 6.55957 16.158 6.55957 19.9999C6.55957 23.8419 9.6741 26.9564 13.5161 26.9564C15.409 26.9564 17.1243 26.1993 18.3786 24.9727C17.579 25.406 16.6632 25.6522 15.69 25.6522Z" fill="#F0F0F0"/>
</g>
<defs>
<clipPath id="clip0_14976_8276">
<rect width="40" height="40" fill="white" transform="translate(0.987305)"/>
</clipPath>
</defs>
</svg>
