<svg width="41" height="40" viewBox="0 0 41 40" fill="none" xmlns="http://www.w3.org/2000/svg">
<g clip-path="url(#clip0_14976_8211)">
<path d="M35.893 33.3333C39.0604 29.7949 40.9873 25.1229 40.9873 20C40.9873 14.8772 39.0604 10.2051 35.8929 6.66669L20.9873 5.21747L6.08168 6.66669C2.91426 10.2051 0.987305 14.8772 0.987305 20C0.987305 25.1229 2.91418 29.7949 6.0816 33.3333L20.9873 34.7826L35.893 33.3333Z" fill="#FFDA44"/>
<path d="M6.08203 6.66664H35.8934C32.2312 2.57547 26.9105 0 20.9877 0C15.0648 0 9.74406 2.57547 6.08203 6.66664Z" fill="black"/>
<path d="M0.987305 20L20.9873 21.7392L40.9873 20C40.9873 17.6622 40.5849 15.4186 39.8476 13.3333H2.12699C1.38973 15.4186 0.987305 17.6622 0.987305 20H0.987305Z" fill="#D80027"/>
<path d="M2.12699 26.6667H39.8478C40.5849 24.5814 40.9873 22.3379 40.9873 20.0001H0.987305C0.987305 22.3379 1.38973 24.5814 2.12699 26.6667Z" fill="black"/>
<path d="M35.8925 33.3334H6.08105C9.74309 37.4246 15.0638 40.0001 20.9868 40.0001C26.9097 40.0001 32.2304 37.4246 35.8925 33.3334Z" fill="#D80027"/>
<path d="M27.6613 20C27.6613 23.6862 24.6736 26.6739 20.9874 26.6739C17.3012 26.6739 14.3135 23.6862 14.3135 20C14.3135 16.3138 17.3012 13.3261 20.9874 13.3261C24.6736 13.3261 27.6613 16.3138 27.6613 20Z" fill="#F0F0F0"/>
<path d="M23.4321 20.3403L20.9871 19.2809C20.9871 19.2809 21.5592 17.3822 21.5897 17.2523C21.6119 17.1574 21.6238 17.0584 21.6238 16.9567C21.6238 16.5964 21.4778 16.2703 21.2417 16.0344L21.8565 15.4196C21.4632 15.0262 20.9196 14.7828 20.3193 14.7828C19.719 14.7828 19.1755 15.0261 18.7821 15.4196L19.397 16.0344C19.1609 16.2704 19.015 16.5965 19.015 16.9567C19.015 17.0884 19.0349 17.2153 19.0712 17.3353L18.1455 18.2609H19.828C19.828 18.2609 19.1324 19.3057 18.7526 20.1638C18.3729 21.0217 18.7579 22.0692 19.6355 22.4593L20.143 22.6849L20.9871 23.4783V24.3478L20.1176 25.2174H21.8568V23.4782L22.6503 22.6847H24.2915C24.2994 22.6684 24.3077 22.6524 24.3152 22.6357C24.7051 21.7582 24.3098 20.7303 23.4321 20.3403Z" fill="black"/>
</g>
<defs>
<clipPath id="clip0_14976_8211">
<rect width="40" height="40" fill="white" transform="translate(0.987305)"/>
</clipPath>
</defs>
</svg>
