<svg width="41" height="40" viewBox="0 0 41 40" fill="none" xmlns="http://www.w3.org/2000/svg">
<g clip-path="url(#clip0_14976_8199)">
<path d="M20.9873 40.0001C32.033 40.0001 40.9873 31.0458 40.9873 20.0001C40.9873 8.95443 32.033 0.00012207 20.9873 0.00012207C9.94161 0.00012207 0.987305 8.95443 0.987305 20.0001C0.987305 31.0458 9.94161 40.0001 20.9873 40.0001Z" fill="#F0F0F0"/>
<path d="M12.292 26.9565L14.0311 38.7562C16.1977 39.5602 18.5412 40 20.9876 40C29.5868 40 36.9178 34.5725 39.7436 26.9565H12.292Z" fill="black"/>
<path d="M12.292 13.0436L14.0311 1.24389C16.1977 0.439905 18.5412 6.10352e-05 20.9876 6.10352e-05C29.5868 6.10352e-05 36.9178 5.42756 39.7436 13.0436H12.292Z" fill="#6DA544"/>
<path d="M0.987305 20C0.987305 28.5993 6.41488 35.9302 14.0308 38.7561V1.24402C6.41488 4.06988 0.987305 11.4007 0.987305 20Z" fill="#A2001D"/>
</g>
<defs>
<clipPath id="clip0_14976_8199">
<rect width="40" height="40" fill="white" transform="translate(0.987305)"/>
</clipPath>
</defs>
</svg>
