<svg width="72" height="72" viewBox="0 0 72 72" fill="none" xmlns="http://www.w3.org/2000/svg">
    <path d="M13 33H6V57H13V33Z" fill="#AFB7DC"/>
    <path d="M25 33H18V57H25V33Z" fill="#AFB7DC"/>
    <path d="M37 33H30V57H37V33Z" fill="#AFB7DC"/>
    <path d="M49 33H42V57H49V33Z" fill="#AFB7DC"/>
    <path opacity="0.8" d="M54.5475 23.7382L28.1607 9.3454C27.9845 9.24924 27.787 9.19885 27.5862 9.19885C27.3855 9.19885 27.1879 9.24924 27.0117 9.3454L0.624888 23.7382C0.435739 23.8414 0.277889 23.9937 0.167929 24.179C0.0579691 24.3643 -3.98619e-05 24.5758 2.05512e-08 24.7913V31.9877C2.05512e-08 32.3058 0.126365 32.6109 0.351296 32.8358C0.576227 33.0607 0.8813 33.1871 1.1994 33.1871H53.973C54.2911 33.1871 54.5962 33.0607 54.8211 32.8358C55.0461 32.6109 55.1724 32.3058 55.1724 31.9877V24.7913C55.1725 24.5758 55.1144 24.3643 55.0045 24.179C54.8945 23.9937 54.7367 23.8414 54.5475 23.7382Z" fill="#D5DAEF"/>
    <path opacity="0.8" d="M53.973 57.1749H1.1994C0.8813 57.1749 0.576227 57.3013 0.351296 57.5262C0.126365 57.7512 0 58.0562 0 58.3743V60.7731C0 61.0912 0.126365 61.3963 0.351296 61.6212C0.576227 61.8462 0.8813 61.9725 1.1994 61.9725H53.973C54.2911 61.9725 54.5962 61.8462 54.8211 61.6212C55.0461 61.3963 55.1724 61.0912 55.1724 60.7731V58.3743C55.1724 58.0562 55.0461 57.7512 54.8211 57.5262C54.5962 57.3013 54.2911 57.1749 53.973 57.1749Z" fill="#D5DAEF"/>
    <path d="M27.5867 27.1902C30.2363 27.1902 32.3843 25.0422 32.3843 22.3926C32.3843 19.7429 30.2363 17.595 27.5867 17.595C24.937 17.595 22.7891 19.7429 22.7891 22.3926C22.7891 25.0422 24.937 27.1902 27.5867 27.1902Z" fill="#AFB7DC"/>
    <path d="M65.4869 39.3098H42.9982C42.0666 39.3098 41.3115 42.2042 41.3115 45.7753V56.5512H67.1736V45.7753C67.1736 42.2042 66.4185 39.3098 65.4869 39.3098Z" fill="url(#paint0_linear_17119_6602)"/>
    <path d="M69.3276 37H39.1552C37.9649 37 37 37.9649 37 39.1552V60.7069C37 61.8972 37.9649 62.8621 39.1552 62.8621H69.3276C70.5179 62.8621 71.4828 61.8972 71.4828 60.7069V39.1552C71.4828 37.9649 70.5179 37 69.3276 37Z" fill="url(#paint1_linear_17119_6602)"/>
    <path d="M71.4828 42.7598H37V48.9174H71.4828V42.7598Z" fill="#E1FFFF"/>
    <path d="M54.2411 52.6113H40.6943V56.3059H54.2411V52.6113Z" fill="white"/>
    <defs>
        <linearGradient id="paint0_linear_17119_6602" x1="41.3115" y1="39.3098" x2="69.632" y2="50.0965" gradientUnits="userSpaceOnUse">
            <stop stop-color="#75A5FF"/>
            <stop offset="0.703125" stop-color="#2339FF"/>
        </linearGradient>
        <linearGradient id="paint1_linear_17119_6602" x1="52.4152" y1="47.942" x2="55.4049" y2="64.2668" gradientUnits="userSpaceOnUse">
            <stop offset="0.0076178" stop-color="#00D2D3"/>
            <stop offset="0.91" stop-color="#00B3FF"/>
        </linearGradient>
    </defs>
</svg>
