<svg width="36" height="32" viewBox="0 0 36 32" fill="none" xmlns="http://www.w3.org/2000/svg">
    <path d="M24.589 0H2.73595C1.22493 0 0 1.22802 0 2.74285V29.2517C0 31.8226 3.2112 32.9808 4.84489 30.999L26.6979 4.49017C28.1723 2.70166 26.9034 0 24.589 0Z" fill="#0D153F"/>
    <path d="M4.83313 14.4838L14.2556 30.6419C14.7463 31.4832 15.6454 32.0004 16.6176 32.0004H33.8302C35.004 32.0004 35.7348 30.7234 35.1424 29.7075L25.7199 13.5495C25.2293 12.7081 24.3301 12.1909 23.358 12.1909H6.14532C4.97157 12.1909 4.24074 13.4679 4.83313 14.4838Z" fill="#00D2D3"/>
    <path fill-rule="evenodd" clip-rule="evenodd" d="M20.3497 12.1909H6.14532C4.97157 12.1909 4.24074 13.4679 4.83313 14.4838L10.4787 24.165L20.3497 12.1909Z" fill="white"/>
</svg>
