<svg width="24" height="24" viewBox="0 0 24 24" fill="none" xmlns="http://www.w3.org/2000/svg">
    <path fill-rule="evenodd" clip-rule="evenodd" d="M12 22.0005C7.28595 22.0005 4.92893 22.0005 3.46447 20.536C2 19.0716 2 16.7145 2 12.0005C2 7.28644 2 4.92942 3.46447 3.46495C4.92893 2.00049 7.28595 2.00049 12 2.00049C16.714 2.00049 19.0711 2.00049 20.5355 3.46495C22 4.92942 22 7.28644 22 12.0005C22 16.7145 22 19.0716 20.5355 20.536C19.0711 22.0005 16.714 22.0005 12 22.0005ZM12 17.7505C12.4142 17.7505 12.75 17.4147 12.75 17.0005V11.0005C12.75 10.5863 12.4142 10.2505 12 10.2505C11.5858 10.2505 11.25 10.5863 11.25 11.0005V17.0005C11.25 17.4147 11.5858 17.7505 12 17.7505ZM12 7.00049C12.5523 7.00049 13 7.4482 13 8.00049C13 8.55277 12.5523 9.00049 12 9.00049C11.4477 9.00049 11 8.55277 11 8.00049C11 7.4482 11.4477 7.00049 12 7.00049Z" fill="#394375"/>
</svg>
