<svg width="16" height="16" viewBox="0 0 16 16" fill="none" xmlns="http://www.w3.org/2000/svg">
    <path fill-rule="evenodd" clip-rule="evenodd"
          d="M1.6333 8.00003C1.6333 7.52138 2.02132 7.13336 2.49997 7.13336H13.5C13.9786 7.13336 14.3666 7.52138 14.3666 8.00003C14.3666 8.47868 13.9786 8.8667 13.5 8.8667H2.49997C2.02132 8.8667 1.6333 8.47868 1.6333 8.00003Z"
          fill="white"/>
    <path fill-rule="evenodd" clip-rule="evenodd"
          d="M8.38714 2.8872C8.7256 2.54875 9.27434 2.54875 9.61279 2.8872L14.1128 7.3872C14.4512 7.72566 14.4512 8.2744 14.1128 8.61285L9.61279 13.1129C9.27434 13.4513 8.7256 13.4513 8.38714 13.1129C8.04869 12.7744 8.04869 12.2257 8.38714 11.8872L12.2743 8.00003L8.38714 4.11285C8.04869 3.7744 8.04869 3.22566 8.38714 2.8872Z"
          fill="white"/>
</svg>
