<svg width="24" height="24" viewBox="0 0 24 24" fill="none" xmlns="http://www.w3.org/2000/svg">
    <path d="M16.5189 16.5018C16.6939 16.3653 16.8526 16.2066 17.1701 15.8891L21.1275 11.9317C21.2231 11.8361 21.1793 11.6713 21.0515 11.6269C20.5844 11.4649 19.9767 11.1606 19.4083 10.5922C18.8399 10.0238 18.5356 9.4161 18.3736 8.94898C18.3292 8.82114 18.1644 8.77736 18.0688 8.87303L14.1114 12.8304C13.7939 13.1479 13.6352 13.3066 13.4987 13.4816C13.3377 13.688 13.1996 13.9114 13.087 14.1478C12.9915 14.3481 12.9205 14.5611 12.7786 14.9869L12.5951 15.5372L12.3034 16.4123L12.0299 17.2328C11.9601 17.4424 12.0146 17.6734 12.1708 17.8296C12.3271 17.9859 12.5581 18.0404 12.7677 17.9705L13.5882 17.697L14.4632 17.4054L15.0135 17.2219L15.0136 17.2219C15.4394 17.08 15.6524 17.009 15.8527 16.9135C16.0891 16.8009 16.3124 16.6628 16.5189 16.5018Z"
          fill="#394375"/>
    <path d="M22.3665 10.6927C23.2112 9.84803 23.2112 8.4786 22.3665 7.63397C21.5219 6.78933 20.1525 6.78933 19.3078 7.63397L19.1806 7.76119C19.0578 7.88396 19.0022 8.05545 19.0329 8.22634C19.0522 8.33385 19.0879 8.49102 19.153 8.67856C19.2831 9.05363 19.5288 9.54597 19.9917 10.0088C20.4545 10.4716 20.9469 10.7174 21.3219 10.8475C21.5095 10.9126 21.6666 10.9483 21.7741 10.9676C21.945 10.9983 22.1165 10.9427 22.2393 10.8199L22.3665 10.6927Z"
          fill="#394375"/>
    <path fill-rule="evenodd" clip-rule="evenodd"
          d="M4.17157 3.17206C3 4.34363 3 6.22925 3 10.0005V14.0005C3 17.7717 3 19.6573 4.17157 20.8289C5.34315 22.0005 7.22876 22.0005 11 22.0005H13C16.7712 22.0005 18.6569 22.0005 19.8284 20.8289C20.9812 19.6761 20.9997 17.832 21 14.1806L18.1817 16.9989C17.9119 17.2688 17.691 17.4899 17.4415 17.6846C17.1491 17.9126 16.8328 18.1081 16.4981 18.2676C16.2124 18.4037 15.9159 18.5025 15.5538 18.623L13.2421 19.3936C12.4935 19.6431 11.6682 19.4483 11.1102 18.8903C10.5523 18.3323 10.3574 17.507 10.607 16.7584L10.8805 15.938L11.3556 14.5126L11.3775 14.4468C11.4981 14.0847 11.5968 13.7881 11.7329 13.5024C11.8924 13.1677 12.0879 12.8514 12.316 12.5591C12.5106 12.3095 12.7317 12.0886 13.0017 11.8188L17.0081 7.81237L18.12 6.70053L18.2472 6.57331C18.9626 5.8579 19.9003 5.5003 20.838 5.50049C20.6867 4.46994 20.3941 3.73776 19.8284 3.17206C18.6569 2.00049 16.7712 2.00049 13 2.00049H11C7.22876 2.00049 5.34315 2.00049 4.17157 3.17206ZM7.25 9.00049C7.25 8.58627 7.58579 8.25049 8 8.25049H14.5C14.9142 8.25049 15.25 8.58627 15.25 9.00049C15.25 9.4147 14.9142 9.75049 14.5 9.75049H8C7.58579 9.75049 7.25 9.4147 7.25 9.00049ZM7.25 13.0005C7.25 12.5863 7.58579 12.2505 8 12.2505H10.5C10.9142 12.2505 11.25 12.5863 11.25 13.0005C11.25 13.4147 10.9142 13.7505 10.5 13.7505H8C7.58579 13.7505 7.25 13.4147 7.25 13.0005ZM7.25 17.0005C7.25 16.5863 7.58579 16.2505 8 16.2505H9.5C9.91421 16.2505 10.25 16.5863 10.25 17.0005C10.25 17.4147 9.91421 17.7505 9.5 17.7505H8C7.58579 17.7505 7.25 17.4147 7.25 17.0005Z"
          fill="#394375"/>
</svg>
