<svg width="24" height="24" viewBox="0 0 24 24" fill="none" xmlns="http://www.w3.org/2000/svg">
    <path d="M16.4632 17.7384L6.26142 7.53664C5.91286 7.18808 5.91286 6.60998 6.26142 6.26142C6.60998 5.91286 7.18808 5.91286 7.53664 6.26142L17.7384 16.4632C18.0869 16.8117 18.0869 17.3898 17.7384 17.7384C17.3898 18.0869 16.8117 18.0869 16.4632 17.7384Z"
          fill="#394375"/>
    <path d="M6.26162 17.7385C5.91306 17.3899 5.91306 16.8118 6.26162 16.4633L16.4634 6.26154C16.8119 5.91298 17.39 5.91298 17.7386 6.26154C18.0871 6.6101 18.0871 7.18819 17.7386 7.53675L7.53684 17.7385C7.18828 18.0871 6.61018 18.0871 6.26162 17.7385Z"
          fill="#394375"/>
</svg>
