<svg width="24" height="24" viewBox="0 0 24 24" fill="none" xmlns="http://www.w3.org/2000/svg">
    <path d="M17 12.0005C19.7614 12.0005 22 9.76191 22 7.00049C22 4.23906 19.7614 2.00049 17 2.00049C14.2386 2.00049 12 4.23906 12 7.00049C12 7.80033 12.1878 8.55631 12.5217 9.22672C12.6105 9.40488 12.64 9.60852 12.5886 9.8008L12.2908 10.9138C12.1615 11.397 12.6035 11.839 13.0867 11.7097L14.1997 11.4119C14.392 11.3605 14.5956 11.39 14.7738 11.4788C15.4442 11.8127 16.2002 12.0005 17 12.0005Z" fill="#394375"/>
    <path d="M8.03759 7.31666L8.6866 8.47959C9.2723 9.52907 9.03718 10.9058 8.11471 11.8283C8.11471 11.8283 8.11471 11.8283 8.11471 11.8283C8.11459 11.8284 6.99588 12.9473 9.02451 14.976C11.0525 17.0039 12.1714 15.8866 12.1722 15.8858C12.1722 15.8858 12.1722 15.8858 12.1722 15.8857C13.0947 14.9633 14.4714 14.7282 15.5209 15.3139L16.6838 15.9629C18.2686 16.8473 18.4557 19.0697 17.0628 20.4627C16.2258 21.2997 15.2004 21.951 14.0669 21.9939C12.1588 22.0663 8.91828 21.5834 5.6677 18.3328C2.41713 15.0822 1.93421 11.8417 2.00655 9.93358C2.04952 8.80009 2.7008 7.77472 3.53781 6.93772C4.93076 5.54477 7.15317 5.73193 8.03759 7.31666Z" fill="#394375"/>
</svg>
