<svg width="19" height="20" viewBox="0 0 19 20" fill="none" xmlns="http://www.w3.org/2000/svg">
    <path d="M19 10C19 15.2467 14.7467 19.5 9.5 19.5C4.25329 19.5 0 15.2467 0 10C0 4.75329 4.25329 0.5 9.5 0.5C14.7467 0.5 19 4.75329 19 10Z"
          fill="#3593FF"/>
    <path fill-rule="evenodd" clip-rule="evenodd"
          d="M14.3025 7.14371C14.8307 7.69733 14.8101 8.57428 14.2564 9.10244L9.18688 13.9388C8.65127 14.4498 7.80858 14.4494 7.27341 13.938L4.74295 11.5198C4.18978 10.9912 4.16988 10.1142 4.69851 9.56103C5.22714 9.00786 6.10411 8.98797 6.65728 9.51659L8.23139 11.0209L12.3438 7.0976C12.8974 6.56944 13.7744 6.59009 14.3025 7.14371Z"
          fill="white"/>
</svg>
