<svg width="41" height="40" viewBox="0 0 41 40" fill="none" xmlns="http://www.w3.org/2000/svg">
    <rect x="0.5" width="40" height="40" rx="9" fill="#394375"/>
    <g clip-path="url(#clip0_17183_25462)">
        <path d="M14.8253 20.7824H17.4561V31.6129C17.4561 31.8267 17.6294 32 17.8432 32H22.3038C22.5176 32 22.6909 31.8267 22.6909 31.6129V20.8334H25.7152C25.9119 20.8334 26.0773 20.6859 26.0998 20.4905L26.5591 16.5033C26.5717 16.3936 26.5369 16.2837 26.4635 16.2014C26.3901 16.119 26.2849 16.0719 26.1746 16.0719H22.6911V13.5725C22.6911 12.819 23.0967 12.437 23.8969 12.437C24.011 12.437 26.1746 12.437 26.1746 12.437C26.3885 12.437 26.5617 12.2636 26.5617 12.0499V8.38996C26.5617 8.17613 26.3885 8.00286 26.1746 8.00286H23.0357C23.0135 8.00178 22.9643 8 22.8919 8C22.3472 8 20.4541 8.10692 18.9587 9.48266C17.3017 11.0072 17.5321 12.8326 17.5871 13.1491V16.0718H14.8253C14.6115 16.0718 14.4382 16.2451 14.4382 16.4589V20.3952C14.4382 20.6091 14.6115 20.7824 14.8253 20.7824Z"
              fill="white"/>
    </g>
    <defs>
        <clipPath id="clip0_17183_25462">
            <rect width="24" height="24" fill="white" transform="translate(8.5 8)"/>
        </clipPath>
    </defs>
</svg>
