<svg width="41" height="40" viewBox="0 0 41 40" fill="none" xmlns="http://www.w3.org/2000/svg">
    <rect x="0.5" width="40" height="40" rx="9" fill="#394375"/>
    <g clip-path="url(#clip0_17183_25466)">
        <path d="M32.2698 15.099C32.2121 13.8371 32.0116 12.9754 31.7187 12.2214C31.421 11.4303 30.9545 10.7138 30.3515 10.1216C29.7595 9.51857 29.0427 9.0515 28.2516 8.75381C27.4976 8.46113 26.6359 8.26092 25.3741 8.20349C24.1098 8.1458 23.706 8.13184 20.4865 8.13184C17.2671 8.13184 16.8632 8.1458 15.599 8.20323C14.3371 8.26092 13.4754 8.4614 12.7214 8.75434C11.9303 9.05202 11.2138 9.51857 10.6216 10.1216C10.0186 10.7135 9.5515 11.4301 9.25381 12.2212C8.96113 12.9754 8.76092 13.8371 8.70349 15.0987C8.64553 16.3632 8.63184 16.7671 8.63184 19.9865C8.63184 23.2063 8.64553 23.6101 8.70349 24.8743C8.76092 26.1359 8.9614 26.9979 9.2546 27.7519C9.55229 28.5427 10.0188 29.2595 10.6218 29.8515C11.2138 30.4545 11.9306 30.9213 12.7217 31.2187C13.4757 31.5119 14.3374 31.7121 15.5992 31.7698C16.8635 31.8275 17.2673 31.8412 20.4868 31.8412C23.7063 31.8412 24.1101 31.8278 25.3743 31.7698C26.6362 31.7121 27.4979 31.5119 28.2519 31.2187C29.8443 30.6031 31.1031 29.3441 31.7187 27.7519C32.0119 26.9976 32.2121 26.1359 32.2698 24.8743C32.3275 23.6098 32.3412 23.206 32.3412 19.9865C32.3412 16.7671 32.3275 16.3632 32.2698 15.099ZM30.136 24.7771C30.0833 25.9331 29.8902 26.5606 29.7279 26.9784C29.3291 28.0124 28.5119 28.8293 27.4782 29.2282C27.0606 29.3905 26.4328 29.5835 25.2769 29.6362C24.0271 29.6934 23.652 29.7053 20.4865 29.7053C17.3208 29.7053 16.9459 29.6934 15.6962 29.6362C14.5405 29.5835 13.9127 29.3905 13.4949 29.2282C12.9801 29.038 12.5144 28.735 12.1319 28.3412C11.738 27.9587 11.4351 27.4932 11.2449 26.9782C11.0826 26.5606 10.8895 25.9328 10.8368 24.7769C10.7799 23.5269 10.7678 23.152 10.7678 19.9865C10.7678 16.8211 10.7799 16.4462 10.8368 15.1962C10.8898 14.0402 11.0826 13.4127 11.2449 12.9949C11.4351 12.4799 11.738 12.0141 12.1319 11.6316C12.5144 11.2378 12.9801 10.9348 13.4952 10.7449C13.9127 10.5823 14.5405 10.3895 15.6964 10.3365C16.9462 10.2799 17.3211 10.2678 20.4865 10.2678C23.652 10.2678 24.0266 10.2799 25.2766 10.3371C26.4326 10.3898 27.0601 10.5829 27.4779 10.7451C27.9926 10.9353 28.4584 11.2383 28.8409 11.6319C29.2348 12.0144 29.5377 12.4801 29.7276 12.9952C29.8902 13.4127 30.0833 14.0405 30.136 15.1964C30.1929 16.4464 30.205 16.8213 30.205 19.9868C30.205 23.1523 30.1931 23.5269 30.136 24.7771Z"
              fill="white"/>
        <path d="M20.4862 13.8989C17.1242 13.8989 14.3987 16.6245 14.3987 19.9864C14.3987 23.3484 17.1242 26.074 20.4862 26.074C23.8484 26.074 26.5737 23.3484 26.5737 19.9864C26.5737 16.6245 23.8484 13.8989 20.4862 13.8989ZM20.4862 23.938C18.3041 23.9377 16.5349 22.1688 16.5349 19.9864C16.5349 17.8041 18.3039 16.0349 20.4865 16.0349C22.6688 16.0351 24.438 17.8041 24.438 19.9864C24.438 22.1688 22.6688 23.938 20.4862 23.938Z"
              fill="white"/>
        <path d="M28.2372 13.6584C28.2372 14.444 27.6002 15.081 26.8147 15.081C26.0288 15.081 25.3921 14.444 25.3921 13.6584C25.3921 12.8726 26.0291 12.2358 26.8147 12.2358C27.6002 12.2358 28.2372 12.8728 28.2372 13.6584Z"
              fill="white"/>
    </g>
    <defs>
        <clipPath id="clip0_17183_25466">
            <rect width="24" height="24" fill="white" transform="translate(8.5 8)"/>
        </clipPath>
    </defs>
</svg>
