<svg width="41" height="40" viewBox="0 0 41 40" fill="none" xmlns="http://www.w3.org/2000/svg">
    <rect x="0.5" width="40" height="40" rx="9" fill="#394375"/>
    <g clip-path="url(#clip0_17183_25464)">
        <path fill-rule="evenodd" clip-rule="evenodd" d="M32.5 31.0181H27.1957V23.3482C27.1957 21.3406 26.366 19.97 24.5414 19.97C23.1458 19.97 22.3697 20.8949 22.0085 21.7862C21.873 22.1062 21.8942 22.5518 21.8942 22.9975V31.0181H16.6392C16.6392 31.0181 16.707 17.4315 16.6392 16.1965H21.8942V18.5227C22.2046 17.5056 23.8838 16.054 26.5635 16.054C29.888 16.054 32.5 18.186 32.5 22.7768V31.0181ZM11.325 14.3426H11.2912C9.59784 14.3426 8.5 13.2096 8.5 11.7734C8.5 10.3092 9.63029 9.19995 11.3575 9.19995C13.0833 9.19995 14.1444 10.3064 14.1783 11.7692C14.1783 13.2054 13.0832 14.3426 11.325 14.3426ZM9.10535 16.1965H13.7832V31.0181H9.10535V16.1965Z" fill="white"/>
    </g>
    <defs>
        <clipPath id="clip0_17183_25464">
            <rect width="24" height="24" fill="white" transform="translate(8.5 8)"/>
        </clipPath>
    </defs>
</svg>
