<svg width="237" height="232" viewBox="0 0 237 232" fill="none" xmlns="http://www.w3.org/2000/svg">
    <g filter="url(#filter0_i_14775_14498)">
        <path d="M0 24C0 10.7452 10.7452 0 24 0H213C226.255 0 237 10.7452 237 24V275H0V24Z" fill="white"/>
    </g>
    <rect opacity="0.1" x="21" y="101" width="195" height="40" rx="6" fill="#3593FF"/>
    <path d="M91.2 117.55L92.48 117.55V122.36C92.48 123.96 91.32 125.12 89.58 125.12C87.83 125.12 86.68 123.96 86.68 122.36V117.55L87.95 117.55V122.36C87.95 123.32 88.62 123.98 89.58 123.98C90.53 123.98 91.2 123.31 91.2 122.36V117.55ZM96.5284 125.12C95.0584 125.12 93.8584 124.26 93.4784 123.06L94.5584 122.57C94.9084 123.5 95.6784 124.01 96.5284 124.01C97.3684 124.01 97.9084 123.6 97.9084 123.05C97.9084 122.54 97.5984 122.27 97.0084 122.09L95.5484 121.64C94.3184 121.27 93.7184 120.53 93.7184 119.57C93.7184 118.3 94.7584 117.43 96.2784 117.43C97.6884 117.43 98.7584 118.23 99.1384 119.28L98.0484 119.78C97.7784 118.99 97.1384 118.54 96.2884 118.54C95.5084 118.54 94.9884 118.94 94.9884 119.51C94.9884 119.97 95.3084 120.31 95.9084 120.49L97.3184 120.92C98.5484 121.3 99.1784 121.96 99.1784 122.96C99.1784 124.25 98.1084 125.12 96.5284 125.12ZM100.225 125V117.55L102.655 117.55C104.995 117.55 106.505 119.07 106.505 121.27C106.505 123.47 104.995 125 102.655 125L100.225 125ZM101.485 123.89L102.685 123.89C104.235 123.89 105.225 122.86 105.225 121.27C105.225 119.68 104.225 118.66 102.685 118.66L101.485 118.66V123.89ZM111.455 119.49C112.765 119.49 113.665 120.28 113.665 121.4V125L112.535 125V124.4C112.135 124.88 111.585 125.12 110.935 125.12C109.735 125.12 108.975 124.44 108.975 123.52C108.975 122.72 109.605 122.19 110.695 121.95L112.465 121.57V121.4C112.465 120.9 112.055 120.57 111.455 120.57C110.875 120.57 110.415 120.89 110.215 121.4L109.175 120.88C109.485 120.06 110.385 119.49 111.455 119.49ZM111.075 124.17C111.875 124.17 112.465 123.59 112.465 122.83V122.48L110.935 122.82C110.485 122.92 110.225 123.18 110.225 123.51C110.225 123.92 110.555 124.17 111.075 124.17ZM117.097 125.12C115.517 125.12 114.327 123.91 114.327 122.3C114.327 120.69 115.507 119.49 117.097 119.49C118.237 119.49 119.177 120.13 119.507 121.04L118.467 121.56C118.257 120.98 117.747 120.6 117.097 120.6C116.217 120.6 115.577 121.31 115.577 122.31C115.577 123.29 116.217 124.01 117.097 124.01C117.757 124.01 118.257 123.64 118.467 123.05L119.507 123.58C119.187 124.46 118.247 125.12 117.097 125.12ZM122.741 125.12C121.161 125.12 119.971 123.91 119.971 122.3C119.971 120.69 121.151 119.49 122.741 119.49C123.881 119.49 124.821 120.13 125.151 121.04L124.111 121.56C123.901 120.98 123.391 120.6 122.741 120.6C121.861 120.6 121.221 121.31 121.221 122.31C121.221 123.29 121.861 124.01 122.741 124.01C123.401 124.01 123.901 123.64 124.111 123.05L125.151 123.58C124.831 124.46 123.891 125.12 122.741 125.12ZM128.446 125.12C126.866 125.12 125.616 123.93 125.616 122.3C125.616 120.67 126.856 119.49 128.446 119.49C130.026 119.49 131.276 120.67 131.276 122.3C131.276 123.93 130.016 125.12 128.446 125.12ZM128.446 124.01C129.356 124.01 130.026 123.3 130.026 122.31C130.026 121.32 129.356 120.6 128.446 120.6C127.526 120.6 126.866 121.32 126.866 122.31C126.866 123.3 127.526 124.01 128.446 124.01ZM135.517 119.61L136.717 119.61V125L135.577 125V124.38C135.277 124.85 134.727 125.12 134.067 125.12C132.867 125.12 132.027 124.2 132.027 122.96V119.61L133.227 119.61V122.81C133.227 123.54 133.687 124.01 134.377 124.01C135.057 124.01 135.517 123.54 135.517 122.81V119.61ZM140.539 119.49C141.739 119.49 142.569 120.32 142.569 121.5V125L141.369 125V121.8C141.369 121.07 140.909 120.6 140.229 120.6C139.539 120.6 139.079 121.07 139.079 121.8V125L137.879 125V119.61L139.009 119.61V120.26C139.309 119.76 139.869 119.49 140.539 119.49ZM146.061 125.06C144.851 125.06 144.171 124.38 144.171 123.19V120.69L143.191 120.69V119.61L143.351 119.61C143.871 119.61 144.171 119.32 144.171 118.8V117.94L145.371 117.94V119.61L146.651 119.61V120.69L145.371 120.69V123.19C145.371 123.65 145.561 124.08 146.321 124.08C146.421 124.08 146.551 124.07 146.681 124.05V125.01C146.491 125.04 146.251 125.06 146.061 125.06Z" fill="#2C3667"/>
    <g filter="url(#filter1_d_14775_14498)">
        <rect x="26" y="105" width="52" height="32" rx="6" fill="white"/>
        <rect x="26.5" y="105.5" width="51" height="31" rx="5.5" stroke="#00D2D3"/>
    </g>
    <path d="M40.088 122.234C40.088 122.729 40.1347 123.149 40.228 123.494C40.3213 123.83 40.4567 124.105 40.634 124.32C40.8207 124.525 41.04 124.675 41.292 124.768C41.5533 124.861 41.852 124.908 42.188 124.908C42.5053 124.908 42.7947 124.857 43.056 124.754C43.3173 124.651 43.5367 124.497 43.714 124.292C43.9007 124.077 44.0453 123.802 44.148 123.466C44.2507 123.13 44.302 122.719 44.302 122.234V117.39C44.302 117.343 44.274 117.306 44.218 117.278C44.162 117.241 44.0873 117.213 43.994 117.194C43.91 117.166 43.8167 117.147 43.714 117.138C43.6113 117.129 43.504 117.124 43.392 117.124H43.252V116.06H46.5V117.124H46.346C46.1873 117.124 46.0427 117.138 45.912 117.166C45.7813 117.194 45.6787 117.25 45.604 117.334C45.5293 117.409 45.492 117.521 45.492 117.67V122.234C45.492 122.943 45.394 123.555 45.198 124.068C45.002 124.572 44.7267 124.987 44.372 125.314C44.0173 125.631 43.6067 125.865 43.14 126.014C42.6733 126.163 42.1647 126.238 41.614 126.238C40.998 126.238 40.438 126.159 39.934 126C39.43 125.851 38.9913 125.617 38.618 125.3C38.254 124.973 37.974 124.558 37.778 124.054C37.5913 123.55 37.498 122.943 37.498 122.234V117.628C37.498 117.423 37.414 117.287 37.246 117.222C37.0873 117.157 36.882 117.124 36.63 117.124H36.476V116.06H41.11V117.11H40.97C40.8767 117.11 40.774 117.115 40.662 117.124C40.5593 117.133 40.466 117.147 40.382 117.166C40.298 117.175 40.228 117.189 40.172 117.208C40.116 117.217 40.088 117.236 40.088 117.264V122.234ZM51.7001 125.104C52.0921 125.104 52.4095 125.062 52.6521 124.978C52.9041 124.885 53.0908 124.74 53.2121 124.544C53.3335 124.348 53.3941 124.096 53.3941 123.788C53.3941 123.508 53.3288 123.279 53.1981 123.102C53.0675 122.915 52.8855 122.761 52.6521 122.64C52.4188 122.519 52.1341 122.411 51.7981 122.318C51.4715 122.215 51.1075 122.113 50.7061 122.01C50.3048 121.898 49.9175 121.772 49.5441 121.632C49.1801 121.483 48.8535 121.291 48.5641 121.058C48.2841 120.825 48.0601 120.526 47.8921 120.162C47.7241 119.798 47.6401 119.345 47.6401 118.804C47.6401 118.141 47.7848 117.591 48.0741 117.152C48.3635 116.713 48.7648 116.382 49.2781 116.158C49.8008 115.925 50.4075 115.808 51.0981 115.808C51.6955 115.808 52.1948 115.897 52.5961 116.074C53.0068 116.242 53.3381 116.513 53.5901 116.886C53.8515 117.259 54.0475 117.749 54.1781 118.356L53.6461 117.88L53.9121 115.99H54.9901V118.832H53.7301C53.6275 118.431 53.4595 118.09 53.2261 117.81C53.0021 117.521 52.7268 117.306 52.4001 117.166C52.0828 117.017 51.7235 116.942 51.3221 116.942C50.9675 116.942 50.6781 116.989 50.4541 117.082C50.2301 117.175 50.0668 117.311 49.9641 117.488C49.8615 117.665 49.8101 117.885 49.8101 118.146C49.8101 118.407 49.8661 118.622 49.9781 118.79C50.0995 118.958 50.2675 119.098 50.4821 119.21C50.7061 119.313 50.9721 119.406 51.2801 119.49C51.5881 119.565 51.9288 119.649 52.3021 119.742C52.7315 119.845 53.1421 119.966 53.5341 120.106C53.9355 120.246 54.2901 120.433 54.5981 120.666C54.9155 120.899 55.1628 121.198 55.3401 121.562C55.5175 121.917 55.6061 122.369 55.6061 122.92C55.6061 123.639 55.4615 124.245 55.1721 124.74C54.8828 125.235 54.4581 125.608 53.8981 125.86C53.3475 126.112 52.6801 126.238 51.8961 126.238C51.2708 126.238 50.7108 126.154 50.2161 125.986C49.7215 125.809 49.3061 125.51 48.9701 125.09C48.6341 124.67 48.3961 124.091 48.2561 123.354L48.8021 123.816L48.5361 126.028H47.4021V122.78H48.7601C48.9095 123.312 49.1288 123.751 49.4181 124.096C49.7075 124.441 50.0481 124.698 50.4401 124.866C50.8321 125.025 51.2521 125.104 51.7001 125.104ZM56.616 117.124V116.06H61.642C62.4353 116.06 63.154 116.163 63.798 116.368C64.4513 116.573 65.0113 116.881 65.478 117.292C65.954 117.703 66.318 118.221 66.57 118.846C66.8313 119.462 66.962 120.176 66.962 120.988C66.962 121.8 66.8313 122.519 66.57 123.144C66.318 123.769 65.954 124.297 65.478 124.726C65.0113 125.146 64.4513 125.463 63.798 125.678C63.154 125.893 62.4353 126 61.642 126H56.616V124.936H56.784C57.0267 124.936 57.2273 124.903 57.386 124.838C57.554 124.773 57.638 124.637 57.638 124.432V117.628C57.638 117.432 57.554 117.301 57.386 117.236C57.2273 117.161 57.0267 117.124 56.784 117.124H56.616ZM61.446 117.194H60.228V124.866H61.446C61.894 124.866 62.2907 124.787 62.636 124.628C62.9813 124.469 63.2707 124.227 63.504 123.9C63.7467 123.573 63.9287 123.167 64.05 122.682C64.1807 122.197 64.246 121.632 64.246 120.988C64.246 120.344 64.1807 119.784 64.05 119.308C63.9287 118.832 63.7467 118.44 63.504 118.132C63.2707 117.815 62.9813 117.581 62.636 117.432C62.2907 117.273 61.894 117.194 61.446 117.194Z" fill="url(#paint0_linear_14775_14498)"/>
    <rect x="184" y="112" width="18" height="18" rx="9" fill="#3593FF"/>
    <path fill-rule="evenodd" clip-rule="evenodd" d="M198.128 117.351C198.624 117.82 198.624 118.58 198.128 119.049L192.205 124.649C191.71 125.117 190.906 125.117 190.41 124.649L187.872 122.249C187.376 121.78 187.376 121.02 187.872 120.551C188.367 120.083 189.171 120.083 189.667 120.551L191.308 122.103L196.333 117.351C196.829 116.883 197.633 116.883 198.128 117.351Z" fill="white"/>
    <rect opacity="0.4" x="21" y="149" width="195" height="40" rx="6" fill="#D5DAEF"/>
    <path d="M90.27 173.12C88.11 173.12 86.51 171.47 86.51 169.28C86.51 167.09 88.09 165.43 90.17 165.43C91.58 165.43 92.77 166.21 93.2 167.32L92.35 167.73C91.98 166.82 91.19 166.27 90.17 166.27C88.58 166.27 87.46 167.52 87.46 169.28C87.46 171.05 88.6 172.28 90.27 172.28C91.31 172.28 92.17 171.8 92.5 171.02V169.92L90.26 169.92V169.09L93.4 169.09V171.12C92.98 172.31 91.78 173.12 90.27 173.12ZM99.1313 168.99C99.8413 169.38 100.201 170.05 100.201 170.82C100.201 172.17 99.2413 173 97.7313 173L94.6213 173V165.55L97.7313 165.55C99.0513 165.55 99.9013 166.31 99.9013 167.48C99.9013 168.11 99.6313 168.64 99.1313 168.99ZM95.5713 166.37V168.63L97.7013 168.63C98.4413 168.63 98.9213 168.18 98.9213 167.5C98.9213 166.82 98.4413 166.37 97.7013 166.37L95.5713 166.37ZM97.7713 172.17C98.6413 172.17 99.2213 171.63 99.2213 170.82C99.2213 170 98.6413 169.46 97.7713 169.46L95.5713 169.46V172.17L97.7713 172.17ZM101.34 173V165.55L104 165.55C105.52 165.55 106.56 166.45 106.56 167.85C106.56 169.24 105.53 170.14 104 170.14L102.29 170.14V173L101.34 173ZM102.29 169.31L104 169.31C104.95 169.31 105.58 168.72 105.58 167.84C105.58 166.97 104.95 166.38 104 166.38L102.29 166.38V169.31ZM111.386 167.58C112.596 167.58 113.446 168.33 113.446 169.41V173L112.606 173V172.26C112.246 172.79 111.616 173.12 110.936 173.12C109.806 173.12 109.046 172.46 109.046 171.53C109.046 170.75 109.676 170.21 110.746 169.97L112.586 169.56V169.41C112.586 168.8 112.086 168.4 111.386 168.4C110.746 168.4 110.246 168.74 110.016 169.26L109.246 168.86C109.546 168.14 110.406 167.58 111.386 167.58ZM110.986 172.35C111.916 172.35 112.586 171.65 112.586 170.72V170.26L110.946 170.64C110.346 170.77 109.956 171.1 109.956 171.53C109.956 172.03 110.356 172.35 110.986 172.35ZM116.92 173.12C115.4 173.12 114.27 171.93 114.27 170.34C114.27 168.75 115.4 167.58 116.92 167.58C117.96 167.58 118.84 168.19 119.17 168.98L118.4 169.38C118.14 168.8 117.61 168.41 116.92 168.41C115.92 168.41 115.18 169.23 115.18 170.35C115.18 171.45 115.92 172.29 116.92 172.29C117.61 172.29 118.14 171.9 118.4 171.32L119.17 171.72C118.84 172.5 117.95 173.12 116.92 173.12ZM122.438 173.12C120.918 173.12 119.788 171.93 119.788 170.34C119.788 168.75 120.918 167.58 122.438 167.58C123.478 167.58 124.358 168.19 124.688 168.98L123.918 169.38C123.658 168.8 123.128 168.41 122.438 168.41C121.438 168.41 120.698 169.23 120.698 170.35C120.698 171.45 121.438 172.29 122.438 172.29C123.128 172.29 123.658 171.9 123.918 171.32L124.688 171.72C124.358 172.5 123.468 173.12 122.438 173.12ZM128.035 173.12C126.505 173.12 125.305 171.95 125.305 170.34C125.305 168.73 126.495 167.58 128.035 167.58C129.575 167.58 130.765 168.73 130.765 170.34C130.765 171.95 129.565 173.12 128.035 173.12ZM128.035 172.29C129.065 172.29 129.855 171.46 129.855 170.35C129.855 169.24 129.065 168.41 128.035 168.41C127.005 168.41 126.215 169.24 126.215 170.35C126.215 171.46 127.005 172.29 128.035 172.29ZM135.177 167.7L136.037 167.7V173L135.197 173V172.39C134.887 172.85 134.317 173.12 133.677 173.12C132.527 173.12 131.687 172.2 131.687 171.07V167.7L132.547 167.7V170.91C132.547 171.75 133.067 172.29 133.867 172.29C134.647 172.29 135.177 171.74 135.177 170.91V167.7ZM139.723 167.58C140.873 167.58 141.703 168.4 141.703 169.51V173L140.843 173V169.79C140.843 168.95 140.333 168.41 139.533 168.41C138.743 168.41 138.213 168.96 138.213 169.79V173L137.353 173V167.7L138.193 167.7V168.31C138.503 167.85 139.073 167.58 139.723 167.58ZM145.14 173.06C144.07 173.06 143.47 172.45 143.47 171.38V168.52L142.44 168.52V167.7L142.71 167.7C143.17 167.7 143.47 167.39 143.47 166.92V165.98L144.33 165.98V167.7L145.61 167.7V168.52L144.33 168.52V171.38C144.33 171.72 144.39 172.34 145.3 172.34C145.41 172.34 145.56 172.33 145.67 172.31V173.01C145.5 173.05 145.29 173.06 145.14 173.06Z" fill="#8C95C2"/>
    <rect x="26.5" y="153.5" width="51" height="31" rx="5.5" fill="white" stroke="#D5DAEF"/>
    <path d="M45.954 170.612V172.6C45.814 172.768 45.6087 172.95 45.338 173.146C45.0767 173.333 44.7593 173.51 44.386 173.678C44.0127 173.846 43.5973 173.981 43.14 174.084C42.692 174.187 42.216 174.238 41.712 174.238C40.9373 174.238 40.2373 174.126 39.612 173.902C38.9867 173.669 38.4453 173.328 37.988 172.88C37.54 172.432 37.1947 171.886 36.952 171.242C36.7187 170.598 36.602 169.861 36.602 169.03C36.602 168.209 36.7233 167.476 36.966 166.832C37.218 166.188 37.568 165.642 38.016 165.194C38.4733 164.737 39.0053 164.391 39.612 164.158C40.2187 163.925 40.8813 163.808 41.6 163.808C42.2813 163.808 42.8507 163.929 43.308 164.172C43.7653 164.415 44.1293 164.755 44.4 165.194C44.68 165.633 44.8853 166.141 45.016 166.72L44.4 166.286L44.638 163.99H45.828V167.238H44.47C44.33 166.79 44.1433 166.403 43.91 166.076C43.686 165.74 43.406 165.479 43.07 165.292C42.7433 165.105 42.3513 165.012 41.894 165.012C41.4647 165.012 41.0913 165.101 40.774 165.278C40.4567 165.446 40.186 165.698 39.962 166.034C39.7473 166.361 39.584 166.776 39.472 167.28C39.3693 167.784 39.318 168.367 39.318 169.03C39.318 169.739 39.374 170.351 39.486 170.864C39.598 171.368 39.7613 171.779 39.976 172.096C40.2 172.413 40.4707 172.651 40.788 172.81C41.1053 172.969 41.4693 173.048 41.88 173.048C42.188 173.048 42.454 173.015 42.678 172.95C42.902 172.875 43.0887 172.791 43.238 172.698C43.3873 172.595 43.504 172.507 43.588 172.432V170.612C43.588 170.397 43.4947 170.257 43.308 170.192C43.1307 170.117 42.9113 170.08 42.65 170.08H42.37V169.03H46.892V170.08H46.682C46.458 170.08 46.2807 170.117 46.15 170.192C46.0193 170.257 45.954 170.397 45.954 170.612ZM53.2153 164.06C53.7753 164.06 54.27 164.111 54.6993 164.214C55.138 164.307 55.502 164.457 55.7913 164.662C56.0806 164.858 56.3 165.11 56.4493 165.418C56.5986 165.717 56.6733 166.067 56.6733 166.468C56.6733 166.963 56.552 167.378 56.3093 167.714C56.0666 168.041 55.7213 168.293 55.2733 168.47C54.8253 168.638 54.2886 168.741 53.6633 168.778L54.0133 168.428V169.142L53.7193 168.736C54.41 168.783 55.0026 168.899 55.4973 169.086C56.0013 169.273 56.3886 169.543 56.6593 169.898C56.9393 170.243 57.0793 170.687 57.0793 171.228C57.0793 171.685 56.9953 172.087 56.8273 172.432C56.6686 172.777 56.426 173.067 56.0993 173.3C55.782 173.533 55.39 173.711 54.9233 173.832C54.466 173.944 53.9293 174 53.3133 174H47.8113V172.936H47.9653C48.2173 172.936 48.4226 172.903 48.5813 172.838C48.7493 172.773 48.8333 172.637 48.8333 172.432V165.628C48.8333 165.423 48.7493 165.287 48.5813 165.222C48.4226 165.157 48.2173 165.124 47.9653 165.124H47.8113V164.06H53.2153ZM50.8353 168.288H52.6273C52.9633 168.288 53.2386 168.232 53.4533 168.12C53.668 167.999 53.822 167.817 53.9153 167.574C54.018 167.322 54.0693 167.005 54.0693 166.622C54.0693 166.314 54.018 166.053 53.9153 165.838C53.8126 165.614 53.654 165.446 53.4393 165.334C53.234 165.213 52.9773 165.152 52.6693 165.152H51.4233V172.908H52.7533C53.1173 172.908 53.4206 172.843 53.6633 172.712C53.9153 172.572 54.102 172.371 54.2233 172.11C54.354 171.839 54.4193 171.503 54.4193 171.102C54.4193 170.719 54.354 170.397 54.2233 170.136C54.102 169.865 53.9106 169.665 53.6493 169.534C53.388 169.394 53.052 169.324 52.6413 169.324H50.8353V168.288ZM61.8143 172.81C61.8143 172.838 61.8376 172.861 61.8843 172.88C61.9309 172.889 61.9963 172.899 62.0803 172.908C62.1643 172.917 62.2576 172.927 62.3603 172.936C62.4629 172.936 62.5703 172.936 62.6823 172.936H63.0183V174H58.2023V172.978H58.3423C58.5943 172.978 58.7996 172.945 58.9583 172.88C59.1263 172.815 59.2103 172.679 59.2103 172.474V165.586C59.2103 165.381 59.1263 165.245 58.9583 165.18C58.7996 165.115 58.5943 165.082 58.3423 165.082H58.2023V164.06H63.5363C64.6936 164.06 65.5989 164.317 66.2523 164.83C66.9056 165.343 67.2323 166.081 67.2323 167.042C67.2323 167.695 67.0736 168.26 66.7563 168.736C66.4483 169.203 66.0143 169.562 65.4543 169.814C64.8943 170.057 64.2363 170.178 63.4803 170.178H61.4083V169.058H62.9903C63.3449 169.058 63.6436 168.988 63.8863 168.848C64.1383 168.699 64.3296 168.479 64.4603 168.19C64.5909 167.891 64.6562 167.523 64.6562 167.084C64.6562 166.645 64.5909 166.291 64.4603 166.02C64.3389 165.74 64.1569 165.535 63.9143 165.404C63.6716 165.264 63.3776 165.194 63.0323 165.194H61.8143V172.81Z" fill="#7680B0"/>
    <rect opacity="0.4" x="21" y="197" width="195" height="40" rx="6" fill="#D5DAEF"/>
    <path d="M86.76 221V213.55L91.6 213.55V214.38L87.71 214.38V216.85L91.4 216.85V217.68L87.71 217.68V220.17L91.6 220.17V221L86.76 221ZM97.4221 213.55L98.3821 213.55V218.57C98.3821 220.09 97.3021 221.12 95.6521 221.12C94.0021 221.12 92.9221 220.1 92.9221 218.57V213.55L93.8821 213.55V218.57C93.8821 219.56 94.6321 220.28 95.6521 220.28C96.6621 220.28 97.4221 219.56 97.4221 218.57V213.55ZM99.9045 221V213.55L102.565 213.55C104.085 213.55 105.125 214.45 105.125 215.85C105.125 216.88 104.565 217.65 103.635 217.97L105.375 221L104.275 221L102.655 218.14L100.855 218.14V221L99.9045 221ZM100.855 217.31L102.565 217.31C103.515 217.31 104.145 216.72 104.145 215.84C104.145 214.97 103.515 214.38 102.565 214.38L100.855 214.38V217.31ZM110.204 215.58C111.414 215.58 112.264 216.33 112.264 217.41V221L111.424 221V220.26C111.064 220.79 110.434 221.12 109.754 221.12C108.624 221.12 107.864 220.46 107.864 219.53C107.864 218.75 108.494 218.21 109.564 217.97L111.404 217.56V217.41C111.404 216.8 110.904 216.4 110.204 216.4C109.564 216.4 109.064 216.74 108.834 217.26L108.064 216.86C108.364 216.14 109.224 215.58 110.204 215.58ZM109.804 220.35C110.734 220.35 111.404 219.65 111.404 218.72V218.26L109.764 218.64C109.164 218.77 108.774 219.1 108.774 219.53C108.774 220.03 109.174 220.35 109.804 220.35ZM115.739 221.12C114.219 221.12 113.089 219.93 113.089 218.34C113.089 216.75 114.219 215.58 115.739 215.58C116.779 215.58 117.659 216.19 117.989 216.98L117.219 217.38C116.959 216.8 116.429 216.41 115.739 216.41C114.739 216.41 113.999 217.23 113.999 218.35C113.999 219.45 114.739 220.29 115.739 220.29C116.429 220.29 116.959 219.9 117.219 219.32L117.989 219.72C117.659 220.5 116.769 221.12 115.739 221.12ZM121.256 221.12C119.736 221.12 118.606 219.93 118.606 218.34C118.606 216.75 119.736 215.58 121.256 215.58C122.296 215.58 123.176 216.19 123.506 216.98L122.736 217.38C122.476 216.8 121.946 216.41 121.256 216.41C120.256 216.41 119.516 217.23 119.516 218.35C119.516 219.45 120.256 220.29 121.256 220.29C121.946 220.29 122.476 219.9 122.736 219.32L123.506 219.72C123.176 220.5 122.286 221.12 121.256 221.12ZM126.854 221.12C125.324 221.12 124.124 219.95 124.124 218.34C124.124 216.73 125.314 215.58 126.854 215.58C128.394 215.58 129.584 216.73 129.584 218.34C129.584 219.95 128.384 221.12 126.854 221.12ZM126.854 220.29C127.884 220.29 128.674 219.46 128.674 218.35C128.674 217.24 127.884 216.41 126.854 216.41C125.824 216.41 125.034 217.24 125.034 218.35C125.034 219.46 125.824 220.29 126.854 220.29ZM133.995 215.7L134.855 215.7V221L134.015 221V220.39C133.705 220.85 133.135 221.12 132.495 221.12C131.345 221.12 130.505 220.2 130.505 219.07V215.7L131.365 215.7V218.91C131.365 219.75 131.885 220.29 132.685 220.29C133.465 220.29 133.995 219.74 133.995 218.91V215.7ZM138.542 215.58C139.692 215.58 140.522 216.4 140.522 217.51V221L139.662 221V217.79C139.662 216.95 139.152 216.41 138.352 216.41C137.562 216.41 137.032 216.96 137.032 217.79V221L136.172 221V215.7L137.012 215.7V216.31C137.322 215.85 137.892 215.58 138.542 215.58ZM143.958 221.06C142.888 221.06 142.288 220.45 142.288 219.38V216.52L141.258 216.52V215.7L141.528 215.7C141.988 215.7 142.288 215.39 142.288 214.92V213.98L143.148 213.98V215.7L144.428 215.7V216.52L143.148 216.52V219.38C143.148 219.72 143.208 220.34 144.118 220.34C144.228 220.34 144.378 220.33 144.488 220.31V221.01C144.318 221.05 144.108 221.06 143.958 221.06Z" fill="#8C95C2"/>
    <rect x="26.5" y="201.5" width="51" height="31" rx="5.5" fill="white" stroke="#D5DAEF"/>
    <path d="M44.918 218.822V222H36.532V220.936H36.686C36.938 220.936 37.1433 220.903 37.302 220.838C37.47 220.773 37.554 220.637 37.554 220.432V213.628C37.554 213.423 37.47 213.287 37.302 213.222C37.1433 213.157 36.938 213.124 36.686 213.124H36.532V212.06H44.596V214.888H43.364L43.252 213.796C43.2333 213.628 43.1633 213.502 43.042 213.418C42.93 213.325 42.7667 213.264 42.552 213.236C42.3467 213.199 42.09 213.18 41.782 213.18H40.144V220.88H41.852C42.132 220.88 42.37 220.871 42.566 220.852C42.7713 220.833 42.9347 220.801 43.056 220.754C43.1867 220.707 43.2847 220.647 43.35 220.572C43.4153 220.488 43.4573 220.385 43.476 220.264L43.658 218.822H44.918ZM39.836 216.4C40.228 216.372 40.6153 216.349 40.998 216.33C41.39 216.302 41.7773 216.274 42.16 216.246C42.552 216.218 42.9393 216.195 43.322 216.176V217.618C42.9393 217.59 42.552 217.567 42.16 217.548C41.7773 217.52 41.39 217.497 40.998 217.478C40.6153 217.45 40.228 217.422 39.836 217.394V216.4ZM49.6446 218.234C49.6446 218.729 49.6913 219.149 49.7846 219.494C49.878 219.83 50.0133 220.105 50.1906 220.32C50.3773 220.525 50.5966 220.675 50.8486 220.768C51.11 220.861 51.4086 220.908 51.7446 220.908C52.062 220.908 52.3513 220.857 52.6126 220.754C52.874 220.651 53.0933 220.497 53.2706 220.292C53.4573 220.077 53.602 219.802 53.7046 219.466C53.8073 219.13 53.8586 218.719 53.8586 218.234V213.39C53.8586 213.343 53.8306 213.306 53.7746 213.278C53.7186 213.241 53.644 213.213 53.5506 213.194C53.4666 213.166 53.3733 213.147 53.2706 213.138C53.168 213.129 53.0606 213.124 52.9486 213.124H52.8086V212.06H56.0566V213.124H55.9026C55.744 213.124 55.5993 213.138 55.4686 213.166C55.338 213.194 55.2353 213.25 55.1606 213.334C55.086 213.409 55.0486 213.521 55.0486 213.67V218.234C55.0486 218.943 54.9506 219.555 54.7546 220.068C54.5586 220.572 54.2833 220.987 53.9286 221.314C53.574 221.631 53.1633 221.865 52.6966 222.014C52.23 222.163 51.7213 222.238 51.1706 222.238C50.5546 222.238 49.9946 222.159 49.4906 222C48.9866 221.851 48.548 221.617 48.1746 221.3C47.8106 220.973 47.5306 220.558 47.3346 220.054C47.148 219.55 47.0546 218.943 47.0546 218.234V213.628C47.0546 213.423 46.9706 213.287 46.8026 213.222C46.644 213.157 46.4386 213.124 46.1866 213.124H46.0326V212.06H50.6666V213.11H50.5266C50.4333 213.11 50.3306 213.115 50.2186 213.124C50.116 213.133 50.0226 213.147 49.9386 213.166C49.8546 213.175 49.7846 213.189 49.7286 213.208C49.6726 213.217 49.6446 213.236 49.6446 213.264V218.234ZM61.8272 217.52L64.1932 217.03L65.9292 220.32C66.0225 220.488 66.1158 220.619 66.2092 220.712C66.3118 220.805 66.4192 220.866 66.5312 220.894C66.6432 220.922 66.7692 220.936 66.9092 220.936H67.0352V222H63.9132L61.8272 217.52ZM60.6792 220.796C60.6792 220.824 60.7025 220.847 60.7492 220.866C60.7958 220.875 60.8612 220.889 60.9452 220.908C61.0292 220.917 61.1225 220.927 61.2252 220.936C61.3278 220.936 61.4305 220.936 61.5332 220.936H61.7292V222H57.0672V220.936H57.2212C57.4732 220.936 57.6785 220.903 57.8372 220.838C58.0052 220.773 58.0892 220.637 58.0892 220.432V213.628C58.0892 213.423 58.0052 213.287 57.8372 213.222C57.6785 213.157 57.4732 213.124 57.2212 213.124H57.0672V212.06H62.4432C63.2458 212.06 63.9225 212.167 64.4732 212.382C65.0238 212.587 65.4438 212.9 65.7332 213.32C66.0318 213.731 66.1812 214.23 66.1812 214.818C66.1812 215.35 66.0552 215.817 65.8032 216.218C65.5605 216.619 65.2012 216.946 64.7252 217.198C64.2585 217.441 63.6845 217.604 63.0032 217.688C62.9472 217.735 62.8912 217.772 62.8352 217.8C62.7792 217.828 62.7232 217.856 62.6672 217.884C62.6205 217.912 62.5645 217.935 62.4992 217.954H60.3572V216.876H61.9392C62.3032 216.876 62.5972 216.797 62.8212 216.638C63.0545 216.479 63.2225 216.255 63.3252 215.966C63.4372 215.667 63.4932 215.317 63.4932 214.916C63.4932 214.533 63.4372 214.211 63.3252 213.95C63.2225 213.689 63.0638 213.493 62.8492 213.362C62.6345 213.222 62.3592 213.152 62.0232 213.152H60.6792V220.796Z" fill="#7680B0"/>
    <path d="M22.492 91V90.064L22.624 90.064C22.768 90.064 22.896 90.052 23.008 90.028C23.12 90.004 23.208 89.96 23.272 89.896C23.336 89.832 23.368 89.744 23.368 89.632V83.848C23.368 83.728 23.336 83.64 23.272 83.584C23.208 83.52 23.12 83.476 23.008 83.452C22.896 83.428 22.768 83.416 22.624 83.416L22.492 83.416V82.48L26.476 82.48L28.324 88.768L27.928 88.18L29.716 82.48L33.58 82.48V83.416L33.46 83.416C33.236 83.416 33.052 83.444 32.908 83.5C32.772 83.556 32.704 83.672 32.704 83.848V89.632C32.704 89.808 32.772 89.924 32.908 89.98C33.052 90.036 33.236 90.064 33.46 90.064L33.58 90.064V91L29.692 91V90.064L29.8 90.064C29.896 90.064 29.996 90.06 30.1 90.052C30.212 90.044 30.308 90.032 30.388 90.016C30.476 89.992 30.52 89.968 30.52 89.944V82.768L30.652 82.732L28.024 91.06L26.908 91.06L24.268 82.744L24.412 82.684V89.944C24.412 89.968 24.452 89.992 24.532 90.016C24.612 90.032 24.704 90.044 24.808 90.052C24.912 90.06 25.004 90.064 25.084 90.064L25.156 90.064V91L22.492 91ZM38.8455 87.004V87.796C38.4535 87.868 38.1215 87.944 37.8495 88.024C37.5775 88.096 37.3575 88.18 37.1895 88.276C37.0215 88.364 36.8895 88.46 36.7935 88.564C36.7055 88.668 36.6455 88.784 36.6135 88.912C36.5815 89.032 36.5655 89.164 36.5655 89.308C36.5655 89.516 36.5975 89.684 36.6615 89.812C36.7335 89.94 36.8295 90.032 36.9495 90.088C37.0775 90.144 37.2295 90.172 37.4055 90.172C37.5735 90.172 37.7335 90.136 37.8855 90.064C38.0375 89.984 38.1895 89.86 38.3415 89.692C38.5015 89.524 38.6655 89.296 38.8335 89.008L38.9415 89.548C38.7655 89.916 38.5695 90.216 38.3535 90.448C38.1455 90.68 37.9055 90.852 37.6335 90.964C37.3615 91.076 37.0455 91.132 36.6855 91.132C36.2375 91.132 35.8615 91.072 35.5575 90.952C35.2535 90.832 35.0215 90.644 34.8615 90.388C34.7095 90.132 34.6335 89.804 34.6335 89.404C34.6335 89.06 34.7055 88.764 34.8495 88.516C35.0015 88.268 35.2415 88.052 35.5695 87.868C35.8975 87.684 36.3255 87.524 36.8535 87.388C37.3895 87.244 38.0535 87.116 38.8455 87.004ZM38.9535 91L38.7615 89.644L38.6895 89.644V86.068C38.6895 85.892 38.6615 85.744 38.6055 85.624C38.5575 85.504 38.4615 85.416 38.3175 85.36C38.1735 85.296 37.9615 85.264 37.6815 85.264C37.2815 85.264 36.9495 85.312 36.6855 85.408C36.4295 85.496 36.2535 85.588 36.1575 85.684C36.1015 85.652 36.0735 85.608 36.0735 85.552C36.0735 85.488 36.0975 85.424 36.1455 85.36C36.1935 85.296 36.2655 85.244 36.3615 85.204C36.4575 85.164 36.5735 85.144 36.7095 85.144V86.596L35.0055 86.596V84.988C35.1335 84.908 35.3215 84.812 35.5695 84.7C35.8255 84.588 36.1455 84.492 36.5295 84.412C36.9135 84.324 37.3615 84.28 37.8735 84.28C38.3215 84.28 38.7215 84.32 39.0735 84.4C39.4255 84.472 39.7255 84.592 39.9735 84.76C40.2215 84.92 40.4095 85.128 40.5375 85.384C40.6655 85.64 40.7295 85.94 40.7295 86.284V89.704C40.7295 89.784 40.7535 89.848 40.8015 89.896C40.8495 89.944 40.9215 89.98 41.0175 90.004C41.1215 90.028 41.2455 90.056 41.3895 90.088L41.4735 90.112V91L38.9535 91ZM42.1664 91V90.196L42.2024 90.196C42.3544 90.196 42.4824 90.176 42.5864 90.136C42.6904 90.096 42.7704 90.028 42.8264 89.932C42.8824 89.828 42.9104 89.688 42.9104 89.512V85.744C42.9104 85.656 42.8864 85.592 42.8384 85.552C42.7984 85.504 42.7304 85.468 42.6344 85.444C42.5384 85.412 42.4184 85.38 42.2744 85.348L42.1664 85.324V84.4L44.7344 84.4L44.9264 85.912L44.9984 85.96V90.088C44.9984 90.112 45.0304 90.132 45.0944 90.148C45.1584 90.164 45.2344 90.176 45.3224 90.184C45.4104 90.192 45.4904 90.196 45.5624 90.196L45.6224 90.196V91L42.1664 91ZM50.0384 91L46.5944 91V90.196L46.6304 90.196C46.7104 90.196 46.7944 90.196 46.8824 90.196C46.9784 90.188 47.0584 90.176 47.1224 90.16C47.1864 90.136 47.2184 90.112 47.2184 90.088V86.308C47.2184 86.132 47.1944 85.988 47.1464 85.876C47.1064 85.756 47.0304 85.668 46.9184 85.612C46.8144 85.548 46.6744 85.516 46.4984 85.516C46.2984 85.516 46.0984 85.572 45.8984 85.684C45.6984 85.788 45.4984 85.944 45.2984 86.152C45.1064 86.36 44.9024 86.628 44.6864 86.956L44.7224 86.08C44.9144 85.72 45.1424 85.404 45.4064 85.132C45.6784 84.86 45.9824 84.648 46.3184 84.496C46.6544 84.344 47.0064 84.268 47.3744 84.268C47.7904 84.268 48.1384 84.344 48.4184 84.496C48.7064 84.64 48.9224 84.856 49.0664 85.144C49.2184 85.424 49.2944 85.776 49.2944 86.2V89.512C49.2944 89.688 49.3224 89.828 49.3784 89.932C49.4344 90.028 49.5144 90.096 49.6184 90.136C49.7224 90.176 49.8504 90.196 50.0024 90.196L50.0384 90.196V91ZM55.0759 87.004V87.796C54.6839 87.868 54.3519 87.944 54.0799 88.024C53.8079 88.096 53.5879 88.18 53.4199 88.276C53.2519 88.364 53.1199 88.46 53.0239 88.564C52.9359 88.668 52.8759 88.784 52.8439 88.912C52.8119 89.032 52.7959 89.164 52.7959 89.308C52.7959 89.516 52.8279 89.684 52.8919 89.812C52.9639 89.94 53.0599 90.032 53.1799 90.088C53.3079 90.144 53.4599 90.172 53.6359 90.172C53.8039 90.172 53.9639 90.136 54.1159 90.064C54.2679 89.984 54.4199 89.86 54.5719 89.692C54.7319 89.524 54.8959 89.296 55.0639 89.008L55.1719 89.548C54.9959 89.916 54.7999 90.216 54.5839 90.448C54.3759 90.68 54.1359 90.852 53.8639 90.964C53.5919 91.076 53.2759 91.132 52.9159 91.132C52.4679 91.132 52.0919 91.072 51.7879 90.952C51.4839 90.832 51.2519 90.644 51.0919 90.388C50.9399 90.132 50.8639 89.804 50.8639 89.404C50.8639 89.06 50.9359 88.764 51.0799 88.516C51.2319 88.268 51.4719 88.052 51.7999 87.868C52.1279 87.684 52.5559 87.524 53.0839 87.388C53.6199 87.244 54.2839 87.116 55.0759 87.004ZM55.1839 91L54.9919 89.644L54.9199 89.644V86.068C54.9199 85.892 54.8919 85.744 54.8359 85.624C54.7879 85.504 54.6919 85.416 54.5479 85.36C54.4039 85.296 54.1919 85.264 53.9119 85.264C53.5119 85.264 53.1799 85.312 52.9159 85.408C52.6599 85.496 52.4839 85.588 52.3879 85.684C52.3319 85.652 52.3039 85.608 52.3039 85.552C52.3039 85.488 52.3279 85.424 52.3759 85.36C52.4239 85.296 52.4959 85.244 52.5919 85.204C52.6879 85.164 52.8039 85.144 52.9399 85.144V86.596L51.2359 86.596V84.988C51.3639 84.908 51.5519 84.812 51.7999 84.7C52.0559 84.588 52.3759 84.492 52.7599 84.412C53.1439 84.324 53.5919 84.28 54.1039 84.28C54.5519 84.28 54.9519 84.32 55.3039 84.4C55.6559 84.472 55.9559 84.592 56.2039 84.76C56.4519 84.92 56.6399 85.128 56.7679 85.384C56.8959 85.64 56.9599 85.94 56.9599 86.284V89.704C56.9599 89.784 56.9839 89.848 57.0319 89.896C57.0799 89.944 57.1519 89.98 57.2479 90.004C57.3519 90.028 57.4759 90.056 57.6199 90.088L57.7039 90.112V91L55.1839 91ZM66.138 85.552C65.81 85.504 65.526 85.468 65.286 85.444C65.046 85.42 64.83 85.408 64.638 85.408C64.446 85.4 64.254 85.404 64.062 85.42L63.81 85.528C63.93 85.24 64.058 84.992 64.194 84.784C64.33 84.568 64.49 84.392 64.674 84.256C64.858 84.12 65.066 84.024 65.298 83.968C65.538 83.912 65.818 83.9 66.138 83.932V85.552ZM61.782 88.876C61.174 88.876 60.646 88.784 60.198 88.6C59.75 88.416 59.402 88.152 59.154 87.808C58.914 87.464 58.794 87.06 58.794 86.596C58.794 86.124 58.918 85.716 59.166 85.372C59.414 85.028 59.762 84.76 60.21 84.568C60.658 84.376 61.182 84.28 61.782 84.28C62.398 84.28 62.93 84.376 63.378 84.568C63.834 84.76 64.182 85.028 64.422 85.372C64.67 85.716 64.794 86.124 64.794 86.596C64.794 87.06 64.67 87.464 64.422 87.808C64.182 88.152 63.834 88.416 63.378 88.6C62.93 88.784 62.398 88.876 61.782 88.876ZM61.782 88.012C62.038 88.012 62.242 87.968 62.394 87.88C62.554 87.784 62.67 87.632 62.742 87.424C62.822 87.216 62.862 86.944 62.862 86.608C62.862 86.272 62.822 86 62.742 85.792C62.67 85.576 62.554 85.42 62.394 85.324C62.242 85.22 62.038 85.168 61.782 85.168C61.542 85.168 61.342 85.22 61.182 85.324C61.03 85.42 60.914 85.576 60.834 85.792C60.762 86 60.726 86.272 60.726 86.608C60.726 86.944 60.762 87.216 60.834 87.424C60.906 87.632 61.022 87.784 61.182 87.88C61.342 87.968 61.542 88.012 61.782 88.012ZM60.594 93.976C60.058 93.976 59.602 93.932 59.226 93.844C58.85 93.756 58.562 93.612 58.362 93.412C58.17 93.212 58.074 92.952 58.074 92.632C58.074 92.384 58.138 92.172 58.266 91.996C58.394 91.828 58.594 91.676 58.866 91.54C59.146 91.404 59.51 91.276 59.958 91.156L60.318 91.396C60.142 91.508 60.006 91.616 59.91 91.72C59.814 91.824 59.746 91.928 59.706 92.032C59.674 92.144 59.658 92.268 59.658 92.404C59.658 92.556 59.698 92.68 59.778 92.776C59.866 92.88 60.006 92.96 60.198 93.016C60.39 93.072 60.646 93.1 60.966 93.1L62.502 93.1C62.862 93.1 63.154 93.064 63.378 92.992C63.61 92.928 63.778 92.824 63.882 92.68C63.994 92.544 64.05 92.372 64.05 92.164C64.05 91.996 64.002 91.864 63.906 91.768C63.81 91.672 63.65 91.624 63.426 91.624L59.814 91.624L59.958 91.48C59.638 91.424 59.366 91.336 59.142 91.216C58.926 91.104 58.762 90.952 58.65 90.76C58.538 90.56 58.482 90.332 58.482 90.076C58.482 89.804 58.554 89.56 58.698 89.344C58.842 89.128 59.046 88.932 59.31 88.756C59.582 88.58 59.902 88.424 60.27 88.288L60.774 88.504C60.598 88.624 60.454 88.732 60.342 88.828C60.23 88.924 60.15 89.02 60.102 89.116C60.054 89.204 60.03 89.3 60.03 89.404C60.03 89.572 60.086 89.692 60.198 89.764C60.31 89.836 60.486 89.872 60.726 89.872L63.594 89.872C64.074 89.872 64.474 89.936 64.794 90.064C65.122 90.192 65.37 90.388 65.538 90.652C65.706 90.908 65.79 91.236 65.79 91.636C65.79 92.164 65.654 92.6 65.382 92.944C65.11 93.296 64.73 93.556 64.242 93.724C63.762 93.892 63.21 93.976 62.586 93.976L60.594 93.976ZM68.5473 87.748C68.5473 88.196 68.5833 88.572 68.6553 88.876C68.7353 89.18 68.8513 89.424 69.0033 89.608C69.1633 89.792 69.3553 89.924 69.5793 90.004C69.8113 90.084 70.0793 90.124 70.3833 90.124C70.6953 90.124 70.9633 90.08 71.1873 89.992C71.4113 89.896 71.6073 89.768 71.7753 89.608C71.9513 89.448 72.1033 89.264 72.2313 89.056L73.0473 89.62C72.8713 89.948 72.6473 90.228 72.3753 90.46C72.1113 90.684 71.7953 90.856 71.4273 90.976C71.0593 91.096 70.6313 91.156 70.1433 91.156C69.3993 91.156 68.7513 91.028 68.1993 90.772C67.6553 90.516 67.2353 90.136 66.9393 89.632C66.6433 89.12 66.4953 88.496 66.4953 87.76C66.4953 87.056 66.6353 86.444 66.9153 85.924C67.2033 85.404 67.6033 85 68.1153 84.712C68.6353 84.424 69.2393 84.28 69.9273 84.28C70.4713 84.28 70.9393 84.36 71.3313 84.52C71.7313 84.672 72.0593 84.908 72.3153 85.228C72.5793 85.548 72.7753 85.948 72.9033 86.428C73.0393 86.9 73.1073 87.452 73.1073 88.084L67.9473 88.084V87.244L71.4393 87.244L71.1873 87.568C71.1793 87.096 71.1473 86.708 71.0913 86.404C71.0433 86.1 70.9713 85.864 70.8753 85.696C70.7873 85.528 70.6633 85.408 70.5033 85.336C70.3513 85.264 70.1673 85.228 69.9513 85.228C69.7273 85.228 69.5273 85.272 69.3513 85.36C69.1833 85.44 69.0353 85.576 68.9073 85.768C68.7873 85.96 68.6953 86.22 68.6313 86.548C68.5753 86.868 68.5473 87.268 68.5473 87.748ZM81.0954 90.1C81.3754 90.1 81.6194 90.048 81.8274 89.944C82.0354 89.84 82.2194 89.7 82.3794 89.524C82.5474 89.34 82.6874 89.148 82.7994 88.948L83.5794 89.452C83.4274 89.796 83.2194 90.096 82.9554 90.352C82.6994 90.608 82.3874 90.804 82.0194 90.94C81.6594 91.076 81.2474 91.144 80.7834 91.144C80.0554 91.144 79.4194 91.012 78.8754 90.748C78.3314 90.484 77.9074 90.096 77.6034 89.584C77.3074 89.072 77.1594 88.444 77.1594 87.7C77.1594 86.964 77.3034 86.344 77.5914 85.84C77.8874 85.328 78.3074 84.94 78.8514 84.676C79.3954 84.412 80.0554 84.28 80.8314 84.28C81.2794 84.28 81.6714 84.308 82.0074 84.364C82.3514 84.42 82.6354 84.488 82.8594 84.568C83.0914 84.648 83.2634 84.716 83.3754 84.772V86.884L81.7314 86.884V85.036C81.8354 85.028 81.9154 85.052 81.9714 85.108C82.0354 85.164 82.0794 85.232 82.1034 85.312C82.1354 85.392 82.1514 85.468 82.1514 85.54C82.1594 85.604 82.1594 85.652 82.1514 85.684C82.0074 85.564 81.8354 85.468 81.6354 85.396C81.4354 85.324 81.1954 85.288 80.9154 85.288C80.5314 85.288 80.2194 85.376 79.9794 85.552C79.7474 85.72 79.5754 85.984 79.4634 86.344C79.3514 86.696 79.2954 87.148 79.2954 87.7C79.2954 88.132 79.3274 88.5 79.3914 88.804C79.4634 89.1 79.5714 89.344 79.7154 89.536C79.8594 89.728 80.0434 89.872 80.2674 89.968C80.4994 90.056 80.7754 90.1 81.0954 90.1ZM87.1248 84.4V89.08C87.1248 89.248 87.1448 89.392 87.1848 89.512C87.2328 89.632 87.3088 89.724 87.4128 89.788C87.5168 89.852 87.6568 89.884 87.8328 89.884C88.0248 89.884 88.2168 89.832 88.4088 89.728C88.6008 89.624 88.7928 89.468 88.9848 89.26C89.1848 89.044 89.3928 88.772 89.6088 88.444L89.5728 89.332C89.3808 89.692 89.1488 90.008 88.8768 90.28C88.6048 90.544 88.3048 90.752 87.9768 90.904C87.6488 91.056 87.3048 91.132 86.9448 91.132C86.5368 91.132 86.1888 91.06 85.9008 90.916C85.6208 90.764 85.4048 90.544 85.2528 90.256C85.1088 89.96 85.0368 89.608 85.0368 89.2V85.744C85.0368 85.616 84.9848 85.528 84.8808 85.48C84.7848 85.424 84.6248 85.38 84.4008 85.348L84.2448 85.324V84.4L87.1248 84.4ZM91.3728 84.4V89.704C91.3728 89.784 91.3968 89.848 91.4448 89.896C91.5008 89.944 91.5768 89.98 91.6728 90.004C91.7688 90.028 91.8888 90.056 92.0328 90.088L92.1168 90.112V91L89.5848 91L89.3688 89.476L89.2968 89.368V85.744C89.2968 85.616 89.2288 85.524 89.0928 85.468C88.9648 85.404 88.7928 85.364 88.5768 85.348L88.3488 85.312V84.4L91.3728 84.4ZM98.1414 84.352V86.284C98.0854 86.268 97.9974 86.256 97.8774 86.248C97.7574 86.24 97.6294 86.232 97.4934 86.224C97.3574 86.216 97.2294 86.212 97.1094 86.212C96.9334 86.212 96.7694 86.224 96.6174 86.248C96.4654 86.264 96.3214 86.296 96.1854 86.344C96.0574 86.384 95.9334 86.44 95.8134 86.512C95.7014 86.584 95.5894 86.676 95.4774 86.788L95.4294 86.428C95.6454 85.956 95.8534 85.564 96.0534 85.252C96.2534 84.932 96.4774 84.692 96.7254 84.532C96.9814 84.364 97.2854 84.28 97.6374 84.28C97.7654 84.28 97.8734 84.288 97.9614 84.304C98.0494 84.32 98.1094 84.336 98.1414 84.352ZM92.8734 91V90.196L92.9094 90.196C93.1334 90.196 93.3054 90.152 93.4254 90.064C93.5534 89.968 93.6174 89.784 93.6174 89.512V85.744C93.6174 85.664 93.5934 85.6 93.5454 85.552C93.5054 85.504 93.4374 85.468 93.3414 85.444C93.2454 85.412 93.1254 85.38 92.9814 85.348L92.8734 85.324V84.4L95.4294 84.4L95.6454 86.248L95.7054 86.26V90.052C95.7054 90.092 95.7454 90.124 95.8254 90.148C95.9134 90.164 96.0214 90.176 96.1494 90.184C96.2774 90.192 96.4054 90.196 96.5334 90.196L96.6774 90.196V91L92.8734 91ZM104.247 84.352V86.284C104.191 86.268 104.103 86.256 103.983 86.248C103.863 86.24 103.735 86.232 103.599 86.224C103.463 86.216 103.335 86.212 103.215 86.212C103.039 86.212 102.875 86.224 102.723 86.248C102.571 86.264 102.427 86.296 102.291 86.344C102.163 86.384 102.039 86.44 101.919 86.512C101.807 86.584 101.695 86.676 101.583 86.788L101.535 86.428C101.751 85.956 101.959 85.564 102.159 85.252C102.359 84.932 102.583 84.692 102.831 84.532C103.087 84.364 103.391 84.28 103.743 84.28C103.871 84.28 103.979 84.288 104.067 84.304C104.155 84.32 104.215 84.336 104.247 84.352ZM98.9789 91V90.196L99.0149 90.196C99.2389 90.196 99.4109 90.152 99.5309 90.064C99.6589 89.968 99.7229 89.784 99.7229 89.512V85.744C99.7229 85.664 99.6989 85.6 99.6509 85.552C99.6109 85.504 99.5429 85.468 99.4469 85.444C99.3509 85.412 99.2309 85.38 99.0869 85.348L98.9789 85.324V84.4L101.535 84.4L101.751 86.248L101.811 86.26V90.052C101.811 90.092 101.851 90.124 101.931 90.148C102.019 90.164 102.127 90.176 102.255 90.184C102.383 90.192 102.511 90.196 102.639 90.196L102.783 90.196V91L98.9789 91ZM107.032 87.748C107.032 88.196 107.068 88.572 107.14 88.876C107.22 89.18 107.336 89.424 107.488 89.608C107.648 89.792 107.84 89.924 108.064 90.004C108.296 90.084 108.564 90.124 108.868 90.124C109.18 90.124 109.448 90.08 109.672 89.992C109.896 89.896 110.092 89.768 110.26 89.608C110.436 89.448 110.588 89.264 110.716 89.056L111.532 89.62C111.356 89.948 111.132 90.228 110.86 90.46C110.596 90.684 110.28 90.856 109.912 90.976C109.544 91.096 109.116 91.156 108.628 91.156C107.884 91.156 107.236 91.028 106.684 90.772C106.14 90.516 105.72 90.136 105.424 89.632C105.128 89.12 104.98 88.496 104.98 87.76C104.98 87.056 105.12 86.444 105.4 85.924C105.688 85.404 106.088 85 106.6 84.712C107.12 84.424 107.724 84.28 108.412 84.28C108.956 84.28 109.424 84.36 109.816 84.52C110.216 84.672 110.544 84.908 110.8 85.228C111.064 85.548 111.26 85.948 111.388 86.428C111.524 86.9 111.592 87.452 111.592 88.084L106.432 88.084V87.244L109.924 87.244L109.672 87.568C109.664 87.096 109.632 86.708 109.576 86.404C109.528 86.1 109.456 85.864 109.36 85.696C109.272 85.528 109.148 85.408 108.988 85.336C108.836 85.264 108.652 85.228 108.436 85.228C108.212 85.228 108.012 85.272 107.836 85.36C107.668 85.44 107.52 85.576 107.392 85.768C107.272 85.96 107.18 86.22 107.116 86.548C107.06 86.868 107.032 87.268 107.032 87.748ZM112.467 91V90.196L112.503 90.196C112.655 90.196 112.783 90.176 112.887 90.136C112.991 90.096 113.071 90.028 113.127 89.932C113.183 89.828 113.211 89.688 113.211 89.512V85.744C113.211 85.656 113.187 85.592 113.139 85.552C113.099 85.504 113.031 85.468 112.935 85.444C112.839 85.412 112.719 85.38 112.575 85.348L112.467 85.324V84.4L115.035 84.4L115.227 85.912L115.299 85.96V90.088C115.299 90.112 115.331 90.132 115.395 90.148C115.459 90.164 115.535 90.176 115.623 90.184C115.711 90.192 115.791 90.196 115.863 90.196L115.923 90.196V91L112.467 91ZM120.339 91L116.895 91V90.196L116.931 90.196C117.011 90.196 117.095 90.196 117.183 90.196C117.279 90.188 117.359 90.176 117.423 90.16C117.487 90.136 117.519 90.112 117.519 90.088V86.308C117.519 86.132 117.495 85.988 117.447 85.876C117.407 85.756 117.331 85.668 117.219 85.612C117.115 85.548 116.975 85.516 116.799 85.516C116.599 85.516 116.399 85.572 116.199 85.684C115.999 85.788 115.799 85.944 115.599 86.152C115.407 86.36 115.203 86.628 114.987 86.956L115.023 86.08C115.215 85.72 115.443 85.404 115.707 85.132C115.979 84.86 116.283 84.648 116.619 84.496C116.955 84.344 117.307 84.268 117.675 84.268C118.091 84.268 118.439 84.344 118.719 84.496C119.007 84.64 119.223 84.856 119.367 85.144C119.519 85.424 119.595 85.776 119.595 86.2V89.512C119.595 89.688 119.623 89.828 119.679 89.932C119.735 90.028 119.815 90.096 119.919 90.136C120.023 90.176 120.151 90.196 120.303 90.196L120.339 90.196V91ZM125.041 90.1C125.321 90.1 125.565 90.048 125.773 89.944C125.981 89.84 126.165 89.7 126.325 89.524C126.493 89.34 126.633 89.148 126.745 88.948L127.525 89.452C127.373 89.796 127.165 90.096 126.901 90.352C126.645 90.608 126.333 90.804 125.965 90.94C125.605 91.076 125.193 91.144 124.729 91.144C124.001 91.144 123.365 91.012 122.821 90.748C122.277 90.484 121.853 90.096 121.549 89.584C121.253 89.072 121.105 88.444 121.105 87.7C121.105 86.964 121.249 86.344 121.537 85.84C121.833 85.328 122.253 84.94 122.797 84.676C123.341 84.412 124.001 84.28 124.777 84.28C125.225 84.28 125.617 84.308 125.953 84.364C126.297 84.42 126.581 84.488 126.805 84.568C127.037 84.648 127.209 84.716 127.321 84.772V86.884L125.677 86.884V85.036C125.781 85.028 125.861 85.052 125.917 85.108C125.981 85.164 126.025 85.232 126.049 85.312C126.081 85.392 126.097 85.468 126.097 85.54C126.105 85.604 126.105 85.652 126.097 85.684C125.953 85.564 125.781 85.468 125.581 85.396C125.381 85.324 125.141 85.288 124.861 85.288C124.477 85.288 124.165 85.376 123.925 85.552C123.693 85.72 123.521 85.984 123.409 86.344C123.297 86.696 123.241 87.148 123.241 87.7C123.241 88.132 123.273 88.5 123.337 88.804C123.409 89.1 123.517 89.344 123.661 89.536C123.805 89.728 123.989 89.872 124.213 89.968C124.445 90.056 124.721 90.1 125.041 90.1ZM130.015 83.56C129.647 83.56 129.355 83.476 129.139 83.308C128.923 83.132 128.815 82.872 128.815 82.528C128.815 82.184 128.923 81.924 129.139 81.748C129.355 81.572 129.647 81.484 130.015 81.484C130.391 81.484 130.687 81.572 130.903 81.748C131.119 81.924 131.227 82.184 131.227 82.528C131.227 82.872 131.119 83.132 130.903 83.308C130.687 83.476 130.391 83.56 130.015 83.56ZM131.131 84.4V89.548C131.131 89.804 131.195 89.976 131.323 90.064C131.451 90.152 131.627 90.196 131.851 90.196L131.887 90.196V91L128.311 91V90.196L128.347 90.196C128.571 90.196 128.747 90.152 128.875 90.064C129.003 89.976 129.067 89.804 129.067 89.548V85.744C129.067 85.616 129.011 85.532 128.899 85.492C128.795 85.444 128.635 85.396 128.419 85.348L128.311 85.324V84.4L131.131 84.4ZM134.711 87.748C134.711 88.196 134.747 88.572 134.819 88.876C134.899 89.18 135.015 89.424 135.167 89.608C135.327 89.792 135.519 89.924 135.743 90.004C135.975 90.084 136.243 90.124 136.547 90.124C136.859 90.124 137.127 90.08 137.351 89.992C137.575 89.896 137.771 89.768 137.939 89.608C138.115 89.448 138.267 89.264 138.395 89.056L139.211 89.62C139.035 89.948 138.811 90.228 138.539 90.46C138.275 90.684 137.959 90.856 137.591 90.976C137.223 91.096 136.795 91.156 136.307 91.156C135.563 91.156 134.915 91.028 134.363 90.772C133.819 90.516 133.399 90.136 133.103 89.632C132.807 89.12 132.659 88.496 132.659 87.76C132.659 87.056 132.799 86.444 133.079 85.924C133.367 85.404 133.767 85 134.279 84.712C134.799 84.424 135.403 84.28 136.091 84.28C136.635 84.28 137.103 84.36 137.495 84.52C137.895 84.672 138.223 84.908 138.479 85.228C138.743 85.548 138.939 85.948 139.067 86.428C139.203 86.9 139.271 87.452 139.271 88.084L134.111 88.084V87.244L137.603 87.244L137.351 87.568C137.343 87.096 137.311 86.708 137.255 86.404C137.207 86.1 137.135 85.864 137.039 85.696C136.951 85.528 136.827 85.408 136.667 85.336C136.515 85.264 136.331 85.228 136.115 85.228C135.891 85.228 135.691 85.272 135.515 85.36C135.347 85.44 135.199 85.576 135.071 85.768C134.951 85.96 134.859 86.22 134.795 86.548C134.739 86.868 134.711 87.268 134.711 87.748ZM144.191 89.356C144.191 89.18 144.147 89.04 144.059 88.936C143.979 88.824 143.863 88.736 143.711 88.672C143.559 88.608 143.387 88.556 143.195 88.516C143.011 88.468 142.815 88.42 142.607 88.372C142.327 88.308 142.051 88.236 141.779 88.156C141.515 88.068 141.271 87.952 141.047 87.808C140.831 87.664 140.655 87.476 140.519 87.244C140.391 87.012 140.327 86.716 140.327 86.356C140.327 85.876 140.447 85.484 140.687 85.18C140.927 84.868 141.263 84.64 141.695 84.496C142.135 84.344 142.651 84.268 143.243 84.268C143.715 84.268 144.119 84.296 144.455 84.352C144.799 84.4 145.079 84.46 145.295 84.532C145.519 84.596 145.671 84.648 145.751 84.688V86.224L144.227 86.224V85.024C144.347 85.016 144.439 85.024 144.503 85.048C144.575 85.072 144.623 85.112 144.647 85.168C144.671 85.216 144.683 85.272 144.683 85.336C144.691 85.392 144.691 85.456 144.683 85.528C144.579 85.456 144.455 85.396 144.311 85.348C144.167 85.3 144.007 85.264 143.831 85.24C143.655 85.208 143.459 85.192 143.243 85.192C142.859 85.192 142.575 85.252 142.391 85.372C142.215 85.484 142.127 85.664 142.127 85.912C142.127 86.072 142.167 86.204 142.247 86.308C142.327 86.404 142.439 86.484 142.583 86.548C142.735 86.612 142.907 86.668 143.099 86.716C143.299 86.764 143.515 86.812 143.747 86.86C144.027 86.924 144.307 87 144.587 87.088C144.867 87.176 145.119 87.296 145.343 87.448C145.575 87.592 145.759 87.784 145.895 88.024C146.039 88.256 146.111 88.548 146.111 88.9C146.111 89.396 145.995 89.812 145.763 90.148C145.539 90.484 145.191 90.736 144.719 90.904C144.247 91.072 143.655 91.156 142.943 91.156C142.495 91.156 142.087 91.124 141.719 91.06C141.359 91.004 141.051 90.936 140.795 90.856C140.547 90.768 140.355 90.688 140.219 90.616V88.96L141.767 88.96V90.532C141.615 90.484 141.495 90.424 141.407 90.352C141.319 90.28 141.259 90.208 141.227 90.136C141.203 90.056 141.199 89.992 141.215 89.944C141.231 89.888 141.267 89.86 141.323 89.86C141.427 89.916 141.559 89.972 141.719 90.028C141.879 90.084 142.063 90.132 142.271 90.172C142.479 90.204 142.711 90.22 142.967 90.22C143.255 90.22 143.487 90.192 143.663 90.136C143.847 90.072 143.979 89.976 144.059 89.848C144.147 89.72 144.191 89.556 144.191 89.356Z" fill="#2C3667"/>
    <g opacity="0.7">
        <path d="M21.74 31L23.354 28.21C22.958 28.234 22.58 28.18 22.22 28.048C21.864 27.916 21.546 27.72 21.266 27.46C20.986 27.2 20.764 26.892 20.6 26.536C20.44 26.18 20.36 25.794 20.36 25.378C20.36 24.974 20.436 24.596 20.588 24.244C20.74 23.888 20.95 23.576 21.218 23.308C21.49 23.036 21.802 22.824 22.154 22.672C22.51 22.52 22.892 22.444 23.3 22.444C23.832 22.444 24.318 22.576 24.758 22.84C25.202 23.104 25.556 23.458 25.82 23.902C26.088 24.346 26.222 24.838 26.222 25.378C26.222 25.646 26.188 25.9 26.12 26.14C26.056 26.376 25.954 26.616 25.814 26.86L23.432 31H21.74ZM23.288 26.848C23.576 26.848 23.83 26.778 24.05 26.638C24.274 26.498 24.448 26.316 24.572 26.092C24.696 25.868 24.758 25.628 24.758 25.372C24.758 25.092 24.69 24.842 24.554 24.622C24.418 24.398 24.238 24.224 24.014 24.1C23.79 23.972 23.552 23.908 23.3 23.908C23.012 23.908 22.756 23.978 22.532 24.118C22.312 24.254 22.138 24.434 22.01 24.658C21.882 24.882 21.818 25.12 21.818 25.372C21.818 25.64 21.882 25.886 22.01 26.11C22.142 26.334 22.318 26.514 22.538 26.65C22.762 26.782 23.012 26.848 23.288 26.848ZM27.6509 26.506C27.4429 26.506 27.2649 26.434 27.1169 26.29C26.9729 26.142 26.9009 25.962 26.9009 25.75C26.9009 25.546 26.9729 25.37 27.1169 25.222C27.2649 25.074 27.4429 25 27.6509 25C27.8589 25 28.0369 25.074 28.1849 25.222C28.3329 25.37 28.4069 25.546 28.4069 25.75C28.4069 25.962 28.3329 26.142 28.1849 26.29C28.0369 26.434 27.8589 26.506 27.6509 26.506ZM27.6509 31.156C27.4429 31.156 27.2649 31.084 27.1169 30.94C26.9729 30.792 26.9009 30.612 26.9009 30.4C26.9009 30.196 26.9729 30.02 27.1169 29.872C27.2649 29.724 27.4429 29.65 27.6509 29.65C27.8589 29.65 28.0369 29.724 28.1849 29.872C28.3329 30.02 28.4069 30.196 28.4069 30.4C28.4069 30.612 28.3329 30.792 28.1849 30.94C28.0369 31.084 27.8589 31.156 27.6509 31.156ZM33.019 31V28.966H29.443V27.496L32.677 22.6H34.483V27.502H35.191V28.966H34.483V31H33.019ZM31.141 27.496L33.019 27.502L33.013 24.598L31.141 27.496ZM37.2832 31V24.064H36.2272L36.6232 22.6H38.7472V31H37.2832Z" fill="#182252"/>
    </g>
    <g opacity="0.7">
        <path fill-rule="evenodd" clip-rule="evenodd" d="M198.621 21H211.509C212.595 21 212.988 21.113 213.385 21.3252C213.782 21.5374 214.093 21.8488 214.305 22.2456C214.517 22.6424 214.63 23.0359 214.63 24.1213V27.8787C214.63 28.9641 214.517 29.3576 214.305 29.7544C214.093 30.1512 213.782 30.4626 213.385 30.6748C212.988 30.887 212.595 31 211.509 31H198.621C197.536 31 197.142 30.887 196.746 30.6748C196.349 30.4626 196.037 30.1512 195.825 29.7544C195.613 29.3576 195.5 28.9641 195.5 27.8787V24.1213C195.5 23.0359 195.613 22.6424 195.825 22.2456C196.037 21.8488 196.349 21.5374 196.746 21.3252C197.142 21.113 197.536 21 198.621 21ZM198.621 21.8696C197.763 21.8696 197.463 21.9274 197.156 22.092C196.91 22.2232 196.723 22.4104 196.592 22.6557C196.427 22.9634 196.37 23.263 196.37 24.1212V27.8787C196.37 28.737 196.427 29.0366 196.592 29.3443C196.723 29.5896 196.91 29.7768 197.156 29.908C197.463 30.0726 197.763 30.1304 198.621 30.1304H211.509C212.367 30.1304 212.667 30.0726 212.975 29.908C213.22 29.7768 213.407 29.5896 213.538 29.3443C213.703 29.0366 213.761 28.737 213.761 27.8787V24.1212C213.761 23.263 213.703 22.9634 213.538 22.6557C213.407 22.4104 213.22 22.2232 212.975 22.092C212.667 21.9274 212.367 21.8696 211.509 21.8696H198.621ZM215.5 27.687V24.2087C215.5 24.2087 216.804 24.8725 216.804 25.9478C216.804 27.0231 215.5 27.687 215.5 27.687Z" fill="#292D32" fill-opacity="0.3"/>
        <rect x="197.5" y="22.84" width="15" height="6" rx="1.6" fill="#182252"/>
        <path fill-rule="evenodd" clip-rule="evenodd" d="M166.188 22.4819C166.177 22.5606 166.177 22.6544 166.177 22.8419V30.0381C166.177 30.2256 166.177 30.3194 166.188 30.3981C166.259 30.9354 166.682 31.3581 167.219 31.4295C167.298 31.44 167.392 31.44 167.579 31.44C167.767 31.44 167.86 31.44 167.939 31.4295C168.476 31.3581 168.899 30.9354 168.97 30.3981C168.981 30.3194 168.981 30.2256 168.981 30.0381V22.8419C168.981 22.6544 168.981 22.5606 168.97 22.4819C168.899 21.9446 168.476 21.5219 167.939 21.4505C167.86 21.44 167.767 21.44 167.579 21.44C167.392 21.44 167.298 21.44 167.219 21.4505C166.682 21.5219 166.259 21.9446 166.188 22.4819ZM161.785 25.0849C161.785 24.8974 161.785 24.8036 161.796 24.7249C161.867 24.1876 162.29 23.7649 162.827 23.6935C162.906 23.683 163 23.683 163.187 23.683C163.375 23.683 163.469 23.683 163.547 23.6935C164.085 23.7649 164.507 24.1876 164.579 24.7249C164.589 24.8036 164.589 24.8974 164.589 25.0849V30.0381C164.589 30.2256 164.589 30.3194 164.579 30.3981C164.507 30.9354 164.085 31.3581 163.547 31.4295C163.469 31.44 163.375 31.44 163.187 31.44C163 31.44 162.906 31.44 162.827 31.4295C162.29 31.3581 161.867 30.9354 161.796 30.3981C161.785 30.3194 161.785 30.2256 161.785 30.0381V25.0849ZM157.496 26.8744C157.486 26.9531 157.486 27.0469 157.486 27.2344V30.0381C157.486 30.2256 157.486 30.3194 157.496 30.3981C157.568 30.9354 157.99 31.3581 158.528 31.4295C158.606 31.44 158.7 31.44 158.888 31.44C159.075 31.44 159.169 31.44 159.248 31.4295C159.785 31.3581 160.208 30.9354 160.279 30.3981C160.29 30.3194 160.29 30.2256 160.29 30.0381V27.2344C160.29 27.0469 160.29 26.9531 160.279 26.8744C160.208 26.3371 159.785 25.9144 159.248 25.843C159.169 25.8325 159.075 25.8325 158.888 25.8325C158.7 25.8325 158.606 25.8325 158.528 25.843C157.99 25.9144 157.568 26.3371 157.496 26.8744ZM153.01 28.7436C153 28.8223 153 28.916 153 29.1036V30.0381C153 30.2256 153 30.3194 153.01 30.3981C153.082 30.9354 153.505 31.3581 154.042 31.4295C154.121 31.44 154.214 31.44 154.402 31.44C154.589 31.44 154.683 31.44 154.762 31.4295C155.299 31.3581 155.722 30.9354 155.793 30.3981C155.804 30.3194 155.804 30.2256 155.804 30.0381V29.1036C155.804 28.916 155.804 28.8223 155.793 28.7436C155.722 28.2063 155.299 27.7836 154.762 27.7121C154.683 27.7017 154.589 27.7017 154.402 27.7017C154.214 27.7017 154.121 27.7017 154.042 27.7121C153.505 27.7836 153.082 28.2063 153.01 28.7436Z" fill="#182252"/>
        <path fill-rule="evenodd" clip-rule="evenodd" d="M182.064 23.3168C184.085 23.3169 186.028 24.0933 187.493 25.4857C187.603 25.5932 187.779 25.5918 187.888 25.4827L188.942 24.4187C188.997 24.3633 189.028 24.2883 189.027 24.2103C189.027 24.1322 188.995 24.0576 188.94 24.0029C185.096 20.319 179.031 20.319 175.187 24.0029C175.132 24.0576 175.1 24.1322 175.1 24.2102C175.099 24.2883 175.13 24.3633 175.185 24.4187L176.239 25.4827C176.348 25.592 176.524 25.5934 176.634 25.4857C178.099 24.0933 180.043 23.3168 182.064 23.3168ZM182.064 26.7782C183.174 26.7782 184.245 27.1908 185.068 27.9361C185.179 28.0419 185.354 28.0396 185.463 27.9309L186.516 26.867C186.571 26.8112 186.602 26.7355 186.601 26.6568C186.601 26.5781 186.568 26.5031 186.512 26.4484C184.005 24.1171 180.124 24.1171 177.618 26.4484C177.561 26.5031 177.529 26.5782 177.528 26.6569C177.528 26.7356 177.559 26.8113 177.614 26.867L178.667 27.9309C178.775 28.0396 178.951 28.0419 179.062 27.9361C179.884 27.1913 180.954 26.7787 182.064 26.7782ZM184.088 29.3174C184.144 29.2621 184.175 29.1861 184.173 29.1072C184.172 29.0283 184.138 28.9536 184.079 28.9006C182.916 27.9167 181.212 27.9167 180.049 28.9006C179.99 28.9535 179.956 29.0282 179.955 29.1071C179.953 29.186 179.984 29.2621 180.04 29.3174L181.862 31.1556C181.915 31.2096 181.988 31.24 182.064 31.24C182.14 31.24 182.213 31.2096 182.266 31.1556L184.088 29.3174Z" fill="#182252"/>
    </g>
    <path fill-rule="evenodd" clip-rule="evenodd" d="M47.9208 63.8808C47.9208 63.7467 47.8127 63.6379 47.6794 63.6379H45.4865C45.3532 63.6379 45.2451 63.7467 45.2451 63.8808V73.7569C45.2451 73.891 45.3532 73.9997 45.4865 73.9997H47.6794C47.8127 73.9997 47.9208 73.891 47.9208 73.7569V70.7102C47.9208 70.689 47.9291 70.6686 47.9439 70.6535L48.7614 69.8171C48.7973 69.7804 48.8575 69.7862 48.8858 69.829L51.5751 73.8915C51.6198 73.9591 51.6952 73.9997 51.776 73.9997H54.5274C54.7231 73.9997 54.8375 73.7779 54.7248 73.617L50.7034 67.8727C50.681 67.8407 50.6845 67.7972 50.7118 67.7693L54.3476 64.0511C54.4978 63.8975 54.3896 63.6379 54.1755 63.6379H51.426C51.3592 63.6379 51.2955 63.6657 51.2498 63.7147L48.06 67.1388C48.0101 67.1924 47.9208 67.1569 47.9208 67.0835V63.8808ZM67.1177 63.6379C67.2032 63.6379 67.2823 63.6834 67.3257 63.7576L69.2988 67.1287C69.33 67.182 69.4066 67.1819 69.4376 67.1285L71.3985 63.7581C71.4418 63.6837 71.5211 63.6379 71.6069 63.6379H74.0554C74.2429 63.6379 74.3588 63.8437 74.2625 64.0056L70.7072 69.9782C70.6848 70.0159 70.6729 70.059 70.6729 70.103V73.7569C70.6729 73.891 70.5649 73.9997 70.4315 73.9997H68.2387C68.1054 73.9997 67.9973 73.891 67.9973 73.7569V70.0477C67.9973 70.0039 67.9855 69.9608 67.9631 69.9232L64.4484 64.0053C64.3523 63.8435 64.4682 63.6379 64.6557 63.6379H67.1177ZM55.8618 63.8808C55.8618 63.7467 55.9699 63.6379 56.1032 63.6379H63.4165C63.5499 63.6379 63.658 63.7467 63.658 63.8808V65.7588C63.658 65.8929 63.5499 66.0016 63.4165 66.0016H58.6179C58.5735 66.0016 58.5375 66.0379 58.5375 66.0826V67.4736C58.5375 67.5183 58.5735 67.5545 58.6179 67.5545H62.9955C63.1288 67.5545 63.2369 67.6633 63.2369 67.7974V69.5379C63.2369 69.6721 63.1288 69.7808 62.9955 69.7808H58.6179C58.5735 69.7808 58.5375 69.817 58.5375 69.8618V71.5551C58.5375 71.5998 58.5735 71.636 58.6179 71.636H63.5252C63.6585 71.636 63.7666 71.7448 63.7666 71.8789V73.7569C63.7666 73.891 63.6585 73.9997 63.5252 73.9997H56.1032C55.9699 73.9997 55.8618 73.891 55.8618 73.7569V63.8808Z" fill="#0D153F"/>
    <path fill-rule="evenodd" clip-rule="evenodd" d="M85.8984 73.9997C85.9807 73.9997 86.0574 73.9575 86.1017 73.8877L87.9712 70.9492C88.003 70.8992 88.0758 70.8995 88.1072 70.9498L89.9401 73.886C89.9842 73.9567 90.0615 73.9997 90.1445 73.9997H92.7585C92.9511 73.9997 93.0662 73.7839 92.9597 73.6225L89.7344 68.7341C89.6806 68.6525 89.6808 68.5464 89.7348 68.4649L92.6877 64.0156C92.7948 63.8542 92.6798 63.6379 92.4869 63.6379H90.0765C89.9937 63.6379 89.9167 63.6806 89.8725 63.751L88.1966 66.4173C88.1647 66.468 88.0909 66.4674 88.0599 66.4162L86.4445 63.7542C86.4007 63.682 86.3226 63.6379 86.2384 63.6379H83.6916C83.4983 63.6379 83.3834 63.8549 83.4912 64.0163L86.4568 68.4519C86.5113 68.5333 86.5116 68.6397 86.4578 68.7215L83.2325 73.6228C83.1262 73.7842 83.2413 73.9997 83.4338 73.9997H85.8984ZM75.3594 63.8807C75.3594 63.7466 75.4675 63.6379 75.6008 63.6379H82.4797C82.613 63.6379 82.7211 63.7466 82.7211 63.8807V65.7587C82.7211 65.8928 82.613 66.0016 82.4797 66.0016H78.1157C78.0712 66.0016 78.0352 66.0378 78.0352 66.0825V67.6384C78.0352 67.6831 78.0712 67.7194 78.1157 67.7194H81.8546C81.988 67.7194 82.0961 67.8281 82.0961 67.9622V69.7028C82.0961 69.8369 81.988 69.9457 81.8546 69.9457H78.1157C78.0712 69.9457 78.0352 69.9819 78.0352 70.0266V73.7568C78.0352 73.8909 77.9271 73.9997 77.7938 73.9997H75.6008C75.4675 73.9997 75.3594 73.8909 75.3594 73.7568V63.8807Z" fill="#00D2D3"/>
    <path d="M36.9859 57H25.4449C24.6469 57 24 57.6524 24 58.4571V72.5398C24 73.9056 25.6959 74.5209 26.5587 73.4681L38.0996 59.3854C38.8783 58.4352 38.2082 57 36.9859 57Z" fill="#0D153F"/>
    <path d="M26.5524 64.6944L31.5285 73.2783C31.7877 73.7253 32.2625 74 32.7759 74H41.8662C42.4861 74 42.8721 73.3216 42.5592 72.7819L37.583 64.198C37.3239 63.7511 36.8491 63.4763 36.3356 63.4763H27.2453C26.6255 63.4763 26.2395 64.1547 26.5524 64.6944Z" fill="#00D2D3"/>
    <path fill-rule="evenodd" clip-rule="evenodd" d="M34.7469 63.4763H27.2453C26.6255 63.4763 26.2395 64.1547 26.5524 64.6944L29.5339 69.8375L34.7469 63.4763Z" fill="white"/>
    <defs>
        <filter id="filter0_i_14775_14498" x="0" y="-2" width="237" height="277" filterUnits="userSpaceOnUse" color-interpolation-filters="sRGB">
            <feFlood flood-opacity="0" result="BackgroundImageFix"/>
            <feBlend mode="normal" in="SourceGraphic" in2="BackgroundImageFix" result="shape"/>
            <feColorMatrix in="SourceAlpha" type="matrix" values="0 0 0 0 0 0 0 0 0 0 0 0 0 0 0 0 0 0 127 0" result="hardAlpha"/>
            <feOffset dy="-2"/>
            <feGaussianBlur stdDeviation="10"/>
            <feComposite in2="hardAlpha" operator="arithmetic" k2="-1" k3="1"/>
            <feColorMatrix type="matrix" values="0 0 0 0 0.0792906 0 0 0 0 0.243589 0 0 0 0 0.407887 0 0 0 0.35 0"/>
            <feBlend mode="normal" in2="shape" result="effect1_innerShadow_14775_14498"/>
        </filter>
        <filter id="filter1_d_14775_14498" x="20" y="99" width="64" height="44" filterUnits="userSpaceOnUse" color-interpolation-filters="sRGB">
            <feFlood flood-opacity="0" result="BackgroundImageFix"/>
            <feColorMatrix in="SourceAlpha" type="matrix" values="0 0 0 0 0 0 0 0 0 0 0 0 0 0 0 0 0 0 127 0" result="hardAlpha"/>
            <feOffset/>
            <feGaussianBlur stdDeviation="3"/>
            <feComposite in2="hardAlpha" operator="out"/>
            <feColorMatrix type="matrix" values="0 0 0 0 0.00392157 0 0 0 0 0.658824 0 0 0 0 0.662745 0 0 0 0.22 0"/>
            <feBlend mode="normal" in2="BackgroundImageFix" result="effect1_dropShadow_14775_14498"/>
            <feBlend mode="normal" in="SourceGraphic" in2="effect1_dropShadow_14775_14498" result="shape"/>
        </filter>
        <linearGradient id="paint0_linear_14775_14498" x1="38.6157" y1="132.998" x2="69.3699" y2="132.101" gradientUnits="userSpaceOnUse">
            <stop offset="0.33" stop-color="#00D2D3"/>
            <stop offset="1" stop-color="#3593FF"/>
        </linearGradient>
    </defs>
</svg>
