<svg width="115" height="28" viewBox="0 0 115 28" fill="none" xmlns="http://www.w3.org/2000/svg">
    <path fill-rule="evenodd" clip-rule="evenodd" d="M39.6324 11.3331C39.6324 11.1122 39.4533 10.9331 39.2324 10.9331H35.5992C35.3783 10.9331 35.1992 11.1122 35.1992 11.3331V27.5998C35.1992 27.8207 35.3783 27.9998 35.5992 27.9998H39.2324C39.4533 27.9998 39.6324 27.8207 39.6324 27.5998V22.5817C39.6324 22.5467 39.6461 22.5132 39.6707 22.4882L41.0252 21.1106C41.0845 21.0503 41.1843 21.0598 41.2312 21.1302L45.6869 27.8215C45.761 27.9328 45.886 27.9998 46.0198 27.9998H50.5785C50.9026 27.9998 51.0921 27.6345 50.9055 27.3694L44.2426 17.9081C44.2055 17.8554 44.2114 17.7838 44.2566 17.7378L50.2805 11.6136C50.5293 11.3607 50.3501 10.9331 49.9953 10.9331H45.4399C45.3293 10.9331 45.2236 10.9789 45.148 11.0596L39.863 16.6993C39.7804 16.7875 39.6324 16.729 39.6324 16.6081V11.3331ZM71.4383 10.9331C71.58 10.9331 71.7111 11.0081 71.783 11.1302L75.0521 16.6827C75.1038 16.7704 75.2307 16.7702 75.2821 16.6824L78.5309 11.1311C78.6027 11.0085 78.7341 10.9331 78.8762 10.9331H82.9329C83.2437 10.9331 83.4357 11.272 83.2761 11.5386L77.3856 21.376C77.3485 21.4381 77.3288 21.5091 77.3288 21.5815V27.5998C77.3288 27.8207 77.1497 27.9998 76.9288 27.9998H73.2957C73.0748 27.9998 72.8957 27.8207 72.8957 27.5998V21.4905C72.8957 21.4183 72.8761 21.3474 72.8391 21.2854L67.0158 11.5383C66.8566 11.2716 67.0487 10.9331 67.3592 10.9331H71.4383ZM52.7892 11.3331C52.7892 11.1122 52.9683 10.9331 53.1893 10.9331H65.3062C65.5271 10.9331 65.7062 11.1122 65.7062 11.3331V14.4263C65.7062 14.6472 65.5271 14.8263 65.3062 14.8263H57.3557C57.2821 14.8263 57.2224 14.886 57.2224 14.9596V17.2507C57.2224 17.3243 57.2821 17.384 57.3557 17.384H64.6086C64.8295 17.384 65.0086 17.5631 65.0086 17.784V20.6509C65.0086 20.8718 64.8295 21.0509 64.6086 21.0509H57.3557C57.2821 21.0509 57.2224 21.1106 57.2224 21.1842V23.9733C57.2224 24.0469 57.2821 24.1066 57.3557 24.1066H65.4862C65.7071 24.1066 65.8862 24.2857 65.8862 24.5066V27.5998C65.8862 27.8207 65.7071 27.9998 65.4862 27.9998H53.1893C52.9683 27.9998 52.7892 27.8207 52.7892 27.5998V11.3331Z" fill="#182252"/>
    <path fill-rule="evenodd" clip-rule="evenodd" d="M102.554 27.9998C102.691 27.9998 102.818 27.9303 102.891 27.8154L105.988 22.9754C106.041 22.8931 106.162 22.8936 106.214 22.9764L109.251 27.8125C109.324 27.929 109.452 27.9998 109.589 27.9998H113.92C114.239 27.9998 114.43 27.6444 114.253 27.3786L108.91 19.3269C108.821 19.1925 108.821 19.0177 108.91 18.8836L113.803 11.5552C113.98 11.2894 113.79 10.9331 113.47 10.9331H109.477C109.339 10.9331 109.212 11.0034 109.139 11.1193L106.362 15.511C106.309 15.5945 106.187 15.5936 106.135 15.5092L103.459 11.1247C103.386 11.0057 103.257 10.9331 103.118 10.9331H98.8978C98.5776 10.9331 98.3872 11.2906 98.5659 11.5563L103.479 18.8622C103.57 18.9963 103.57 19.1715 103.481 19.3062L98.1372 27.379C97.9612 27.6449 98.1518 27.9998 98.4707 27.9998H102.554ZM85.0928 11.3331C85.0928 11.1122 85.2719 10.9331 85.4928 10.9331H96.8899C97.1108 10.9331 97.2899 11.1122 97.2899 11.3331V14.4263C97.2899 14.6472 97.1108 14.8263 96.8899 14.8263H89.6595C89.5858 14.8263 89.5261 14.886 89.5261 14.9596V17.5223C89.5261 17.596 89.5858 17.6557 89.6595 17.6557H95.8543C96.0752 17.6557 96.2543 17.8347 96.2543 18.0557V20.9225C96.2543 21.1434 96.0752 21.3225 95.8543 21.3225H89.6595C89.5858 21.3225 89.5261 21.3822 89.5261 21.4558V27.5998C89.5261 27.8207 89.347 27.9998 89.1261 27.9998H85.4928C85.2719 27.9998 85.0928 27.8207 85.0928 27.5998V11.3331Z" fill="#182252"/>
    <path d="M21.5154 0H2.39396C1.07181 0 0 1.07452 0 2.4V25.5953C0 27.8448 2.8098 28.8582 4.23929 27.1242L23.3607 3.92891C24.6508 2.36395 23.5405 0 21.5154 0Z" fill="#182252"/>
    <path d="M4.22874 12.6733L12.4734 26.8116C12.9028 27.5478 13.6895 28.0003 14.5401 28.0003H29.6012C30.6283 28.0003 31.2678 26.8829 30.7494 25.994L22.5047 11.8557C22.0754 11.1195 21.2886 10.667 20.438 10.667H5.37691C4.34988 10.667 3.7104 11.7844 4.22874 12.6733Z" fill="#182252"/>
    <path fill-rule="evenodd" clip-rule="evenodd" d="M17.8057 10.667H5.37691C4.34988 10.667 3.7104 11.7844 4.22874 12.6733L9.16859 21.1443L17.8057 10.667Z" fill="white"/>
</svg>
