<svg width="24" height="24" viewBox="0 0 24 24" fill="none" xmlns="http://www.w3.org/2000/svg">
    <path fill-rule="evenodd" clip-rule="evenodd"
          d="M3.46447 3.46495C2 4.92942 2 7.28644 2 12.0005C2 16.7145 2 19.0716 3.46447 20.536C4.92893 22.0005 7.28595 22.0005 12 22.0005C16.714 22.0005 19.0711 22.0005 20.5355 20.536C22 19.0716 22 16.7145 22 12.0005C22 7.28644 22 4.92942 20.5355 3.46495C19.0711 2.00049 16.714 2.00049 12 2.00049C7.28595 2.00049 4.92893 2.00049 3.46447 3.46495ZM6.75 11.2505H10C10.4142 11.2505 10.75 11.5863 10.75 12.0005C10.75 12.4147 10.4142 12.7505 10 12.7505H6.75V16.0005C6.75 16.4147 6.41421 16.7505 6 16.7505C5.58579 16.7505 5.25 16.4147 5.25 16.0005V12.0005V8.00049C5.25 7.58627 5.58579 7.25049 6 7.25049H10C10.4142 7.25049 10.75 7.58627 10.75 8.00049C10.75 8.4147 10.4142 8.75049 10 8.75049H6.75V11.2505ZM11.55 7.40049C11.8814 7.15196 12.3515 7.21912 12.6 7.55049L15 10.7505L17.4 7.55049C17.6485 7.21912 18.1186 7.15196 18.45 7.40049C18.7814 7.64902 18.8485 8.11912 18.6 8.45049L15.9375 12.0005L18.6 15.5505C18.8485 15.8819 18.7814 16.352 18.45 16.6005C18.1186 16.849 17.6485 16.7819 17.4 16.4505L15 13.2505L12.6 16.4505C12.3515 16.7819 11.8814 16.849 11.55 16.6005C11.2186 16.352 11.1515 15.8819 11.4 15.5505L14.0625 12.0005L11.4 8.45049C11.1515 8.11912 11.2186 7.64902 11.55 7.40049Z"
          fill="#394375"/>
</svg>
