<svg width="76" height="72" viewBox="0 0 76 72" fill="none" xmlns="http://www.w3.org/2000/svg">
    <circle cx="29.9537" cy="36.4538" r="29.4537" fill="#D5DEEF"/>
    <path opacity="0.7" fill-rule="evenodd" clip-rule="evenodd" d="M17.3154 62.9657C7.40523 58.2424 0.556641 48.1324 0.556641 36.4229C0.556641 28.8843 3.39524 22.0087 8.06188 16.8066C9.43462 18.949 10.8219 21.9945 10.8219 25.5538C10.8219 28.8983 8.53338 31.6577 6.51948 34.0859C4.76547 36.2008 3.21979 38.0644 3.57584 39.8447C4.01388 42.0349 5.93073 43.4989 8.28285 45.2954C10.0378 46.6357 12.035 48.1611 13.8411 50.3113C17.1798 54.2859 17.379 60.5209 17.3154 62.9657Z" fill="#AFB7DC"/>
    <path opacity="0.7" fill-rule="evenodd" clip-rule="evenodd" d="M57.5876 26.4322C55.9182 26.9359 54.2891 27.7285 53.2906 28.9754C52.0914 30.4732 52.1752 32.3491 52.2549 34.1317C52.3479 36.2113 52.4351 38.1639 50.4727 39.2407C48.7546 40.1834 47.9436 38.7048 47.0027 36.9894C45.6817 34.5811 44.1048 31.7062 39.4028 34.4098C37.5423 35.4797 39.0465 36.6949 41.066 38.3263C43.7965 40.5321 47.4688 43.4988 45.0387 47.8956C42.715 52.0998 42.3377 55.2094 42.1013 57.1575C41.9076 58.7535 41.8086 59.57 40.8113 59.57C38.8067 59.57 38.7511 58.2785 38.6841 56.7212C38.6257 55.3653 38.5586 53.808 37.1887 52.7263C35.8151 51.6417 34.2147 51.6676 32.6101 51.6936C30.5685 51.7266 28.5201 51.7598 26.9231 49.5058C24.4394 46.0004 25.4008 44.0765 26.3185 42.2399C26.9817 40.9127 27.622 39.6312 26.9231 37.8316C26.1965 35.9609 24.2392 35.4942 22.2947 35.0305C19.5164 34.368 16.764 33.7116 17.6641 28.9754C18.1599 26.3666 20.3897 25.9382 22.8822 25.4592C24.4483 25.1583 26.1181 24.8375 27.5268 23.9434C29.5674 22.6483 30.0888 21.5245 30.5811 20.4634C31.114 19.3148 31.6129 18.2396 33.9678 17.0998C38.09 15.1046 45.1388 15.3042 51.0512 15.9775C53.9135 18.9321 56.1611 22.4857 57.5876 26.4322Z" fill="#AFB7DC"/>
    <path opacity="0.7" fill-rule="evenodd" clip-rule="evenodd" d="M45.02 11.1932C43.49 11.6776 41.9231 11.9382 40.611 11.6657C39.8368 11.5049 39.2308 11.2264 38.6494 10.9592C37.8412 10.5877 37.0805 10.2381 35.9816 10.2568C34.4626 10.2826 33.5369 11.3931 32.6354 12.4746C31.6729 13.6293 30.738 14.7509 29.1381 14.4836C27.7843 14.2575 27.1411 13.3393 26.4659 12.3754C25.908 11.5789 25.3281 10.7511 24.3074 10.2568C22.7249 9.49035 20.1757 9.18438 19.1357 9.08716C22.481 7.7635 26.1271 7.03613 29.9432 7.03613C35.4549 7.03613 40.6121 8.55348 45.02 11.1932Z" fill="#AFB7DC"/>
    <path opacity="0.7" fill-rule="evenodd" clip-rule="evenodd" d="M41.8436 63.3003C38.2057 64.9135 34.1791 65.8097 29.9433 65.8097C25.0767 65.8097 20.4864 64.6267 16.4443 62.5327C16.5758 62.5492 16.7143 62.5676 16.86 62.5881C23.32 63.4954 25.5088 62.6456 27.2636 61.9642C28.6255 61.4355 29.726 61.0082 32.3585 61.5822C33.3111 61.79 34.1952 62.0079 35.0399 62.2162C37.4025 62.7986 39.4576 63.3052 41.8436 63.3003Z" fill="#AFB7DC"/>
    <g filter="url(#filter0_d_17119_6622)">
        <rect x="30.5" y="25" width="39" height="24" rx="5" fill="white"/>
        <rect x="30.5" y="25" width="39" height="24" rx="5" stroke="#01A8A9" stroke-width="0.8"/>
    </g>
    <mask id="path-7-outside-1_17119_6622" maskUnits="userSpaceOnUse" x="38" y="29" width="23" height="8" fill="black">
        <rect fill="white" x="38" y="29" width="23" height="8"/>
        <path d="M39 36.6563V36.0188L39.11 36.0188C39.2833 36.0188 39.4233 35.9969 39.53 35.9531C39.6433 35.9094 39.7 35.8188 39.7 35.6813V30.975C39.7 30.8375 39.6433 30.7469 39.53 30.7031C39.4233 30.6594 39.2833 30.6375 39.11 30.6375L39 30.6375V30L42.45 30V30.6375L42.34 30.6375C42.2333 30.6375 42.1233 30.6406 42.01 30.6469C41.9033 30.6531 41.8133 30.6625 41.74 30.675C41.6733 30.6875 41.64 30.7063 41.64 30.7313V35.925C41.64 35.9438 41.6667 35.9625 41.72 35.9813C41.78 35.9938 41.8533 36.0031 41.94 36.0094C42.0333 36.0156 42.1233 36.0188 42.21 36.0188L42.29 36.0188V36.6563L39 36.6563ZM42.98 36.6563V36.0188L43.06 36.0188C43.1467 36.0188 43.2333 36.0156 43.32 36.0094C43.4067 36.0031 43.48 35.9938 43.54 35.9813C43.6 35.9625 43.63 35.9438 43.63 35.925L41.91 33.4969V33.2531L44.26 30.7219C44.26 30.6969 44.22 30.6781 44.14 30.6656C44.0667 30.6531 43.9733 30.6469 43.86 30.6469C43.7533 30.6406 43.6467 30.6375 43.54 30.6375L43.44 30.6375V30L46.03 30V30.6375L45.84 30.6375C45.7333 30.6375 45.6367 30.6469 45.55 30.6656C45.47 30.6844 45.3933 30.7156 45.32 30.7594C45.2467 30.8031 45.1667 30.8687 45.08 30.9562L42.87 33.3469L43.33 32.4188L45.67 35.7094C45.73 35.7906 45.7867 35.8531 45.84 35.8969C45.9 35.9406 45.9667 35.9719 46.04 35.9906C46.1133 36.0094 46.2 36.0188 46.3 36.0188L46.4 36.0188V36.6563L42.98 36.6563Z"/>
        <path d="M53.1413 34.5188V36.6563L47.3613 36.6563V36.0188L47.4713 36.0188C47.6447 36.0188 47.7847 35.9969 47.8913 35.9531C48.0047 35.9094 48.0613 35.8188 48.0613 35.6813V30.975C48.0613 30.8375 48.0047 30.7469 47.8913 30.7031C47.7847 30.6594 47.6447 30.6375 47.4713 30.6375L47.3613 30.6375V30L52.8613 30V31.9031L52.0013 31.9031L51.9313 31.1438C51.9247 31.0313 51.8813 30.9469 51.8013 30.8906C51.7213 30.8281 51.6047 30.7875 51.4513 30.7688C51.3047 30.75 51.1247 30.7406 50.9113 30.7406L49.9913 30.7406V35.9156L51.0113 35.9156C51.2113 35.9156 51.3813 35.9125 51.5213 35.9063C51.668 35.8938 51.7847 35.8719 51.8713 35.8406C51.9647 35.8094 52.0347 35.7688 52.0813 35.7188C52.128 35.6625 52.1547 35.5938 52.1613 35.5125L52.2713 34.5188L53.1413 34.5188ZM49.7113 32.925C49.9647 32.9125 50.2147 32.9031 50.4613 32.8969C50.7147 32.8844 50.9647 32.8719 51.2113 32.8594C51.4647 32.8406 51.718 32.8281 51.9713 32.8219V33.6844C51.718 33.6656 51.4647 33.6531 51.2113 33.6469C50.9647 33.6344 50.7147 33.6219 50.4613 33.6094C50.2147 33.5906 49.9647 33.5781 49.7113 33.5719V32.925Z"/>
        <path d="M56.4483 33.6375L56.5783 34.0594L54.6483 30.8812C54.6016 30.8 54.5483 30.7438 54.4883 30.7125C54.4349 30.675 54.3716 30.6531 54.2983 30.6469C54.2316 30.6406 54.1583 30.6375 54.0783 30.6375L54.0283 30.6375V30L57.2783 30V30.6375L57.1183 30.6375C57.0249 30.6375 56.9316 30.6406 56.8383 30.6469C56.7516 30.6531 56.6783 30.6625 56.6183 30.675C56.5649 30.6875 56.5383 30.7063 56.5383 30.7313L58.1683 33.45L57.7083 33.5625L59.2983 30.8063C59.2983 30.7687 59.2683 30.7375 59.2083 30.7125C59.1483 30.6875 59.0716 30.6688 58.9783 30.6562C58.8849 30.6438 58.7883 30.6375 58.6883 30.6375L58.5583 30.6375V30L60.7683 30V30.6375L60.7283 30.6375C60.6416 30.6375 60.5583 30.6469 60.4783 30.6656C60.4049 30.6844 60.3316 30.7219 60.2583 30.7781C60.1916 30.8281 60.1249 30.9094 60.0583 31.0219L58.2683 34.0781L58.3783 33.6375V35.6813C58.3783 35.8188 58.4349 35.9094 58.5483 35.9531C58.6616 35.9969 58.8016 36.0188 58.9683 36.0188L59.1183 36.0188V36.6563L55.7083 36.6563V36.0188L55.8583 36.0188C56.0316 36.0188 56.1716 35.9969 56.2783 35.9531C56.3916 35.9094 56.4483 35.8188 56.4483 35.6813V33.6375Z"/>
    </mask>
    <path d="M39 36.6563V36.0188L39.11 36.0188C39.2833 36.0188 39.4233 35.9969 39.53 35.9531C39.6433 35.9094 39.7 35.8188 39.7 35.6813V30.975C39.7 30.8375 39.6433 30.7469 39.53 30.7031C39.4233 30.6594 39.2833 30.6375 39.11 30.6375L39 30.6375V30L42.45 30V30.6375L42.34 30.6375C42.2333 30.6375 42.1233 30.6406 42.01 30.6469C41.9033 30.6531 41.8133 30.6625 41.74 30.675C41.6733 30.6875 41.64 30.7063 41.64 30.7313V35.925C41.64 35.9438 41.6667 35.9625 41.72 35.9813C41.78 35.9938 41.8533 36.0031 41.94 36.0094C42.0333 36.0156 42.1233 36.0188 42.21 36.0188L42.29 36.0188V36.6563L39 36.6563ZM42.98 36.6563V36.0188L43.06 36.0188C43.1467 36.0188 43.2333 36.0156 43.32 36.0094C43.4067 36.0031 43.48 35.9938 43.54 35.9813C43.6 35.9625 43.63 35.9438 43.63 35.925L41.91 33.4969V33.2531L44.26 30.7219C44.26 30.6969 44.22 30.6781 44.14 30.6656C44.0667 30.6531 43.9733 30.6469 43.86 30.6469C43.7533 30.6406 43.6467 30.6375 43.54 30.6375L43.44 30.6375V30L46.03 30V30.6375L45.84 30.6375C45.7333 30.6375 45.6367 30.6469 45.55 30.6656C45.47 30.6844 45.3933 30.7156 45.32 30.7594C45.2467 30.8031 45.1667 30.8687 45.08 30.9562L42.87 33.3469L43.33 32.4188L45.67 35.7094C45.73 35.7906 45.7867 35.8531 45.84 35.8969C45.9 35.9406 45.9667 35.9719 46.04 35.9906C46.1133 36.0094 46.2 36.0188 46.3 36.0188L46.4 36.0188V36.6563L42.98 36.6563Z" fill="#00D2D3"/>
    <path d="M53.1413 34.5188V36.6563L47.3613 36.6563V36.0188L47.4713 36.0188C47.6447 36.0188 47.7847 35.9969 47.8913 35.9531C48.0047 35.9094 48.0613 35.8188 48.0613 35.6813V30.975C48.0613 30.8375 48.0047 30.7469 47.8913 30.7031C47.7847 30.6594 47.6447 30.6375 47.4713 30.6375L47.3613 30.6375V30L52.8613 30V31.9031L52.0013 31.9031L51.9313 31.1438C51.9247 31.0313 51.8813 30.9469 51.8013 30.8906C51.7213 30.8281 51.6047 30.7875 51.4513 30.7688C51.3047 30.75 51.1247 30.7406 50.9113 30.7406L49.9913 30.7406V35.9156L51.0113 35.9156C51.2113 35.9156 51.3813 35.9125 51.5213 35.9063C51.668 35.8938 51.7847 35.8719 51.8713 35.8406C51.9647 35.8094 52.0347 35.7688 52.0813 35.7188C52.128 35.6625 52.1547 35.5938 52.1613 35.5125L52.2713 34.5188L53.1413 34.5188ZM49.7113 32.925C49.9647 32.9125 50.2147 32.9031 50.4613 32.8969C50.7147 32.8844 50.9647 32.8719 51.2113 32.8594C51.4647 32.8406 51.718 32.8281 51.9713 32.8219V33.6844C51.718 33.6656 51.4647 33.6531 51.2113 33.6469C50.9647 33.6344 50.7147 33.6219 50.4613 33.6094C50.2147 33.5906 49.9647 33.5781 49.7113 33.5719V32.925Z" fill="#00D2D3"/>
    <path d="M56.4483 33.6375L56.5783 34.0594L54.6483 30.8812C54.6016 30.8 54.5483 30.7438 54.4883 30.7125C54.4349 30.675 54.3716 30.6531 54.2983 30.6469C54.2316 30.6406 54.1583 30.6375 54.0783 30.6375L54.0283 30.6375V30L57.2783 30V30.6375L57.1183 30.6375C57.0249 30.6375 56.9316 30.6406 56.8383 30.6469C56.7516 30.6531 56.6783 30.6625 56.6183 30.675C56.5649 30.6875 56.5383 30.7063 56.5383 30.7313L58.1683 33.45L57.7083 33.5625L59.2983 30.8063C59.2983 30.7687 59.2683 30.7375 59.2083 30.7125C59.1483 30.6875 59.0716 30.6688 58.9783 30.6562C58.8849 30.6438 58.7883 30.6375 58.6883 30.6375L58.5583 30.6375V30L60.7683 30V30.6375L60.7283 30.6375C60.6416 30.6375 60.5583 30.6469 60.4783 30.6656C60.4049 30.6844 60.3316 30.7219 60.2583 30.7781C60.1916 30.8281 60.1249 30.9094 60.0583 31.0219L58.2683 34.0781L58.3783 33.6375V35.6813C58.3783 35.8188 58.4349 35.9094 58.5483 35.9531C58.6616 35.9969 58.8016 36.0188 58.9683 36.0188L59.1183 36.0188V36.6563L55.7083 36.6563V36.0188L55.8583 36.0188C56.0316 36.0188 56.1716 35.9969 56.2783 35.9531C56.3916 35.9094 56.4483 35.8188 56.4483 35.6813V33.6375Z" fill="#00D2D3"/>
    <path d="M39 36.6563V36.0188L39.11 36.0188C39.2833 36.0188 39.4233 35.9969 39.53 35.9531C39.6433 35.9094 39.7 35.8188 39.7 35.6813V30.975C39.7 30.8375 39.6433 30.7469 39.53 30.7031C39.4233 30.6594 39.2833 30.6375 39.11 30.6375L39 30.6375V30L42.45 30V30.6375L42.34 30.6375C42.2333 30.6375 42.1233 30.6406 42.01 30.6469C41.9033 30.6531 41.8133 30.6625 41.74 30.675C41.6733 30.6875 41.64 30.7063 41.64 30.7313V35.925C41.64 35.9438 41.6667 35.9625 41.72 35.9813C41.78 35.9938 41.8533 36.0031 41.94 36.0094C42.0333 36.0156 42.1233 36.0188 42.21 36.0188L42.29 36.0188V36.6563L39 36.6563ZM42.98 36.6563V36.0188L43.06 36.0188C43.1467 36.0188 43.2333 36.0156 43.32 36.0094C43.4067 36.0031 43.48 35.9938 43.54 35.9813C43.6 35.9625 43.63 35.9438 43.63 35.925L41.91 33.4969V33.2531L44.26 30.7219C44.26 30.6969 44.22 30.6781 44.14 30.6656C44.0667 30.6531 43.9733 30.6469 43.86 30.6469C43.7533 30.6406 43.6467 30.6375 43.54 30.6375L43.44 30.6375V30L46.03 30V30.6375L45.84 30.6375C45.7333 30.6375 45.6367 30.6469 45.55 30.6656C45.47 30.6844 45.3933 30.7156 45.32 30.7594C45.2467 30.8031 45.1667 30.8687 45.08 30.9562L42.87 33.3469L43.33 32.4188L45.67 35.7094C45.73 35.7906 45.7867 35.8531 45.84 35.8969C45.9 35.9406 45.9667 35.9719 46.04 35.9906C46.1133 36.0094 46.2 36.0188 46.3 36.0188L46.4 36.0188V36.6563L42.98 36.6563Z" stroke="#00D2D3" stroke-width="0.4" mask="url(#path-7-outside-1_17119_6622)"/>
    <path d="M53.1413 34.5188V36.6563L47.3613 36.6563V36.0188L47.4713 36.0188C47.6447 36.0188 47.7847 35.9969 47.8913 35.9531C48.0047 35.9094 48.0613 35.8188 48.0613 35.6813V30.975C48.0613 30.8375 48.0047 30.7469 47.8913 30.7031C47.7847 30.6594 47.6447 30.6375 47.4713 30.6375L47.3613 30.6375V30L52.8613 30V31.9031L52.0013 31.9031L51.9313 31.1438C51.9247 31.0313 51.8813 30.9469 51.8013 30.8906C51.7213 30.8281 51.6047 30.7875 51.4513 30.7688C51.3047 30.75 51.1247 30.7406 50.9113 30.7406L49.9913 30.7406V35.9156L51.0113 35.9156C51.2113 35.9156 51.3813 35.9125 51.5213 35.9063C51.668 35.8938 51.7847 35.8719 51.8713 35.8406C51.9647 35.8094 52.0347 35.7688 52.0813 35.7188C52.128 35.6625 52.1547 35.5938 52.1613 35.5125L52.2713 34.5188L53.1413 34.5188ZM49.7113 32.925C49.9647 32.9125 50.2147 32.9031 50.4613 32.8969C50.7147 32.8844 50.9647 32.8719 51.2113 32.8594C51.4647 32.8406 51.718 32.8281 51.9713 32.8219V33.6844C51.718 33.6656 51.4647 33.6531 51.2113 33.6469C50.9647 33.6344 50.7147 33.6219 50.4613 33.6094C50.2147 33.5906 49.9647 33.5781 49.7113 33.5719V32.925Z" stroke="#00D2D3" stroke-width="0.4" mask="url(#path-7-outside-1_17119_6622)"/>
    <path d="M56.4483 33.6375L56.5783 34.0594L54.6483 30.8812C54.6016 30.8 54.5483 30.7438 54.4883 30.7125C54.4349 30.675 54.3716 30.6531 54.2983 30.6469C54.2316 30.6406 54.1583 30.6375 54.0783 30.6375L54.0283 30.6375V30L57.2783 30V30.6375L57.1183 30.6375C57.0249 30.6375 56.9316 30.6406 56.8383 30.6469C56.7516 30.6531 56.6783 30.6625 56.6183 30.675C56.5649 30.6875 56.5383 30.7063 56.5383 30.7313L58.1683 33.45L57.7083 33.5625L59.2983 30.8063C59.2983 30.7687 59.2683 30.7375 59.2083 30.7125C59.1483 30.6875 59.0716 30.6688 58.9783 30.6562C58.8849 30.6438 58.7883 30.6375 58.6883 30.6375L58.5583 30.6375V30L60.7683 30V30.6375L60.7283 30.6375C60.6416 30.6375 60.5583 30.6469 60.4783 30.6656C60.4049 30.6844 60.3316 30.7219 60.2583 30.7781C60.1916 30.8281 60.1249 30.9094 60.0583 31.0219L58.2683 34.0781L58.3783 33.6375V35.6813C58.3783 35.8188 58.4349 35.9094 58.5483 35.9531C58.6616 35.9969 58.8016 36.0188 58.9683 36.0188L59.1183 36.0188V36.6563L55.7083 36.6563V36.0188L55.8583 36.0188C56.0316 36.0188 56.1716 35.9969 56.2783 35.9531C56.3916 35.9094 56.4483 35.8188 56.4483 35.6813V33.6375Z" stroke="#00D2D3" stroke-width="0.4" mask="url(#path-7-outside-1_17119_6622)"/>
    <path d="M41.394 39.9619V40.4606L41.282 40.4606C41.142 40.4606 41.0277 40.4759 40.939 40.5066C40.8503 40.5372 40.806 40.6006 40.806 40.6969V44.0963L41.604 44.0963C41.7907 44.0963 41.9423 44.0897 42.059 44.0766C42.1757 44.0591 42.262 44.0306 42.318 43.9913C42.3787 43.9475 42.4113 43.8863 42.416 43.8075L42.507 42.9806L43.144 42.9806V44.6213L39 44.6213V44.1225L39.077 44.1225C39.203 44.1225 39.3057 44.1072 39.385 44.0766C39.469 44.0459 39.511 43.9825 39.511 43.8863V40.6969C39.511 40.6006 39.469 40.5372 39.385 40.5066C39.3057 40.4759 39.203 40.4606 39.077 40.4606L39 40.4606V39.9619L41.394 39.9619Z" fill="#596495"/>
    <path d="M46.2389 44.7328C45.8563 44.7328 45.5063 44.6803 45.1889 44.5753C44.8763 44.4659 44.6056 44.3063 44.3769 44.0963C44.1483 43.8863 43.9709 43.6303 43.8449 43.3284C43.7236 43.0222 43.6629 42.6766 43.6629 42.2916C43.6629 41.9022 43.7236 41.5566 43.8449 41.2547C43.9709 40.9528 44.1483 40.6991 44.3769 40.4934C44.6056 40.2834 44.8763 40.1238 45.1889 40.0144C45.5063 39.9006 45.8563 39.8438 46.2389 39.8438C46.6216 39.8438 46.9693 39.9006 47.2819 40.0144C47.5993 40.1238 47.8723 40.2834 48.1009 40.4934C48.3296 40.6991 48.5046 40.9528 48.6259 41.2547C48.7519 41.5566 48.8149 41.9022 48.8149 42.2916C48.8149 42.6766 48.7519 43.0222 48.6259 43.3284C48.5046 43.6303 48.3296 43.8863 48.1009 44.0963C47.8723 44.3063 47.5993 44.4659 47.2819 44.5753C46.9693 44.6803 46.6216 44.7328 46.2389 44.7328ZM46.2389 44.1684C46.4349 44.1684 46.6076 44.1313 46.7569 44.0569C46.9063 43.9825 47.0323 43.8688 47.1349 43.7156C47.2423 43.5625 47.3216 43.3678 47.3729 43.1316C47.4289 42.8953 47.4569 42.6153 47.4569 42.2916C47.4569 41.9678 47.4289 41.6878 47.3729 41.4516C47.3216 41.2153 47.2423 41.0206 47.1349 40.8675C47.0323 40.7144 46.9063 40.6006 46.7569 40.5263C46.6076 40.4519 46.4349 40.4147 46.2389 40.4147C46.0476 40.4147 45.8749 40.4519 45.7209 40.5263C45.5716 40.6006 45.4433 40.7144 45.3359 40.8675C45.2333 41.0206 45.1539 41.2153 45.0979 41.4516C45.0466 41.6878 45.0209 41.9678 45.0209 42.2916C45.0209 42.6153 45.0466 42.8953 45.0979 43.1316C45.1539 43.3678 45.2333 43.5625 45.3359 43.7156C45.4386 43.8688 45.5669 43.9825 45.7209 44.0569C45.8749 44.1313 46.0476 44.1684 46.2389 44.1684Z" fill="#596495"/>
    <path d="M54.0948 43.0331V43.965C54.0248 44.0438 53.9221 44.1291 53.7868 44.2209C53.6561 44.3084 53.4975 44.3916 53.3108 44.4703C53.1241 44.5491 52.9165 44.6125 52.6878 44.6606C52.4638 44.7088 52.2258 44.7328 51.9738 44.7328C51.5865 44.7328 51.2365 44.6803 50.9238 44.5753C50.6111 44.4659 50.3405 44.3063 50.1118 44.0963C49.8878 43.8863 49.7151 43.6303 49.5938 43.3284C49.4771 43.0266 49.4188 42.6809 49.4188 42.2916C49.4188 41.9066 49.4795 41.5631 49.6008 41.2613C49.7268 40.9594 49.9018 40.7034 50.1258 40.4934C50.3545 40.2791 50.6205 40.1172 50.9238 40.0078C51.2271 39.8984 51.5585 39.8438 51.9178 39.8438C52.2585 39.8438 52.5431 39.9006 52.7718 40.0144C53.0005 40.1281 53.1825 40.2878 53.3178 40.4934C53.4578 40.6991 53.5605 40.9375 53.6258 41.2088L53.3178 41.0053L53.4368 39.9291L54.0318 39.9291V41.4516L53.3528 41.4516C53.2828 41.2416 53.1895 41.06 53.0728 40.9069C52.9608 40.7494 52.8208 40.6269 52.6528 40.5394C52.4895 40.4519 52.2935 40.4081 52.0648 40.4081C51.8501 40.4081 51.6635 40.4497 51.5048 40.5328C51.3461 40.6116 51.2108 40.7297 51.0988 40.8872C50.9915 41.0403 50.9098 41.235 50.8538 41.4713C50.8025 41.7075 50.7768 41.9809 50.7768 42.2916C50.7768 42.6241 50.8048 42.9106 50.8608 43.1513C50.9168 43.3875 50.9985 43.58 51.1058 43.7288C51.2178 43.8775 51.3531 43.9891 51.5118 44.0634C51.6705 44.1378 51.8525 44.175 52.0578 44.175C52.2118 44.175 52.3448 44.1597 52.4568 44.1291C52.5688 44.0941 52.6621 44.0547 52.7368 44.0109C52.8115 43.9628 52.8698 43.9213 52.9118 43.8863V43.0331C52.9118 42.9325 52.8651 42.8669 52.7718 42.8363C52.6831 42.8013 52.5735 42.7838 52.4428 42.7838L52.3028 42.7838V42.2916L54.5638 42.2916V42.7838L54.4588 42.7838C54.3468 42.7838 54.2581 42.8013 54.1928 42.8363C54.1275 42.8669 54.0948 42.9325 54.0948 43.0331Z" fill="#596495"/>
    <path d="M57.6686 44.7328C57.2859 44.7328 56.936 44.6803 56.6186 44.5753C56.306 44.4659 56.0353 44.3063 55.8066 44.0963C55.578 43.8863 55.4006 43.6303 55.2746 43.3284C55.1533 43.0222 55.0926 42.6766 55.0926 42.2916C55.0926 41.9022 55.1533 41.5566 55.2746 41.2547C55.4006 40.9528 55.578 40.6991 55.8066 40.4934C56.0353 40.2834 56.306 40.1238 56.6186 40.0144C56.936 39.9006 57.2859 39.8438 57.6686 39.8438C58.0513 39.8438 58.399 39.9006 58.7116 40.0144C59.0289 40.1238 59.302 40.2834 59.5306 40.4934C59.7593 40.6991 59.9343 40.9528 60.0556 41.2547C60.1816 41.5566 60.2446 41.9022 60.2446 42.2916C60.2446 42.6766 60.1816 43.0222 60.0556 43.3284C59.9343 43.6303 59.7593 43.8863 59.5306 44.0963C59.302 44.3063 59.0289 44.4659 58.7116 44.5753C58.399 44.6803 58.0513 44.7328 57.6686 44.7328ZM57.6686 44.1684C57.8646 44.1684 58.0373 44.1313 58.1866 44.0569C58.336 43.9825 58.462 43.8688 58.5646 43.7156C58.672 43.5625 58.7513 43.3678 58.8026 43.1316C58.8586 42.8953 58.8866 42.6153 58.8866 42.2916C58.8866 41.9678 58.8586 41.6878 58.8026 41.4516C58.7513 41.2153 58.672 41.0206 58.5646 40.8675C58.462 40.7144 58.336 40.6006 58.1866 40.5263C58.0373 40.4519 57.8646 40.4147 57.6686 40.4147C57.4773 40.4147 57.3046 40.4519 57.1506 40.5263C57.0013 40.6006 56.873 40.7144 56.7656 40.8675C56.663 41.0206 56.5836 41.2153 56.5276 41.4516C56.4763 41.6878 56.4506 41.9678 56.4506 42.2916C56.4506 42.6153 56.4763 42.8953 56.5276 43.1316C56.5836 43.3678 56.663 43.5625 56.7656 43.7156C56.8683 43.8688 56.9966 43.9825 57.1506 44.0569C57.3046 44.1313 57.4773 44.1684 57.6686 44.1684Z" fill="#596495"/>
    <path d="M38 33.5L21.5 33.5M21.5 33.5L24.9375 30M21.5 33.5L24.9375 37" stroke="#00D2D3" stroke-width="2.5" stroke-linecap="round" stroke-linejoin="round"/>
    <path d="M19 41.5L35.5 41.5M35.5 41.5L32.0625 38M35.5 41.5L32.0625 45" stroke="#3593FF" stroke-width="2.5" stroke-linecap="round" stroke-linejoin="round"/>
    <defs>
        <filter id="filter0_d_17119_6622" x="24.0996" y="18.6" width="51.8008" height="36.8" filterUnits="userSpaceOnUse" color-interpolation-filters="sRGB">
            <feFlood flood-opacity="0" result="BackgroundImageFix"/>
            <feColorMatrix in="SourceAlpha" type="matrix" values="0 0 0 0 0 0 0 0 0 0 0 0 0 0 0 0 0 0 127 0" result="hardAlpha"/>
            <feOffset/>
            <feGaussianBlur stdDeviation="3"/>
            <feComposite in2="hardAlpha" operator="out"/>
            <feColorMatrix type="matrix" values="0 0 0 0 0.209288 0 0 0 0 0.341074 0 0 0 0 1 0 0 0 0.3 0"/>
            <feBlend mode="normal" in2="BackgroundImageFix" result="effect1_dropShadow_17119_6622"/>
            <feBlend mode="normal" in="SourceGraphic" in2="effect1_dropShadow_17119_6622" result="shape"/>
        </filter>
    </defs>
</svg>
