<svg width="56" height="56" viewBox="0 0 56 56" fill="none" xmlns="http://www.w3.org/2000/svg">
    <path d="M45 40.3009C45 40.6722 44.8525 41.0283 44.59 41.2908C44.3274 41.5534 43.9713 41.7009 43.6 41.7009H4.4C4.0287 41.7009 3.6726 41.5534 3.41005 41.2908C3.1475 41.0283 3 40.6722 3 40.3009C3 39.9296 3.1475 39.5735 3.41005 39.3109C3.6726 39.0484 4.0287 38.9009 4.4 38.9009H43.6C43.9713 38.9009 44.3274 39.0484 44.59 39.3109C44.8525 39.5735 45 39.9296 45 40.3009ZM4.4525 18.9824C4.36923 18.6888 4.38418 18.376 4.49506 18.0917C4.60595 17.8074 4.8067 17.5671 5.06675 17.4074L23.2667 6.20738C23.4873 6.07179 23.7411 6 24 6C24.2589 6 24.5127 6.07179 24.7332 6.20738L42.9333 17.4074C43.1934 17.5669 43.3943 17.807 43.5054 18.0912C43.6165 18.3754 43.6316 18.6881 43.5486 18.9818C43.4656 19.2754 43.2889 19.5339 43.0455 19.7178C42.802 19.9018 42.5051 20.0012 42.2 20.0009H39.05V34.875H40.8C41.1713 34.875 41.5274 35.0225 41.7899 35.2851C42.0525 35.5476 42.2 35.9037 42.2 36.275C42.2 36.6463 42.0525 37.0024 41.7899 37.265C41.5274 37.5275 41.1713 37.675 40.8 37.675H7.2C6.8287 37.675 6.4726 37.5275 6.21005 37.265C5.9475 37.0024 5.8 36.6463 5.8 36.275C5.8 35.9037 5.9475 35.5476 6.21005 35.2851C6.4726 35.0225 6.8287 34.875 7.2 34.875H8.95V20.0009H5.8C5.49513 20.001 5.19856 19.9016 4.95535 19.7177C4.71213 19.5339 4.53558 19.2757 4.4525 18.9824ZM26.8 31.375C26.8 31.7463 26.9475 32.1024 27.21 32.365C27.4726 32.6275 27.8287 32.775 28.2 32.775C28.5713 32.775 28.9274 32.6275 29.1899 32.365C29.4525 32.1024 29.6 31.7463 29.6 31.375V22.4509C29.6 22.0796 29.4525 21.7235 29.1899 21.4609C28.9274 21.1984 28.5713 21.0509 28.2 21.0509C27.8287 21.0509 27.4726 21.1984 27.21 21.4609C26.9475 21.7235 26.8 22.0796 26.8 22.4509V31.375ZM18.4 31.375C18.4 31.7463 18.5475 32.1024 18.8101 32.365C19.0726 32.6275 19.4287 32.775 19.8 32.775C20.1713 32.775 20.5274 32.6275 20.7899 32.365C21.0525 32.1024 21.2 31.7463 21.2 31.375V22.4509C21.2 22.0796 21.0525 21.7235 20.7899 21.4609C20.5274 21.1984 20.1713 21.0509 19.8 21.0509C19.4287 21.0509 19.0726 21.1984 18.8101 21.4609C18.5475 21.7235 18.4 22.0796 18.4 22.4509V31.375Z"
          fill="#AFB7DC"/>
    <path d="M40.2 24H33.8C27.766 24 24.749 24 22.8745 25.8745C21.5249 27.2242 21.147 29.1661 21.0411 32.4L21.003 34.8H52.997L52.9589 32.4C52.8531 29.1661 52.4752 27.2242 51.1255 25.8745C49.251 24 46.234 24 40.2 24Z"
          fill="url(#paint0_linear_17332_13474)"/>
    <path d="M33.8 49.6H40.2C46.234 49.6 49.251 49.6 51.1255 47.7255C53 45.851 53 42.834 53 36.8C53 36.0929 53 35.4272 52.997 34.8H21.003C21 36.2667 21 36.0929 21 36.8C21 42.834 21 45.851 22.8745 47.7255C24.749 49.6 27.766 49.6 33.8 49.6Z"
          fill="url(#paint1_linear_17332_13474)"/>
    <path fill-rule="evenodd" clip-rule="evenodd"
          d="M26 30.3999C26.8284 30.3999 27.5 31.0611 27.5 31.8768L27.5 41.723C27.5 42.5387 26.8284 43.1999 26 43.1999C25.1716 43.1999 24.5 42.5387 24.5 41.723L24.5 31.8768C24.5 31.0611 25.1716 30.3999 26 30.3999ZM37 33.3537C34.7909 33.3537 33 35.1171 33 37.2922C33 39.4674 34.7909 41.2307 37 41.2307C39.2091 41.2307 41 39.4674 41 37.2922C41 35.1171 39.2091 33.3537 37 33.3537ZM30 37.2922C30 33.4857 33.134 30.3999 37 30.3999C40.866 30.3999 44 33.4857 44 37.2922C44 41.0987 40.866 44.1845 37 44.1845C33.134 44.1845 30 41.0987 30 37.2922ZM48 30.3999C48.8284 30.3999 49.5 31.0611 49.5 31.8768L49.5 41.723C49.5 42.5387 48.8284 43.1999 48 43.1999C47.1716 43.1999 46.5 42.5387 46.5 41.723L46.5 31.8768C46.5 31.0611 47.1716 30.3999 48 30.3999Z"
          fill="white"/>
    <defs>
        <linearGradient id="paint0_linear_17332_13474" x1="30.0048" y1="29.6005" x2="35.6436" y2="56.7204"
                        gradientUnits="userSpaceOnUse">
            <stop offset="0.370557" stop-color="#00D2D3"/>
            <stop offset="1" stop-color="#489EFF"/>
        </linearGradient>
        <linearGradient id="paint1_linear_17332_13474" x1="30.0048" y1="29.6005" x2="35.6436" y2="56.7204"
                        gradientUnits="userSpaceOnUse">
            <stop offset="0.370557" stop-color="#00D2D3"/>
            <stop offset="1" stop-color="#489EFF"/>
        </linearGradient>
    </defs>
</svg>
