<svg width="195" height="201" viewBox="0 0 195 201" fill="none" xmlns="http://www.w3.org/2000/svg">
    <g filter="url(#filter0_ddi_17276_10914)">
        <path d="M113.742 63.0727C113.958 63.3124 114.124 63.5925 114.231 63.8968C114.339 64.2011 114.385 64.5236 114.367 64.8458C114.349 65.168 114.268 65.4834 114.128 65.7741C113.987 66.0647 113.791 66.3247 113.55 66.5391C111.293 68.557 108.541 69.9404 105.575 70.5484C102.608 71.1564 99.5341 70.9673 96.6649 70.0003C93.7956 69.0333 91.234 67.323 89.241 65.0437C87.2479 62.7644 85.8947 59.9974 85.3192 57.0248H82.5563C81.9073 57.0248 81.2849 56.767 80.826 56.3082C80.3672 55.8493 80.1094 55.2269 80.1094 54.578C80.1094 53.929 80.3672 53.3066 80.826 52.8478C81.2849 52.3889 81.9073 52.1311 82.5563 52.1311H85.0031V48.8686H82.5563C81.9073 48.8686 81.2849 48.6108 80.826 48.1519C80.3672 47.693 80.1094 47.0707 80.1094 46.4217C80.1094 45.7728 80.3672 45.1504 80.826 44.6915C81.2849 44.2326 81.9073 43.9748 82.5563 43.9748H85.3192C85.8961 41.0031 87.2504 38.2373 89.244 35.9593C91.2376 33.6812 93.7994 31.9722 96.6685 31.0063C99.5375 30.0404 102.611 29.8522 105.577 30.4608C108.542 31.0693 111.293 32.453 113.55 34.4708C114.034 34.9034 114.326 35.5105 114.362 36.1585C114.398 36.8064 114.175 37.4422 113.743 37.926C113.31 38.4097 112.703 38.7018 112.055 38.7379C111.407 38.774 110.771 38.5513 110.288 38.1187C108.736 36.7314 106.856 35.7628 104.826 35.3045C102.796 34.8463 100.683 34.9135 98.6858 35.4998C96.6889 36.0861 94.8746 37.1721 93.4145 38.6551C91.9543 40.1381 90.8966 41.9691 90.3414 43.9748H102.131C102.78 43.9748 103.403 44.2326 103.861 44.6915C104.32 45.1504 104.578 45.7728 104.578 46.4217C104.578 47.0707 104.32 47.693 103.861 48.1519C103.403 48.6108 102.78 48.8686 102.131 48.8686H89.8969V52.1311H98.8688C99.5177 52.1311 100.14 52.3889 100.599 52.8478C101.058 53.3066 101.316 53.929 101.316 54.578C101.316 55.2269 101.058 55.8493 100.599 56.3082C100.14 56.767 99.5177 57.0248 98.8688 57.0248H90.3414C90.8966 59.0306 91.9543 60.8616 93.4145 62.3446C94.8746 63.8276 96.6889 64.9136 98.6858 65.4999C100.683 66.0862 102.796 66.1534 104.826 65.6951C106.856 65.2369 108.736 64.2683 110.288 62.881C110.771 62.4486 111.407 62.2258 112.054 62.2618C112.702 62.2977 113.309 62.5894 113.742 63.0727Z" fill="white"/>
    </g>
    <defs>
        <filter id="filter0_ddi_17276_10914" x="-5.59961" y="-5.6001" width="212.2" height="212.2" filterUnits="userSpaceOnUse" color-interpolation-filters="sRGB">
            <feFlood flood-opacity="0" result="BackgroundImageFix"/>
            <feColorMatrix in="SourceAlpha" type="matrix" values="0 0 0 0 0 0 0 0 0 0 0 0 0 0 0 0 0 0 127 0" result="hardAlpha"/>
            <feMorphology radius="30" operator="erode" in="SourceAlpha" result="effect1_dropShadow_17276_10914"/>
            <feOffset dy="30"/>
            <feGaussianBlur stdDeviation="30"/>
            <feComposite in2="hardAlpha" operator="out"/>
            <feColorMatrix type="matrix" values="0 0 0 0 0 0 0 0 0 0 0 0 0 0 0 0 0 0 0.3 0"/>
            <feBlend mode="normal" in2="BackgroundImageFix" result="effect1_dropShadow_17276_10914"/>
            <feColorMatrix in="SourceAlpha" type="matrix" values="0 0 0 0 0 0 0 0 0 0 0 0 0 0 0 0 0 0 127 0" result="hardAlpha"/>
            <feMorphology radius="20" operator="erode" in="SourceAlpha" result="effect2_dropShadow_17276_10914"/>
            <feOffset dy="50"/>
            <feGaussianBlur stdDeviation="50"/>
            <feComposite in2="hardAlpha" operator="out"/>
            <feColorMatrix type="matrix" values="0 0 0 0 0.196078 0 0 0 0 0.196078 0 0 0 0 0.364706 0 0 0 0.25 0"/>
            <feBlend mode="normal" in2="effect1_dropShadow_17276_10914" result="effect2_dropShadow_17276_10914"/>
            <feBlend mode="normal" in="SourceGraphic" in2="effect2_dropShadow_17276_10914" result="shape"/>
            <feColorMatrix in="SourceAlpha" type="matrix" values="0 0 0 0 0 0 0 0 0 0 0 0 0 0 0 0 0 0 127 0" result="hardAlpha"/>
            <feOffset/>
            <feGaussianBlur stdDeviation="0.25"/>
            <feComposite in2="hardAlpha" operator="arithmetic" k2="-1" k3="1"/>
            <feColorMatrix type="matrix" values="0 0 0 0 0.0792906 0 0 0 0 0.243589 0 0 0 0 0.407887 0 0 0 0.35 0"/>
            <feBlend mode="normal" in2="shape" result="effect3_innerShadow_17276_10914"/>
        </filter>
    </defs>
</svg>
