<svg width="243" height="257" viewBox="0 0 243 257" fill="none" xmlns="http://www.w3.org/2000/svg">
    <path d="M100.204 98.1802C98.8136 118.948 99.0066 123.283 121.923 125.636C144.84 127.99 166.394 108.403 169.018 83.0089C171.939 54.7343 153.276 34.2601 132.342 32.1103C109.425 29.7568 102.828 72.786 100.204 98.1802Z" fill="url(#paint0_linear_17332_13503)"/>
    <g filter="url(#filter0_ddi_17332_13503)">
        <ellipse cx="43.0889" cy="46.2252" rx="43.0889" ry="46.2252" transform="matrix(-0.994768 -0.102159 -0.102775 0.994705 168.241 36.4609)" fill="#97C1C1"/>
    </g>
    <g filter="url(#filter1_d_17332_13503)">
        <ellipse cx="40.7598" cy="44.2441" rx="40.7598" ry="44.2441" transform="matrix(-0.994768 -0.102159 -0.102775 0.994705 166.425 38.9297)" fill="url(#paint1_linear_17332_13503)"/>
    </g>
    <g filter="url(#filter2_ddi_17332_13503)">
        <path d="M103.967 87.0104C103.868 90.232 104.889 93.3774 106.807 95.7564C108.724 98.1355 111.382 99.5539 114.196 99.7007L116.645 99.8252L116.556 102.629C116.533 103.373 116.768 104.099 117.211 104.648C117.654 105.198 118.267 105.525 118.917 105.558C119.567 105.591 120.199 105.327 120.675 104.824C121.151 104.322 121.432 103.622 121.456 102.878L121.545 100.074L123.994 100.199C126.809 100.338 129.547 99.1937 131.61 97.0169C133.672 94.8401 134.889 91.8085 134.995 88.5872C135.018 87.8436 134.783 87.1172 134.34 86.568C133.898 86.0188 133.284 85.6917 132.634 85.6587C131.985 85.6257 131.352 85.8895 130.876 86.392C130.4 86.8945 130.119 87.5946 130.096 88.3383C130.041 90.0735 129.386 91.7071 128.275 92.8796C127.164 94.0521 125.688 94.6676 124.172 94.5905L114.374 94.0926C112.858 94.0156 111.426 93.2524 110.393 91.9709C109.36 90.6894 108.811 88.9946 108.866 87.2594C108.921 85.5241 109.576 83.8906 110.687 82.718C111.798 81.5455 113.273 80.9301 114.789 81.0071L122.955 81.4221C125.77 81.5651 128.51 80.4222 130.573 78.2446C132.636 76.067 133.853 73.0333 133.955 69.8107C134.058 66.5881 133.037 63.4406 131.119 61.0607C129.201 58.6809 126.541 57.2635 123.726 57.1204L122.91 57.0789L122.999 54.2749C123.022 53.5312 122.787 52.8049 122.344 52.2557C121.901 51.7065 121.288 51.3794 120.638 51.3464C119.988 51.3133 119.356 51.5771 118.88 52.0796C118.404 52.5821 118.123 53.2822 118.1 54.0259L118.01 56.8299L117.194 56.7884C114.38 56.6491 111.641 57.7934 109.579 59.9702C107.516 62.147 106.299 65.1785 106.193 68.3998C106.17 69.1435 106.405 69.8698 106.848 70.419C107.291 70.9682 107.904 71.2953 108.554 71.3284C109.204 71.3614 109.836 71.0976 110.312 70.5951C110.788 70.0926 111.069 69.3925 111.093 68.6488C111.148 66.9136 111.803 65.28 112.913 64.1075C114.024 62.9349 115.5 62.3195 117.016 62.3965L123.548 62.7285C125.064 62.8055 126.496 63.5687 127.529 64.8502C128.562 66.1317 129.111 67.8265 129.056 69.5617C129.001 71.2969 128.346 72.9305 127.235 74.103C126.124 75.2756 124.649 75.891 123.133 75.814L114.967 75.399C112.153 75.2597 109.414 76.404 107.352 78.5808C105.29 80.7576 104.072 83.7891 103.967 87.0104Z" fill="url(#paint2_linear_17332_13503)" shape-rendering="crispEdges"/>
        <path d="M114.18 100.2L114.179 100.2C111.21 100.046 108.422 98.5489 106.42 96.0662C104.421 93.5857 103.365 90.3195 103.467 86.9855L103.467 86.9845C103.577 83.6509 104.836 80.5024 106.987 78.2328C109.139 75.9611 112.013 74.7523 114.983 74.8993L114.983 74.8993L123.149 75.3143C124.509 75.3834 125.849 74.8326 126.87 73.755C127.892 72.6755 128.505 71.1591 128.557 69.5363C128.608 67.9135 128.094 66.3399 127.142 65.16C126.193 63.9824 124.892 63.2973 123.532 63.2282L117 62.8962C115.64 62.8271 114.3 63.3779 113.279 64.4555C112.256 65.535 111.643 67.0514 111.592 68.6742C111.565 69.5303 111.242 70.3476 110.678 70.9431C110.112 71.5406 109.343 71.869 108.538 71.8281C107.733 71.7871 106.988 71.3819 106.461 70.7288C105.937 70.078 105.667 69.2306 105.694 68.3745L105.694 68.3739C105.803 65.0404 107.063 61.8918 109.213 59.6222C111.365 57.3505 114.239 56.1417 117.209 56.2887L117.21 56.2887L117.527 56.3048L117.6 54.0005C117.627 53.1444 117.95 52.3271 118.514 51.7316C119.08 51.1341 119.849 50.8057 120.654 50.8466C121.459 50.8876 122.204 51.2928 122.731 51.9459C123.255 52.5967 123.525 53.4441 123.498 54.3003L123.425 56.6046L123.742 56.6207C126.713 56.7717 129.503 58.2672 131.505 60.7509C133.506 63.2324 134.56 66.501 134.455 69.836C134.349 73.1711 133.09 76.3221 130.939 78.5926C128.786 80.8652 125.91 82.0728 122.939 81.9218L114.774 81.5068C113.413 81.4377 112.073 81.9885 111.052 83.066C110.03 84.1456 109.417 85.662 109.365 87.2848C109.314 88.9075 109.829 90.4812 110.78 91.6611C111.729 92.8387 113.03 93.5238 114.39 93.5929L124.188 94.0908C125.548 94.1599 126.888 93.6091 127.909 92.5316C128.932 91.452 129.545 89.9357 129.596 88.3129C129.623 87.4567 129.946 86.6394 130.511 86.044C131.077 85.4464 131.845 85.1181 132.65 85.159C133.456 85.1999 134.2 85.6052 134.727 86.2582C135.251 86.909 135.521 87.7565 135.494 88.6126L135.494 88.6131C135.385 91.9467 134.125 95.0953 131.975 97.3649C129.823 99.6365 126.949 100.845 123.979 100.698L123.978 100.698L122.028 100.599L121.955 102.904C121.928 103.76 121.605 104.577 121.041 105.172C120.475 105.77 119.707 106.098 118.901 106.057C118.096 106.017 117.351 105.611 116.825 104.958C116.3 104.307 116.03 103.46 116.057 102.604L116.13 100.3L114.18 100.2Z" stroke="#91BABC" stroke-opacity="0.3" shape-rendering="crispEdges"/>
    </g>
    <defs>
        <filter id="filter0_ddi_17332_13503" x="47.4969" y="31.8457" width="146.26" height="152.388" filterUnits="userSpaceOnUse" color-interpolation-filters="sRGB">
            <feFlood flood-opacity="0" result="BackgroundImageFix"/>
            <feColorMatrix in="SourceAlpha" type="matrix" values="0 0 0 0 0 0 0 0 0 0 0 0 0 0 0 0 0 0 127 0" result="hardAlpha"/>
            <feMorphology radius="30" operator="erode" in="SourceAlpha" result="effect1_dropShadow_17332_13503"/>
            <feOffset dy="30"/>
            <feGaussianBlur stdDeviation="30"/>
            <feComposite in2="hardAlpha" operator="out"/>
            <feColorMatrix type="matrix" values="0 0 0 0 0 0 0 0 0 0 0 0 0 0 0 0 0 0 0.3 0"/>
            <feBlend mode="normal" in2="BackgroundImageFix" result="effect1_dropShadow_17332_13503"/>
            <feColorMatrix in="SourceAlpha" type="matrix" values="0 0 0 0 0 0 0 0 0 0 0 0 0 0 0 0 0 0 127 0" result="hardAlpha"/>
            <feMorphology radius="18" operator="erode" in="SourceAlpha" result="effect2_dropShadow_17332_13503"/>
            <feOffset dy="20"/>
            <feGaussianBlur stdDeviation="15"/>
            <feComposite in2="hardAlpha" operator="out"/>
            <feColorMatrix type="matrix" values="0 0 0 0 0.196078 0 0 0 0 0.196078 0 0 0 0 0.364706 0 0 0 0.46 0"/>
            <feBlend mode="normal" in2="effect1_dropShadow_17332_13503" result="effect2_dropShadow_17332_13503"/>
            <feBlend mode="normal" in="SourceGraphic" in2="effect2_dropShadow_17332_13503" result="shape"/>
            <feColorMatrix in="SourceAlpha" type="matrix" values="0 0 0 0 0 0 0 0 0 0 0 0 0 0 0 0 0 0 127 0" result="hardAlpha"/>
            <feOffset dx="-4"/>
            <feGaussianBlur stdDeviation="2.5"/>
            <feComposite in2="hardAlpha" operator="arithmetic" k2="-1" k3="1"/>
            <feColorMatrix type="matrix" values="0 0 0 0 0.0792906 0 0 0 0 0.243589 0 0 0 0 0.407887 0 0 0 0.4 0"/>
            <feBlend mode="normal" in2="shape" result="effect3_innerShadow_17332_13503"/>
        </filter>
        <filter id="filter1_d_17332_13503" x="0.526733" y="4.56592" width="241.609" height="248.419" filterUnits="userSpaceOnUse" color-interpolation-filters="sRGB">
            <feFlood flood-opacity="0" result="BackgroundImageFix"/>
            <feColorMatrix in="SourceAlpha" type="matrix" values="0 0 0 0 0 0 0 0 0 0 0 0 0 0 0 0 0 0 127 0" result="hardAlpha"/>
            <feMorphology radius="20" operator="erode" in="SourceAlpha" result="effect1_dropShadow_17332_13503"/>
            <feOffset dy="50"/>
            <feGaussianBlur stdDeviation="50"/>
            <feComposite in2="hardAlpha" operator="out"/>
            <feColorMatrix type="matrix" values="0 0 0 0 0.196078 0 0 0 0 0.196078 0 0 0 0 0.364706 0 0 0 0.25 0"/>
            <feBlend mode="normal" in2="BackgroundImageFix" result="effect1_dropShadow_17332_13503"/>
            <feBlend mode="normal" in="SourceGraphic" in2="effect1_dropShadow_17332_13503" result="shape"/>
        </filter>
        <filter id="filter2_ddi_17332_13503" x="2.96094" y="0.342773" width="233.035" height="256.218" filterUnits="userSpaceOnUse" color-interpolation-filters="sRGB">
            <feFlood flood-opacity="0" result="BackgroundImageFix"/>
            <feColorMatrix in="SourceAlpha" type="matrix" values="0 0 0 0 0 0 0 0 0 0 0 0 0 0 0 0 0 0 127 0" result="hardAlpha"/>
            <feOffset/>
            <feGaussianBlur stdDeviation="5"/>
            <feComposite in2="hardAlpha" operator="out"/>
            <feColorMatrix type="matrix" values="0 0 0 0 0.657436 0 0 0 0 0.802095 0 0 0 0 0.805712 0 0 0 1 0"/>
            <feBlend mode="normal" in2="BackgroundImageFix" result="effect1_dropShadow_17332_13503"/>
            <feColorMatrix in="SourceAlpha" type="matrix" values="0 0 0 0 0 0 0 0 0 0 0 0 0 0 0 0 0 0 127 0" result="hardAlpha"/>
            <feOffset dy="50"/>
            <feGaussianBlur stdDeviation="50"/>
            <feComposite in2="hardAlpha" operator="out"/>
            <feColorMatrix type="matrix" values="0 0 0 0 0.900962 0 0 0 0 0.954104 0 0 0 0 1 0 0 0 1 0"/>
            <feBlend mode="normal" in2="effect1_dropShadow_17332_13503" result="effect2_dropShadow_17332_13503"/>
            <feBlend mode="normal" in="SourceGraphic" in2="effect2_dropShadow_17332_13503" result="shape"/>
            <feColorMatrix in="SourceAlpha" type="matrix" values="0 0 0 0 0 0 0 0 0 0 0 0 0 0 0 0 0 0 127 0" result="hardAlpha"/>
            <feOffset dy="-2"/>
            <feGaussianBlur stdDeviation="4"/>
            <feComposite in2="hardAlpha" operator="arithmetic" k2="-1" k3="1"/>
            <feColorMatrix type="matrix" values="0 0 0 0 0.71237 0 0 0 0 0.790548 0 0 0 0 0.857 0 0 0 0.3 0"/>
            <feBlend mode="normal" in2="shape" result="effect3_innerShadow_17332_13503"/>
        </filter>
        <linearGradient id="paint0_linear_17332_13503" x1="140.566" y1="32.9548" x2="128.386" y2="125.991" gradientUnits="userSpaceOnUse">
            <stop stop-color="#F1FFFF"/>
            <stop offset="0.0733458" stop-color="#C4DFDF"/>
            <stop offset="0.145946" stop-color="#F1FFFF"/>
            <stop offset="0.224625" stop-color="#C4DFDF"/>
            <stop offset="0.849716" stop-color="#C4DFDF"/>
            <stop offset="0.914773" stop-color="#F1FFFF" stop-opacity="0.945098"/>
            <stop offset="0.964808" stop-color="#C4DFDF"/>
            <stop offset="1" stop-color="#F1FFFF"/>
        </linearGradient>
        <linearGradient id="paint1_linear_17332_13503" x1="50.4645" y1="34.6689" x2="66.3099" y2="69.8185" gradientUnits="userSpaceOnUse">
            <stop stop-color="#B3EAEA"/>
            <stop offset="1" stop-color="#7ECCCC"/>
        </linearGradient>
        <linearGradient id="paint2_linear_17332_13503" x1="124.64" y1="61.8558" x2="113.895" y2="97.7818" gradientUnits="userSpaceOnUse">
            <stop stop-color="#EBFFFF"/>
            <stop offset="1" stop-color="#CFF7F8"/>
        </linearGradient>
    </defs>
</svg>
