<svg width="41" height="40" viewBox="0 0 24 24" fill="none" xmlns="http://www.w3.org/2000/svg">
    <mask id="mask0_14717_29465" style="mask-type:luminance" maskUnits="userSpaceOnUse" x="0" y="0" width="24" height="24">
        <path d="M24 12C24 5.37258 18.6274 3.91517e-09 12 2.5222e-09C5.37258 1.12923e-09 0 5.37258 0 12C0 18.6274 5.37258 24 12 24C18.6274 24 24 18.6274 24 12Z" fill="white"/>
    </mask>
    <g mask="url(#mask0_14717_29465)">
        <mask id="mask1_14717_29465" style="mask-type:luminance" maskUnits="userSpaceOnUse" x="-4" y="0" width="32" height="24">
            <path d="M28 6.72586e-09L-4 0V24L28 24V6.72586e-09Z" fill="white"/>
        </mask>
        <g mask="url(#mask1_14717_29465)">
            <path d="M-4 0L28 6.72586e-09V24L-4 24V0Z" fill="#003399"/>
            <path d="M12.1545 4.32576L12.3573 4.9338L12.9982 4.93878C13.0813 4.93941 13.1156 5.04528 13.0489 5.09461L12.5333 5.47536L12.7265 6.08646C12.7516 6.1655 12.6615 6.23104 12.594 6.18272L12.0726 5.81003L11.5511 6.18272C11.4837 6.23099 11.3935 6.16555 11.4186 6.08646L11.6119 5.47536L11.0962 5.09461C11.0295 5.04528 11.0639 4.93941 11.1469 4.93878L11.7878 4.9338L11.9906 4.32576C12.0168 4.24704 12.1282 4.24704 12.1545 4.32576Z" fill="#FFE15A"/>
            <path d="M12.1545 17.3803L12.3573 17.9884L12.9982 17.9933C13.0813 17.994 13.1156 18.0998 13.0489 18.1492L12.5333 18.53L12.7265 19.141C12.7516 19.2201 12.6615 19.2856 12.594 19.2373L12.0726 18.8646L11.5511 19.2373C11.4837 19.2856 11.3935 19.2202 11.4186 19.141L11.6119 18.53L11.0962 18.1492C11.0295 18.0998 11.0639 17.994 11.1469 17.9933L11.7878 17.9884L11.9906 17.3803C12.0168 17.3016 12.1282 17.3016 12.1545 17.3803Z" fill="#FFE15A"/>
            <path d="M18.6816 10.8534L18.8844 11.4614L19.5253 11.4664C19.6083 11.467 19.6427 11.5729 19.576 11.6222L19.0603 12.003L19.2537 12.614C19.2787 12.6931 19.1887 12.7586 19.1211 12.7103L18.5997 12.3376L18.0783 12.7103C18.0108 12.7585 17.9207 12.6931 17.9457 12.614L18.139 12.003L17.6234 11.6222C17.5566 11.5729 17.591 11.467 17.674 11.4664L18.3149 11.4614L18.5177 10.8534C18.5439 10.7746 18.6554 10.7746 18.6816 10.8534Z" fill="#FFE15A"/>
            <path d="M5.62689 10.8534L5.82971 11.4614L6.47062 11.4664C6.55366 11.467 6.58806 11.5729 6.52129 11.6222L6.00566 12.003L6.19894 12.614C6.22401 12.6931 6.13393 12.7586 6.06641 12.7103L5.54497 12.3376L5.02356 12.7103C4.95608 12.7585 4.86596 12.6931 4.89099 12.614L5.08429 12.003L4.56867 11.6222C4.50193 11.5729 4.5363 11.467 4.61931 11.4664L5.26024 11.4614L5.46305 10.8534C5.48929 10.7746 5.6007 10.7746 5.62689 10.8534Z" fill="#FFE15A"/>
            <path d="M6.60662 7.44454L6.80945 8.05254L7.45035 8.05755C7.53339 8.05814 7.56779 8.16406 7.50102 8.21334L6.98539 8.59414L7.17867 9.20518C7.20374 9.28427 7.11366 9.34982 7.04614 9.3015L6.5247 8.92875L6.00331 9.3015C5.93579 9.34971 5.84571 9.28432 5.87073 9.20518L6.06401 8.59414L5.54838 8.21334C5.48166 8.16406 5.51606 8.05814 5.59905 8.05755L6.23995 8.05254L6.44278 7.44454C6.46902 7.36582 6.58033 7.36582 6.60662 7.44454Z" fill="#FFE15A"/>
            <path d="M17.9126 13.9715L18.1154 14.5796L18.7563 14.5845C18.8393 14.5852 18.8737 14.691 18.8069 14.7404L18.2913 15.1212L18.4846 15.7322C18.5096 15.8112 18.4196 15.8768 18.352 15.8285L17.8306 15.4558L17.3092 15.8285C17.2417 15.8767 17.1516 15.8114 17.1766 15.7322L17.37 15.1212L16.8543 14.7404C16.7876 14.691 16.822 14.5852 16.9049 14.5845L17.5459 14.5796L17.7487 13.9715C17.775 13.8928 17.8863 13.8928 17.9126 13.9715Z" fill="#FFE15A"/>
            <path d="M15.5234 5.05538L15.7262 5.6634L16.3671 5.66841C16.4501 5.669 16.4845 5.77492 16.4178 5.82425L15.9022 6.205L16.0955 6.81604C16.1205 6.89513 16.0304 6.96068 15.9629 6.91236L15.4415 6.53961L14.92 6.91236C14.8526 6.96057 14.7624 6.89519 14.7875 6.81604L14.9808 6.205L14.4652 5.82425C14.3984 5.77492 14.4328 5.669 14.5158 5.66841L15.1567 5.6634L15.3596 5.05538C15.3858 4.97666 15.4971 4.97666 15.5234 5.05538Z" fill="#FFE15A"/>
            <path d="M8.9958 16.3606L9.19862 16.9686L9.83953 16.9736C9.92257 16.9742 9.95691 17.0801 9.8902 17.1294L9.37457 17.5102L9.56785 18.1212C9.59291 18.2003 9.50284 18.2658 9.43532 18.2176L8.91387 17.8448L8.39249 18.2176C8.32497 18.2658 8.23484 18.2003 8.2599 18.1212L8.45318 17.5102L7.93756 17.1294C7.87084 17.0801 7.90518 16.9742 7.98822 16.9736L8.62913 16.9686L8.83196 16.3606C8.8582 16.2818 8.9695 16.2818 8.9958 16.3606Z" fill="#FFE15A"/>
            <path d="M17.7487 7.44454L17.5459 8.05254L16.9049 8.05755C16.822 8.05814 16.7876 8.16406 16.8543 8.21334L17.37 8.59414L17.1766 9.20518C17.1516 9.28427 17.2417 9.34982 17.3092 9.3015L17.8306 8.92875L18.352 9.3015C18.4196 9.34971 18.5096 9.28432 18.4846 9.20518L18.2913 8.59414L18.8069 8.21334C18.8737 8.16406 18.8393 8.05814 18.7563 8.05755L18.1154 8.05254L17.9126 7.44454C17.8863 7.36582 17.775 7.36582 17.7487 7.44454Z" fill="#FFE15A"/>
            <path d="M6.44278 13.9715L6.23995 14.5796L5.59905 14.5845C5.51606 14.5852 5.48166 14.691 5.54838 14.7404L6.06401 15.1212L5.87073 15.7322C5.84571 15.8112 5.93574 15.8768 6.00331 15.8285L6.5247 15.4558L7.04614 15.8285C7.11361 15.8767 7.20374 15.8114 7.17867 15.7322L6.98539 15.1212L7.50102 14.7404C7.56779 14.691 7.53339 14.5852 7.45035 14.5845L6.80945 14.5796L6.60662 13.9715C6.58033 13.8928 6.46902 13.8928 6.44278 13.9715Z" fill="#FFE15A"/>
            <path d="M8.83196 5.05538L8.62913 5.6634L7.98822 5.66841C7.90518 5.669 7.87084 5.77492 7.93756 5.82425L8.45318 6.205L8.2599 6.81604C8.23484 6.89513 8.32492 6.96068 8.39249 6.91236L8.91387 6.53961L9.43532 6.91236C9.50278 6.96057 9.59291 6.89519 9.56785 6.81604L9.37457 6.205L9.8902 5.82425C9.95691 5.77492 9.92257 5.669 9.83953 5.66841L9.19862 5.6634L8.9958 5.05538C8.9695 4.97666 8.8582 4.97666 8.83196 5.05538Z" fill="#FFE15A"/>
            <path d="M15.3593 16.3606L15.1565 16.9686L14.5156 16.9736C14.4325 16.9742 14.3982 17.0801 14.4649 17.1294L14.9805 17.5102L14.7872 18.1212C14.7622 18.2003 14.8523 18.2658 14.9198 18.2176L15.4412 17.8448L15.9626 18.2176C16.0301 18.2658 16.1202 18.2003 16.0952 18.1212L15.9019 17.5102L16.4175 17.1294C16.4843 17.0801 16.4499 16.9742 16.3669 16.9736L15.726 16.9686L15.5231 16.3606C15.4968 16.2818 15.3855 16.2818 15.3593 16.3606Z" fill="#FFE15A"/>
        </g>
    </g>
</svg>
