<svg width="240" height="252" viewBox="0 0 240 252" fill="none" xmlns="http://www.w3.org/2000/svg">
    <path d="M143.845 91.0631C151.238 110.577 152.372 114.768 133.674 122.615C114.975 130.463 90.8626 117.003 81.0398 93.3669C71.217 69.7314 79.776 42.9193 96.857 35.751C115.556 27.9039 134.022 67.4275 143.845 91.0631Z"
          fill="url(#paint0_linear_17332_13501)"/>
    <g filter="url(#filter0_ddi_17332_13501)">
        <ellipse cx="36.7122" cy="46.3392" rx="36.7122" ry="46.3392"
                 transform="matrix(0.92209 -0.386979 0.383758 0.923435 69.3483 48.0254)" fill="#88C1F3"/>
    </g>
    <g filter="url(#filter1_d_17332_13501)">
        <ellipse cx="34.728" cy="44.3535" rx="34.728" ry="44.3535"
                 transform="matrix(0.92209 -0.386978 0.383759 0.923435 71.585 49.958)"
                 fill="url(#paint1_linear_17332_13501)"/>
    </g>
    <g filter="url(#filter2_ddi_17332_13501)">
        <path d="M127.654 54.5705L125.632 73.4836L129.104 71.978C129.591 71.767 130.178 71.8456 130.738 72.1965C131.297 72.5475 131.782 73.1419 132.086 73.8492C132.391 74.5565 132.489 75.3186 132.36 75.9679C132.231 76.6172 131.886 77.1005 131.399 77.3115L125.894 79.6983L127.424 83.2539L132.929 80.8672C133.416 80.6562 134.003 80.7348 134.562 81.0857C135.122 81.4367 135.607 82.0311 135.911 82.7384C136.216 83.4457 136.314 84.2078 136.185 84.8571C136.056 85.5064 135.71 85.9897 135.224 86.2007L129.719 88.5874L132.397 94.8099C132.701 95.5171 132.8 96.2793 132.671 96.9286C132.542 97.5779 132.196 98.0612 131.709 98.2722C131.223 98.4832 130.635 98.4046 130.076 98.0537C129.516 97.7028 129.031 97.1083 128.727 96.401L126.049 90.1786L120.545 92.5653C120.058 92.7763 119.471 92.6977 118.911 92.3468C118.352 91.9959 117.867 91.4014 117.562 90.6941C117.258 89.9869 117.16 89.2247 117.289 88.5754C117.417 87.9261 117.763 87.4428 118.25 87.2318L123.755 84.8451L122.225 81.2894L116.72 83.6761C116.233 83.8871 115.646 83.8085 115.086 83.4576C114.527 83.1067 114.042 82.5122 113.738 81.8049C113.433 81.0977 113.335 80.3355 113.464 79.6862C113.593 79.0369 113.938 78.5536 114.425 78.3426L117.893 76.839L102.79 65.3511C102.52 65.1457 102.271 64.8827 102.057 64.5771C101.843 64.2715 101.668 63.9292 101.543 63.5699C101.417 63.2105 101.342 62.8411 101.324 62.4828C101.305 62.1244 101.342 61.7841 101.434 61.4813C101.525 61.1785 101.669 60.9191 101.856 60.7179C102.044 60.5168 102.272 60.3778 102.527 60.3089C102.782 60.24 103.06 60.2426 103.344 60.3165C103.627 60.3903 103.912 60.5341 104.182 60.7394L121.1 73.6158L123.359 52.4244C123.432 51.7432 123.728 51.203 124.182 50.9226C124.636 50.6421 125.211 50.6445 125.78 50.929C126.35 51.2136 126.867 51.7572 127.218 52.4401C127.57 53.123 127.726 53.8893 127.654 54.5705Z"
              fill="url(#paint2_linear_17332_13501)" shape-rendering="crispEdges"/>
        <path d="M127.654 54.5705L125.632 73.4836L129.104 71.978C129.591 71.767 130.178 71.8456 130.738 72.1965C131.297 72.5475 131.782 73.1419 132.086 73.8492C132.391 74.5565 132.489 75.3186 132.36 75.9679C132.231 76.6172 131.886 77.1005 131.399 77.3115L125.894 79.6983L127.424 83.2539L132.929 80.8672C133.416 80.6562 134.003 80.7348 134.562 81.0857C135.122 81.4367 135.607 82.0311 135.911 82.7384C136.216 83.4457 136.314 84.2078 136.185 84.8571C136.056 85.5064 135.71 85.9897 135.224 86.2007L129.719 88.5874L132.397 94.8099C132.701 95.5171 132.8 96.2793 132.671 96.9286C132.542 97.5779 132.196 98.0612 131.709 98.2722C131.223 98.4832 130.635 98.4046 130.076 98.0537C129.516 97.7028 129.031 97.1083 128.727 96.401L126.049 90.1786L120.545 92.5653C120.058 92.7763 119.471 92.6977 118.911 92.3468C118.352 91.9959 117.867 91.4014 117.562 90.6941C117.258 89.9869 117.16 89.2247 117.289 88.5754C117.417 87.9261 117.763 87.4428 118.25 87.2318L123.755 84.8451L122.225 81.2894L116.72 83.6761C116.233 83.8871 115.646 83.8085 115.086 83.4576C114.527 83.1067 114.042 82.5122 113.738 81.8049C113.433 81.0977 113.335 80.3355 113.464 79.6862C113.593 79.0369 113.938 78.5536 114.425 78.3426L117.893 76.839L102.79 65.3511C102.52 65.1457 102.271 64.8827 102.057 64.5771C101.843 64.2715 101.668 63.9292 101.543 63.5699C101.417 63.2105 101.342 62.8411 101.324 62.4828C101.305 62.1244 101.342 61.7841 101.434 61.4813C101.525 61.1785 101.669 60.9191 101.856 60.7179C102.044 60.5168 102.272 60.3778 102.527 60.3089C102.782 60.24 103.06 60.2426 103.344 60.3165C103.627 60.3903 103.912 60.5341 104.182 60.7394L121.1 73.6158L123.359 52.4244C123.432 51.7432 123.728 51.203 124.182 50.9226C124.636 50.6421 125.211 50.6445 125.78 50.929C126.35 51.2136 126.867 51.7572 127.218 52.4401C127.57 53.123 127.726 53.8893 127.654 54.5705Z"
              stroke="#45A8FC" stroke-opacity="0.48" shape-rendering="crispEdges"/>
    </g>
    <defs>
        <filter id="filter0_ddi_17332_13501" x="2.73694" y="1.50977" width="236.493" height="250.2"
                filterUnits="userSpaceOnUse" color-interpolation-filters="sRGB">
            <feFlood flood-opacity="0" result="BackgroundImageFix"/>
            <feColorMatrix in="SourceAlpha" type="matrix" values="0 0 0 0 0 0 0 0 0 0 0 0 0 0 0 0 0 0 127 0"
                           result="hardAlpha"/>
            <feOffset dy="12"/>
            <feGaussianBlur stdDeviation="13"/>
            <feComposite in2="hardAlpha" operator="out"/>
            <feColorMatrix type="matrix" values="0 0 0 0 0 0 0 0 0 0 0 0 0 0 0 0 0 0 0.2 0"/>
            <feBlend mode="normal" in2="BackgroundImageFix" result="effect1_dropShadow_17332_13501"/>
            <feColorMatrix in="SourceAlpha" type="matrix" values="0 0 0 0 0 0 0 0 0 0 0 0 0 0 0 0 0 0 127 0"
                           result="hardAlpha"/>
            <feMorphology radius="20" operator="erode" in="SourceAlpha" result="effect2_dropShadow_17332_13501"/>
            <feOffset dy="50"/>
            <feGaussianBlur stdDeviation="50"/>
            <feComposite in2="hardAlpha" operator="out"/>
            <feColorMatrix type="matrix" values="0 0 0 0 0.196078 0 0 0 0 0.196078 0 0 0 0 0.364706 0 0 0 0.25 0"/>
            <feBlend mode="normal" in2="effect1_dropShadow_17332_13501" result="effect2_dropShadow_17332_13501"/>
            <feBlend mode="normal" in="SourceGraphic" in2="effect2_dropShadow_17332_13501" result="shape"/>
            <feColorMatrix in="SourceAlpha" type="matrix" values="0 0 0 0 0 0 0 0 0 0 0 0 0 0 0 0 0 0 127 0"
                           result="hardAlpha"/>
            <feOffset dx="-4"/>
            <feGaussianBlur stdDeviation="2.5"/>
            <feComposite in2="hardAlpha" operator="arithmetic" k2="-1" k3="1"/>
            <feColorMatrix type="matrix" values="0 0 0 0 0.0792906 0 0 0 0 0.243589 0 0 0 0 0.407887 0 0 0 0.4 0"/>
            <feBlend mode="normal" in2="shape" result="effect3_innerShadow_17332_13501"/>
        </filter>
        <filter id="filter1_d_17332_13501" x="4.3562" y="4.35889" width="232.544" height="246.235"
                filterUnits="userSpaceOnUse" color-interpolation-filters="sRGB">
            <feFlood flood-opacity="0" result="BackgroundImageFix"/>
            <feColorMatrix in="SourceAlpha" type="matrix" values="0 0 0 0 0 0 0 0 0 0 0 0 0 0 0 0 0 0 127 0"
                           result="hardAlpha"/>
            <feMorphology radius="20" operator="erode" in="SourceAlpha" result="effect1_dropShadow_17332_13501"/>
            <feOffset dy="50"/>
            <feGaussianBlur stdDeviation="50"/>
            <feComposite in2="hardAlpha" operator="out"/>
            <feColorMatrix type="matrix" values="0 0 0 0 0.196078 0 0 0 0 0.196078 0 0 0 0 0.364706 0 0 0 0.25 0"/>
            <feBlend mode="normal" in2="BackgroundImageFix" result="effect1_dropShadow_17332_13501"/>
            <feBlend mode="normal" in="SourceGraphic" in2="effect1_dropShadow_17332_13501" result="shape"/>
        </filter>
        <filter id="filter2_ddi_17332_13501" x="0.819458" y="0.213379" width="235.921" height="248.676"
                filterUnits="userSpaceOnUse" color-interpolation-filters="sRGB">
            <feFlood flood-opacity="0" result="BackgroundImageFix"/>
            <feColorMatrix in="SourceAlpha" type="matrix" values="0 0 0 0 0 0 0 0 0 0 0 0 0 0 0 0 0 0 127 0"
                           result="hardAlpha"/>
            <feOffset/>
            <feGaussianBlur stdDeviation="5"/>
            <feComposite in2="hardAlpha" operator="out"/>
            <feColorMatrix type="matrix" values="0 0 0 0 0.370248 0 0 0 0 0.653334 0 0 0 0 0.913774 0 0 0 0.47 0"/>
            <feBlend mode="normal" in2="BackgroundImageFix" result="effect1_dropShadow_17332_13501"/>
            <feColorMatrix in="SourceAlpha" type="matrix" values="0 0 0 0 0 0 0 0 0 0 0 0 0 0 0 0 0 0 127 0"
                           result="hardAlpha"/>
            <feOffset dy="50"/>
            <feGaussianBlur stdDeviation="50"/>
            <feComposite in2="hardAlpha" operator="out"/>
            <feColorMatrix type="matrix" values="0 0 0 0 0.900962 0 0 0 0 0.954104 0 0 0 0 1 0 0 0 1 0"/>
            <feBlend mode="normal" in2="effect1_dropShadow_17332_13501" result="effect2_dropShadow_17332_13501"/>
            <feBlend mode="normal" in="SourceGraphic" in2="effect2_dropShadow_17332_13501" result="shape"/>
            <feColorMatrix in="SourceAlpha" type="matrix" values="0 0 0 0 0 0 0 0 0 0 0 0 0 0 0 0 0 0 127 0"
                           result="hardAlpha"/>
            <feOffset dy="-2"/>
            <feGaussianBlur stdDeviation="4"/>
            <feComposite in2="hardAlpha" operator="arithmetic" k2="-1" k3="1"/>
            <feColorMatrix type="matrix" values="0 0 0 0 0.71237 0 0 0 0 0.790548 0 0 0 0 0.857 0 0 0 0.3 0"/>
            <feBlend mode="normal" in2="shape" result="effect3_innerShadow_17332_13501"/>
        </filter>
        <linearGradient id="paint0_linear_17332_13501" x1="90.1466" y1="38.5671" x2="129.271" y2="124.093"
                        gradientUnits="userSpaceOnUse">
            <stop stop-color="#E2F3FF"/>
            <stop offset="0.0733458" stop-color="#A7D6FF"/>
            <stop offset="0.145946" stop-color="#E2F3FF"/>
            <stop offset="0.224625" stop-color="#A7D6FF"/>
            <stop offset="0.849716" stop-color="#A7D6FF"/>
            <stop offset="0.914773" stop-color="#E2F3FF"/>
            <stop offset="0.964808" stop-color="#A7D6FF"/>
            <stop offset="1" stop-color="#E2F3FF" stop-opacity="0.886275"/>
        </linearGradient>
        <linearGradient id="paint1_linear_17332_13501" x1="40.3603" y1="16.2892" x2="43.4581" y2="92.1915"
                        gradientUnits="userSpaceOnUse">
            <stop stop-color="#BEDFFF"/>
            <stop offset="1" stop-color="#64B3F5"/>
        </linearGradient>
        <linearGradient id="paint2_linear_17332_13501" x1="117.7" y1="60.5157" x2="132.088" y2="98.1275"
                        gradientUnits="userSpaceOnUse">
            <stop stop-color="#EDF7FF"/>
            <stop offset="1" stop-color="#CFE9FF"/>
        </linearGradient>
    </defs>
</svg>
