<svg width="231" height="250" viewBox="0 0 231 250" fill="none" xmlns="http://www.w3.org/2000/svg">
    <path d="M92.9053 87.9722C83.5053 106.511 81.8608 110.496 95.9533 118.077C110.046 125.659 132.885 113.059 144.985 90.6093C157.086 68.1597 154.608 45.3192 142.69 36.8849C114.541 16.9659 107.196 54.7275 92.9053 87.9722Z"
          fill="url(#paint0_linear_17332_13485)"/>
    <g filter="url(#filter0_ddi_17332_13485)">
        <ellipse cx="27.7358" cy="46.1781" rx="27.7358" ry="46.1781"
                 transform="matrix(-0.880651 -0.473766 -0.474484 0.880264 160.068 46.5723)" fill="#839FCC"/>
    </g>
    <g filter="url(#filter1_d_17332_13485)">
        <ellipse cx="26.2365" cy="44.199" rx="26.2365" ry="44.199"
                 transform="matrix(-0.880651 -0.473766 -0.474484 0.880264 157.936 48.4219)"
                 fill="url(#paint1_linear_17332_13485)"/>
    </g>
    <g filter="url(#filter2_ddi_17332_13485)">
        <path d="M125.341 70.0814C124.989 70.7459 124.508 71.307 124.003 71.6415C123.498 71.9759 123.011 72.0562 122.648 71.8646L119.462 70.1797C117.583 73.7212 115.016 76.7115 112.324 78.4945C109.632 80.2775 107.034 80.7076 105.101 79.6904L104.532 79.3895L105.391 95.6441C105.409 95.9356 105.378 96.2609 105.298 96.601C105.218 96.9411 105.092 97.2894 104.926 97.6256C104.761 97.9618 104.559 98.2792 104.333 98.5595C104.107 98.8398 103.861 99.0774 103.61 99.2585C103.358 99.4396 103.106 99.5606 102.868 99.6144C102.63 99.6683 102.41 99.654 102.223 99.5724C102.035 99.4908 101.882 99.3434 101.773 99.1389C101.665 98.9343 101.602 98.6767 101.59 98.3808L100.423 76.3828C100.4 75.9337 100.493 75.4112 100.691 74.8843C100.889 74.3574 101.183 73.8508 101.534 73.4316C101.884 73.0124 102.275 72.7002 102.654 72.5362C103.034 72.3722 103.384 72.3642 103.659 72.5132L107.756 74.6796C108.963 75.318 110.587 75.0504 112.27 73.9356C113.953 72.8209 115.558 70.9503 116.731 68.7354L108.083 64.162C107.721 63.9705 107.513 63.5228 107.506 62.9176C107.499 62.3123 107.692 61.599 108.044 60.9345C108.396 60.27 108.878 59.7089 109.383 59.3744C109.888 59.04 110.375 58.9597 110.737 59.1512L118.475 63.2433C118.6 61.9819 118.497 60.8493 118.172 59.9353C117.847 59.0212 117.31 58.3508 116.603 57.9771L112.506 55.8107C112.144 55.6192 111.937 55.1716 111.93 54.5663C111.922 53.9611 112.116 53.2477 112.468 52.5833C112.82 51.9188 113.301 51.3576 113.806 51.0232C114.311 50.6888 114.799 50.6085 115.161 50.8L129.726 58.5027C130.089 58.6942 130.296 59.1418 130.303 59.7471C130.311 60.3524 130.117 61.0657 129.765 61.7302C129.413 62.3946 128.931 62.9558 128.426 63.2902C127.921 63.6246 127.434 63.7049 127.072 63.5134L122.283 60.9806C122.189 62.2271 121.954 63.543 121.583 64.8867L125.303 66.8539C125.665 67.0454 125.872 67.4931 125.88 68.0983C125.887 68.7036 125.693 69.4169 125.341 70.0814Z"
              fill="url(#paint2_linear_17332_13485)"/>
        <path d="M119.696 69.7379L119.254 69.5043L119.02 69.9457C117.171 73.431 114.656 76.3508 112.048 78.0779C109.428 79.813 107.036 80.143 105.335 79.2485C105.335 79.2483 105.335 79.2482 105.334 79.2481L104.766 78.9476L103.986 78.5351L104.033 79.416L104.891 95.6707L104.891 95.6707L104.891 95.6762C104.906 95.9103 104.882 96.1858 104.811 96.4872C104.741 96.7878 104.628 97.1003 104.478 97.4049C104.328 97.7094 104.146 97.9955 103.944 98.2459C103.741 98.4969 103.527 98.7018 103.317 98.8529C103.106 99.005 102.915 99.0913 102.758 99.1269C102.603 99.162 102.495 99.1456 102.422 99.114C102.352 99.0833 102.278 99.0228 102.215 98.9044C102.15 98.7813 102.1 98.6008 102.089 98.3594L102.089 98.3542L100.923 76.3561L100.923 76.3561C100.903 75.9909 100.979 75.5381 101.159 75.06C101.338 74.5841 101.604 74.1268 101.917 73.7521C102.233 73.3742 102.564 73.1196 102.853 72.995C103.14 72.8708 103.321 72.8989 103.42 72.9526L103.42 72.9526L103.425 72.9551L107.521 75.1214C108.961 75.8827 110.791 75.5147 112.546 74.3523C114.314 73.1815 115.97 71.2403 117.173 68.9692L117.407 68.5273L116.965 68.2936L108.317 63.7202C108.187 63.6515 108.012 63.4304 108.006 62.9114C108 62.4076 108.164 61.7764 108.486 61.1682C108.808 60.56 109.238 60.0695 109.659 59.7911C110.092 59.5043 110.373 59.5244 110.503 59.5931L118.241 63.6851L118.899 64.0331L118.973 63.2925C119.103 61.9794 118.999 60.7691 118.643 59.7678C118.286 58.7624 117.677 57.9795 116.837 57.5353L112.741 55.3689C112.611 55.3003 112.436 55.0792 112.43 54.5602C112.424 54.0563 112.588 53.4252 112.91 52.817C113.232 52.2088 113.662 51.7182 114.083 51.4398C114.516 51.1531 114.797 51.1732 114.927 51.2418L129.492 58.9445C129.622 59.0131 129.797 59.2342 129.803 59.7532C129.809 60.2571 129.645 60.8882 129.323 61.4964C129.001 62.1046 128.571 62.5952 128.15 62.8736C127.717 63.1603 127.436 63.1402 127.306 63.0716L122.517 60.5387L121.841 60.1813L121.784 60.9435C121.693 62.1543 121.464 63.438 121.101 64.7539L120.994 65.1409L121.349 65.3286L125.069 67.2957C125.198 67.3644 125.373 67.5855 125.379 68.1045C125.385 68.6083 125.221 69.2394 124.899 69.8477C124.577 70.4559 124.147 70.9464 123.727 71.2248C123.294 71.5116 123.012 71.4915 122.882 71.4228L119.696 69.7379Z"
              stroke="#D0DCEE"/>
    </g>
    <defs>
        <filter id="filter0_ddi_17332_13485" x="60.918" y="15.3491" width="105.626" height="130.463"
                filterUnits="userSpaceOnUse" color-interpolation-filters="sRGB">
            <feFlood flood-opacity="0" result="BackgroundImageFix"/>
            <feColorMatrix in="SourceAlpha" type="matrix" values="0 0 0 0 0 0 0 0 0 0 0 0 0 0 0 0 0 0 127 0"
                           result="hardAlpha"/>
            <feOffset dy="4"/>
            <feGaussianBlur stdDeviation="10"/>
            <feComposite in2="hardAlpha" operator="out"/>
            <feColorMatrix type="matrix" values="0 0 0 0 0 0 0 0 0 0 0 0 0 0 0 0 0 0 0.08 0"/>
            <feBlend mode="normal" in2="BackgroundImageFix" result="effect1_dropShadow_17332_13485"/>
            <feColorMatrix in="SourceAlpha" type="matrix" values="0 0 0 0 0 0 0 0 0 0 0 0 0 0 0 0 0 0 127 0"
                           result="hardAlpha"/>
            <feOffset dy="13"/>
            <feGaussianBlur stdDeviation="8"/>
            <feComposite in2="hardAlpha" operator="out"/>
            <feColorMatrix type="matrix" values="0 0 0 0 0.196078 0 0 0 0 0.196078 0 0 0 0 0.364706 0 0 0 0.14 0"/>
            <feBlend mode="normal" in2="effect1_dropShadow_17332_13485" result="effect2_dropShadow_17332_13485"/>
            <feBlend mode="normal" in="SourceGraphic" in2="effect2_dropShadow_17332_13485" result="shape"/>
            <feColorMatrix in="SourceAlpha" type="matrix" values="0 0 0 0 0 0 0 0 0 0 0 0 0 0 0 0 0 0 127 0"
                           result="hardAlpha"/>
            <feOffset dx="-4"/>
            <feGaussianBlur stdDeviation="2.5"/>
            <feComposite in2="hardAlpha" operator="arithmetic" k2="-1" k3="1"/>
            <feColorMatrix type="matrix" values="0 0 0 0 0.68258 0 0 0 0 0.758489 0 0 0 0 0.887534 0 0 0 1 0"/>
            <feBlend mode="normal" in2="shape" result="effect3_innerShadow_17332_13485"/>
        </filter>
        <filter id="filter1_d_17332_13485" x="2.65479" y="4.04346" width="222.408" height="241.71"
                filterUnits="userSpaceOnUse" color-interpolation-filters="sRGB">
            <feFlood flood-opacity="0" result="BackgroundImageFix"/>
            <feColorMatrix in="SourceAlpha" type="matrix" values="0 0 0 0 0 0 0 0 0 0 0 0 0 0 0 0 0 0 127 0"
                           result="hardAlpha"/>
            <feMorphology radius="20" operator="erode" in="SourceAlpha" result="effect1_dropShadow_17332_13485"/>
            <feOffset dy="50"/>
            <feGaussianBlur stdDeviation="50"/>
            <feComposite in2="hardAlpha" operator="out"/>
            <feColorMatrix type="matrix" values="0 0 0 0 0.196078 0 0 0 0 0.196078 0 0 0 0 0.364706 0 0 0 0.25 0"/>
            <feBlend mode="normal" in2="BackgroundImageFix" result="effect1_dropShadow_17332_13485"/>
            <feBlend mode="normal" in="SourceGraphic" in2="effect1_dropShadow_17332_13485" result="shape"/>
        </filter>
        <filter id="filter2_ddi_17332_13485" x="0.419678" y="0.698242" width="229.884" height="248.948"
                filterUnits="userSpaceOnUse" color-interpolation-filters="sRGB">
            <feFlood flood-opacity="0" result="BackgroundImageFix"/>
            <feColorMatrix in="SourceAlpha" type="matrix" values="0 0 0 0 0 0 0 0 0 0 0 0 0 0 0 0 0 0 127 0"
                           result="hardAlpha"/>
            <feOffset/>
            <feGaussianBlur stdDeviation="5"/>
            <feComposite in2="hardAlpha" operator="out"/>
            <feColorMatrix type="matrix" values="0 0 0 0 0.82499 0 0 0 0 0.870497 0 0 0 0 0.936011 0 0 0 1 0"/>
            <feBlend mode="normal" in2="BackgroundImageFix" result="effect1_dropShadow_17332_13485"/>
            <feColorMatrix in="SourceAlpha" type="matrix" values="0 0 0 0 0 0 0 0 0 0 0 0 0 0 0 0 0 0 127 0"
                           result="hardAlpha"/>
            <feOffset dy="50"/>
            <feGaussianBlur stdDeviation="50"/>
            <feComposite in2="hardAlpha" operator="out"/>
            <feColorMatrix type="matrix" values="0 0 0 0 0.900962 0 0 0 0 0.954104 0 0 0 0 1 0 0 0 1 0"/>
            <feBlend mode="normal" in2="effect1_dropShadow_17332_13485" result="effect2_dropShadow_17332_13485"/>
            <feBlend mode="normal" in="SourceGraphic" in2="effect2_dropShadow_17332_13485" result="shape"/>
            <feColorMatrix in="SourceAlpha" type="matrix" values="0 0 0 0 0 0 0 0 0 0 0 0 0 0 0 0 0 0 127 0"
                           result="hardAlpha"/>
            <feOffset dy="-2"/>
            <feGaussianBlur stdDeviation="4"/>
            <feComposite in2="hardAlpha" operator="arithmetic" k2="-1" k3="1"/>
            <feColorMatrix type="matrix" values="0 0 0 0 0.71237 0 0 0 0 0.790548 0 0 0 0 0.857 0 0 0 0.3 0"/>
            <feBlend mode="normal" in2="shape" result="effect3_innerShadow_17332_13485"/>
        </filter>
        <linearGradient id="paint0_linear_17332_13485" x1="146.074" y1="38.2962" x2="98.4175" y2="118.968"
                        gradientUnits="userSpaceOnUse">
            <stop stop-color="#E7F1FF"/>
            <stop offset="0.0733458" stop-color="#AEBFDB"/>
            <stop offset="0.145946" stop-color="#E7F1FF"/>
            <stop offset="0.224625" stop-color="#AEBFDB"/>
            <stop offset="0.849716" stop-color="#AEBFDB"/>
            <stop offset="0.914773" stop-color="#E7F1FF"/>
            <stop offset="0.964808" stop-color="#AEBFDB"/>
            <stop offset="1" stop-color="#E7F1FF"/>
        </linearGradient>
        <linearGradient id="paint1_linear_17332_13485" x1="32.4833" y1="34.6336" x2="52.3285" y2="62.999"
                        gradientUnits="userSpaceOnUse">
            <stop stop-color="#DFE5F1"/>
            <stop offset="1" stop-color="#A5BBDE"/>
        </linearGradient>
        <linearGradient id="paint2_linear_17332_13485" x1="122.44" y1="54.6493" x2="96.6204" y2="109.42"
                        gradientUnits="userSpaceOnUse">
            <stop stop-color="white"/>
            <stop offset="1" stop-color="#D7E7FF"/>
        </linearGradient>
    </defs>
</svg>
