<svg width="131" height="32" viewBox="0 0 131 32" fill="none" xmlns="http://www.w3.org/2000/svg">
    <path fill-rule="evenodd" clip-rule="evenodd" d="M45.295 12.9523C45.295 12.6998 45.0903 12.4951 44.8379 12.4951H40.6857C40.4332 12.4951 40.2285 12.6998 40.2285 12.9523V31.5427C40.2285 31.7952 40.4332 31.9998 40.6857 31.9998H44.8379C45.0903 31.9998 45.295 31.7952 45.295 31.5427V25.8078C45.295 25.7678 45.3107 25.7294 45.3387 25.7009L46.8867 24.1265C46.9546 24.0576 47.0686 24.0684 47.1222 24.1489L52.2144 31.7961C52.2992 31.9234 52.442 31.9998 52.5949 31.9998H57.8048C58.1752 31.9998 58.3918 31.5823 58.1785 31.2795L50.5638 20.4665C50.5214 20.4063 50.5281 20.3244 50.5798 20.2719L57.4643 13.2728C57.7486 12.9838 57.5438 12.4951 57.1383 12.4951H51.9321C51.8057 12.4951 51.6849 12.5474 51.5985 12.6397L45.5586 19.0851C45.4641 19.1859 45.295 19.119 45.295 18.9809V12.9523ZM81.6446 12.4951C81.8065 12.4951 81.9564 12.5808 82.0385 12.7203L85.7746 19.0661C85.8337 19.1663 85.9787 19.1661 86.0375 19.0657L89.7504 12.7214C89.8324 12.5812 89.9826 12.4951 90.145 12.4951H94.7812C95.1364 12.4951 95.3559 12.8824 95.1734 13.1871L88.4415 24.4299C88.399 24.5008 88.3766 24.582 88.3766 24.6647V31.5427C88.3766 31.7952 88.1719 31.9998 87.9194 31.9998H83.7673C83.5148 31.9998 83.3101 31.7952 83.3101 31.5427V24.5607C83.3101 24.4782 83.2878 24.3971 83.2454 24.3263L76.5903 13.1867C76.4083 12.882 76.6278 12.4951 76.9828 12.4951H81.6446ZM60.3314 12.9523C60.3314 12.6998 60.5361 12.4951 60.7885 12.4951H74.6364C74.8889 12.4951 75.0936 12.6998 75.0936 12.9523V16.4873C75.0936 16.7398 74.8889 16.9445 74.6364 16.9445H65.5502C65.4661 16.9445 65.3978 17.0127 65.3978 17.0969V19.7152C65.3978 19.7994 65.4661 19.8676 65.5502 19.8676H73.8392C74.0917 19.8676 74.2964 20.0723 74.2964 20.3247V23.6011C74.2964 23.8536 74.0917 24.0582 73.8392 24.0582H65.5502C65.4661 24.0582 65.3978 24.1265 65.3978 24.2106V27.3981C65.3978 27.4823 65.4661 27.5505 65.5502 27.5505H74.8422C75.0947 27.5505 75.2993 27.7552 75.2993 28.0077V31.5427C75.2993 31.7952 75.0947 31.9998 74.8422 31.9998H60.7885C60.5361 31.9998 60.3314 31.7952 60.3314 31.5427V12.9523Z" fill="#0D153F"/>
    <path fill-rule="evenodd" clip-rule="evenodd" d="M117.206 31.9998C117.362 31.9998 117.507 31.9204 117.591 31.7891L121.131 26.2577C121.191 26.1636 121.329 26.1642 121.388 26.2589L124.859 31.7858C124.942 31.919 125.089 31.9998 125.246 31.9998H130.196C130.56 31.9998 130.778 31.5938 130.576 31.2899L124.469 22.088C124.368 21.9344 124.368 21.7347 124.47 21.5814L130.062 13.2061C130.264 12.9023 130.047 12.4951 129.681 12.4951H125.117C124.96 12.4951 124.815 12.5755 124.731 12.708L121.557 17.727C121.497 17.8224 121.357 17.8213 121.299 17.7249L118.24 12.7141C118.157 12.5781 118.009 12.4951 117.85 12.4951H113.027C112.661 12.4951 112.444 12.9037 112.648 13.2074L118.263 21.5569C118.366 21.7102 118.367 21.9104 118.265 22.0644L112.158 31.2904C111.957 31.5943 112.175 31.9998 112.539 31.9998H117.206ZM97.25 12.9523C97.25 12.6998 97.4547 12.4951 97.7071 12.4951H110.732C110.985 12.4951 111.19 12.6998 111.19 12.9523V16.4873C111.19 16.7398 110.985 16.9445 110.732 16.9445H102.469C102.385 16.9445 102.317 17.0127 102.317 17.0969V20.0256C102.317 20.1098 102.385 20.178 102.469 20.178H109.549C109.801 20.178 110.006 20.3827 110.006 20.6352V23.9115C110.006 24.164 109.801 24.3687 109.549 24.3687H102.469C102.385 24.3687 102.317 24.4369 102.317 24.5211V31.5427C102.317 31.7952 102.112 31.9998 101.86 31.9998H97.7071C97.4547 31.9998 97.25 31.7952 97.25 31.5427V12.9523Z" fill="#00D2D3"/>
    <path d="M24.589 0H2.73595C1.22493 0 0 1.22802 0 2.74285V29.2517C0 31.8226 3.2112 32.9808 4.84489 30.999L26.6979 4.49017C28.1723 2.70166 26.9034 0 24.589 0Z" fill="#0D153F"/>
    <path d="M4.83313 14.4838L14.2556 30.6419C14.7463 31.4832 15.6454 32.0004 16.6176 32.0004H33.8302C35.004 32.0004 35.7348 30.7234 35.1424 29.7075L25.7199 13.5495C25.2293 12.7081 24.3301 12.1909 23.358 12.1909H6.14532C4.97157 12.1909 4.24074 13.4679 4.83313 14.4838Z" fill="#00D2D3"/>
    <path fill-rule="evenodd" clip-rule="evenodd" d="M20.3497 12.1909H6.14532C4.97157 12.1909 4.24074 13.4679 4.83313 14.4838L10.4787 24.165L20.3497 12.1909Z" fill="white"/>
</svg>
