<svg width="24" height="24" viewBox="0 0 24 24" fill="none" xmlns="http://www.w3.org/2000/svg">
    <g clip-path="url(#clip0_14717_20810)">
        <g clip-path="url(#clip1_14717_20810)">
            <mask id="mask0_14717_20810" style="mask-type:luminance" maskUnits="userSpaceOnUse" x="-4" y="0" width="32" height="24">
                <rect x="-4" width="32" height="24" fill="white"/>
            </mask>
            <g mask="url(#mask0_14717_20810)">
                <path fill-rule="evenodd" clip-rule="evenodd" d="M-4 0V24H28V0H-4Z" fill="#2E42A5"/>
                <mask id="mask1_14717_20810" style="mask-type:luminance" maskUnits="userSpaceOnUse" x="-4" y="0" width="32" height="24">
                    <path fill-rule="evenodd" clip-rule="evenodd" d="M-4 0V24H28V0H-4Z" fill="white"/>
                </mask>
                <g mask="url(#mask1_14717_20810)">
                    <mask id="mask2_14717_20810" style="mask-type:luminance" maskUnits="userSpaceOnUse" x="-4" y="0" width="32" height="24">
                        <rect x="-4" width="32" height="24" fill="white"/>
                    </mask>
                    <g mask="url(#mask2_14717_20810)">
                        <path d="M-7.56299 22.2854L-0.521298 25.2634L28.1599 3.23781L31.8743 -1.18767L24.3442 -2.18303L12.6458 7.30844L3.2298 13.7035L-7.56299 22.2854Z" fill="white"/>
                        <path d="M-6.59888 24.3719L-3.01146 26.1001L30.5406 -1.59884H25.5034L-6.59888 24.3719Z" fill="#F50100"/>
                        <path d="M31.5632 22.2854L24.5215 25.2634L-4.15969 3.23781L-7.87402 -1.18767L-0.343952 -2.18303L11.3544 7.30844L20.7704 13.7035L31.5632 22.2854Z" fill="white"/>
                        <path d="M31.323 23.7829L27.7356 25.5111L13.4488 13.6518L9.21305 12.3267L-8.23139 -1.17246H-3.19424L14.2404 12.0063L18.8714 13.5952L31.323 23.7829Z" fill="#F50100"/>
                        <mask id="path-10-inside-1_14717_20810" fill="white">
                            <path fill-rule="evenodd" clip-rule="evenodd" d="M15.7778 -2H8.22227V8H-5.97241V16H8.22227V26H15.7778V16H30.0276V8H15.7778V-2Z"/>
                        </mask>
                        <path fill-rule="evenodd" clip-rule="evenodd" d="M15.7778 -2H8.22227V8H-5.97241V16H8.22227V26H15.7778V16H30.0276V8H15.7778V-2Z" fill="#F50100"/>
                        <path d="M8.22227 -2V-4H6.22227V-2H8.22227ZM15.7778 -2H17.7778V-4H15.7778V-2ZM8.22227 8V10H10.2223V8H8.22227ZM-5.97241 8V6H-7.97241V8H-5.97241ZM-5.97241 16H-7.97241V18H-5.97241V16ZM8.22227 16H10.2223V14H8.22227V16ZM8.22227 26H6.22227V28H8.22227V26ZM15.7778 26V28H17.7778V26H15.7778ZM15.7778 16V14H13.7778V16H15.7778ZM30.0276 16V18H32.0276V16H30.0276ZM30.0276 8H32.0276V6H30.0276V8ZM15.7778 8H13.7778V10H15.7778V8ZM8.22227 0H15.7778V-4H8.22227V0ZM10.2223 8V-2H6.22227V8H10.2223ZM-5.97241 10H8.22227V6H-5.97241V10ZM-3.97241 16V8H-7.97241V16H-3.97241ZM8.22227 14H-5.97241V18H8.22227V14ZM10.2223 26V16H6.22227V26H10.2223ZM15.7778 24H8.22227V28H15.7778V24ZM13.7778 16V26H17.7778V16H13.7778ZM30.0276 14H15.7778V18H30.0276V14ZM28.0276 8V16H32.0276V8H28.0276ZM15.7778 10H30.0276V6H15.7778V10ZM13.7778 -2V8H17.7778V-2H13.7778Z" fill="white" mask="url(#path-10-inside-1_14717_20810)"/>
                    </g>
                </g>
            </g>
            <rect x="-4" width="32" height="24" fill="url(#paint0_linear_14717_20810)" style="mix-blend-mode:overlay"/>
        </g>
    </g>
    <defs>
        <linearGradient id="paint0_linear_14717_20810" x1="28" y1="1.19273e-06" x2="-4" y2="24" gradientUnits="userSpaceOnUse">
            <stop stop-color="white" stop-opacity="0.3"/>
            <stop offset="0.262741" stop-opacity="0.27"/>
            <stop offset="0.369956" stop-color="white" stop-opacity="0.26"/>
            <stop offset="0.487001" stop-opacity="0.55"/>
            <stop offset="0.594445" stop-opacity="0.24"/>
            <stop offset="0.736408" stop-color="white" stop-opacity="0.3"/>
            <stop offset="0.901459" stop-color="#272727" stop-opacity="0.22"/>
            <stop offset="1" stop-opacity="0.2"/>
        </linearGradient>
        <clipPath id="clip0_14717_20810">
            <path d="M0 12C0 5.37258 5.37258 0 12 0C18.6274 0 24 5.37258 24 12C24 18.6274 18.6274 24 12 24C5.37258 24 0 18.6274 0 12Z" fill="white"/>
        </clipPath>
        <clipPath id="clip1_14717_20810">
            <rect width="32" height="24" fill="white" transform="translate(-4)"/>
        </clipPath>
    </defs>
</svg>
