<svg width="48" height="39" viewBox="0 0 48 39" fill="none" xmlns="http://www.w3.org/2000/svg">
    <path fill-rule="evenodd" clip-rule="evenodd" d="M19.2 0.600006H28.8C37.851 0.600006 42.3764 0.600006 45.1882 3.41178C48 6.22356 48 10.749 48 19.8C48 28.851 48 33.3765 45.1882 36.1882C42.3764 39 37.851 39 28.8 39H19.2C10.149 39 5.62355 39 2.81178 36.1882C0 33.3765 0 28.851 0 19.8C0 10.749 0 6.22356 2.81178 3.41178C5.62355 0.600006 10.149 0.600006 19.2 0.600006ZM27 12.6C27 11.6059 27.8059 10.8 28.8 10.8H40.8C41.7941 10.8 42.6 11.6059 42.6 12.6C42.6 13.5941 41.7941 14.4 40.8 14.4H28.8C27.8059 14.4 27 13.5941 27 12.6ZM29.4 19.8C29.4 18.8059 30.2059 18 31.2 18H40.8C41.7941 18 42.6 18.8059 42.6 19.8C42.6 20.7941 41.7941 21.6 40.8 21.6H31.2C30.2059 21.6 29.4 20.7941 29.4 19.8ZM31.8 27C31.8 26.0059 32.6059 25.2 33.6 25.2H40.8C41.7941 25.2 42.6 26.0059 42.6 27C42.6 27.9941 41.7941 28.8 40.8 28.8H33.6C32.6059 28.8 31.8 27.9941 31.8 27ZM21.6 12.6C21.6 15.251 19.451 17.4 16.8 17.4C14.149 17.4 12 15.251 12 12.6C12 9.94904 14.149 7.80001 16.8 7.80001C19.451 7.80001 21.6 9.94904 21.6 12.6ZM16.8 31.8C26.4 31.8 26.4 29.651 26.4 27C26.4 24.349 22.1019 22.2 16.8 22.2C11.4981 22.2 7.2 24.349 7.2 27C7.2 29.651 7.2 31.8 16.8 31.8Z" fill="#fff"/>
</svg>
