<svg width="52" height="42" viewBox="0 0 52 42" fill="none" xmlns="http://www.w3.org/2000/svg">
    <path d="M31.5198 0.400024H21.2798C11.6254 0.400024 6.79826 0.400024 3.79903 3.44611C1.63957 5.63932 1.03493 8.79496 0.865639 14.05L0.801656 18.8H51.998L51.934 14.05C51.7647 8.79496 51.16 5.63932 49.0006 3.44611C46.0014 0.400024 41.1742 0.400024 31.5198 0.400024Z" fill="url(#paint0_linear_14775_14498)"/>
    <path d="M21.2798 42H31.5198C41.1742 42 46.0014 42 49.0006 38.9539C51.9998 35.9078 51.9998 31.0052 51.9998 21.2C51.9998 20.051 51.9998 18.9693 51.995 17.95H0.804631C0.799805 18.9693 0.799805 20.051 0.799805 21.2C0.799805 31.0052 0.799805 35.9078 3.79903 38.9539C6.79826 42 11.6254 42 21.2798 42Z" fill="url(#paint1_linear_14775_14498)"/>
    <path fill-rule="evenodd" clip-rule="evenodd" d="M8.7998 31.15C8.7998 30.0731 9.65942 29.2 10.7198 29.2H20.9598C22.0202 29.2 22.8798 30.0731 22.8798 31.15C22.8798 32.227 22.0202 33.1 20.9598 33.1H10.7198C9.65942 33.1 8.7998 32.227 8.7998 31.15Z" fill="white"/>
    <path fill-rule="evenodd" clip-rule="evenodd" d="M25.4398 31.15C25.4398 30.0731 26.2994 29.2 27.3598 29.2H31.1998C32.2602 29.2 33.1198 30.0731 33.1198 31.15C33.1198 32.227 32.2602 33.1 31.1998 33.1H27.3598C26.2994 33.1 25.4398 32.227 25.4398 31.15Z" fill="white"/>
    <rect x="0.799805" y="13.2" width="51.2" height="4.8" fill="white"/>
    <defs>
        <linearGradient id="paint0_linear_14775_14498" x1="23.6882" y1="18.0007" x2="28.869" y2="44.1124" gradientUnits="userSpaceOnUse">
            <stop offset="0.0076178" stop-color="#00D2D3"/>
            <stop offset="0.91" stop-color="#00B3FF"/>
        </linearGradient>
        <linearGradient id="paint1_linear_14775_14498" x1="23.6882" y1="18.0007" x2="28.869" y2="44.1124" gradientUnits="userSpaceOnUse">
            <stop offset="0.0076178" stop-color="#00D2D3"/>
            <stop offset="0.91" stop-color="#00B3FF"/>
        </linearGradient>
    </defs>
</svg>
