<svg width="52" height="42" viewBox="0 0 52 42" fill="none" xmlns="http://www.w3.org/2000/svg">
    <path fill-rule="evenodd" clip-rule="evenodd" d="M20.48 0H30.72C40.3744 0 45.2015 0 48.2008 3.04609C50.3602 5.2393 50.9649 8.39494 51.1342 13.65L51.1952 17.55C51.2 18.5693 51.2 19.651 51.2 20.8C51.2 30.6052 51.2 35.5078 48.2008 38.5539C45.2015 41.6 40.3744 41.6 30.72 41.6H20.48C10.8256 41.6 5.99845 41.6 2.99923 38.5539C0 35.5078 0 30.6052 0 20.8C0 20.3986 0 20.1718 0.000205809 19.9451C0.000472882 19.6509 0.00108653 19.3567 0.0024965 18.6807L0.00249655 18.6807L0.00482636 17.55L0.065834 13.65C0.235128 8.39494 0.839762 5.2393 2.99923 3.04609C5.99845 0 10.8256 0 20.48 0ZM32.1044 15.5636C30.8941 15.5636 29.913 14.5868 29.913 13.3818C29.913 12.1768 30.8941 11.2 32.1044 11.2H39.4087C40.6189 11.2 41.6 12.1768 41.6 13.3818V20.6545C41.6 21.8595 40.6189 22.8364 39.4087 22.8364C38.1985 22.8364 37.2174 21.8595 37.2174 20.6545V18.6492L31.3372 24.5039C29.3404 26.492 26.103 26.492 24.1063 24.5039L19.473 19.8907C19.1878 19.6067 18.7253 19.6067 18.44 19.8907L11.7408 26.561C10.885 27.413 9.49758 27.413 8.64182 26.561C7.78606 25.7089 7.78606 24.3275 8.64182 23.4754L15.3411 16.8052C17.3378 14.817 20.5752 14.817 22.572 16.8052L27.2052 21.4184C27.4905 21.7024 27.953 21.7024 28.2382 21.4184L34.1184 15.5636H32.1044Z" fill="#fff"/>
</svg>
