<svg width="42" height="42" viewBox="0 0 42 42" fill="none" xmlns="http://www.w3.org/2000/svg">
    <path fill-rule="evenodd" clip-rule="evenodd" d="M16.1926 2.89659C15.6861 3.32826 15.4328 3.5441 15.1623 3.7254C14.5422 4.14099 13.8459 4.42943 13.1136 4.57401C12.7941 4.63708 12.4624 4.66355 11.799 4.71649C10.1321 4.84951 9.29864 4.91602 8.6033 5.16162C6.99505 5.72967 5.73004 6.99468 5.16198 8.60293C4.91638 9.29827 4.84988 10.1317 4.71686 11.7986C4.66392 12.462 4.63745 12.7937 4.57437 13.1132C4.4298 13.8455 4.14136 14.5419 3.72577 15.1619C3.54447 15.4324 3.32863 15.6857 2.89696 16.1922C1.81237 17.4649 1.27005 18.1013 0.952039 18.7666C0.216508 20.3055 0.216508 22.0945 0.952039 23.6334C1.27005 24.2987 1.81235 24.9351 2.89696 26.2078C3.32858 26.7143 3.54448 26.9677 3.72577 27.2381C4.14136 27.8582 4.4298 28.5545 4.57437 29.2869C4.63745 29.6063 4.66392 29.938 4.71686 30.6015C4.84988 32.2683 4.91638 33.1018 5.16198 33.7971C5.73004 35.4054 6.99505 36.6704 8.6033 37.2384C9.29863 37.484 10.1321 37.5505 11.799 37.6836C12.4624 37.7365 12.7941 37.763 13.1136 37.826C13.8459 37.9706 14.5422 38.2591 15.1623 38.6746C15.4328 38.8559 15.686 39.0718 16.1926 39.5035C17.4653 40.5881 18.1017 41.1304 18.767 41.4484C20.3059 42.1839 22.0949 42.1839 23.6338 41.4484C24.2991 41.1304 24.9355 40.5881 26.2082 39.5035C26.7147 39.0718 26.968 38.8559 27.2385 38.6746C27.8586 38.2591 28.5549 37.9706 29.2872 37.826C29.6067 37.763 29.9384 37.7365 30.6018 37.6836C32.2687 37.5505 33.1021 37.484 33.7975 37.2384C35.4057 36.6704 36.6707 35.4054 37.2388 33.7971C37.4844 33.1018 37.5509 32.2683 37.6839 30.6015C37.7369 29.938 37.7633 29.6063 37.8264 29.2869C37.971 28.5545 38.2594 27.8582 38.675 27.2381C38.8563 26.9676 39.0721 26.7144 39.5038 26.2078C40.5884 24.9351 41.1307 24.2987 41.4487 23.6334C42.1843 22.0945 42.1843 20.3055 41.4487 18.7666C41.1307 18.1013 40.5884 17.4649 39.5038 16.1922C39.0721 15.6857 38.8563 15.4324 38.675 15.1619C38.2594 14.5419 37.971 13.8455 37.8264 13.1132C37.7633 12.7937 37.7369 12.462 37.6839 11.7986C37.5509 10.1317 37.4844 9.29827 37.2388 8.60293C36.6707 6.99468 35.4057 5.72967 33.7975 5.16162C33.1021 4.91602 32.2687 4.84951 30.6018 4.71649C29.9384 4.66355 29.6067 4.63708 29.2872 4.57401C28.5549 4.42943 27.8586 4.14099 27.2385 3.7254C26.968 3.5441 26.7147 3.32826 26.2082 2.89659C24.9355 1.81199 24.2991 1.26968 23.6338 0.951673C22.0949 0.216142 20.3059 0.216142 18.767 0.951673C18.1017 1.26968 17.4653 1.812 16.1926 2.89659ZM29.1687 13.2328C29.8298 13.8939 29.8298 14.9657 29.1687 15.6268L15.6261 29.1694C14.965 29.8305 13.8931 29.8305 13.232 29.1694C12.5709 28.5083 12.5709 27.4365 13.232 26.7754L26.7747 13.2328C27.4358 12.5717 28.5076 12.5717 29.1687 13.2328ZM29.1002 26.8439C29.1002 28.0904 28.0897 29.101 26.8431 29.101C25.5966 29.101 24.586 28.0904 24.586 26.8439C24.586 25.5973 25.5966 24.5868 26.8431 24.5868C28.0897 24.5868 29.1002 25.5973 29.1002 26.8439ZM15.5576 17.8154C16.8042 17.8154 17.8147 16.8049 17.8147 15.5583C17.8147 14.3118 16.8042 13.3012 15.5576 13.3012C14.311 13.3012 13.3005 14.3118 13.3005 15.5583C13.3005 16.8049 14.311 17.8154 15.5576 17.8154Z" fill="url(#paint0_linear_17004_6235)"/>
    <defs>
        <linearGradient id="paint0_linear_17004_6235" x1="18.9972" y1="18.0007" x2="25.2516" y2="43.6131" gradientUnits="userSpaceOnUse">
            <stop offset="0.0076178" stop-color="#00D2D3"/>
            <stop offset="0.91" stop-color="#00B3FF"/>
        </linearGradient>
    </defs>
</svg>
