<svg width="45" height="50" viewBox="0 0 45 50" fill="none" xmlns="http://www.w3.org/2000/svg">
    <path fill-rule="evenodd" clip-rule="evenodd" d="M34.2346 0H10.5654C7.68107 0 6.23892 0 5.07581 0.403265C2.87023 1.16797 1.13862 2.94423 0.39313 5.20667C0 6.39976 0 7.87909 0 10.8377V45.568C0 47.6964 2.45155 48.8257 4.00237 47.4117C4.9135 46.5809 6.2865 46.5809 7.19763 47.4117L8.4 48.508C9.99684 49.964 12.4032 49.964 14 48.508C15.5968 47.052 18.0032 47.052 19.6 48.508C21.1968 49.964 23.6032 49.964 25.2 48.508C26.7968 47.052 29.2032 47.052 30.8 48.508C32.3968 49.964 34.8032 49.964 36.4 48.508L37.6024 47.4117C38.5135 46.5809 39.8865 46.5809 40.7976 47.4117C42.3484 48.8257 44.8 47.6964 44.8 45.568V10.8378C44.8 7.87909 44.8 6.39976 44.4069 5.20667C43.6614 2.94423 41.9298 1.16797 39.7242 0.403265C38.5611 0 37.1189 0 34.2346 0ZM11.451 22.24C11.451 19.7276 13.4876 17.691 16 17.691C17.0263 17.691 17.9687 18.0287 18.7289 18.5999C19.4907 19.1723 20.5724 19.0187 21.1448 18.2568C21.7173 17.495 21.5637 16.4133 20.8018 15.8409C19.4644 14.8361 17.7993 14.24 16 14.24C11.5817 14.24 8 17.8217 8 22.24C8 26.6583 11.5817 30.24 16 30.24C17.0814 30.24 18.0556 30.0424 18.9334 29.6147C19.8098 29.1877 20.4963 28.5769 21.0653 27.8829C21.9562 26.7962 22.6776 25.3278 23.4036 23.85C23.5411 23.57 23.6788 23.2897 23.8178 23.0117C23.9879 22.6716 24.1458 22.3518 24.2945 22.0508L24.2953 22.0493C25.0289 20.5642 25.5369 19.5359 26.1526 18.7849C26.4838 18.3809 26.7963 18.1288 27.1272 17.9676C27.4566 17.8071 27.8977 17.691 28.549 17.691C31.0614 17.691 33.098 19.7276 33.098 22.24C33.098 24.7523 31.0614 26.789 28.549 26.789C27.5232 26.789 26.5811 26.4512 25.8207 25.88C25.0587 25.3076 23.9771 25.4613 23.4047 26.2232C22.8324 26.9852 22.986 28.0668 23.748 28.6392C25.085 29.6436 26.7496 30.24 28.549 30.24C32.9673 30.24 36.549 26.6583 36.549 22.24C36.549 17.8217 32.9673 14.24 28.549 14.24C27.4677 14.24 26.4934 14.4376 25.6156 14.8653C24.7393 15.2923 24.0527 15.903 23.4838 16.597C22.5929 17.6838 21.8715 19.1522 21.1455 20.63L21.1452 20.6306C21.0077 20.9104 20.8701 21.1904 20.7312 21.4683C20.561 21.8087 20.4029 22.1288 20.2541 22.4301L20.2537 22.4307C19.5201 23.9158 19.0122 24.944 18.3965 25.6951C18.0652 26.0991 17.7527 26.3511 17.4218 26.5124C17.0924 26.6729 16.6513 26.789 16 26.789C13.4876 26.789 11.451 24.7523 11.451 22.24Z" fill="#AFB7DC"/>
</svg>
