<svg width="40" height="40" viewBox="0 0 40 40" fill="none" xmlns="http://www.w3.org/2000/svg">
    <path fill-rule="evenodd" clip-rule="evenodd" d="M20 40C10.5719 40 5.85786 40 2.92893 37.0711C0 34.1421 0 29.4281 0 20C0 10.5719 0 5.85786 2.92893 2.92893C5.85786 0 10.5719 0 20 0C29.4281 0 34.1421 0 37.0711 2.92893C40 5.85786 40 10.5719 40 20C40 29.4281 40 34.1421 37.0711 37.0711C34.1421 40 29.4281 40 20 40Z" fill="url(#paint0_linear_14775_14498)"/>
    <path fill-rule="evenodd" clip-rule="evenodd" d="M29.6967 12.7029C30.6339 13.6402 30.6339 15.1598 29.6967 16.0971L18.4967 27.2971C17.5594 28.2343 16.0398 28.2343 15.1026 27.2971L10.3026 22.4971C9.36529 21.5598 9.36529 20.0402 10.3026 19.1029C11.2398 18.1657 12.7594 18.1657 13.6967 19.1029L16.7996 22.2059L26.3026 12.7029C27.2398 11.7657 28.7594 11.7657 29.6967 12.7029Z" fill="white"/>
    <defs>
        <linearGradient id="paint0_linear_14775_14498" x1="17.8816" y1="16.9237" x2="23.8954" y2="41.551" gradientUnits="userSpaceOnUse">
            <stop offset="0.0076178" stop-color="#00D2D3"/>
            <stop offset="0.91" stop-color="#00B3FF"/>
        </linearGradient>
    </defs>
</svg>
