<svg width="52" height="42" viewBox="0 0 52 42" fill="none" xmlns="http://www.w3.org/2000/svg">
    <path fill-rule="evenodd" clip-rule="evenodd" d="M20.48 0H30.72C40.3744 0 45.2015 0 48.2008 3.04609C50.3602 5.2393 50.9649 8.39494 51.1342 13.65L51.1952 17.55C51.2 18.5693 51.2 19.651 51.2 20.8C51.2 30.6052 51.2 35.5078 48.2008 38.5539C45.2015 41.6 40.3744 41.6 30.72 41.6H20.48C10.8256 41.6 5.99845 41.6 2.99923 38.5539C0 35.5078 0 30.6052 0 20.8C0 20.3986 0 20.1718 0.000205809 19.9451C0.000472882 19.6509 0.00108653 19.3567 0.0024965 18.6807L0.00249655 18.6807L0.00482636 17.55L0.065834 13.65C0.235128 8.39494 0.839762 5.2393 2.99923 3.04609C5.99845 0 10.8256 0 20.48 0ZM10.4 12.8C10.4 11.4745 9.32548 10.4 8 10.4C6.67452 10.4 5.6 11.4745 5.6 12.8L5.6 28.8C5.6 30.1255 6.67452 31.2 8 31.2C9.32548 31.2 10.4 30.1255 10.4 28.8L10.4 12.8ZM19.2 21.6C19.2 18.0654 22.0654 15.2 25.6 15.2C29.1346 15.2 32 18.0654 32 21.6C32 25.1346 29.1346 28 25.6 28C22.0654 28 19.2 25.1346 19.2 21.6ZM25.6 10.4C19.4144 10.4 14.4 15.4144 14.4 21.6C14.4 27.7856 19.4144 32.8 25.6 32.8C31.7856 32.8 36.8 27.7856 36.8 21.6C36.8 15.4144 31.7856 10.4 25.6 10.4ZM45.6 12.8C45.6 11.4745 44.5255 10.4 43.2 10.4C41.8745 10.4 40.8 11.4745 40.8 12.8V28.8C40.8 30.1255 41.8745 31.2 43.2 31.2C44.5255 31.2 45.6 30.1255 45.6 28.8V12.8Z" fill="#fff"/>
</svg>
