<svg width="40" height="40" viewBox="0 0 40 40" fill="none" xmlns="http://www.w3.org/2000/svg">
    <path fill-rule="evenodd" clip-rule="evenodd" d="M20 40C31.0457 40 40 31.0457 40 20C40 8.95431 31.0457 0 20 0C8.95431 0 0 8.95431 0 20C0 31.0457 8.95431 40 20 40Z" fill="url(#paint0_linear_17004_6083)"/>
    <path fill-rule="evenodd" clip-rule="evenodd" d="M8.00007 26.2756C8.00829 27.2039 8.76319 27.9522 9.69158 27.9522H17.4836C18.2022 27.9522 18.7847 27.3697 18.7847 26.6511C18.7847 25.9326 18.2022 25.3501 17.4836 25.3501H12.0802L15.7623 21.7872C17.6566 19.9657 18.5931 18.6047 18.5931 16.9833C18.5931 14.4813 16.5499 12.8 13.5275 12.8C11.4161 12.8 9.64532 13.607 8.65092 14.9546C8.22061 15.5378 8.5296 16.3174 9.16742 16.6615C9.9517 17.0847 10.9222 16.6484 11.6432 16.1247C12.1077 15.7872 12.6803 15.6022 13.3147 15.6022C14.5279 15.6022 15.2941 16.2828 15.2941 17.3637C15.2941 18.3044 14.7407 19.005 12.2505 21.4269L8.51466 25.0456C8.18196 25.3678 7.99596 25.8124 8.00007 26.2756ZM31.8037 23.4479C31.8037 22.7294 31.2212 22.1469 30.5026 22.1469H29.1644V15.3939C29.1644 14.0936 28.1103 13.0395 26.81 13.0395C26.0801 13.0395 25.3915 13.3781 24.9457 13.9561L19.0327 21.6231C18.7708 21.9627 18.6288 22.3794 18.6288 22.8083C18.6288 23.8801 19.4977 24.749 20.5695 24.749H25.8654V26.302C25.8654 27.213 26.6039 27.9515 27.5149 27.9515C28.4259 27.9515 29.1644 27.213 29.1644 26.302V24.749H30.5026C31.2212 24.749 31.8037 24.1665 31.8037 23.4479ZM25.8654 22.1469H21.8427L25.8654 16.7826V22.1469Z" fill="white"/>
    <defs>
        <linearGradient id="paint0_linear_17004_6083" x1="17.8816" y1="16.9237" x2="23.8954" y2="41.551" gradientUnits="userSpaceOnUse">
            <stop offset="0.0076178" stop-color="#00D2D3"/>
            <stop offset="0.91" stop-color="#00B3FF"/>
        </linearGradient>
    </defs>
</svg>
