<svg width="48" height="45" viewBox="0 0 48 45" fill="none" xmlns="http://www.w3.org/2000/svg">
    <path fill-rule="evenodd" clip-rule="evenodd" d="M12.6601 0C13.5996 0 14.3611 0.774892 14.3611 1.73077V5.22208C15.8699 5.19231 17.5611 5.19231 19.4641 5.19231H28.536C30.4389 5.19231 32.1301 5.19231 33.6389 5.22208V1.73077C33.6389 0.774892 34.4005 0 35.3399 0C36.2793 0 37.0409 0.774892 37.0409 1.73077V5.37521C37.2615 5.39318 37.477 5.41293 37.6875 5.43461C41.2053 5.70972 43.5041 6.39569 45.1882 8.1061C46.2004 9.13412 46.8483 10.3877 47.2629 12H0.737129C1.15174 10.3877 1.79957 9.13412 2.81178 8.1061C4.49587 6.39569 6.79474 5.70972 10.3125 5.43461C10.523 5.41293 10.7385 5.39318 10.9591 5.37521V1.73077C10.9591 0.774892 11.7207 0 12.6601 0ZM0.243615 15C0.177315 15.6845 0.129058 16.4174 0.0939346 17.2035H0.00452471C0 18.1591 0 23.6732 0 24.7504C0 33.9428 0 38.539 2.81178 41.3947C5.62355 44.2504 10.149 44.2504 19.2 44.2504H19.2H28.8H28.8C37.851 44.2504 42.3765 44.2504 45.1882 41.3947C48 38.539 48 33.9428 48 24.7504C48 23.6732 48 18.1591 47.9955 17.2035H47.9061C47.8709 16.4174 47.8227 15.6845 47.7564 15H0.243615ZM21.9833 37.4998C20.7076 37.4998 19.8691 36.168 20.4205 35.0176L26.355 22.6365H19.5684C18.7022 22.6365 18 21.9344 18 21.0682C18 20.202 18.7022 19.4998 19.5684 19.4998H27.4313C28.8499 19.4998 30 20.6499 30 22.0685C30 22.4427 29.9183 22.8123 29.7605 23.1516L23.5548 36.4975C23.2706 37.1088 22.6576 37.4998 21.9833 37.4998Z" fill="#fff"/>
</svg>
