<svg width="45" height="50" viewBox="0 0 45 50" fill="none" xmlns="http://www.w3.org/2000/svg">
    <path fill-rule="evenodd" clip-rule="evenodd" d="M10.5654 0H34.2346C37.1189 0 38.5611 0 39.7242 0.403265C41.9298 1.16797 43.6614 2.94423 44.4069 5.20667C44.8 6.39976 44.8 7.87909 44.8 10.8378V45.568C44.8 47.6964 42.3484 48.8257 40.7976 47.4117C39.8865 46.5809 38.5135 46.5809 37.6024 47.4117L36.4 48.508C34.8032 49.964 32.3968 49.964 30.8 48.508C29.2032 47.052 26.7968 47.052 25.2 48.508C23.6032 49.964 21.1968 49.964 19.6 48.508C18.0032 47.052 15.5968 47.052 14 48.508C12.4032 49.964 9.99684 49.964 8.4 48.508L7.19763 47.4117C6.2865 46.5809 4.9135 46.5809 4.00237 47.4117C2.45155 48.8257 0 47.6964 0 45.568V10.8377C0 7.87909 0 6.39976 0.39313 5.20667C1.13862 2.94423 2.87023 1.16797 5.07581 0.403265C6.23892 0 7.68107 0 10.5654 0ZM9.95555 11.78C8.92462 11.78 8.08889 12.6128 8.08889 13.64C8.08889 14.6672 8.92462 15.5 9.95555 15.5H11.2C12.2309 15.5 13.0667 14.6672 13.0667 13.64C13.0667 12.6128 12.2309 11.78 11.2 11.78H9.95555ZM18.6667 11.78C17.6357 11.78 16.8 12.6128 16.8 13.64C16.8 14.6672 17.6357 15.5 18.6667 15.5H34.8444C35.8754 15.5 36.7111 14.6672 36.7111 13.64C36.7111 12.6128 35.8754 11.78 34.8444 11.78H18.6667ZM9.95555 20.46C8.92462 20.46 8.08889 21.2928 8.08889 22.32C8.08889 23.3472 8.92462 24.18 9.95555 24.18H11.2C12.2309 24.18 13.0667 23.3472 13.0667 22.32C13.0667 21.2928 12.2309 20.46 11.2 20.46H9.95555ZM18.6667 20.46C17.6357 20.46 16.8 21.2928 16.8 22.32C16.8 23.3472 17.6357 24.18 18.6667 24.18H34.8444C35.8754 24.18 36.7111 23.3472 36.7111 22.32C36.7111 21.2928 35.8754 20.46 34.8444 20.46H18.6667ZM9.95555 29.14C8.92462 29.14 8.08889 29.9728 8.08889 31C8.08889 32.0272 8.92462 32.86 9.95555 32.86H11.2C12.2309 32.86 13.0667 32.0272 13.0667 31C13.0667 29.9728 12.2309 29.14 11.2 29.14H9.95555ZM18.6667 29.14C17.6357 29.14 16.8 29.9728 16.8 31C16.8 32.0272 17.6357 32.86 18.6667 32.86H34.8444C35.8754 32.86 36.7111 32.0272 36.7111 31C36.7111 29.9728 35.8754 29.14 34.8444 29.14H18.6667Z" fill="#AFB7DC"/>
</svg>
