<svg width="39" height="42" viewBox="0 0 39 42" fill="none" xmlns="http://www.w3.org/2000/svg">
    <rect x="9.04785" y="8.72" width="21.632" height="19.968" fill="white"/>
    <path fill-rule="evenodd" clip-rule="evenodd" d="M1.53022 6.8114C0.727539 7.93017 0.727539 11.2557 0.727539 17.9066V21.182C0.727539 32.9092 9.74051 38.6002 15.3954 41.0167C16.9294 41.6722 17.6964 42 19.8635 42C22.0307 42 22.7977 41.6722 24.3317 41.0167C29.9866 38.6002 38.9995 32.9092 38.9995 21.182V17.9066C38.9995 11.2557 38.9995 7.93017 38.1969 6.8114C37.3942 5.69264 34.1978 4.6223 27.8052 2.48164L26.5872 2.07381C23.2549 0.957931 21.5887 0.399994 19.8635 0.399994C18.1383 0.399994 16.4722 0.957931 13.1398 2.0738L11.9219 2.48164C5.52924 4.6223 2.3329 5.69264 1.53022 6.8114ZM17.4423 13.6358L17.1636 14.1249C16.8575 14.6621 16.7044 14.9307 16.4658 15.1079C16.2271 15.2852 15.9299 15.351 15.3354 15.4825L14.7942 15.6023C12.7023 16.0654 11.6563 16.2969 11.4075 17.0797C11.1586 17.8625 11.8717 18.6783 13.2978 20.3097L13.6668 20.7318C14.0721 21.1954 14.2747 21.4272 14.3659 21.7139C14.457 22.0007 14.4264 22.31 14.3651 22.9285L14.3093 23.4917C14.0937 25.6683 13.9859 26.7567 14.6374 27.2405C15.2889 27.7243 16.2682 27.2832 18.2269 26.401L18.7337 26.1727C19.2902 25.922 19.5685 25.7967 19.8635 25.7967C20.1585 25.7967 20.4368 25.922 20.9934 26.1727L21.5002 26.401C23.4588 27.2832 24.4382 27.7243 25.0897 27.2405C25.7412 26.7567 25.6334 25.6683 25.4177 23.4917L25.362 22.9285C25.3007 22.31 25.2701 22.0007 25.3612 21.7139C25.4524 21.4272 25.655 21.1954 26.0603 20.7318L26.4292 20.3097C27.8554 18.6783 28.5684 17.8625 28.3196 17.0797C28.0707 16.2969 27.0248 16.0654 24.9328 15.6023L24.3916 15.4825C23.7972 15.351 23.4999 15.2852 23.2613 15.1079C23.0226 14.9307 22.8696 14.6621 22.5635 14.1249L22.2847 13.6358C21.2075 11.7452 20.6688 10.8 19.8635 10.8C19.0582 10.8 18.5196 11.7453 17.4423 13.6358Z" fill="#00E5E8"/>
</svg>
