<svg width="39" height="39" viewBox="0 0 39 39" fill="none" xmlns="http://www.w3.org/2000/svg">
    <path d="M19.8 39C30.4039 39 39 30.4039 39 19.8C39 9.19614 30.4039 0.600006 19.8 0.600006C9.19613 0.600006 0.599998 9.19614 0.599998 19.8C0.599998 22.8714 1.32118 25.7743 2.60344 28.3488C2.9442 29.0329 3.05762 29.8149 2.86007 30.5532L1.7165 34.8272C1.22007 36.6825 2.91747 38.3799 4.77283 37.8835L9.04682 36.7399C9.78515 36.5424 10.5671 36.6558 11.2513 36.9966C13.8257 38.2788 16.7286 39 19.8 39Z" fill="url(#paint0_linear_17004_11980)"/>
    <path fill-rule="evenodd" clip-rule="evenodd" d="M18.3161 13.2126L14.4472 16.2935C12.824 17.5861 12.0124 18.2324 12.1709 18.9541L12.1793 18.9898C12.3598 19.707 13.3885 19.9826 15.4461 20.5339C16.5894 20.8403 17.1611 20.9935 17.4294 21.4268L17.4431 21.4497C17.7018 21.8883 17.5546 22.4375 17.2603 23.5361L17.1834 23.8232C16.3672 26.869 15.9591 28.3919 16.745 28.8837C17.5309 29.3755 18.7814 28.3798 21.2822 26.3883L25.1511 23.3073C26.7743 22.0147 27.5859 21.3684 27.4275 20.6468L27.4191 20.6111C27.2386 19.8939 26.2099 19.6182 24.1523 19.0669C23.0089 18.7606 22.4373 18.6074 22.169 18.174L22.1553 18.1512C21.8966 17.7126 22.0437 17.1633 22.3381 16.0648L22.415 15.7776C23.2312 12.7318 23.6392 11.2089 22.8533 10.7171C22.0674 10.2253 20.817 11.221 18.3161 13.2126Z" fill="white"/>
    <defs>
        <linearGradient id="paint0_linear_17004_11980" x1="21.8337" y1="16.8468" x2="16.0604" y2="40.489" gradientUnits="userSpaceOnUse">
            <stop offset="0.0076178" stop-color="#00D2D3"/>
            <stop offset="0.91" stop-color="#00B3FF"/>
        </linearGradient>
    </defs>
</svg>
