<svg width="52" height="46" viewBox="0 0 52 46" fill="none" xmlns="http://www.w3.org/2000/svg">
    <path fill-rule="evenodd" clip-rule="evenodd" d="M20.48 0H30.72C40.3744 0 45.2015 0 48.2008 3.04609C50.043 4.91707 50.7536 7.48845 51.0278 11.4661H0.172194C0.446357 7.48845 1.15703 4.91707 2.99923 3.04609C5.99845 0 10.8256 0 20.48 0ZM0.00213305 14.6661C1.06818e-10 17.7365 0 23.3381 0 24.2133C0 34.0186 0 38.9212 2.99923 41.9673C5.99845 45.0133 10.8256 45.0133 20.48 45.0133H20.48H30.72H30.72C40.3744 45.0133 45.2015 45.0133 48.2008 41.9673C51.2 38.9212 51.2 34.0186 51.2 24.2133C51.2 23.3381 51.2 17.7365 51.1979 14.6661H0.00213305ZM9.21592 6.68833C9.21592 7.81941 8.299 8.73633 7.16792 8.73633C6.03684 8.73633 5.11992 7.81941 5.11992 6.68833C5.11992 5.55725 6.03684 4.64033 7.16792 4.64033C8.299 4.64033 9.21592 5.55725 9.21592 6.68833ZM13.3119 8.73633C14.443 8.73633 15.3599 7.81941 15.3599 6.68833C15.3599 5.55725 14.443 4.64033 13.3119 4.64033C12.1808 4.64033 11.2639 5.55725 11.2639 6.68833C11.2639 7.81941 12.1808 8.73633 13.3119 8.73633ZM21.5039 6.68833C21.5039 7.81941 20.587 8.73633 19.4559 8.73633C18.3248 8.73633 17.4079 7.81941 17.4079 6.68833C17.4079 5.55725 18.3248 4.64033 19.4559 4.64033C20.587 4.64033 21.5039 5.55725 21.5039 6.68833ZM13.6593 33.3023C13.6671 34.2322 14.4231 34.982 15.3531 34.982H22.4013C23.1117 34.982 23.6877 34.406 23.6877 33.6956C23.6877 32.9851 23.1117 32.4091 22.4013 32.4091H17.4534L20.8773 28.8863C22.6388 27.0853 23.5096 25.7395 23.5096 24.1364C23.5096 21.6625 21.6096 20 18.7992 20C16.7945 20 15.1199 20.8321 14.207 22.2157C13.8463 22.7624 14.1228 23.4612 14.691 23.7872C15.4365 24.2149 16.3792 23.7941 17.0638 23.2745C17.4928 22.949 18.019 22.7708 18.6013 22.7708C19.7294 22.7708 20.4419 23.4437 20.4419 24.5124C20.4419 25.4426 19.9274 26.1353 17.6118 28.53L14.1378 32.1082C13.8275 32.4278 13.6556 32.8568 13.6593 33.3023ZM25.6721 33.4482C25.6721 34.2953 26.3588 34.982 27.2059 34.982C28.053 34.982 28.7397 34.2953 28.7397 33.4482V29.2821H34.4792V33.4482C34.4792 34.2953 35.1659 34.982 36.013 34.982C36.8601 34.982 37.5468 34.2953 37.5468 33.4482V21.7713C37.5468 20.9242 36.8601 20.2375 36.013 20.2375C35.1659 20.2375 34.4792 20.9242 34.4792 21.7713V26.6103H28.7397V21.7713C28.7397 20.9242 28.053 20.2375 27.2059 20.2375C26.3588 20.2375 25.6721 20.9242 25.6721 21.7713V33.4482Z" fill="#fff"/>
</svg>
