<svg width="110" height="107" viewBox="0 0 110 107" fill="none" xmlns="http://www.w3.org/2000/svg">
    <g filter="url(#filter0_di_17119_6356)">
        <path fill-rule="evenodd" clip-rule="evenodd" d="M14.7925 0H55.3109C59.3492 0 61.3684 -7.33069e-08 62.9968 0.572495C66.0849 1.65811 61.13 4.17977 62.1737 7.39164C62.7241 9.08541 62.7241 11.1855 62.7241 15.3858V101.276C62.7241 104.298 59.2917 105.901 57.1204 103.893C55.8448 102.714 53.9225 102.714 52.6468 103.893L50.9634 105.45C48.7276 107.517 45.3586 107.517 43.1228 105.45C40.8871 103.383 37.518 103.383 35.2823 105.45C33.0466 107.517 29.6775 107.517 27.4418 105.45C25.2061 103.383 21.837 103.383 19.6013 105.45C17.3656 107.517 13.9965 107.517 11.7608 105.45L10.0773 103.893C8.80168 102.714 6.87935 102.714 5.60369 103.893C3.43239 105.901 0 104.298 0 101.276V15.3858C0 11.1855 0 9.08541 0.550418 7.39164C1.59417 4.17977 4.01859 1.65811 7.1066 0.572495C8.73506 -7.33069e-08 10.7542 0 14.7925 0Z" fill="#00E5E8"/>
        <path fill-rule="evenodd" clip-rule="evenodd" d="M61.5279 0H94.667C98.7053 0 100.724 -7.33069e-08 102.353 0.572495C105.441 1.65811 107.865 4.17977 108.909 7.39164C109.459 9.08541 109.459 11.1855 109.459 15.3858V101.276C109.459 104.298 106.027 105.901 103.856 103.893C102.58 102.714 100.658 102.714 99.3821 103.893L97.6987 105.45C95.463 107.517 92.0939 107.517 89.8582 105.45C87.6225 103.383 84.2534 103.383 82.0177 105.45C79.782 107.517 76.4129 107.517 74.1772 105.45C71.9414 103.383 68.5724 103.383 66.3366 105.45C64.1009 107.517 60.7318 107.517 58.4961 105.45L56.8127 103.893C55.537 102.714 53.6147 102.714 52.339 103.893C50.1677 105.901 46.7354 104.298 46.7354 101.276V15.3858C46.7354 11.1855 46.7354 9.08541 47.2858 7.39164C48.3295 4.17977 50.7539 1.65811 53.842 0.572495C55.4704 -7.33069e-08 57.4896 0 61.5279 0Z" fill="#00E5E8"/>
        <path fill-rule="evenodd" clip-rule="evenodd" d="M41.1534 20.7589C40.5859 21.5674 40.5859 23.9707 40.5859 28.7773V31.1444C40.5859 39.6195 46.9579 43.7323 50.9558 45.4787C52.0403 45.9524 52.5825 46.1893 54.1147 46.1893C55.6468 46.1893 56.1891 45.9524 57.2735 45.4787C61.2714 43.7323 67.6434 39.6195 67.6434 31.1444V28.7773C67.6434 23.9707 67.6434 21.5674 67.0759 20.7589C66.5084 19.9504 64.2487 19.1768 59.7292 17.6298L58.8682 17.3351C56.5123 16.5286 55.3343 16.1254 54.1147 16.1254C52.895 16.1254 51.7171 16.5286 49.3612 17.3351L48.5001 17.6298C43.9806 19.1768 41.7209 19.9504 41.1534 20.7589ZM58.7136 28.9018C59.1283 28.4374 59.088 27.7247 58.6235 27.31C58.1591 26.8953 57.4464 26.9357 57.0317 27.4001L52.5041 32.471L51.1977 31.0078C50.783 30.5433 50.0703 30.503 49.6058 30.9177C49.1414 31.3324 49.101 32.045 49.5157 32.5095L51.6631 34.9146C51.877 35.1542 52.183 35.2911 52.5041 35.2911C52.8253 35.2911 53.1312 35.1542 53.3451 34.9146L58.7136 28.9018Z" fill="white"/>
        <path fill-rule="evenodd" clip-rule="evenodd" d="M60.5828 26.1685C61.1789 26.7321 61.1789 27.6458 60.5828 28.2093L53.46 34.9436C52.8639 35.5072 51.8975 35.5072 51.3014 34.9436L48.2488 32.0575C47.6527 31.4939 47.6527 30.5802 48.2488 30.0167C48.8449 29.4531 49.8113 29.4531 50.4073 30.0167L52.3807 31.8824L58.4243 26.1685C59.0203 25.605 59.9867 25.605 60.5828 26.1685Z" fill="#00E5E8"/>
        <rect x="15.9883" y="56.5747" width="51.6552" height="4.91954" rx="2.45977" fill="white"/>
        <rect x="15.9883" y="67.6437" width="72.5632" height="4.91954" rx="2.45977" fill="white"/>
        <rect x="15.9883" y="78.7126" width="72.5632" height="4.91954" rx="2.45977" fill="white"/>
    </g>
    <defs>
        <filter id="filter0_di_17119_6356" x="0" y="-2" width="109.46" height="122" filterUnits="userSpaceOnUse" color-interpolation-filters="sRGB">
            <feFlood flood-opacity="0" result="BackgroundImageFix"/>
            <feColorMatrix in="SourceAlpha" type="matrix" values="0 0 0 0 0 0 0 0 0 0 0 0 0 0 0 0 0 0 127 0" result="hardAlpha"/>
            <feMorphology radius="30" operator="erode" in="SourceAlpha" result="effect1_dropShadow_17119_6356"/>
            <feOffset dy="18"/>
            <feGaussianBlur stdDeviation="12.5"/>
            <feComposite in2="hardAlpha" operator="out"/>
            <feColorMatrix type="matrix" values="0 0 0 0 0 0 0 0 0 0 0 0 0 0 0 0 0 0 0.2 0"/>
            <feBlend mode="normal" in2="BackgroundImageFix" result="effect1_dropShadow_17119_6356"/>
            <feBlend mode="normal" in="SourceGraphic" in2="effect1_dropShadow_17119_6356" result="shape"/>
            <feColorMatrix in="SourceAlpha" type="matrix" values="0 0 0 0 0 0 0 0 0 0 0 0 0 0 0 0 0 0 127 0" result="hardAlpha"/>
            <feOffset dy="-2"/>
            <feGaussianBlur stdDeviation="4"/>
            <feComposite in2="hardAlpha" operator="arithmetic" k2="-1" k3="1"/>
            <feColorMatrix type="matrix" values="0 0 0 0 0.0792906 0 0 0 0 0.243589 0 0 0 0 0.407887 0 0 0 0.35 0"/>
            <feBlend mode="normal" in2="shape" result="effect2_innerShadow_17119_6356"/>
        </filter>
    </defs>
</svg>
