<svg width="1291" height="484" viewBox="0 0 1291 484" fill="none" xmlns="http://www.w3.org/2000/svg">
    <rect width="5.46184" height="3.64123" transform="matrix(0.704468 0.709736 -0.704468 0.709736 236.858 376.305)" fill="#596495"/>
    <rect width="5.46184" height="3.64123" transform="matrix(-0.704468 0.709736 0.704468 0.709736 189.994 376.711)" fill="#596495"/>
    <ellipse cx="213.772" cy="405.353" rx="33.3969" ry="33.6466" fill="#D5DAEF"/>
    <ellipse cx="213.772" cy="405.354" rx="23.74" ry="23.9175" fill="white"/>
    <rect x="211.357" y="425.247" width="2.41424" height="4.86457" rx="1.20712" fill="#AFB7DC"/>
    <path opacity="0.4" fill-rule="evenodd" clip-rule="evenodd" d="M237.511 405.556H212.564V381.466C212.964 381.446 213.367 381.436 213.771 381.436C226.883 381.436 237.511 392.144 237.511 405.354C237.511 405.421 237.511 405.489 237.511 405.556Z" fill="#D5DAEF"/>
    <rect x="211.357" y="379.992" width="2.41424" height="4.86458" rx="1.20712" fill="#AFB7DC"/>
    <rect x="234.028" y="406.569" width="2.43229" height="4.82847" rx="1.21614" transform="rotate(-90 234.028 406.569)" fill="#AFB7DC"/>
    <rect x="188.67" y="406.569" width="2.43229" height="4.82847" rx="1.21614" transform="rotate(-90 188.67 406.569)" fill="#AFB7DC"/>
    <path fill-rule="evenodd" clip-rule="evenodd" d="M228.497 388.456C229.092 389.037 229.108 389.995 228.531 390.595L210.223 409.648C209.647 410.248 208.696 410.264 208.1 409.683C207.505 409.102 207.489 408.144 208.066 407.544L226.374 388.491C226.951 387.891 227.901 387.875 228.497 388.456Z" fill="#00D2D3"/>
    <ellipse cx="212.565" cy="405.353" rx="2.81661" ry="2.83767" fill="#00D2D3"/>
    <rect width="13.2607" height="9.94554" rx="4.97277" transform="matrix(0.704468 0.709735 -0.704468 0.709735 239.658 367)" fill="#596495"/>
    <rect width="13.2607" height="9.94554" rx="4.97277" transform="matrix(-0.704468 0.709736 0.704468 0.709736 186.342 368.013)" fill="#596495"/>
    <ellipse cx="234.799" cy="425.135" rx="13.7617" ry="13.8646" fill="#1570EF"/>
    <path fill-rule="evenodd" clip-rule="evenodd" d="M227.327 429.17C227.332 429.793 227.839 430.296 228.462 430.296H233.627C234.108 430.296 234.499 429.905 234.499 429.424C234.499 428.942 234.108 428.552 233.627 428.552H230.04L232.489 426.165C233.748 424.945 234.371 424.033 234.371 422.947C234.371 421.271 233.012 420.144 231.003 420.144C229.595 420.144 228.415 420.688 227.755 421.595C227.472 421.983 227.677 422.499 228.099 422.729C228.622 423.013 229.27 422.722 229.751 422.371C230.06 422.145 230.44 422.022 230.861 422.022C231.668 422.022 232.177 422.478 232.177 423.202C232.177 423.832 231.809 424.301 230.153 425.924L227.669 428.348C227.448 428.564 227.324 428.861 227.327 429.17ZM243.156 427.278C243.156 426.797 242.766 426.406 242.284 426.406H241.401V421.868C241.401 421.005 240.701 420.305 239.838 420.305C239.351 420.305 238.892 420.531 238.596 420.918L234.663 426.056C234.489 426.283 234.395 426.561 234.395 426.847C234.395 427.567 234.978 428.15 235.697 428.15H239.207V429.198C239.207 429.804 239.698 430.295 240.304 430.295C240.91 430.295 241.401 429.804 241.401 429.198V428.15H242.284C242.766 428.15 243.156 427.759 243.156 427.278ZM239.207 426.406H236.532L239.207 422.812V426.406Z" fill="white"/>
    <g opacity="0.5" filter="url(#filter0_d_17290_49353)">
        <path d="M75.9967 136.823L39.9983 162.007L4 136.823L36.9537 113.759C37.8474 113.135 38.9105 112.8 39.9998 112.8C41.0892 112.8 42.1523 113.135 43.046 113.759L49.6194 118.366L51.3405 119.564L68.6703 131.695L70.4959 132.98L75.9967 136.823Z" fill="#D5DAEF"/>
    </g>
    <path d="M16.6001 133.8C16.6001 132.475 17.6746 131.4 19.0001 131.4H61.0001C62.3256 131.4 63.4001 132.475 63.4001 133.8V165C63.4001 166.325 62.3256 167.4 61.0001 167.4H19.0001C17.6746 167.4 16.6001 166.325 16.6001 165V133.8Z" fill="white"/>
    <rect x="20.8" y="136.8" width="28.279" height="2.4" rx="1.2" fill="#394375"/>
    <rect x="20.8" y="148.8" width="28.279" height="2.4" rx="1.2" fill="#AFB7DC"/>
    <rect x="20.8" y="142.8" width="38.4" height="2.4" rx="1.2" fill="#AFB7DC"/>
    <path d="M34.145 157.912L4 179.4V136.823L34.145 157.912Z" fill="#D5DAEF"/>
    <path d="M45.855 157.912L76 179.4V136.823L45.855 157.912Z" fill="#D5DAEF"/>
    <path d="M4 179.4L36.9148 155.941C37.8156 155.298 38.894 154.953 39.9998 154.953C41.1057 154.953 42.1841 155.298 43.0849 155.941L75.9967 179.4H4Z" fill="#AFB7DC"/>
    <path d="M64 135.6C70.6274 135.6 76 130.227 76 123.6C76 116.973 70.6274 111.6 64 111.6C57.3726 111.6 52 116.973 52 123.6C52 130.227 57.3726 135.6 64 135.6Z" fill="#00E5E8"/>
    <path d="M68.0788 120.949L62.9514 126.088L60.3877 123.518" stroke="white" stroke-width="4" stroke-linecap="round" stroke-linejoin="round"/>
    <path d="M1065.21 423.815C1054.38 422.676 1046.52 412.967 1047.65 402.13C1048.79 391.293 1058.5 383.431 1069.33 384.57C1080.17 385.709 1088.03 395.418 1086.89 406.256C1086.56 409.395 1085.51 412.284 1083.92 414.777C1083.5 415.44 1083.3 416.227 1083.43 417.003L1084.14 421.494C1084.44 423.443 1082.53 424.995 1080.68 424.289L1076.44 422.661C1075.71 422.38 1074.9 422.412 1074.16 422.686C1071.39 423.72 1068.35 424.145 1065.21 423.815Z" fill="#AFB7DC"/>
    <path d="M1041.99 428.2C1056.9 428.2 1068.99 416.112 1068.99 401.2C1068.99 386.288 1056.9 374.2 1041.99 374.2C1027.09 374.2 1015 386.288 1015 401.2C1015 405.519 1016.01 409.601 1017.82 413.222C1018.3 414.184 1018.46 415.283 1018.18 416.322L1016.57 422.332C1015.87 424.941 1018.26 427.328 1020.87 426.63L1026.88 425.022C1027.91 424.744 1029.01 424.903 1029.97 425.383C1033.59 427.186 1037.68 428.2 1041.99 428.2Z" fill="#FF8725"/>
    <path d="M1050.09 401.2C1050.09 402.691 1051.3 403.9 1052.79 403.9C1054.28 403.9 1055.49 402.691 1055.49 401.2C1055.49 399.709 1054.28 398.5 1052.79 398.5C1051.3 398.5 1050.09 399.709 1050.09 401.2Z" fill="white"/>
    <path d="M1039.29 401.2C1039.29 402.691 1040.5 403.9 1041.99 403.9C1043.48 403.9 1044.69 402.691 1044.69 401.2C1044.69 399.709 1043.48 398.5 1041.99 398.5C1040.5 398.5 1039.29 399.709 1039.29 401.2Z" fill="white"/>
    <path d="M1028.5 401.2C1028.5 402.691 1029.71 403.9 1031.2 403.9C1032.69 403.9 1033.9 402.691 1033.9 401.2C1033.9 399.709 1032.69 398.5 1031.2 398.5C1029.71 398.5 1028.5 399.709 1028.5 401.2Z" fill="white"/>
    <path d="M1160.88 63.2615H1147.92C1135.7 63.2615 1129.59 63.2615 1125.8 67.211C1123.06 70.0547 1122.3 74.1463 1122.08 80.96H1186.72C1186.5 74.1463 1185.74 70.0547 1183 67.211C1179.21 63.2615 1173.1 63.2615 1160.88 63.2615Z" fill="#65FFED"/>
    <path d="M1147.92 117.2H1160.88C1173.1 117.2 1179.21 117.2 1183 113.25C1186.8 109.301 1186.8 102.944 1186.8 90.2307C1186.8 88.7409 1186.8 81.1147 1186.79 79.7931H1122.01C1122 81.1147 1122 88.7409 1122 90.2307C1122 102.944 1122 109.301 1125.8 113.25C1129.59 117.2 1135.7 117.2 1147.92 117.2Z" fill="#65FFED"/>
    <path d="M1141.39 58.3937C1141.39 57.0717 1140.36 56 1139.09 56C1137.82 56 1136.79 57.0717 1136.79 58.3937V63.4341C1132.39 63.802 1129.49 64.7048 1127.37 66.9204C1125.24 69.136 1124.38 72.1518 1124.03 76.7456H1184.78C1184.42 72.1518 1183.56 69.136 1181.43 66.9204C1179.31 64.7048 1176.41 63.802 1172.01 63.4341V58.3937C1172.01 57.0717 1170.98 56 1169.71 56C1168.44 56 1167.41 57.0717 1167.41 58.3937V63.2223C1165.38 63.1812 1163.09 63.1812 1160.52 63.1812H1148.28C1145.71 63.1812 1143.42 63.1812 1141.39 63.2223V58.3937Z" fill="#65FFED"/>
    <rect x="1122" y="72.5965" width="64.8" height="4.14912" fill="white"/>
    <path fill-rule="evenodd" clip-rule="evenodd" d="M1174.2 128C1185.14 128 1194 119.135 1194 108.2C1194 97.2648 1185.14 88.4 1174.2 88.4C1163.26 88.4 1154.4 97.2648 1154.4 108.2C1154.4 119.135 1163.26 128 1174.2 128Z" fill="url(#paint0_linear_17290_49353)"/>
    <path d="M1172.16 118.441C1170.85 118.441 1170 117.066 1170.58 115.894L1176.61 103.783H1169.6C1168.75 103.783 1168.05 103.091 1168.05 102.236V102.236C1168.05 101.382 1168.75 100.69 1169.6 100.69H1177.83C1179.22 100.69 1180.34 101.817 1180.34 103.207V103.207C1180.34 103.586 1180.26 103.96 1180.09 104.302L1173.75 117.446C1173.45 118.054 1172.84 118.441 1172.16 118.441V118.441Z" fill="white"/>
    <path fill-rule="evenodd" clip-rule="evenodd" d="M270.453 193.699C270 194.344 270 196.263 270 200.1V201.99C270 208.755 275.087 212.039 278.278 213.433C279.144 213.811 279.577 214 280.8 214C282.023 214 282.456 213.811 283.322 213.433C286.513 212.039 291.6 208.755 291.6 201.99V200.1C291.6 196.263 291.6 194.344 291.147 193.699C290.694 193.053 288.89 192.436 285.282 191.201L284.595 190.966C282.714 190.322 281.774 190 280.8 190C279.826 190 278.886 190.322 277.005 190.966L276.318 191.201C272.71 192.436 270.906 193.053 270.453 193.699ZM284.471 200.199C284.802 199.829 284.77 199.26 284.399 198.929C284.029 198.598 283.46 198.63 283.129 199.001L279.514 203.049L278.471 201.881C278.14 201.51 277.571 201.478 277.201 201.809C276.83 202.14 276.798 202.709 277.129 203.079L278.843 204.999C279.014 205.191 279.258 205.3 279.514 205.3C279.771 205.3 280.015 205.191 280.186 204.999L284.471 200.199Z" fill="white"/>
    <path d="M774 35.5962C774 31.0696 777.659 27.4 782.173 27.4H831.439C835.953 27.4 839.612 31.0696 839.612 35.5962V76.9641C839.612 79.8277 836.379 81.4881 834.062 79.8142L825.043 73.2984C823.851 72.4368 822.418 71.9732 820.948 71.9732H782.173C777.659 71.9732 774 68.3037 774 63.777V35.5962Z" fill="#D5DAEF"/>
    <rect x="781.055" y="38.9497" width="27.5147" height="2.83005" rx="1.41502" fill="#8C95C2"/>
    <rect x="781.055" y="58.0018" width="27.5147" height="2.47629" rx="1.23814" fill="#8C95C2"/>
    <rect x="781.055" y="51.6341" width="51.8547" height="2.47629" rx="1.23814" fill="#8C95C2"/>
    <rect x="829.8" y="23.8" width="10.7027" height="13.6603" fill="white"/>
    <path fill-rule="evenodd" clip-rule="evenodd" d="M834.276 18.4C827.827 18.4 822.6 23.6422 822.6 30.1089C822.6 36.5755 827.827 41.8177 834.276 41.8177C840.724 41.8177 845.951 36.5755 845.951 30.1089C845.951 23.6422 840.724 18.4 834.276 18.4ZM833.374 26.0916L831.021 27.9705C830.034 28.7588 829.54 29.1529 829.637 29.593L829.642 29.6148C829.752 30.0521 830.377 30.2202 831.628 30.5564C832.324 30.7433 832.671 30.8367 832.834 31.101L832.843 31.1149C833 31.3824 832.911 31.7173 832.732 32.3873L832.685 32.5623C832.189 34.4198 831.94 35.3485 832.418 35.6484C832.896 35.9484 833.657 35.3411 835.177 34.1266L837.53 32.2478C838.517 31.4595 839.011 31.0653 838.914 30.6253L838.909 30.6035C838.8 30.1661 838.174 29.998 836.923 29.6618C836.227 29.475 835.88 29.3815 835.717 29.1173L835.708 29.1034C835.551 28.8359 835.641 28.5009 835.82 27.831L835.866 27.6558C836.363 25.7984 836.611 24.8697 836.133 24.5698C835.655 24.2698 834.895 24.8771 833.374 26.0916Z" fill="url(#paint1_linear_17290_49353)"/>
    <rect x="780.811" y="44.9087" width="37.9459" height="2.92722" rx="1.46361" fill="#8C95C2"/>
    <defs>
        <filter id="filter0_d_17290_49353" x="0.516321" y="112.8" width="78.9639" height="56.1739" filterUnits="userSpaceOnUse" color-interpolation-filters="sRGB">
            <feFlood flood-opacity="0" result="BackgroundImageFix"/>
            <feColorMatrix in="SourceAlpha" type="matrix" values="0 0 0 0 0 0 0 0 0 0 0 0 0 0 0 0 0 0 127 0" result="hardAlpha"/>
            <feOffset dy="3.48368"/>
            <feGaussianBlur stdDeviation="1.74184"/>
            <feComposite in2="hardAlpha" operator="out"/>
            <feColorMatrix type="matrix" values="0 0 0 0 0 0 0 0 0 0 0 0 0 0 0 0 0 0 0.25 0"/>
            <feBlend mode="normal" in2="BackgroundImageFix" result="effect1_dropShadow_17290_49353"/>
            <feBlend mode="normal" in="SourceGraphic" in2="effect1_dropShadow_17290_49353" result="shape"/>
        </filter>
        <linearGradient id="paint0_linear_17290_49353" x1="1172.1" y1="105.154" x2="1178.06" y2="129.535" gradientUnits="userSpaceOnUse">
            <stop offset="0.0076178" stop-color="#00D2D3"/>
            <stop offset="0.91" stop-color="#00B3FF"/>
        </linearGradient>
        <linearGradient id="paint1_linear_17290_49353" x1="833.039" y1="28.3079" x2="836.569" y2="42.7211" gradientUnits="userSpaceOnUse">
            <stop offset="0.0076178" stop-color="#00D2D3"/>
            <stop offset="0.91" stop-color="#00B3FF"/>
        </linearGradient>
    </defs>
</svg>
