<svg width="72" height="72" viewBox="0 0 72 72" fill="none" xmlns="http://www.w3.org/2000/svg">
    <path d="M0 22.5962C0 18.0696 3.65916 14.4 8.17297 14.4H57.439C61.9529 14.4 65.612 18.0696 65.612 22.5962V63.9641C65.612 66.8277 62.3787 68.4881 60.0619 66.8142L51.0433 60.2984C49.8507 59.4368 48.4181 58.9732 46.9484 58.9732H8.17297C3.65917 58.9732 0 55.3036 0 50.777V22.5962Z"
          fill="#D5DAEF"/>
    <rect x="7.05493" y="25.9497" width="27.5147" height="2.83005" rx="1.41502" fill="#8C95C2"/>
    <rect x="7.05493" y="45.0018" width="27.5147" height="2.47629" rx="1.23814" fill="#8C95C2"/>
    <rect x="7.05493" y="38.6341" width="51.8547" height="2.47629" rx="1.23814" fill="#8C95C2"/>
    <rect x="55.8" y="10.8" width="10.7027" height="13.6603" fill="white"/>
    <path fill-rule="evenodd" clip-rule="evenodd"
          d="M60.2758 5.39999C53.8275 5.39999 48.6001 10.6422 48.6001 17.1089C48.6001 23.5755 53.8275 28.8177 60.2758 28.8177C66.7241 28.8177 71.9515 23.5755 71.9515 17.1089C71.9515 10.6422 66.7241 5.39999 60.2758 5.39999ZM59.3737 13.0916L57.021 14.9705C56.0339 15.7588 55.5404 16.1529 55.6367 16.593L55.6419 16.6148C55.7516 17.0521 56.3772 17.2202 57.6284 17.5564C58.3237 17.7433 58.6714 17.8367 58.8345 18.101L58.8429 18.1149C59.0002 18.3823 58.9107 18.7173 58.7317 19.3873L58.6849 19.5623C58.1886 21.4198 57.9404 22.3485 58.4183 22.6484C58.8962 22.9484 59.6566 22.3411 61.1774 21.1266L63.5301 19.2478C64.5172 18.4595 65.0108 18.0653 64.9144 17.6253L64.9093 17.6035C64.7996 17.1661 64.174 16.998 62.9228 16.6618C62.2275 16.475 61.8798 16.3815 61.7167 16.1173L61.7083 16.1034C61.551 15.8359 61.6405 15.5009 61.8195 14.831L61.8663 14.6558C62.3626 12.7984 62.6107 11.8697 62.1328 11.5698C61.6549 11.2698 60.8945 11.8771 59.3737 13.0916Z"
          fill="url(#paint0_linear_19526_305)"/>
    <rect x="6.81055" y="31.9087" width="37.9459" height="2.92722" rx="1.46361" fill="#8C95C2"/>
    <defs>
        <linearGradient id="paint0_linear_19526_305" x1="59.0391" y1="15.3079" x2="62.5687" y2="29.7211"
                        gradientUnits="userSpaceOnUse">
            <stop offset="0.0076178" stop-color="#00D2D3"/>
            <stop offset="0.91" stop-color="#00B3FF"/>
        </linearGradient>
    </defs>
</svg>
