<svg width="72" height="72" viewBox="0 0 72 72" fill="none" xmlns="http://www.w3.org/2000/svg">
    <path d="M38.88 7.26146H25.92C13.7012 7.26146 7.59179 7.26146 3.7959 11.211C1.06282 14.0547 0.297583 18.1463 0.0833212 24.96H64.7167C64.5024 18.1463 63.7372 14.0547 61.0041 11.211C57.2082 7.26146 51.0988 7.26146 38.88 7.26146Z"
          fill="#65FFED"/>
    <path d="M25.92 61.2H38.88C51.0988 61.2 57.2082 61.2 61.0041 57.2505C64.8 53.3009 64.8 46.9442 64.8 34.2307C64.8 32.7409 64.8 25.1147 64.7939 23.7931H0.00610836C0 25.1147 0 32.7409 0 34.2307C0 46.9442 0 53.3009 3.7959 57.2505C7.59179 61.2 13.7012 61.2 25.92 61.2Z"
          fill="#65FFED"/>
    <path d="M19.3875 2.39372C19.3875 1.07171 18.3594 0 17.0912 0C15.823 0 14.7949 1.07171 14.7949 2.39372V7.43413C10.388 7.80198 7.4949 8.70477 5.36943 10.9204C3.24395 13.136 2.3779 16.1518 2.02501 20.7456H62.775C62.4221 16.1518 61.5561 13.136 59.4306 10.9204C57.3051 8.70477 54.4121 7.80198 50.0052 7.43413V2.39372C50.0052 1.07171 48.9771 0 47.7088 0C46.4406 0 45.4125 1.07171 45.4125 2.39372V7.22235C43.3756 7.18117 41.0925 7.18117 38.5235 7.18117H26.2765C23.7076 7.18117 21.4244 7.18117 19.3875 7.22235V2.39372Z"
          fill="#65FFED"/>
    <rect y="16.5965" width="64.8" height="4.14912" fill="white"/>
    <path fill-rule="evenodd" clip-rule="evenodd"
          d="M52.1999 72C63.1351 72 71.9999 63.1352 71.9999 52.2C71.9999 41.2648 63.1351 32.4 52.1999 32.4C41.2647 32.4 32.3999 41.2648 32.3999 52.2C32.3999 63.1352 41.2647 72 52.1999 72Z"
          fill="url(#paint0_linear_19526_1552)"/>
    <path d="M50.1604 62.4413C48.852 62.4413 48 61.0655 48.583 59.8942L54.6114 47.7831H47.6014C46.7472 47.7831 46.0547 47.0906 46.0547 46.2363C46.0547 45.3821 46.7472 44.6896 47.6014 44.6896H55.8269C57.2172 44.6896 58.3443 45.8167 58.3443 47.2071C58.3443 47.5862 58.2587 47.9604 58.0939 48.3018L51.7471 61.4455C51.4531 62.0544 50.8366 62.4413 50.1604 62.4413Z"
          fill="white"/>
    <defs>
        <linearGradient id="paint0_linear_19526_1552" x1="50.1027" y1="49.1545" x2="56.0563" y2="73.5355"
                        gradientUnits="userSpaceOnUse">
            <stop offset="0.0076178" stop-color="#00D2D3"/>
            <stop offset="0.91" stop-color="#00B3FF"/>
        </linearGradient>
    </defs>
</svg>
