<svg width="64" height="64" viewBox="0 0 64 64" fill="none" xmlns="http://www.w3.org/2000/svg">
    <circle cx="32" cy="32" r="32" fill="#D5DEEF"/>
    <path d="M28.0501 24.4216L28.9155 25.9721C29.6964 27.3714 29.3829 29.2071 28.1529 30.4371C28.1529 30.4371 28.1529 30.4371 28.1529 30.4371C28.1528 30.4372 26.6611 31.9291 29.366 34.634C32.0702 37.3382 33.5621 35.8479 33.5629 35.8471C33.563 35.847 33.5629 35.847 33.563 35.847C34.7929 34.6171 36.6286 34.3036 38.0279 35.0845L39.5784 35.9499C41.6914 37.1291 41.941 40.0923 40.0837 41.9496C38.9677 43.0656 37.6005 43.934 36.0892 43.9913C33.545 44.0877 29.2244 43.4438 24.8903 39.1097C20.5562 34.7756 19.9123 30.455 20.0087 27.9108C20.066 26.3995 20.9344 25.0323 22.0504 23.9163C23.9077 22.059 26.8709 22.3086 28.0501 24.4216Z" fill="#00E5E8"/>
    <path d="M32.3461 19.8398C32.4344 19.2946 32.9498 18.9248 33.495 19.013C33.5287 19.0195 33.6373 19.0398 33.6942 19.0524C33.808 19.0778 33.9667 19.1168 34.1645 19.1744C34.5603 19.2897 35.1131 19.4796 35.7765 19.7837C37.1049 20.3927 38.8727 21.4581 40.7071 23.2925C42.5415 25.1269 43.6068 26.8946 44.2158 28.223C44.52 28.8865 44.7099 29.4393 44.8251 29.835C44.8828 30.0329 44.9218 30.1916 44.9471 30.3054C44.9598 30.3622 44.969 30.4079 44.9755 30.4417L44.9832 30.4833C45.0714 31.0284 44.705 31.5651 44.1598 31.6534C43.6161 31.7414 43.104 31.3734 43.0136 30.8307C43.0108 30.8162 43.0032 30.777 42.9949 30.7401C42.9785 30.6663 42.95 30.5492 42.9049 30.3943C42.8147 30.0845 42.658 29.6241 42.3978 29.0565C41.878 27.9228 40.9433 26.3572 39.2929 24.7067C37.6424 23.0562 36.0768 22.1216 34.943 21.6018C34.3755 21.3416 33.915 21.1849 33.6052 21.0946C33.4504 21.0495 33.2557 21.0048 33.1819 20.9884C32.6392 20.898 32.2581 20.3834 32.3461 19.8398Z" fill="#00E5E8"/>
    <path fill-rule="evenodd" clip-rule="evenodd" d="M32.6478 24.4391C32.7995 23.908 33.353 23.6005 33.8841 23.7523L33.6093 24.7138C33.8841 23.7523 33.8841 23.7523 33.8841 23.7523L33.886 23.7528L33.888 23.7534L33.8925 23.7547L33.9028 23.7578L33.9292 23.766C33.9493 23.7724 33.9744 23.7808 34.0043 23.7914C34.0642 23.8127 34.1434 23.8429 34.2404 23.8845C34.4347 23.9677 34.7001 24.0963 35.0261 24.2893C35.6787 24.6755 36.5696 25.3171 37.6163 26.3637C38.6629 27.4103 39.3045 28.3012 39.6907 28.9539C39.8837 29.2799 40.0122 29.5453 40.0955 29.7395C40.1371 29.8366 40.1673 29.9158 40.1885 29.9756C40.1992 30.0056 40.2075 30.0307 40.214 30.0508L40.2222 30.0772L40.2253 30.0875L40.2266 30.092L40.2272 30.094C40.2272 30.094 40.2277 30.0959 39.2662 30.3706L40.2277 30.0959C40.3794 30.627 40.0719 31.1804 39.5409 31.3322C39.0144 31.4826 38.4658 31.1816 38.3086 30.6588L38.3037 30.6445C38.2966 30.6244 38.2819 30.585 38.2572 30.5274C38.2078 30.4123 38.1184 30.224 37.9696 29.9725C37.6723 29.4702 37.1353 28.7112 36.2021 27.7779C35.2688 26.8446 34.5098 26.3077 34.0075 26.0104C33.756 25.8616 33.5677 25.7721 33.4526 25.7228C33.395 25.6981 33.3555 25.6834 33.3355 25.6763L33.3211 25.6714C32.7984 25.5142 32.4974 24.9656 32.6478 24.4391Z" fill="#00E5E8"/>
</svg>
