<svg width="72" height="72" viewBox="0 0 72 72" fill="none" xmlns="http://www.w3.org/2000/svg">
    <path d="M50.2101 56.8154C39.3755 55.6761 31.5156 45.9672 32.6546 35.1299C33.7936 24.2926 43.5001 16.4308 54.3348 17.5701C65.1694 18.7093 73.0293 28.4182 71.8903 39.2555C71.5604 42.3945 70.5117 45.2839 68.925 47.7772C68.5033 48.4398 68.3035 49.2268 68.426 50.0026L69.1354 54.4935C69.4433 56.4431 67.5267 57.9955 65.6843 57.2888L61.4401 55.6609C60.7069 55.3796 59.8957 55.4115 59.1601 55.6863C56.392 56.7202 53.3484 57.1454 50.2101 56.8154Z"
          fill="#AFB7DC"/>
    <path d="M26.9934 61.2C41.9015 61.2 53.9868 49.1117 53.9868 34.2C53.9868 19.2883 41.9015 7.2 26.9934 7.2C12.0854 7.2 5.72205e-05 19.2883 5.72205e-05 34.2C5.72205e-05 38.5191 1.01397 42.6014 2.81671 46.2217C3.29578 47.1837 3.45524 48.2834 3.1775 49.3217L1.56975 55.332C0.87182 57.9411 3.2582 60.328 5.86666 59.6299L11.8755 58.0218C12.9135 57.744 14.0129 57.9035 14.9747 58.3827C18.5941 60.1858 22.6754 61.2 26.9934 61.2Z"
          fill="#FF8725"/>
    <path d="M35.0915 34.2C35.0915 35.6912 36.3 36.9 37.7908 36.9C39.2816 36.9 40.4901 35.6912 40.4901 34.2C40.4901 32.7088 39.2816 31.5 37.7908 31.5C36.3 31.5 35.0915 32.7088 35.0915 34.2Z"
          fill="white"/>
    <path d="M24.2941 34.2C24.2941 35.6912 25.5026 36.9 26.9934 36.9C28.4842 36.9 29.6928 35.6912 29.6928 34.2C29.6928 32.7088 28.4842 31.5 26.9934 31.5C25.5026 31.5 24.2941 32.7088 24.2941 34.2Z"
          fill="white"/>
    <path d="M13.4967 34.2C13.4967 35.6912 14.7053 36.9 16.1961 36.9C17.6869 36.9 18.8954 35.6912 18.8954 34.2C18.8954 32.7088 17.6869 31.5 16.1961 31.5C14.7053 31.5 13.4967 32.7088 13.4967 34.2Z"
          fill="white"/>
</svg>
