<svg width="80" height="72" viewBox="0 0 80 72" fill="none" xmlns="http://www.w3.org/2000/svg">
    <g opacity="0.5" filter="url(#filter0_d_19526_1017)">
        <path d="M75.9967 25.8225L39.9983 51.0066L4 25.8225L36.9537 2.75915C37.8474 2.13476 38.9105 1.8 39.9998 1.8C41.0892 1.8 42.1523 2.13476 43.046 2.75915L49.6194 7.36584L51.3405 8.56394L68.6703 20.6947L70.4959 21.9796L75.9967 25.8225Z"
              fill="#D5DAEF"/>
    </g>
    <path d="M16.6001 22.8C16.6001 21.4745 17.6746 20.4 19.0001 20.4H61.0001C62.3256 20.4 63.4001 21.4745 63.4001 22.8V54C63.4001 55.3255 62.3256 56.4 61.0001 56.4H19.0001C17.6746 56.4 16.6001 55.3255 16.6001 54V22.8Z"
          fill="white"/>
    <rect x="20.8" y="25.8" width="28.279" height="2.4" rx="1.2" fill="#394375"/>
    <rect x="20.8" y="37.8" width="28.279" height="2.4" rx="1.2" fill="#AFB7DC"/>
    <rect x="20.8" y="31.8" width="38.4" height="2.4" rx="1.2" fill="#AFB7DC"/>
    <path d="M34.145 46.9121L4 68.4V25.8226L34.145 46.9121Z" fill="#D5DAEF"/>
    <path d="M45.855 46.9121L76 68.4V25.8226L45.855 46.9121Z" fill="#D5DAEF"/>
    <path d="M4 68.4L36.9148 44.9412C37.8156 44.2982 38.894 43.9527 39.9998 43.9527C41.1057 43.9527 42.1841 44.2982 43.0849 44.9412L75.9967 68.4H4Z"
          fill="#AFB7DC"/>
    <path d="M64 24.6C70.6274 24.6 76 19.2274 76 12.6C76 5.97258 70.6274 0.599998 64 0.599998C57.3726 0.599998 52 5.97258 52 12.6C52 19.2274 57.3726 24.6 64 24.6Z"
          fill="#00E5E8"/>
    <path d="M68.0788 9.9485L62.9514 15.0885L60.3877 12.5185" stroke="white" stroke-width="4" stroke-linecap="round"
          stroke-linejoin="round"/>
    <defs>
        <filter id="filter0_d_19526_1017" x="0.516321" y="1.8" width="78.9639" height="56.1739"
                filterUnits="userSpaceOnUse" color-interpolation-filters="sRGB">
            <feFlood flood-opacity="0" result="BackgroundImageFix"/>
            <feColorMatrix in="SourceAlpha" type="matrix" values="0 0 0 0 0 0 0 0 0 0 0 0 0 0 0 0 0 0 127 0"
                           result="hardAlpha"/>
            <feOffset dy="3.48368"/>
            <feGaussianBlur stdDeviation="1.74184"/>
            <feComposite in2="hardAlpha" operator="out"/>
            <feColorMatrix type="matrix" values="0 0 0 0 0 0 0 0 0 0 0 0 0 0 0 0 0 0 0.25 0"/>
            <feBlend mode="normal" in2="BackgroundImageFix" result="effect1_dropShadow_19526_1017"/>
            <feBlend mode="normal" in="SourceGraphic" in2="effect1_dropShadow_19526_1017" result="shape"/>
        </filter>
    </defs>
</svg>
