<svg width="42" height="42" viewBox="0 0 42 42" fill="none" xmlns="http://www.w3.org/2000/svg">
    <circle cx="21" cy="21" r="21" fill="#3593FF"/>
    <path fill-rule="evenodd" clip-rule="evenodd"
          d="M10.453 12.6989C10 13.3443 10 15.2629 10 19.1V20.9896C10 27.7553 15.0868 31.0386 18.2783 32.4327C19.144 32.8109 19.5769 33 20.8 33C22.0231 33 22.456 32.8109 23.3217 32.4327C26.5132 31.0386 31.6 27.7553 31.6 20.9896V19.1C31.6 15.2629 31.6 13.3443 31.147 12.6989C30.694 12.0534 28.89 11.4359 25.2821 10.201L24.5947 9.96566C22.714 9.32189 21.7737 9 20.8 9C19.8263 9 18.886 9.32189 17.0053 9.96566L16.3179 10.201C12.71 11.4359 10.906 12.0534 10.453 12.6989ZM24.4713 19.1994C24.8024 18.8286 24.7702 18.2597 24.3994 17.9287C24.0286 17.5976 23.4597 17.6298 23.1287 18.0006L19.5143 22.0487L18.4713 20.8806C18.1403 20.5098 17.5714 20.4776 17.2006 20.8087C16.8298 21.1397 16.7976 21.7086 17.1287 22.0794L18.8429 23.9994C19.0137 24.1907 19.2579 24.3 19.5143 24.3C19.7707 24.3 20.0149 24.1907 20.1856 23.9994L24.4713 19.1994Z"
          fill="white"/>
</svg>
