<svg width="72" height="72" viewBox="0 0 72 72" fill="none" xmlns="http://www.w3.org/2000/svg">
    <rect width="5.46184" height="3.64123" transform="matrix(0.704468 0.709736 -0.704468 0.709736 59.8577 9.30498)"
          fill="#596495"/>
    <rect width="5.46184" height="3.64123" transform="matrix(-0.704468 0.709736 0.704468 0.709736 12.9941 9.71103)"
          fill="#596495"/>
    <ellipse cx="36.7717" cy="38.3532" rx="33.3969" ry="33.6466" fill="#D5DAEF"/>
    <ellipse cx="36.7717" cy="38.3535" rx="23.74" ry="23.9175" fill="white"/>
    <rect x="34.3574" y="58.2469" width="2.41424" height="4.86457" rx="1.20712" fill="#AFB7DC"/>
    <path opacity="0.4" fill-rule="evenodd" clip-rule="evenodd"
          d="M60.5106 38.5562H35.5645V14.4664C35.9643 14.4462 36.3667 14.436 36.7715 14.436C49.8827 14.436 60.5115 25.1443 60.5115 38.3535C60.5115 38.4212 60.5112 38.4887 60.5106 38.5562Z"
          fill="#D5DAEF"/>
    <rect x="34.3574" y="12.992" width="2.41424" height="4.86458" rx="1.20712" fill="#AFB7DC"/>
    <rect x="57.0281" y="39.5692" width="2.43229" height="4.82847" rx="1.21614" transform="rotate(-90 57.0281 39.5692)"
          fill="#AFB7DC"/>
    <rect x="11.6699" y="39.5692" width="2.43229" height="4.82847" rx="1.21614" transform="rotate(-90 11.6699 39.5692)"
          fill="#AFB7DC"/>
    <path fill-rule="evenodd" clip-rule="evenodd"
          d="M51.4968 21.4563C52.0925 22.0373 52.1079 22.9948 51.5312 23.595L33.2232 42.6479C32.6465 43.2481 31.6961 43.2636 31.1004 42.6826C30.5047 42.1016 30.4893 41.144 31.066 40.5439L49.3739 21.491C49.9506 20.8908 50.9011 20.8753 51.4968 21.4563Z"
          fill="#00D2D3"/>
    <ellipse cx="35.5647" cy="38.3534" rx="2.81661" ry="2.83767" fill="#00D2D3"/>
    <rect width="13.2607" height="9.94554" rx="4.97277"
          transform="matrix(0.704468 0.709735 -0.704468 0.709735 62.658 0)" fill="#596495"/>
    <rect width="13.2607" height="9.94554" rx="4.97277"
          transform="matrix(-0.704468 0.709736 0.704468 0.709736 9.3418 1.01338)" fill="#596495"/>
    <ellipse cx="57.7993" cy="58.1351" rx="13.7617" ry="13.8646" fill="#1570EF"/>
    <path fill-rule="evenodd" clip-rule="evenodd"
          d="M50.3269 62.1705C50.3324 62.7934 50.839 63.2955 51.4619 63.2955H56.6269C57.1083 63.2955 57.4986 62.9053 57.4986 62.4239C57.4986 61.9425 57.1083 61.5522 56.6269 61.5522H53.0402L55.4888 59.1653C56.7484 57.945 57.3712 57.0331 57.3712 55.9469C57.3712 54.2707 56.0124 53.1442 54.0026 53.1442C52.5949 53.1442 51.4149 53.6877 50.7546 54.5948C50.4719 54.9832 50.6765 55.4993 51.0985 55.7287C51.6215 56.013 52.2703 55.7216 52.7511 55.3705C53.0597 55.1452 53.4399 55.0216 53.8611 55.0216C54.6679 55.0216 55.1774 55.4775 55.1774 56.2017C55.1774 56.8319 54.8094 57.3013 53.1534 58.9239L50.6692 61.3482C50.4478 61.5642 50.3242 61.8612 50.3269 62.1705ZM66.156 60.278C66.156 59.7966 65.7657 59.4063 65.2843 59.4063H64.4009V54.8681C64.4009 54.0047 63.701 53.3048 62.8376 53.3048C62.351 53.3048 61.8921 53.5314 61.5963 53.9178L57.6631 59.056C57.4891 59.2832 57.3949 59.5614 57.3949 59.8475C57.3949 60.5666 57.9779 61.1496 58.697 61.1496H62.2071V62.1983C62.2071 62.8041 62.6982 63.2952 63.304 63.2952C63.9098 63.2952 64.4009 62.8041 64.4009 62.1983V61.1496H65.2843C65.7657 61.1496 66.156 60.7593 66.156 60.278ZM62.2071 59.4063H59.5321L62.2071 55.8125V59.4063Z"
          fill="white"/>
</svg>
