<svg width="56" height="56" viewBox="0 0 56 56" fill="none" xmlns="http://www.w3.org/2000/svg">
    <path fill-rule="evenodd" clip-rule="evenodd"
          d="M5.76927 4H36.2307C36.9652 4 37.6695 4.29176 38.1889 4.81109C38.7082 5.33042 39 6.03478 39 6.76923V28.923C39 29.6575 38.7082 30.3619 38.1889 30.8812C37.6695 31.4005 36.9652 31.6923 36.2307 31.6923H13.2116L7.55888 36.5644L7.54331 36.5765C7.04787 36.9974 6.41936 37.2292 5.76927 37.2307C5.36561 37.2301 4.96694 37.1415 4.60101 36.9711C4.1208 36.7514 3.71426 36.3977 3.43025 35.9525C3.14624 35.5073 2.99686 34.9896 3.00005 34.4615V6.76923C3.00005 6.03478 3.29181 5.33042 3.81114 4.81109C4.33047 4.29176 5.03483 4 5.76927 4ZM21 28.5C20.5389 28.5 20.0905 28.3555 19.7118 28.0884C19.3334 27.8215 19.0424 27.4451 18.8716 27.0097C18.7008 26.5746 18.6565 26.0971 18.7432 25.6367C18.83 25.1763 19.0448 24.7498 19.3642 24.4126C19.684 24.0751 20.0947 23.842 20.5461 23.7472C20.9977 23.6524 21.4655 23.7013 21.8891 23.8865C22.3123 24.0715 22.6697 24.3829 22.9191 24.777C23.1684 25.1708 23.3 25.6312 23.3 26.1C23.3 26.7281 23.0639 27.3355 22.6358 27.7874C22.2068 28.2402 21.619 28.5 21 28.5ZM22.7 20.6853V21.4C22.7 21.8601 22.5271 22.3064 22.2115 22.6395C21.895 22.9736 21.4599 23.1667 21 23.1667C20.5401 23.1667 20.105 22.9736 19.7885 22.6395C19.4729 22.3064 19.3 21.8601 19.3 21.4V19.1333C19.3 18.6732 19.4729 18.2269 19.7885 17.8938C20.105 17.5597 20.5401 17.3667 21 17.3667C22.7701 17.3667 24.1 16.1076 24.1 14.7C24.1 13.2924 22.7701 12.0333 21 12.0333C19.2299 12.0333 17.9 13.2924 17.9 14.7V15.3333C17.9 15.7934 17.7271 16.2397 17.4115 16.5729C17.095 16.9069 16.6599 17.1 16.2 17.1C15.7401 17.1 15.305 16.9069 14.9885 16.5729C14.6729 16.2397 14.5 15.7934 14.5 15.3333V14.7C14.5 11.2571 17.4393 8.5 21 8.5C24.5607 8.5 27.5 11.2571 27.5 14.7C27.5 17.5742 25.4476 19.9735 22.7 20.6853Z"
          fill="#AFB7DC"/>
    <path d="M51.9996 24.6963V47.3037C51.9996 48.0188 51.7078 48.7046 51.1885 49.2103C50.6691 49.7159 49.9648 50 49.2304 50H18.7692C18.0348 50 17.3304 49.7159 16.8111 49.2103C16.2918 48.7046 16 48.0188 16 47.3037V24.6963C16 23.9812 16.2918 23.2954 16.8111 22.7897C17.3304 22.2841 18.0348 22 18.7692 22H49.2304C49.9648 22 50.6691 22.2841 51.1885 22.7897C51.7078 23.2954 51.9996 23.9812 51.9996 24.6963Z"
          fill="url(#paint0_linear_17185_10228)"/>
    <path fill-rule="evenodd" clip-rule="evenodd"
          d="M49.7034 22.04L34.0301 35.5761L19.0249 22H18.7704C18.0359 22 17.3316 22.2883 16.8123 22.8016C16.3753 23.2334 16.0995 23.7947 16.0229 24.3942L31.4877 38.3861C32.9063 39.6696 35.0591 39.6944 36.5069 38.444L52.0007 25.063V24.7368C52.0007 24.011 51.709 23.3148 51.1896 22.8016C50.7829 22.3996 50.2627 22.1356 49.7034 22.04Z"
          fill="white"/>
    <defs>
        <linearGradient id="paint0_linear_17185_10228" x1="26.1303" y1="28.1255" x2="32.1401" y2="57.8554"
                        gradientUnits="userSpaceOnUse">
            <stop offset="0.370557" stop-color="#00D2D3"/>
            <stop offset="1" stop-color="#489EFF"/>
        </linearGradient>
    </defs>
</svg>
