<svg width="36" height="34" viewBox="0 0 36 34" fill="none" xmlns="http://www.w3.org/2000/svg">
    <path fill-rule="evenodd" clip-rule="evenodd" d="M2.76927 0H33.2307C33.9652 0 34.6695 0.291757 35.1889 0.811088C35.7082 1.33042 36 2.03478 36 2.76923V24.923C36 25.6575 35.7082 26.3619 35.1889 26.8812C34.6695 27.4005 33.9652 27.6923 33.2307 27.6923H10.2116L4.55888 32.5644L4.54331 32.5765C4.04787 32.9974 3.41936 33.2292 2.76927 33.2307C2.36561 33.2301 1.96694 33.1415 1.60101 32.9711C1.1208 32.7514 0.714257 32.3977 0.430249 31.9525C0.146242 31.5073 -0.00314317 30.9896 5.0227e-05 30.4615V2.76923C5.0227e-05 2.03478 0.291807 1.33042 0.811137 0.811088C1.33047 0.291757 2.03483 0 2.76927 0ZM18 24.5C17.5389 24.5 17.0905 24.3555 16.7118 24.0884C16.3334 23.8215 16.0424 23.4451 15.8716 23.0097C15.7008 22.5746 15.6565 22.0971 15.7432 21.6367C15.83 21.1763 16.0448 20.7498 16.3642 20.4126C16.684 20.0751 17.0947 19.842 17.5461 19.7472C17.9977 19.6524 18.4655 19.7013 18.8891 19.8865C19.3123 20.0715 19.6697 20.3829 19.9191 20.777C20.1684 21.1708 20.3 21.6312 20.3 22.1C20.3 22.7281 20.0639 23.3355 19.6358 23.7874C19.2068 24.2402 18.619 24.5 18 24.5ZM19.7 16.6853V17.4C19.7 17.8601 19.5271 18.3064 19.2115 18.6395C18.895 18.9736 18.4599 19.1667 18 19.1667C17.5401 19.1667 17.105 18.9736 16.7885 18.6395C16.4729 18.3064 16.3 17.8601 16.3 17.4V15.1333C16.3 14.6732 16.4729 14.2269 16.7885 13.8938C17.105 13.5597 17.5401 13.3667 18 13.3667C19.7701 13.3667 21.1 12.1076 21.1 10.7C21.1 9.29243 19.7701 8.03333 18 8.03333C16.2299 8.03333 14.9 9.29243 14.9 10.7V11.3333C14.9 11.7934 14.7271 12.2397 14.4115 12.5729C14.095 12.9069 13.6599 13.1 13.2 13.1C12.7401 13.1 12.305 12.9069 11.9885 12.5729C11.6729 12.2397 11.5 11.7934 11.5 11.3333V10.7C11.5 7.25712 14.4393 4.5 18 4.5C21.5607 4.5 24.5 7.25712 24.5 10.7C24.5 13.5742 22.4476 15.9735 19.7 16.6853Z" fill="#AFB7DC"/>
</svg>
