<svg width="36" height="28" viewBox="0 0 36 28" fill="none" xmlns="http://www.w3.org/2000/svg">
    <path d="M35.9996 2.6963V25.3037C35.9996 26.0188 35.7078 26.7046 35.1885 27.2103C34.6691 27.7159 33.9648 28 33.2304 28H2.7692C2.03476 28 1.3304 27.7159 0.811079 27.2103C0.291754 26.7046 0 26.0188 0 25.3037V2.6963C0 1.98119 0.291754 1.29538 0.811079 0.789727C1.3304 0.284073 2.03476 0 2.7692 0H33.2304C33.9648 0 34.6691 0.284073 35.1885 0.789727C35.7078 1.29538 35.9996 1.98119 35.9996 2.6963Z"
          fill="url(#paint0_linear_17185_8344)"/>
    <path fill-rule="evenodd" clip-rule="evenodd"
          d="M33.7039 0.0400211L18.0306 13.5761L3.02539 0H2.77086C2.03642 0 1.33207 0.288341 0.812741 0.801592C0.375809 1.23341 0.0999669 1.79468 0.0234375 2.39419L15.4882 16.3861C16.9068 17.6696 19.0596 17.6944 20.5074 16.444L36.0012 3.06302V2.73681C36.0012 2.01096 35.7095 1.31484 35.1901 0.801592C34.7834 0.399627 34.2632 0.135613 33.7039 0.0400211Z"
          fill="white"/>
    <defs>
        <linearGradient id="paint0_linear_17185_8344" x1="10.1303" y1="6.12552" x2="16.1401" y2="35.8554"
                        gradientUnits="userSpaceOnUse">
            <stop offset="0.370557" stop-color="#00D2D3"/>
            <stop offset="1" stop-color="#489EFF"/>
        </linearGradient>
    </defs>
</svg>
