<svg width="37" height="34" viewBox="0 0 37 34" fill="none" xmlns="http://www.w3.org/2000/svg">
    <path d="M33.2923 0H2.8308C2.09636 0 1.39199 0.291757 0.872661 0.811087C0.35333 1.33042 0.0615736 2.03478 0.0615736 2.76923V30.4615C0.0583802 30.9896 0.207766 31.5073 0.491773 31.9525C0.775781 32.3977 1.18232 32.7514 1.66253 32.9711C2.02847 33.1415 2.42714 33.2301 2.8308 33.2307C3.48088 33.2292 4.1094 32.9974 4.60484 32.5765L4.62041 32.5644L10.2731 27.6923H33.2923C34.0267 27.6923 34.7311 27.4005 35.2504 26.8812C35.7698 26.3618 36.0615 25.6575 36.0615 24.923V2.76923C36.0615 2.03478 35.7698 1.33042 35.2504 0.811087C34.7311 0.291757 34.0267 0 33.2923 0ZM23.6 18H12.5231C12.1559 18 11.8037 17.8541 11.544 17.5944C11.2844 17.3348 11.1385 16.9826 11.1385 16.6154C11.1385 16.2481 11.2844 15.896 11.544 15.6363C11.8037 15.3766 12.1559 15.2307 12.5231 15.2307H23.6C23.9672 15.2307 24.3194 15.3766 24.5791 15.6363C24.8387 15.896 24.9846 16.2481 24.9846 16.6154C24.9846 16.9826 24.8387 17.3348 24.5791 17.5944C24.3194 17.8541 23.9672 18 23.6 18ZM23.6 12.4615H12.5231C12.1559 12.4615 11.8037 12.3156 11.544 12.056C11.2844 11.7963 11.1385 11.4441 11.1385 11.0769C11.1385 10.7097 11.2844 10.3575 11.544 10.0978C11.8037 9.83817 12.1559 9.69229 12.5231 9.69229H23.6C23.9672 9.69229 24.3194 9.83817 24.5791 10.0978C24.8387 10.3575 24.9846 10.7097 24.9846 11.0769C24.9846 11.4441 24.8387 11.7963 24.5791 12.056C24.3194 12.3156 23.9672 12.4615 23.6 12.4615Z" fill="#AFB7DC"/>
</svg>
