<svg width="56" height="56" viewBox="0 0 56 56" fill="none" xmlns="http://www.w3.org/2000/svg">
    <path d="M36.2308 4H5.76928C5.03483 4 4.33047 4.29176 3.81114 4.81109C3.29181 5.33042 3.00005 6.03478 3.00005 6.76923V34.4615C2.99686 34.9896 3.14624 35.5073 3.43025 35.9525C3.71426 36.3977 4.1208 36.7514 4.60101 36.9711C4.96694 37.1415 5.36562 37.2301 5.76928 37.2307C6.41936 37.2292 7.04788 36.9974 7.54331 36.5765L7.55889 36.5644L13.2116 31.6923H36.2308C36.9652 31.6923 37.6696 31.4005 38.1889 30.8812C38.7082 30.3618 39 29.6575 39 28.923V6.76923C39 6.03478 38.7082 5.33042 38.1889 4.81109C37.6696 4.29176 36.9652 4 36.2308 4ZM26.5385 22H15.4616C15.0943 22 14.7422 21.8541 14.4825 21.5944C14.2228 21.3348 14.077 20.9826 14.077 20.6154C14.077 20.2481 14.2228 19.896 14.4825 19.6363C14.7422 19.3766 15.0943 19.2307 15.4616 19.2307H26.5385C26.9057 19.2307 27.2579 19.3766 27.5176 19.6363C27.7772 19.896 27.9231 20.2481 27.9231 20.6154C27.9231 20.9826 27.7772 21.3348 27.5176 21.5944C27.2579 21.8541 26.9057 22 26.5385 22ZM26.5385 16.4615H15.4616C15.0943 16.4615 14.7422 16.3156 14.4825 16.056C14.2228 15.7963 14.077 15.4441 14.077 15.0769C14.077 14.7097 14.2228 14.3575 14.4825 14.0978C14.7422 13.8382 15.0943 13.6923 15.4616 13.6923H26.5385C26.9057 13.6923 27.2579 13.8382 27.5176 14.0978C27.7772 14.3575 27.9231 14.7097 27.9231 15.0769C27.9231 15.4441 27.7772 15.7963 27.5176 16.056C27.2579 16.3156 26.9057 16.4615 26.5385 16.4615Z"
          fill="#AFB7DC"/>
    <path d="M18.7692 17H49.2307C49.9652 17 50.6695 17.2918 51.1889 17.8111C51.7082 18.3304 51.9999 19.0348 51.9999 19.7692V47.4615C52.0031 47.9896 51.8538 48.5073 51.5698 48.9525C51.2857 49.3977 50.8792 49.7514 50.399 49.9711C50.0331 50.1415 49.6344 50.2301 49.2307 50.2307C48.5806 50.2292 47.9521 49.9974 47.4567 49.5765L47.4411 49.5644L41.7884 44.6923H18.7692C18.0348 44.6923 17.3304 44.4005 16.8111 43.8812C16.2918 43.3618 16 42.6575 16 41.923V19.7692C16 19.0348 16.2918 18.3304 16.8111 17.8111C17.3304 17.2918 18.0348 17 18.7692 17Z"
          fill="url(#paint0_linear_17185_10220)"/>
    <path d="M23.7139 23.6317C24.3117 23.6317 24.7964 24.1164 24.7964 24.7142V34.7067C24.7964 35.3045 24.3117 35.7892 23.7139 35.7892C23.116 35.7892 22.6313 35.3045 22.6313 34.7067V24.7142C22.6313 24.1164 23.116 23.6317 23.7139 23.6317Z"
          fill="white"/>
    <path d="M27.7743 27.2251C28.3722 27.2251 28.8568 27.7098 28.8568 28.3077V34.7067C28.8568 35.3045 28.3722 35.7892 27.7743 35.7892C27.1764 35.7892 26.6918 35.3045 26.6918 34.7067V28.3077C26.6918 27.7098 27.1764 27.2251 27.7743 27.2251ZM26.5569 24.9931C26.5569 24.6607 26.6668 24.3863 26.8865 24.1699C27.1063 23.9536 27.401 23.8454 27.7705 23.8454C28.1351 23.8454 28.4273 23.9536 28.6471 24.1699C28.8718 24.3863 28.9842 24.6607 28.9842 24.9931C28.9842 25.3255 28.8718 25.5999 28.6471 25.8163C28.4273 26.0326 28.1351 26.1408 27.7705 26.1408C27.401 26.1408 27.1063 26.0326 26.8865 25.8163C26.6668 25.5999 26.5569 25.3255 26.5569 24.9931Z"
          fill="white"/>
    <path d="M33.3854 34.5432C33.3929 34.2667 33.4319 33.9919 33.5017 33.7241L34.9896 28.0125C35.1104 27.5488 35.5291 27.2251 36.0083 27.2251C36.7213 27.2251 37.2281 27.9189 37.0112 28.5981L35.0301 34.8031C34.8425 35.3905 34.2967 35.7892 33.68 35.7892C33.5002 35.7892 33.3558 35.6408 33.3606 35.461L33.3854 34.5432ZM31.3446 27.2251C31.8253 27.2251 32.2454 27.5496 32.3669 28.0146L33.7997 33.4981C33.9096 33.9188 33.9384 34.3566 33.8847 34.7881L33.7797 35.6306C33.7684 35.7212 33.6914 35.7892 33.6001 35.7892C33.0238 35.7892 32.5136 35.4165 32.3383 34.8675L30.3381 28.6031C30.1205 27.9214 30.6291 27.2251 31.3446 27.2251Z"
          fill="white"/>
    <path d="M42.0419 35.9475C41.4127 35.9475 40.8483 35.842 40.3489 35.6309C39.8494 35.4146 39.4249 35.1164 39.0753 34.7365C38.7307 34.3566 38.466 33.916 38.2812 33.4147C38.0964 32.9081 38.004 32.3699 38.004 31.8V31.4834C38.004 30.8344 38.0914 30.2408 38.2662 29.7025C38.441 29.1643 38.6907 28.6973 39.0154 28.3016C39.345 27.9058 39.7445 27.6024 40.214 27.3914C40.6835 27.175 41.2129 27.0668 41.8022 27.0668C42.3766 27.0668 42.886 27.1671 43.3305 27.3676C43.775 27.5681 44.1471 27.8531 44.4467 28.2224C44.7514 28.5918 44.9811 29.035 45.136 29.5522C45.2908 30.064 45.3682 30.6339 45.3682 31.2618C45.3682 31.7864 44.9429 32.2116 44.4184 32.2116H39.6853C39.2657 32.2116 38.9255 31.8714 38.9255 31.4518C38.9255 31.0321 39.2657 30.6919 39.6853 30.6919H43.074C43.1701 30.6919 43.2481 30.614 43.2481 30.5178C43.2481 30.2012 43.1931 29.9189 43.0833 29.6709C42.9784 29.4176 42.8186 29.2171 42.6038 29.0693C42.3891 28.9216 42.1144 28.8477 41.7797 28.8477C41.4951 28.8477 41.2503 28.9137 41.0456 29.0456C40.8408 29.1775 40.6735 29.3622 40.5436 29.5996C40.4188 29.8371 40.3239 30.1168 40.259 30.4386C40.199 30.7552 40.1691 31.1035 40.1691 31.4834V31.8C40.1691 32.143 40.214 32.4596 40.3039 32.7498C40.3988 33.04 40.5311 33.2907 40.701 33.5018C40.8758 33.7128 41.0855 33.8764 41.3302 33.9925C41.58 34.1086 41.8621 34.1666 42.1768 34.1666C42.5664 34.1666 42.9284 34.0875 43.2631 33.9292C43.3131 33.9051 43.3622 33.8792 43.4102 33.8515C43.8513 33.5972 44.4552 33.5551 44.7898 33.9389C45.0254 34.2092 45.0569 34.61 44.8026 34.8629C44.7081 34.9568 44.6045 35.0493 44.4917 35.1402C44.202 35.3776 43.8524 35.5729 43.4429 35.7259C43.0333 35.8736 42.5664 35.9475 42.0419 35.9475Z"
          fill="white"/>
    <defs>
        <linearGradient id="paint0_linear_17185_10220" x1="41.8696" y1="24.2698" x2="33.5383" y2="58.9966"
                        gradientUnits="userSpaceOnUse">
            <stop offset="0.370557" stop-color="#00D2D3"/>
            <stop offset="1" stop-color="#489EFF"/>
        </linearGradient>
    </defs>
</svg>
