<svg width="37" height="34" viewBox="0 0 37 34" fill="none" xmlns="http://www.w3.org/2000/svg">
    <path d="M2.83075 0H33.2922C34.0267 0 34.7311 0.291757 35.2504 0.811087C35.7697 1.33042 36.0615 2.03478 36.0615 2.76923V30.4615C36.0647 30.9896 35.9153 31.5073 35.6313 31.9525C35.3473 32.3977 34.9407 32.7514 34.4605 32.9711C34.0946 33.1415 33.6959 33.2301 33.2922 33.2307C32.6422 33.2292 32.0136 32.9974 31.5182 32.5765L31.5026 32.5644L25.8499 27.6923H2.83075C2.09631 27.6923 1.39194 27.4005 0.872612 26.8812C0.353279 26.3618 0.0615234 25.6575 0.0615234 24.923V2.76923C0.0615234 2.03478 0.353279 1.33042 0.872612 0.811087C1.39194 0.291757 2.09631 0 2.83075 0Z"
          fill="url(#paint0_linear_17185_8338)"/>
    <path d="M7.77491 6.63184C8.37278 6.63184 8.85744 7.1165 8.85744 7.71436V17.7068C8.85744 18.3047 8.37278 18.7893 7.77491 18.7893C7.17705 18.7893 6.69238 18.3047 6.69238 17.7068V7.71436C6.69238 7.1165 7.17705 6.63184 7.77491 6.63184Z"
          fill="white"/>
    <path d="M11.8353 10.2253C12.4332 10.2253 12.9179 10.7099 12.9179 11.3078V17.7068C12.9179 18.3047 12.4332 18.7893 11.8353 18.7893C11.2375 18.7893 10.7528 18.3047 10.7528 17.7068V11.3078C10.7528 10.7099 11.2375 10.2253 11.8353 10.2253ZM10.618 7.99322C10.618 7.66079 10.7278 7.3864 10.9476 7.17006C11.1673 6.95371 11.462 6.84554 11.8316 6.84554C12.1962 6.84554 12.4883 6.95371 12.7081 7.17006C12.9328 7.3864 13.0452 7.66079 13.0452 7.99322C13.0452 8.32565 12.9328 8.60004 12.7081 8.81638C12.4883 9.03273 12.1962 9.1409 11.8316 9.1409C11.462 9.1409 11.1673 9.03273 10.9476 8.81638C10.7278 8.60004 10.618 8.32565 10.618 7.99322Z"
          fill="white"/>
    <path d="M17.4465 17.5434C17.454 17.2668 17.4929 16.992 17.5627 16.7243L19.0506 11.0126C19.1714 10.5489 19.5902 10.2253 20.0694 10.2253C20.7823 10.2253 21.2891 10.9191 21.0723 11.5983L19.0911 17.8032C18.9036 18.3906 18.3577 18.7893 17.7411 18.7893C17.5612 18.7893 17.4168 18.6409 17.4217 18.4612L17.4465 17.5434ZM15.4057 10.2253C15.8863 10.2253 16.3064 10.5497 16.4279 11.0147L17.8607 16.4983C17.9706 16.919 17.9995 17.3567 17.9457 17.7882L17.8408 18.6307C17.8295 18.7213 17.7525 18.7893 17.6611 18.7893C17.0848 18.7893 16.5746 18.4167 16.3993 17.8676L14.3991 11.6032C14.1815 10.9216 14.6901 10.2253 15.4057 10.2253Z"
          fill="white"/>
    <path d="M26.103 18.9476C25.4737 18.9476 24.9093 18.8421 24.4099 18.631C23.9105 18.4147 23.4859 18.1165 23.1363 17.7366C22.7917 17.3567 22.527 16.9161 22.3422 16.4148C22.1574 15.9083 22.065 15.37 22.065 14.8001V14.4835C22.065 13.8345 22.1524 13.2409 22.3272 12.7027C22.502 12.1644 22.7518 11.6975 23.0764 11.3017C23.406 10.906 23.8056 10.6025 24.275 10.3915C24.7445 10.1751 25.2739 10.067 25.8632 10.067C26.4376 10.067 26.947 10.1672 27.3915 10.3677C27.836 10.5682 28.2081 10.8532 28.5078 11.2226C28.8124 11.5919 29.0422 12.0352 29.197 12.5523C29.3518 13.0641 29.4292 13.634 29.4292 14.2619C29.4292 14.7865 29.004 15.2117 28.4794 15.2117H23.7463C23.3267 15.2117 22.9865 14.8715 22.9865 14.4519C22.9865 14.0322 23.3267 13.692 23.7463 13.692H27.135C27.2312 13.692 27.3091 13.6141 27.3091 13.5179C27.3091 13.2013 27.2542 12.919 27.1443 12.671C27.0394 12.4177 26.8796 12.2172 26.6648 12.0695C26.4501 11.9217 26.1754 11.8478 25.8408 11.8478C25.5561 11.8478 25.3114 11.9138 25.1066 12.0457C24.9018 12.1776 24.7345 12.3623 24.6047 12.5998C24.4798 12.8372 24.3849 13.1169 24.32 13.4388C24.2601 13.7554 24.2301 14.1036 24.2301 14.4835V14.8001C24.2301 15.1431 24.275 15.4597 24.3649 15.75C24.4598 16.0402 24.5922 16.2908 24.762 16.5019C24.9368 16.7129 25.1466 16.8765 25.3913 16.9926C25.641 17.1087 25.9232 17.1667 26.2378 17.1667C26.6274 17.1667 26.9895 17.0876 27.3241 16.9293C27.3742 16.9052 27.4232 16.8793 27.4712 16.8516C27.9123 16.5973 28.5162 16.5552 28.8508 16.939C29.0865 17.2094 29.1179 17.6101 28.8636 17.863C28.7691 17.957 28.6655 18.0494 28.5527 18.1403C28.263 18.3777 27.9134 18.573 27.5039 18.726C27.0944 18.8738 26.6274 18.9476 26.103 18.9476Z"
          fill="white"/>
    <defs>
        <linearGradient id="paint0_linear_17185_8338" x1="25.9311" y1="7.26984" x2="17.5998" y2="41.9966"
                        gradientUnits="userSpaceOnUse">
            <stop offset="0.370557" stop-color="#00D2D3"/>
            <stop offset="1" stop-color="#489EFF"/>
        </linearGradient>
    </defs>
</svg>
