<svg width="56" height="57" viewBox="0 0 56 57" fill="none" xmlns="http://www.w3.org/2000/svg">
    <path fill-rule="evenodd" clip-rule="evenodd"
          d="M5.70775 4.5H36.1692C36.9037 4.5 37.608 4.79176 38.1274 5.31109C38.6467 5.83042 38.9384 6.53478 38.9384 7.26922V29.423C38.9384 30.1575 38.6467 30.8618 38.1274 31.3811C37.608 31.9005 36.9037 32.1922 36.1692 32.1922H13.15L7.49736 37.0643L7.48178 37.0765C6.98635 37.4973 6.35783 37.7291 5.70775 37.7307C5.30409 37.7301 4.90542 37.6415 4.53948 37.4711C4.05928 37.2514 3.65273 36.8977 3.36873 36.4525C3.08472 36.0073 2.93533 35.4895 2.93853 34.9615V7.26922C2.93853 6.53478 3.23028 5.83042 3.74961 5.31109C4.26894 4.79176 4.97331 4.5 5.70775 4.5ZM21 29C20.5389 29 20.0905 28.8555 19.7118 28.5884C19.3334 28.3215 19.0424 27.9451 18.8716 27.5097C18.7008 27.0746 18.6565 26.5971 18.7432 26.1367C18.83 25.6763 19.0448 25.2498 19.3642 24.9126C19.684 24.5751 20.0947 24.342 20.5461 24.2472C20.9977 24.1524 21.4655 24.2013 21.8891 24.3865C22.3123 24.5715 22.6697 24.8829 22.9191 25.277C23.1684 25.6708 23.3 26.1312 23.3 26.6C23.3 27.2281 23.0639 27.8355 22.6358 28.2874C22.2068 28.7402 21.619 29 21 29ZM22.7 21.1853V21.9C22.7 22.3601 22.5271 22.8064 22.2115 23.1395C21.895 23.4736 21.4599 23.6667 21 23.6667C20.5401 23.6667 20.105 23.4736 19.7885 23.1395C19.4729 22.8064 19.3 22.3601 19.3 21.9V19.6333C19.3 19.1732 19.4729 18.7269 19.7885 18.3938C20.105 18.0597 20.5401 17.8667 21 17.8667C22.7701 17.8667 24.1 16.6076 24.1 15.2C24.1 13.7924 22.7701 12.5333 21 12.5333C19.2299 12.5333 17.9 13.7924 17.9 15.2V15.8333C17.9 16.2934 17.7271 16.7397 17.4115 17.0729C17.095 17.4069 16.6599 17.6 16.2 17.6C15.7401 17.6 15.305 17.4069 14.9885 17.0729C14.6729 16.7397 14.5 16.2934 14.5 15.8333V15.2C14.5 11.7571 17.4393 9 21 9C24.5607 9 27.5 11.7571 27.5 15.2C27.5 18.0742 25.4476 20.4735 22.7 21.1853Z"
          fill="#AFB7DC"/>
    <rect x="16" y="19.5" width="36" height="32" rx="5" fill="url(#paint0_linear_17185_10233)"/>
    <path d="M35.8244 27.7535C35.8488 27.6622 35.891 27.5765 35.9486 27.5014C36.0062 27.4264 36.0779 27.3634 36.1598 27.3161C36.2418 27.2688 36.3322 27.2381 36.426 27.2257C36.5197 27.2134 36.615 27.2196 36.7064 27.2441C38.0412 27.5924 39.259 28.2902 40.2344 29.2656C41.2098 30.241 41.9076 31.4588 42.2558 32.7936C42.2803 32.8849 42.2866 32.9802 42.2742 33.074C42.2619 33.1678 42.2312 33.2582 42.1839 33.3401C42.1366 33.422 42.0736 33.4938 41.9985 33.5514C41.9235 33.6089 41.8378 33.6511 41.7464 33.6756C41.6856 33.6916 41.623 33.6997 41.5601 33.6999C41.4016 33.6999 41.2475 33.6477 41.1217 33.5512C40.9959 33.4547 40.9054 33.3193 40.8644 33.1662C40.5805 32.0764 40.0111 31.082 39.2149 30.2857C38.4186 29.4893 37.4244 28.9196 36.3347 28.6355C36.2432 28.6112 36.1575 28.5691 36.0823 28.5115C36.0072 28.454 35.9441 28.3823 35.8967 28.3003C35.8493 28.2184 35.8185 28.128 35.8061 28.0341C35.7937 27.9403 35.7999 27.845 35.8244 27.7535ZM35.6147 31.5156C36.8558 31.8468 37.6532 32.6451 37.9844 33.8862C38.0254 34.0393 38.1158 34.1747 38.2416 34.2712C38.3674 34.3677 38.5216 34.4199 38.6801 34.4199C38.743 34.4197 38.8056 34.4116 38.8664 34.3956C38.9578 34.3712 39.0434 34.3289 39.1185 34.2714C39.1936 34.2138 39.2565 34.142 39.3039 34.0601C39.3512 33.9782 39.3819 33.8878 39.3942 33.794C39.4066 33.7002 39.4003 33.6049 39.3758 33.5136C38.915 31.7892 37.7108 30.585 35.9864 30.1242C35.8019 30.0749 35.6053 30.1009 35.44 30.1965C35.2747 30.2921 35.1541 30.4495 35.1048 30.634C35.0555 30.8185 35.0816 31.0151 35.1772 31.1804C35.2728 31.3457 35.4302 31.4663 35.6147 31.5156ZM42.1334 38.6013L37.8935 36.7014L37.8818 36.696C37.6617 36.6019 37.4216 36.5641 37.1832 36.5861C36.9448 36.6081 36.7157 36.6892 36.5165 36.822C36.493 36.8375 36.4705 36.8543 36.449 36.8724L34.2584 38.7399C32.8706 38.0658 31.4378 36.6438 30.7636 35.274L32.6339 33.0501C32.6519 33.0276 32.669 33.0051 32.6852 32.9808C32.8151 32.7822 32.894 32.5545 32.9147 32.318C32.9355 32.0815 32.8974 31.8436 32.804 31.6254V31.6146L30.8987 27.3674C30.7751 27.0824 30.5627 26.8449 30.2931 26.6905C30.0235 26.5361 29.7112 26.473 29.4028 26.5106C28.1833 26.6711 27.0639 27.27 26.2537 28.1955C25.4434 29.121 24.9978 30.3098 25 31.5399C25 38.6859 30.814 44.5 37.9601 44.5C39.1901 44.5022 40.3789 44.0566 41.3044 43.2463C42.2299 42.4361 42.8289 41.3167 42.9893 40.0971C43.0271 39.7889 42.9641 39.4766 42.8098 39.2071C42.6556 38.9375 42.4183 38.725 42.1334 38.6013Z"
          fill="white"/>
    <defs>
        <linearGradient id="paint0_linear_17185_10233" x1="26.1304" y1="26.5006" x2="33.8867" y2="60.0741"
                        gradientUnits="userSpaceOnUse">
            <stop offset="0.370557" stop-color="#00D2D3"/>
            <stop offset="1" stop-color="#489EFF"/>
        </linearGradient>
    </defs>
</svg>
