<svg width="37" height="32" viewBox="0 0 37 32" fill="none" xmlns="http://www.w3.org/2000/svg">
    <rect x="0.0615234" width="36" height="32" rx="5" fill="url(#paint0_linear_17185_8354)"/>
    <path d="M19.8859 8.25353C19.9103 8.16215 19.9526 8.07649 20.0101 8.00143C20.0677 7.92637 20.1395 7.86339 20.2214 7.81608C20.3033 7.76878 20.3937 7.73807 20.4875 7.72572C20.5813 7.71338 20.6766 7.71963 20.7679 7.74413C22.1027 8.09238 23.3205 8.79016 24.2959 9.76558C25.2713 10.741 25.9691 11.9588 26.3174 13.2936C26.3418 13.3849 26.3481 13.4802 26.3358 13.574C26.3234 13.6678 26.2927 13.7582 26.2454 13.8401C26.1981 13.922 26.1351 13.9938 26.0601 14.0514C25.985 14.1089 25.8993 14.1511 25.808 14.1756C25.7471 14.1916 25.6845 14.1997 25.6216 14.1999C25.4631 14.1999 25.309 14.1477 25.1832 14.0512C25.0574 13.9547 24.967 13.8193 24.9259 13.6662C24.6421 12.5764 24.0726 11.582 23.2764 10.7857C22.4802 9.98926 21.4859 9.41965 20.3962 9.13554C20.3048 9.11119 20.219 9.06906 20.1438 9.01154C20.0687 8.95402 20.0056 8.88225 19.9582 8.80033C19.9108 8.71841 19.88 8.62795 19.8676 8.53413C19.8552 8.4403 19.8614 8.34495 19.8859 8.25353ZM19.6762 12.0156C20.9173 12.3468 21.7147 13.1451 22.0459 14.3862C22.0869 14.5393 22.1774 14.6747 22.3032 14.7712C22.429 14.8677 22.5831 14.9199 22.7416 14.9199C22.8045 14.9197 22.8671 14.9116 22.9279 14.8956C23.0193 14.8712 23.105 14.8289 23.18 14.7714C23.2551 14.7138 23.3181 14.642 23.3654 14.5601C23.4127 14.4782 23.4434 14.3878 23.4557 14.294C23.4681 14.2002 23.4618 14.1049 23.4373 14.0136C22.9765 12.2892 21.7723 11.085 20.0479 10.6242C19.8634 10.5749 19.6669 10.6009 19.5015 10.6965C19.3362 10.7921 19.2156 10.9495 19.1664 11.134C19.1171 11.3185 19.1431 11.5151 19.2387 11.6804C19.3343 11.8457 19.4917 11.9663 19.6762 12.0156ZM26.195 19.1013L21.955 17.2014L21.9433 17.196C21.7232 17.1019 21.4831 17.0641 21.2447 17.0861C21.0063 17.1081 20.7772 17.1892 20.578 17.322C20.5546 17.3375 20.532 17.3543 20.5105 17.3724L18.3199 19.2399C16.9321 18.5658 15.4993 17.1438 14.8252 15.774L16.6954 13.5501C16.7134 13.5276 16.7305 13.5051 16.7467 13.4808C16.8767 13.2822 16.9555 13.0545 16.9763 12.818C16.997 12.5815 16.9589 12.3436 16.8655 12.1254V12.1146L14.9602 7.86743C14.8366 7.58236 14.6242 7.34489 14.3546 7.19047C14.0851 7.03605 13.7728 6.97296 13.4644 7.01062C12.2448 7.1711 11.1254 7.77002 10.3152 8.69552C9.50495 9.62102 9.05933 10.8098 9.06153 12.0399C9.06153 19.1859 14.8756 25 22.0216 25C23.2517 25.0022 24.4405 24.5566 25.366 23.7463C26.2915 22.9361 26.8904 21.8167 27.0509 20.5971C27.0886 20.2889 27.0256 19.9766 26.8714 19.7071C26.7171 19.4375 26.4798 19.225 26.195 19.1013Z" fill="white"/>
    <defs>
        <linearGradient id="paint0_linear_17185_8354" x1="10.1919" y1="7.00059" x2="17.9482" y2="40.5741" gradientUnits="userSpaceOnUse">
            <stop offset="0.370557" stop-color="#00D2D3"/>
            <stop offset="1" stop-color="#489EFF"/>
        </linearGradient>
    </defs>
</svg>
